<svg width="18" height="19" viewBox="0 0 18 19" fill="none" xmlns="http://www.w3.org/2000/svg">
<g id="AI Icons">
<path id="Vector" fill-rule="evenodd" clip-rule="evenodd" d="M8.86613 3.81042C8.82111 3.28542 9.21132 2.79042 9.80415 2.75292C10.2469 2.72292 10.5996 2.92542 10.8247 3.31542C10.9352 3.50716 11.0468 3.6989 11.1586 3.89108L11.1587 3.89123L11.1588 3.89136L11.1588 3.89148L11.1589 3.89158C11.3357 4.19536 11.5131 4.50023 11.6877 4.80792C11.7527 4.92042 11.8203 5.03125 11.8878 5.14208C12.0229 5.36375 12.158 5.58542 12.273 5.82042C12.6032 6.48792 12.2055 7.22292 11.4626 7.32042C11.0423 7.38042 10.6296 7.15542 10.3895 6.75042C10.2356 6.48792 10.0837 6.22355 9.93173 5.95918L9.93166 5.95905C9.77972 5.69472 9.62778 5.43038 9.47397 5.16792C9.4027 5.0442 9.32956 4.92237 9.25642 4.80053L9.2564 4.80051L9.25638 4.80047L9.25634 4.80041L9.25634 4.8004C9.18318 4.67853 9.11001 4.55666 9.03873 4.43292C8.92617 4.23792 8.82861 4.03542 8.85863 3.81792L8.86613 3.81042ZM11.0724 9.45792C11.1174 10.5004 10.2169 11.4379 9.13629 11.4829C8.07069 11.5279 7.09515 10.6204 7.07264 9.53292C7.05763 8.48292 7.88309 7.53792 9.03873 7.50042C10.1043 7.46292 11.0348 8.35542 11.0724 9.45792ZM7.17019 15.6829C7.38031 16.0429 7.68048 16.2529 8.0782 16.2454L8.0857 16.2529C8.55096 16.2679 8.91866 16.0279 9.08375 15.6304C9.24134 15.2704 9.1663 14.9329 8.9862 14.6104C8.72463 14.1498 8.45272 13.6892 8.18334 13.2329L8.01816 12.9529C7.97411 12.8774 7.93064 12.802 7.88726 12.7266L7.88725 12.7266L7.88724 12.7266L7.88723 12.7266L7.88722 12.7266L7.88719 12.7265C7.77544 12.5325 7.66431 12.3395 7.5454 12.1504C7.30527 11.7829 6.86252 11.6179 6.42728 11.7154C5.99954 11.8129 5.69937 12.1429 5.63184 12.5854C5.58681 12.8704 5.66936 13.1179 5.81194 13.3579C5.93294 13.5655 6.05394 13.7737 6.17508 13.9821C6.50473 14.5491 6.83545 15.118 7.17019 15.6829ZM13.2786 10.9279C12.5057 10.9729 11.9954 10.1029 12.3406 9.47292C12.5854 9.01618 12.842 8.56732 13.0991 8.11778L13.0991 8.11772C13.1966 7.94721 13.2942 7.7766 13.3911 7.60542C13.5187 7.37292 13.6463 7.14042 13.7814 6.91542C14.029 6.48792 14.4492 6.29292 14.907 6.39042C15.3647 6.48792 15.7099 6.84042 15.7475 7.32042C15.7625 7.51542 15.7099 7.74042 15.6199 7.90542C15.1471 8.76042 14.6594 9.60791 14.1641 10.4554C13.969 10.7854 13.6613 10.9429 13.2786 10.9354V10.9279ZM2.39004 11.0629C1.99232 11.7829 2.4876 12.6379 3.29805 12.6379L3.29054 12.6304C3.68826 12.6304 4.01094 12.4429 4.22106 12.0754C4.67881 11.2804 5.13657 10.4854 5.58682 9.68292C5.67687 9.52542 5.74441 9.34542 5.75941 9.16542C5.80444 8.69292 5.51928 8.27292 5.09154 8.12292C4.61878 7.95792 4.13851 8.10792 3.86086 8.52042C3.74025 8.7041 3.62844 8.90095 3.51869 9.09418L3.51868 9.09419L3.51867 9.0942L3.51866 9.09422C3.48502 9.15345 3.45157 9.21235 3.41811 9.27042C3.32567 9.4311 3.23323 9.59124 3.14093 9.75113L3.14087 9.75124L3.14086 9.75126C2.88853 10.1884 2.63727 10.6236 2.39004 11.0629ZM12.1079 12.0904C12.2753 12.0904 12.4434 12.0888 12.6118 12.0871H12.6119C12.9495 12.0838 13.2883 12.0804 13.6238 12.0904C14.1641 12.1129 14.5468 12.5479 14.5693 13.1029C14.5843 13.6354 14.2316 14.0554 13.6988 14.1304C13.6775 14.1328 13.6554 14.1359 13.633 14.1391C13.5846 14.1459 13.5349 14.1529 13.4887 14.1529H10.6221C10.3445 14.1529 10.0893 14.0704 9.89421 13.8604C9.59404 13.5379 9.519 13.1554 9.67659 12.7504C9.83417 12.3454 10.1493 12.1054 10.5921 12.0904C10.9275 12.0804 11.2663 12.0838 11.604 12.0871H11.604C11.7725 12.0888 11.9406 12.0904 12.1079 12.0904ZM3.47064 6.13542C3.5757 6.58542 3.94341 6.90792 4.40866 6.91542V6.92292C4.62216 6.92615 5.10337 6.92381 5.61909 6.9213C6.29977 6.91799 7.04057 6.91438 7.30527 6.92292C7.72551 6.93792 8.02567 6.75792 8.2508 6.42042C8.65602 5.82042 8.28081 4.96542 7.56041 4.86792C7.33529 4.83792 5.22662 4.83792 4.40866 4.86792C3.73329 4.89042 3.32056 5.47542 3.47064 6.13542Z" fill="#8652DB"/>
</g>
</svg>
