<svg width="16" height="16" viewBox="0 0 16 16" fill="none" xmlns="http://www.w3.org/2000/svg">
<g id="Library">
<path id="Combined Shape" fill-rule="evenodd" clip-rule="evenodd" d="M3.66663 2C3.11434 2 2.66663 2.44772 2.66663 3V13C2.66663 13.5523 3.11434 14 3.66663 14C4.21891 14 4.66663 13.5523 4.66663 13V3C4.66663 2.44772 4.21891 2 3.66663 2ZM6.99996 2C6.44767 2 5.99996 2.44772 5.99996 3V13C5.99996 13.5523 6.44767 14 6.99996 14C7.55224 14 7.99996 13.5523 7.99996 13V3C7.99996 2.44772 7.55224 2 6.99996 2Z" fill="#8652DB"/>
<rect id="Rectangle Copy 2" opacity="0.3" x="8.98474" y="2.61621" width="2" height="12" rx="1" transform="rotate(-19 8.98474 2.61621)" fill="#8652DB"/>
</g>
</svg>
