<svg width="18" height="18" viewBox="0 0 18 18" fill="none" xmlns="http://www.w3.org/2000/svg">
<g id="telegram2-fill">
<path id="Vector" d="M3.02276 6.45213C4.02026 6.10563 14.6125 2.48914 15.1525 2.30239C15.3625 2.22964 15.5733 2.18839 15.7668 2.19889C15.9438 2.20864 16.1065 2.26189 16.2423 2.37364C16.441 2.53714 16.504 2.73888 16.5093 2.95488C16.5145 3.15288 16.4718 3.36363 16.4403 3.56913C16.3158 4.38813 15.1278 13.6079 15.0303 14.2206C14.9155 14.9451 14.4288 15.7101 13.5318 15.6959C13.0758 15.6884 12.727 15.5834 12.1728 15.0344C11.332 14.2011 9.52227 12.2804 8.70252 11.3639C8.29527 10.9079 8.32903 10.2756 8.64553 9.91263C8.85103 9.67713 10.4553 8.10889 11.1978 7.3214C11.3605 7.1489 11.2638 6.88714 11.1745 6.79639C11.0883 6.70864 10.8453 6.65013 10.6998 6.76638C9.66628 7.59213 7.57977 9.15062 7.30302 9.33587C6.96852 9.56012 6.45101 9.65088 6.01901 9.56613C5.58701 9.48138 2.38225 8.92938 2.38225 8.92938C2.056 8.86938 1.51526 8.51238 1.51076 7.80063C1.50701 7.05588 2.1895 6.74163 3.02276 6.45213Z" fill="#8652DB"/>
</g>
</svg>
