<svg width="14" height="14" viewBox="0 0 14 14" fill="none" xmlns="http://www.w3.org/2000/svg">
<g id="card-text">
<path id="Vector" d="M3.49935 2.34961C2.21071 2.34961 1.16602 3.39436 1.16602 4.68294V9.34961C1.16602 10.6382 2.21071 11.6829 3.49935 11.6829H10.4994C11.788 11.6829 12.8327 10.6382 12.8327 9.34961V4.68294C12.8327 3.39436 11.788 2.34961 10.4994 2.34961H3.49935ZM3.49935 3.51628H10.4994C11.1437 3.51628 11.666 4.03836 11.666 4.68294V9.34961C11.666 9.99419 11.1437 10.5163 10.4994 10.5163H3.49935C2.855 10.5163 2.33268 9.99419 2.33268 9.34961V4.68294C2.33268 4.03836 2.855 3.51628 3.49935 3.51628ZM4.08268 5.26628C3.76051 5.26628 3.49935 5.52761 3.49935 5.84961C3.49935 6.17161 3.76051 6.43294 4.08268 6.43294H9.91602C10.2382 6.43294 10.4994 6.17161 10.4994 5.84961C10.4994 5.52761 10.2382 5.26628 9.91602 5.26628H4.08268ZM4.08268 7.59961C3.76051 7.59961 3.49935 7.86094 3.49935 8.18294C3.49935 8.50494 3.76051 8.76628 4.08268 8.76628H7.58268C7.90486 8.76628 8.16602 8.50494 8.16602 8.18294C8.16602 7.86094 7.90486 7.59961 7.58268 7.59961H4.08268Z" fill="#57545E"/>
</g>
</svg>
