<svg width="17" height="17" viewBox="0 0 17 17" fill="none" xmlns="http://www.w3.org/2000/svg">
<g id="hand-index-thumb">
<path id="Vector" d="M15.5742 9.91569C15.5742 8.74198 14.6229 7.79069 13.4492 7.79069L12.6098 7.79848C12.7055 7.55694 12.7409 7.3579 12.7409 7.08235C12.7409 6.14877 12.148 5.36833 11.3108 5.08308C11.3136 5.03761 11.3242 5.05001 11.3242 4.95736C11.3242 3.39258 10.0556 2.12402 8.49089 2.12402L7.78256 2.12402C3.7054 2.12402 1.40757 4.65121 1.40757 7.79069C1.40757 9.9511 2.0656 11.5526 3.3576 12.8645C4.31598 13.837 5.27791 14.4186 7.47232 15.5158C7.57078 15.5654 7.67277 15.5824 7.78256 15.5824C9.01719 15.5824 9.90756 14.6091 9.90756 13.4574C9.90756 12.9289 9.76588 12.4643 9.51868 12.0393L13.4492 12.0407C14.6229 12.0407 15.5742 11.0894 15.5742 9.91569ZM14.1576 9.91569C14.1576 10.3067 13.8402 10.624 13.4492 10.624L7.78256 10.624C7.41777 10.6346 7.07777 10.9137 7.07423 11.3324C7.07069 11.751 7.43761 11.9564 7.47232 11.9741C7.58707 12.0315 7.78965 12.1753 7.99436 12.38C8.31453 12.6994 8.49089 13.0465 8.49089 13.4574C8.49089 13.8108 8.25998 14.1012 7.91077 14.1593C4.12402 12.3389 2.8384 10.7954 2.82423 7.79069C2.81361 5.50475 4.51927 3.54069 7.78256 3.54069L8.49089 3.54069C9.2736 3.54069 9.90756 4.17493 9.90756 4.95736L8.49089 4.95736C8.09989 4.95736 7.78256 5.27448 7.78256 5.66569C7.78256 6.0569 8.09989 6.37402 8.49089 6.37402L10.6159 6.37402C11.0069 6.37402 11.3242 6.69114 11.3242 7.08235C11.3242 7.47335 11.0069 7.79069 10.6159 7.79069L9.19923 7.79069C8.80823 7.79069 8.49089 8.10802 8.49089 8.49902C8.49089 8.89002 8.80823 9.20735 9.19923 9.20735L10.6159 9.20735L13.4492 9.20735C13.8402 9.20735 14.1576 9.52469 14.1576 9.91569Z" fill="#4B454D"/>
</g>
</svg>
