<svg width="24" height="24" viewBox="0 0 24 24" fill="none" xmlns="http://www.w3.org/2000/svg">
<g id="briefcase">
<path id="Vector" d="M10.998 2.99023C8.78895 2.99023 6.99805 4.78123 6.99805 6.99023H5.99805C3.78895 6.99023 1.99805 8.78123 1.99805 10.9902V16.9902C1.99805 19.1992 3.78895 20.9902 5.99805 20.9902H17.9981C20.2072 20.9902 21.9981 19.1992 21.9981 16.9902V10.9902C21.9981 8.78123 20.2072 6.99023 17.9981 6.99023H16.9981C16.9981 4.78123 15.2072 2.99023 12.9981 2.99023H10.998ZM10.998 4.99023H12.9981C14.1027 4.99023 14.9981 5.88523 14.9981 6.99023H8.99805C8.99805 5.88523 9.89345 4.99023 10.998 4.99023ZM5.99805 8.99023H17.9981C19.1027 8.99023 19.9981 9.88523 19.9981 10.9902V11.2712L14.6543 13.0522C13.2193 13.5312 10.7768 13.5312 9.34185 13.0522L3.99805 11.2712V10.9902C3.99805 9.88523 4.89345 8.99023 5.99805 8.99023ZM3.99805 13.3652L8.71685 14.9592C10.5623 15.5742 13.4338 15.5742 15.2793 14.9592L19.9981 13.3652V16.9902C19.9981 18.0952 19.1027 18.9902 17.9981 18.9902H5.99805C4.89345 18.9902 3.99805 18.0952 3.99805 16.9902V13.3652Z" fill="#8F5BEA"/>
</g>
</svg>
