<svg width="24" height="24" viewBox="0 0 24 24" fill="none" xmlns="http://www.w3.org/2000/svg">
<g id="emoji-sunglasses">
<path id="Vector" d="M12.0137 1.99805C6.49067 1.99805 2.01367 6.47505 2.01367 11.998C2.01367 16.243 4.68067 19.9831 8.60767 21.4041C9.68967 21.7961 10.8397 21.998 12.0137 21.998C17.5367 21.998 22.0137 17.521 22.0137 11.998C22.0137 6.47505 17.5367 1.99805 12.0137 1.99805ZM12.0137 3.99805C14.6137 3.99805 16.8827 5.26205 18.3017 7.05205C18.1107 7.00405 17.9767 6.99805 17.7637 6.99805H14.8887C14.0947 6.99805 13.3327 7.39104 12.8587 7.99304L11.1657 8.00105C10.6757 7.34905 9.93267 6.99805 9.13867 6.99805C8.77767 6.99805 6.62467 6.99805 6.26367 6.99805C6.05067 6.99805 5.91067 7.01804 5.71967 7.06604C7.14667 5.23304 9.41367 3.99805 12.0137 3.99805ZM11.5757 9.99805H12.4517L12.9197 11.123C13.3487 12.184 14.5567 12.998 15.7017 12.998H17.3887C18.3727 12.998 19.3067 12.265 19.5447 11.31L19.8177 10.2531C19.9417 10.7611 20.0137 11.501 20.0137 11.998C20.0137 16.416 16.4317 19.998 12.0137 19.998C11.0727 19.998 10.1597 19.8421 9.29468 19.5291C6.15368 18.3921 4.01367 15.394 4.01367 11.998C4.01367 11.501 4.05967 10.7411 4.20467 10.2551L4.48267 11.31C4.72067 12.265 5.65467 12.998 6.63867 12.998H8.32567C9.47067 12.998 10.6787 12.184 11.1077 11.123L11.5757 9.99805ZM9.01367 14.842C8.75767 14.842 8.48968 14.928 8.29468 15.123C7.90468 15.514 7.90468 16.1391 8.29468 16.5291C9.22568 17.4591 10.4837 17.998 11.8257 17.998C13.1637 17.998 14.4277 17.4541 15.3577 16.5291C15.7487 16.1401 15.7467 15.515 15.3577 15.123C14.9677 14.731 14.3427 14.734 13.9517 15.123C13.3917 15.679 12.6307 15.998 11.8257 15.998C11.0197 15.998 10.2917 15.682 9.73267 15.123C9.53667 14.928 9.26967 14.842 9.01367 14.842Z" fill="#E68A1D"/>
</g>
</svg>
