<svg width="24" height="24" viewBox="0 0 24 24" fill="none" xmlns="http://www.w3.org/2000/svg">
<g id="people">
<path id="Vector" d="M15.498 2.92969C13.0127 2.92969 10.998 4.94469 10.998 7.42969C10.998 9.91469 13.0127 11.9297 15.498 11.9297C17.9833 11.9297 19.998 9.91469 19.998 7.42969C19.998 4.94469 17.9833 2.92969 15.498 2.92969ZM7.99805 3.92969C5.78895 3.92969 3.99805 5.72069 3.99805 7.92969C3.99805 10.1387 5.78895 11.9297 7.99805 11.9297C8.82745 11.9297 9.61305 11.6767 10.2792 11.2107C10.7319 10.8947 10.8456 10.2577 10.5292 9.80469C10.2128 9.35169 9.60695 9.26969 9.15425 9.58569C8.82135 9.81869 8.41425 9.92969 7.99805 9.92969C6.89345 9.92969 5.99805 9.03469 5.99805 7.92969C5.99805 6.82469 6.89345 5.92969 7.99805 5.92969C8.32425 5.92969 8.62265 6.00168 8.90425 6.14868C9.39425 6.40368 10.0244 6.2317 10.2792 5.7417C10.5341 5.2527 10.3317 4.62168 9.84185 4.36768C9.27675 4.07368 8.64745 3.92969 7.99805 3.92969ZM15.498 4.92969C16.8787 4.92969 17.998 6.04869 17.998 7.42969C17.998 8.81069 16.8787 9.92969 15.498 9.92969C14.1173 9.92969 12.998 8.81069 12.998 7.42969C12.998 6.04869 14.1173 4.92969 15.498 4.92969ZM5.06055 13.2737C3.22645 14.0307 1.99805 15.8857 1.99805 17.9297V19.9297C1.99805 20.4817 2.44575 20.9297 2.99805 20.9297H6.99805C7.55035 20.9297 7.99805 20.4817 7.99805 19.9297C7.99805 19.3777 7.55035 18.9297 6.99805 18.9297H3.99805V17.9297C3.99805 16.8057 4.66475 15.7737 5.43105 15.3197C6.15175 15.6237 6.91415 15.8537 7.59215 15.9107C8.14255 15.9577 8.63885 15.5427 8.68555 14.9917C8.73225 14.4417 8.33455 13.9757 7.78425 13.9287C7.34525 13.8917 6.86545 13.7597 6.31055 13.5237C6.17655 13.4667 6.09875 13.4217 5.84185 13.3047C5.58995 13.1897 5.31635 13.1677 5.06055 13.2737ZM12.0605 13.2737C10.2264 14.0307 8.99805 15.8857 8.99805 17.9297V19.9297C8.99805 20.4817 9.44575 20.9297 9.99805 20.9297H20.998C21.5503 20.9297 21.998 20.4817 21.998 19.9297V17.9297C21.998 15.9337 20.7628 14.1237 18.9355 13.3357C18.6783 13.2247 18.3786 13.2217 18.123 13.3357C17.2382 13.7327 16.3762 13.9297 15.498 13.9297C14.6228 13.9297 13.7578 13.7217 12.8418 13.3047C12.5899 13.1897 12.3163 13.1677 12.0605 13.2737ZM12.445 15.3197C13.3898 15.6777 14.5289 15.9297 15.498 15.9297C16.4595 15.9297 17.5515 15.6947 18.4772 15.3527C19.3798 15.8667 19.998 16.8287 19.998 17.9297V18.9297H10.998V17.9297C10.998 16.7647 11.6539 15.7827 12.445 15.3197Z" fill="#C23535"/>
</g>
</svg>
