<svg width="24" height="24" viewBox="0 0 24 24" fill="none" xmlns="http://www.w3.org/2000/svg">
<g id="pen-underline">
<path id="Vector" d="M17.0119 1.95312C16.64 1.95312 16.4217 2.1421 16.2748 2.2901L14.552 4.00311L13.698 3.25214C13.2272 2.78114 12.6066 2.54614 11.9894 2.54614C11.3723 2.54614 10.7217 2.8191 10.2508 3.2901L5.29315 8.2431C4.90315 8.6331 4.91985 9.27315 5.30995 9.66315C5.69995 10.0541 6.35165 10.0371 6.74175 9.64612L11.6845 4.69611C11.846 4.53411 12.0979 4.46214 12.294 4.66614L13.1251 5.4201L7.25445 11.2901C6.26245 12.2831 5.35025 13.6211 4.47655 15.1961C3.80785 16.4011 3.18915 17.6921 2.66625 18.9771C2.48345 19.4261 1.99805 20.7261 1.99805 20.9651C1.99805 21.2031 2.07655 21.4261 2.22935 21.6021C2.24445 21.6191 2.53925 21.9441 2.99945 21.9531L16.9615 21.9451C17.5131 21.9451 17.9602 21.4981 17.9602 20.9451C17.9602 20.3931 17.5131 19.9451 16.9615 19.9451L7.91495 19.9471C8.22205 19.7911 8.53405 19.6261 8.83205 19.4601C10.4046 18.5861 11.6896 17.6831 12.6801 16.6911L19.1775 10.2271L21.6745 7.69611C21.8163 7.55211 21.9964 7.40112 21.9969 6.94812C21.9993 4.97112 21.1924 3.76214 20.7003 3.25714C20.2083 2.75314 19.0096 1.95513 17.0119 1.95312ZM17.3784 3.99414C17.7971 3.98114 18.8283 4.22309 19.2754 4.64709C19.7225 5.07209 19.9798 6.1751 19.9655 6.5921L18.7125 7.84412L16.0272 5.36511L17.3784 3.99414ZM14.601 6.7901L17.3104 9.24414L11.2496 15.2891C10.4085 16.1311 9.25285 16.9371 7.82905 17.7291C6.87005 18.2621 5.79225 18.7631 4.76085 19.2031C5.19975 18.1701 5.69185 17.1241 6.22445 16.1641C7.01545 14.7391 7.85765 13.5511 8.69815 12.7091L14.601 6.7901Z" fill="#DA77B2"/>
</g>
</svg>
