<svg width="60" height="60" viewBox="0 0 60 60" fill="none" xmlns="http://www.w3.org/2000/svg">
<circle cx="30" cy="30" r="29" fill="#8551F3" stroke="#8551F3" stroke-width="2"/>
<path d="M11.696 29.032C11.696 25.3413 12.3573 22.4507 13.68 20.36C15.024 18.2693 17.2427 17.224 20.336 17.224C23.4293 17.224 25.6373 18.2693 26.96 20.36C28.304 22.4507 28.976 25.3413 28.976 29.032C28.976 32.744 28.304 35.656 26.96 37.768C25.6373 39.88 23.4293 40.936 20.336 40.936C17.2427 40.936 15.024 39.88 13.68 37.768C12.3573 35.656 11.696 32.744 11.696 29.032ZM24.56 29.032C24.56 27.4533 24.4533 26.1307 24.24 25.064C24.048 23.976 23.6427 23.0907 23.024 22.408C22.4267 21.7253 21.5307 21.384 20.336 21.384C19.1413 21.384 18.2347 21.7253 17.616 22.408C17.0187 23.0907 16.6133 23.976 16.4 25.064C16.208 26.1307 16.112 27.4533 16.112 29.032C16.112 30.6533 16.208 32.0187 16.4 33.128C16.592 34.216 16.9973 35.1013 17.616 35.784C18.2347 36.4453 19.1413 36.776 20.336 36.776C21.5307 36.776 22.4373 36.4453 23.056 35.784C23.6747 35.1013 24.08 34.216 24.272 33.128C24.464 32.0187 24.56 30.6533 24.56 29.032ZM33.7915 35.944C35.8395 34.2373 37.4715 32.8187 38.6875 31.688C39.9035 30.536 40.9168 29.3413 41.7275 28.104C42.5382 26.8667 42.9435 25.6507 42.9435 24.456C42.9435 23.368 42.6875 22.5147 42.1755 21.896C41.6635 21.2773 40.8742 20.968 39.8075 20.968C38.7408 20.968 37.9195 21.3307 37.3435 22.056C36.7675 22.76 36.4688 23.7307 36.4475 24.968H32.0955C32.1808 22.408 32.9382 20.4667 34.3675 19.144C35.8182 17.8213 37.6528 17.16 39.8715 17.16C42.3035 17.16 44.1702 17.8107 45.4715 19.112C46.7728 20.392 47.4235 22.088 47.4235 24.2C47.4235 25.864 46.9755 27.4533 46.0795 28.968C45.1835 30.4827 44.1595 31.8053 43.0075 32.936C41.8555 34.0453 40.3515 35.3893 38.4955 36.968H47.9355V40.68H32.1275V37.352L33.7915 35.944Z" fill="#F6F4FF"/>
</svg>
