<svg width="60" height="60" viewBox="0 0 60 60" fill="none" xmlns="http://www.w3.org/2000/svg">
<circle cx="30" cy="30" r="30" fill="#8551F3"/>
<path d="M14.696 29.032C14.696 25.3413 15.3573 22.4507 16.68 20.36C18.024 18.2693 20.2427 17.224 23.336 17.224C26.4293 17.224 28.6373 18.2693 29.96 20.36C31.304 22.4507 31.976 25.3413 31.976 29.032C31.976 32.744 31.304 35.656 29.96 37.768C28.6373 39.88 26.4293 40.936 23.336 40.936C20.2427 40.936 18.024 39.88 16.68 37.768C15.3573 35.656 14.696 32.744 14.696 29.032ZM27.56 29.032C27.56 27.4533 27.4533 26.1307 27.24 25.064C27.048 23.976 26.6427 23.0907 26.024 22.408C25.4267 21.7253 24.5307 21.384 23.336 21.384C22.1413 21.384 21.2347 21.7253 20.616 22.408C20.0187 23.0907 19.6133 23.976 19.4 25.064C19.208 26.1307 19.112 27.4533 19.112 29.032C19.112 30.6533 19.208 32.0187 19.4 33.128C19.592 34.216 19.9973 35.1013 20.616 35.784C21.2347 36.4453 22.1413 36.776 23.336 36.776C24.5307 36.776 25.4373 36.4453 26.056 35.784C26.6747 35.1013 27.08 34.216 27.272 33.128C27.464 32.0187 27.56 30.6533 27.56 29.032ZM34.8395 21.8V17.672H42.5515V41H37.9435V21.8H34.8395Z" fill="#F6F4FF"/>
</svg>
