<svg width="60" height="60" viewBox="0 0 60 60" fill="none" xmlns="http://www.w3.org/2000/svg">
<circle cx="30" cy="30" r="29" stroke="#8551F3" stroke-width="2"/>
<path d="M11.92 29.032C11.92 25.3413 12.5387 22.4613 13.776 20.392C15.0347 18.3013 17.1893 17.256 20.24 17.256C23.2907 17.256 25.4347 18.3013 26.672 20.392C27.9307 22.4613 28.56 25.3413 28.56 29.032C28.56 32.7653 27.9307 35.688 26.672 37.8C25.4347 39.8907 23.2907 40.936 20.24 40.936C17.1893 40.936 15.0347 39.8907 13.776 37.8C12.5387 35.688 11.92 32.7653 11.92 29.032ZM24.976 29.032C24.976 27.304 24.8587 25.8427 24.624 24.648C24.4107 23.4533 23.9627 22.4827 23.28 21.736C22.5973 20.968 21.584 20.584 20.24 20.584C18.896 20.584 17.8827 20.968 17.2 21.736C16.5173 22.4827 16.0587 23.4533 15.824 24.648C15.6107 25.8427 15.504 27.304 15.504 29.032C15.504 30.824 15.6107 32.328 15.824 33.544C16.0373 34.76 16.4853 35.7413 17.168 36.488C17.872 37.2347 18.896 37.608 20.24 37.608C21.584 37.608 22.5973 37.2347 23.28 36.488C23.984 35.7413 24.4427 34.76 24.656 33.544C24.8693 32.328 24.976 30.824 24.976 29.032ZM34.436 36.04C36.484 34.2693 38.0947 32.8187 39.268 31.688C40.4627 30.536 41.4547 29.3413 42.244 28.104C43.0333 26.8667 43.428 25.6293 43.428 24.392C43.428 23.112 43.1187 22.1093 42.5 21.384C41.9027 20.6587 40.9533 20.296 39.652 20.296C38.3933 20.296 37.412 20.7013 36.708 21.512C36.0253 22.3013 35.6627 23.368 35.62 24.712H32.1C32.164 22.28 32.8893 20.424 34.276 19.144C35.684 17.8427 37.4653 17.192 39.62 17.192C41.9453 17.192 43.7587 17.832 45.06 19.112C46.3827 20.392 47.044 22.0987 47.044 24.232C47.044 25.768 46.6493 27.2507 45.86 28.68C45.092 30.088 44.164 31.3573 43.076 32.488C42.0093 33.5973 40.644 34.888 38.98 36.36L37.54 37.64H47.684V40.68H32.132V38.024L34.436 36.04Z" fill="#8551F3"/>
</svg>
