<svg width="149" height="180" viewBox="0 0 149 180" fill="none" xmlns="http://www.w3.org/2000/svg">
<path fill-rule="evenodd" clip-rule="evenodd" d="M9.71484 120.379C9.71484 120.379 20.7398 89.7209 32.9462 75.7685C45.1527 61.8154 59.753 61.5342 59.753 61.5342L92.2202 67.5531C92.2202 67.5531 99.4944 75.4073 106.385 78.7481C113.276 82.0889 114.86 81.6072 118.01 81.6072C121.161 81.6072 124.101 80.6813 124.101 80.6813L125.282 100.137L112.682 114.286C112.682 114.286 112.091 140.424 113.469 153.394C114.848 166.365 116.867 175.284 116.867 175.284C116.867 175.284 103.519 180.856 71.9684 179.887C55.0441 179.368 33.6236 172.862 33.6236 172.862L38.065 128.043C38.065 128.043 24.0873 130.008 9.71484 120.379Z" fill="#CBB2FF"/>
<mask id="mask0_1547_6803" style="mask-type:luminance" maskUnits="userSpaceOnUse" x="9" y="61" width="117" height="119">
<path fill-rule="evenodd" clip-rule="evenodd" d="M9.71484 120.379C9.71484 120.379 20.7398 89.7209 32.9462 75.7685C45.1527 61.8154 59.753 61.5342 59.753 61.5342L92.2202 67.5531C92.2202 67.5531 99.4944 75.4073 106.385 78.7481C113.276 82.0889 114.86 81.6072 118.01 81.6072C121.161 81.6072 124.101 80.6813 124.101 80.6813L125.282 100.137L112.682 114.286C112.682 114.286 112.091 140.424 113.469 153.394C114.848 166.365 116.867 175.284 116.867 175.284C116.867 175.284 103.519 180.856 71.9684 179.887C55.0441 179.368 33.6236 172.862 33.6236 172.862L38.065 128.043C38.065 128.043 24.0873 130.008 9.71484 120.379Z" fill="white"/>
</mask>
<g mask="url(#mask0_1547_6803)">
<rect x="-80.4883" y="-98.6206" width="323.154" height="321.342" rx="80" fill="#CBB2FF"/>
</g>
<path fill-rule="evenodd" clip-rule="evenodd" d="M70.8527 39.5036C70.8527 39.5036 69.4632 51.5372 68.3223 56.2989C67.1806 61.0598 59.707 61.3029 59.707 61.3029C59.707 61.3029 63.5318 73.6559 75.7143 75.368C90.931 77.5073 92.1483 67.3227 92.1483 67.3227C92.1483 67.3227 88.8086 66.268 89.5588 61.9185C89.966 59.5578 90.3523 57.2922 90.6211 55.7102C90.9969 55.7431 91.3727 55.7753 91.7478 55.7768C96.0427 55.7992 101.657 52.6779 104.338 43.8382C105.517 39.9554 106.08 35.3366 106.343 31.391C106.335 31.3835 106.325 31.3812 106.318 31.373C104.408 29.4424 102.268 30.8704 102.179 30.9332C101.958 31.0828 101.657 31.0274 101.506 30.809C101.354 30.5899 101.408 30.2892 101.627 30.1373C102.522 29.5158 104.561 28.8366 106.415 30.1889C106.424 30.0162 106.433 29.8441 106.441 29.6751C105.595 23.6927 102.56 21.6836 102.56 21.6836C98.7759 24.7092 93.373 25.3173 86.952 27.1588C82.8997 28.3212 80.8971 30.0371 79.5091 31.6752C78.1211 33.314 76.7661 33.4584 75.986 32.584C75.3669 31.8899 75.1888 30.9653 74.9986 29.8636C74.9776 29.714 74.9604 29.5823 74.9469 29.4649L74.7456 29.5517L74.5135 29.2607C74.5015 29.245 73.2693 27.7273 70.9081 27.3728C69.318 27.1297 67.3992 27.9801 66.2531 29.432C65.053 30.9541 64.8427 32.9034 65.6617 34.9214C67.6081 39.7205 73.8517 39.3069 73.9131 39.2979C74.1893 39.28 74.4124 39.4767 74.4334 39.743C74.4349 39.7617 74.4214 39.7751 74.4207 39.7931L70.8527 39.5036Z" fill="white"/>
<path fill-rule="evenodd" clip-rule="evenodd" d="M147.64 89.1436L145.033 89.4945L142.358 88.035C142.358 88.035 139.28 86.6997 128.177 87.8225C117.848 88.8676 114.514 92.1853 114.514 92.1853C114.514 92.1853 109.783 89.1863 98.5393 89.4675C91.9404 89.6321 82.8641 91.0512 82.8641 91.0512L82.1925 93.5655L81.3937 93.564C80.8973 93.5625 80.4571 93.8841 80.3081 94.3584L79.763 96.0894C78.8377 96.0057 77.6622 95.9114 76.361 95.8328L63.1183 76.0973C63.1183 76.0973 61.5528 74.1157 59.3015 75.3351C56.2469 76.9875 57.9015 79.0215 57.9015 79.0215L69.417 95.696C69.0494 95.7094 68.687 95.7274 68.3344 95.7498C62.6781 96.1141 60.8536 98.3022 57.3872 104.136C53.92 109.969 37.8645 130.388 37.8645 130.388L37.9993 128.44C37.9993 128.44 31.9185 129.12 24.6188 127.355C21.1756 126.522 17.668 125.063 17.668 125.063C17.668 125.063 14.5752 139.198 21.3261 150.683C28.077 162.168 37.8645 160.832 41.5136 159.739C45.1627 158.644 55.0153 150.077 61.5835 132.211C68.1517 114.345 69.2463 113.251 69.2463 113.251L75.6311 109.217L66.6633 137.706C66.5001 138.224 66.9037 138.745 67.4457 138.718L99.3508 137.133C99.3508 137.133 100.082 139.138 103.731 139.138C107.38 139.138 108.468 135.841 108.468 135.841L112.636 135.156C112.729 141.365 112.951 147.782 113.419 152.604C115.969 154.191 119.069 155.387 122.246 154.877C129.672 153.684 133.675 148.196 138.002 141.584C140.895 137.163 143.198 132.399 144.412 129.719C145.839 129.153 147.014 127.201 147.077 122.486C147.187 114.211 146.304 110.79 143.874 109.246C143.435 108.966 142.742 108.701 141.895 108.453L148.428 90.075C148.607 89.5663 148.172 89.0524 147.64 89.1436Z" fill="white"/>
<mask id="mask1_1547_6803" style="mask-type:alpha" maskUnits="userSpaceOnUse" x="0" y="0" width="149" height="161">
<path fill-rule="evenodd" clip-rule="evenodd" d="M91.5815 36.9346C91.0355 37.6453 90.9749 38.7322 91.4468 39.3635C91.9196 39.9941 92.7446 39.9298 93.2906 39.2192C93.8367 38.5085 93.8973 37.4209 93.4245 36.7903C92.9526 36.1597 92.1275 36.224 91.5815 36.9346Z" fill="#393F49"/>
<path fill-rule="evenodd" clip-rule="evenodd" d="M103.535 39.8536C104.021 39.113 104.039 38.0254 103.574 37.4254C103.11 36.8255 102.339 36.9392 101.853 37.6805C101.367 38.4211 101.349 39.5087 101.814 40.1087C102.278 40.7086 103.049 40.5941 103.535 39.8536Z" fill="#393F49"/>
<path fill-rule="evenodd" clip-rule="evenodd" d="M95.9955 47.2662L97.9239 47.4532C97.9762 47.4592 98.0286 47.4622 98.0794 47.4622C98.4579 47.4622 98.793 47.3043 99.0152 47.0171C99.2687 46.6872 99.3323 46.2339 99.1984 45.8965L98.7414 43.9703C98.3928 41.7067 98.8663 39.7716 98.8716 39.7529C98.9359 39.4933 98.7788 39.23 98.52 39.1649C98.2612 39.0976 97.9979 39.2562 97.9328 39.5157C97.9111 39.6018 97.4047 41.6521 97.7915 44.1551L98.2754 46.1815C98.3076 46.2653 98.2964 46.3626 98.2485 46.4254C98.2328 46.4463 98.1879 46.5062 98.0233 46.4905L96.089 46.3027C95.8168 46.2795 95.5864 46.4718 95.5609 46.7373C95.5348 47.0036 95.73 47.2408 95.9955 47.2662Z" fill="#393F49"/>
<path fill-rule="evenodd" clip-rule="evenodd" d="M93.0484 51.214C93.305 51.214 93.5705 51.2035 93.8443 51.1818C94.1113 51.1609 94.3103 50.9267 94.2893 50.6612C94.2676 50.3949 94.0343 50.1951 93.768 50.2168C88.5769 50.623 87.1034 46.5731 87.0428 46.4003C86.9545 46.149 86.6778 46.0188 86.4264 46.1034C86.1751 46.1916 86.0412 46.4662 86.128 46.7183C86.1445 46.7654 87.7444 51.214 93.0484 51.214Z" fill="#393F49"/>
<path fill-rule="evenodd" clip-rule="evenodd" d="M88.6516 31.5179C88.7863 31.5179 88.9209 31.4618 89.0167 31.3526C89.0967 31.2591 91.0437 29.0995 94.0821 30.7803C94.3162 30.909 94.6109 30.8237 94.7403 30.5903C94.8697 30.3562 94.7844 30.0615 94.5503 29.932C90.8111 27.8697 88.3106 30.6898 88.2851 30.7182C88.1108 30.9202 88.134 31.2239 88.3345 31.3989C88.4258 31.479 88.5394 31.5179 88.6516 31.5179Z" fill="#393F49"/>
<path fill-rule="evenodd" clip-rule="evenodd" d="M66.7843 119.22C66.5337 119.131 66.2555 119.265 66.168 119.517C65.1006 122.578 63.1902 127.21 61.7945 130.592L61.2574 131.895C53.7715 150.096 44.5652 158.227 41.5157 159.143C38.6389 160.005 28.7228 161.919 21.9033 150.306C18.3571 144.268 17.6084 137.414 17.6046 132.728C17.6046 132.461 17.3877 132.244 17.1207 132.244C16.8536 132.244 16.6367 132.461 16.6367 132.729C16.6405 137.535 17.4124 144.571 21.0686 150.797C25.8961 159.018 32.2286 160.788 36.7839 160.788C39.0002 160.788 40.7961 160.369 41.7932 160.069C46.0193 158.802 55.1306 149.337 62.1527 132.263L62.6891 130.962C64.0885 127.569 66.0049 122.922 67.082 119.836C67.1703 119.583 67.0364 119.308 66.7843 119.22Z" fill="#393F49"/>
<path fill-rule="evenodd" clip-rule="evenodd" d="M148.013 89.7829L141.638 107.736C138.326 106.838 132.981 106.131 128.526 105.655L128.11 105.61C125.354 105.312 124.699 105.243 124.081 106.34C123.33 107.675 123.793 108.978 124.221 109.742C123.92 109.833 123.586 109.994 123.305 110.273C122.859 110.718 122.655 111.339 122.696 112.119C122.754 113.223 123.907 114.584 124.588 115.294C124.367 115.474 124.154 115.723 124.018 116.054C123.684 116.87 123.892 117.922 124.639 119.182C124.841 119.524 125.431 120.52 135.094 126.162L133.473 130.726C133.386 130.972 133.173 131.158 132.933 131.206L109.055 135.135L114.52 112.903C114.584 112.645 114.425 112.382 114.165 112.318C113.907 112.255 113.643 112.413 113.581 112.673L107.808 136.16C107.327 137.028 106.163 138.522 103.813 138.522C101.049 138.522 100.161 137.327 99.9499 136.949L101.482 130.755C101.546 130.495 101.388 130.233 101.129 130.169C100.868 130.106 100.607 130.263 100.543 130.522L99.0546 136.536L67.5379 138.103C67.4145 138.106 67.3188 138.026 67.2904 137.988C67.2612 137.952 67.1998 137.852 67.2417 137.719L80.8739 94.3737C80.9599 94.1006 81.209 93.9174 81.4947 93.9174H81.4962L109.589 93.9675L103.855 117.136C103.791 117.395 103.949 117.658 104.209 117.722C104.248 117.731 104.287 117.736 104.326 117.736C104.543 117.736 104.741 117.588 104.795 117.368L110.435 94.5756C111.128 95.2339 112.446 95.97 114.798 95.7366C116.291 95.587 117.303 95.1711 117.997 94.708L117.128 98.2395C117.065 98.4991 117.223 98.7609 117.483 98.8245C117.522 98.835 117.561 98.8387 117.599 98.8387C117.816 98.8387 118.014 98.6914 118.068 98.4707L119.334 93.3212L147.764 89.4905C147.872 89.4733 147.942 89.5308 147.972 89.5668C148.003 89.6034 148.049 89.6797 148.013 89.7829ZM76.7386 95.2376L63.6174 75.6673C62.9891 74.8721 61.2567 73.6618 59.1922 74.7794C58.0112 75.419 57.32 76.2052 57.139 77.114C56.9251 78.1927 57.5265 79.0387 57.6342 79.1779L68.6386 95.1269C68.5661 95.1306 68.489 95.1321 68.4165 95.1366C62.5223 95.5166 60.6299 97.8034 57.0949 103.759C54.8105 107.606 45.0073 120.109 38.7324 128.009C38.7586 127.937 38.7743 127.86 38.7631 127.779C38.7265 127.515 38.4841 127.33 38.2163 127.367C38.0772 127.385 24.472 129.16 10.5653 119.988C11.8399 116.525 22.2534 88.8014 33.5376 75.879C44.4052 63.4324 57.3402 61.9856 59.5984 61.8263C60.3591 63.8991 64.7102 74.3006 75.8612 75.8685C77.2787 76.0683 78.637 76.1693 79.9034 76.1693C79.9774 76.1693 80.0515 76.1685 80.1248 76.1678C80.3918 76.1655 80.6057 75.9471 80.6035 75.6793C80.6013 75.4137 80.3851 75.1998 80.1195 75.1998H80.1151C78.8367 75.2103 77.4485 75.1145 75.9966 74.9103C65.7783 73.4733 61.5469 64.1916 60.6074 61.7612C62.5275 61.5765 67.9961 60.6803 69.0141 56.4314C70.0291 52.1938 71.214 42.4446 71.493 40.0875C73.0084 40.359 74.1753 40.285 74.2044 40.282C74.4707 40.261 74.6697 40.0284 74.6487 39.7621C74.6285 39.495 74.4049 39.2983 74.1296 39.317C74.0683 39.326 67.8301 39.7396 65.8853 34.9395C65.067 32.9212 65.2772 30.9726 66.4762 29.4496C67.6206 27.9976 69.5377 27.1471 71.1264 27.391C73.4864 27.7455 74.7176 29.2633 74.7295 29.279L74.9607 29.5693C74.9607 29.5693 75.5815 31.9084 76.2008 32.6026C76.9802 33.477 78.3341 33.3327 79.7201 31.6937C81.1069 30.0547 83.1085 28.3387 87.1574 27.177C93.5729 25.3346 98.9712 24.7272 102.752 21.7014C102.752 21.7014 105.785 23.7099 106.63 29.6927C106.622 29.8625 106.613 30.0345 106.604 30.2066C104.752 28.8541 102.713 29.5341 101.82 30.155C101.601 30.3076 101.547 30.6075 101.698 30.8275C101.849 31.0459 102.15 31.1013 102.372 30.9509C102.461 30.8881 104.598 29.4601 106.506 31.3915C106.513 31.399 106.524 31.402 106.532 31.4087C106.269 35.3554 105.706 39.9745 104.529 43.8569C101.849 52.698 96.2403 55.8188 91.949 55.7971C88.0774 55.7754 84.1363 54.0489 81.1368 51.0612C79.4628 49.3939 77.6557 46.6635 76.3033 43.7589C76.1911 43.5172 75.9039 43.4118 75.66 43.5247C75.4177 43.6369 75.313 43.9249 75.4259 44.1673C76.8239 47.1699 78.7036 50.0035 80.4532 51.7472C83.2918 54.574 86.9345 56.3245 90.6176 56.6858C90.3693 58.1856 90.3326 59.5934 89.7619 61.9393C88.2525 68.1368 102.654 77.7529 106.966 79.6514C110.901 81.3824 119.782 84.1613 123.738 81.2312L124.136 87.7931C118.138 88.9211 115.363 90.792 114.526 91.466C113.282 90.8039 108.403 88.6092 98.6129 88.853C92.0642 89.0169 82.9799 90.4284 82.8894 90.4426C82.7001 90.4726 82.546 90.6109 82.4967 90.7957L81.9215 92.9501L81.4959 92.9493H81.4929C80.783 92.9493 80.1622 93.4049 79.9483 94.0834L79.5204 95.4455C78.7201 95.376 77.7783 95.3034 76.7386 95.2376ZM69.7796 95.0763L58.4229 78.6172L58.402 78.5902C58.3975 78.5842 57.9449 78 58.09 77.2931C58.2164 76.6835 58.7423 76.1247 59.6533 75.631C60.1006 75.3886 60.5143 75.2966 60.8868 75.2966C62.0589 75.2966 62.8114 76.21 62.8345 76.2376L75.5272 95.1698C73.6752 95.0741 71.6608 95.0195 69.7796 95.0763ZM128.284 88.1746C138.989 87.0892 142.164 88.3302 142.172 88.3302L143.549 89.082L118.876 92.4056L118.868 92.4071C118.866 92.4071 118.864 92.4078 118.863 92.4078L118.566 92.4542L118.476 92.7519C118.454 92.8207 117.923 94.4507 114.7 94.7731C111.491 95.0948 110.682 93.366 110.651 93.2965L110.527 93.001L82.9232 92.9524L83.3503 91.3516C84.9981 91.104 92.8333 89.9662 98.6377 89.8211C109.537 89.5503 114.28 92.4355 114.326 92.4647C114.517 92.5836 114.765 92.5567 114.925 92.4003C114.958 92.3681 118.311 89.1845 128.284 88.1746ZM148.711 88.9418C148.435 88.6164 148.024 88.4668 147.616 88.5341L145.169 88.8633L142.597 87.4607C142.466 87.4038 139.279 86.088 128.188 87.2108C127.079 87.323 126.05 87.4614 125.096 87.6185L124.66 80.4448C124.659 80.4111 124.642 80.3827 124.633 80.3513C125.055 79.8037 125.372 79.1424 125.546 78.3361C127.087 71.2102 124.776 68.8995 121.117 66.0106C117.458 63.1217 115.34 60.618 119.769 58.1143C124.198 55.6106 124.006 48.6777 120.732 46.3663C117.458 44.0556 113.607 40.3962 114.762 36.7367C115.917 33.0781 119.531 30.537 117.073 21.1371C115.078 13.5078 107.059 12.664 107.059 12.664C107.059 12.664 101.936 -0.485803 87.2025 0.0138888C75.7216 0.40287 70.4714 5.25841 65.4771 12.875C62.5031 17.4103 59.4842 24.8623 50.2495 26.5297C39.2577 28.515 33.2102 31.594 31.9543 41.9371C31.3515 46.9116 31.5534 51.4761 25.2022 53.2707C19.7778 54.8042 11.5357 56.3436 5.45974 62.6594C-2.02092 70.4367 -2.13088 85.4619 8.07546 92.78C12.9471 96.2734 16.6736 97.2189 19.243 97.2555C13.5231 108.96 9.5909 119.834 9.52507 120.016C9.45027 120.226 9.52732 120.458 9.71132 120.582C24.0473 130.205 38.212 128.346 38.3519 128.325C38.4177 128.316 38.4791 128.294 38.5329 128.262C35.5544 132.01 33.4137 134.668 33.3486 134.749C33.181 134.958 33.2132 135.262 33.4219 135.43C33.5117 135.502 33.6186 135.537 33.7256 135.537C33.8662 135.537 34.0068 135.475 34.1018 135.357C34.9328 134.326 54.4861 110.049 57.9276 104.252C61.3437 98.4988 63.0252 96.4544 68.4802 96.1028C72.0212 95.8746 76.4486 96.1559 79.2236 96.3915L78.4233 98.9349C78.4076 98.9356 78.3926 98.9304 78.3769 98.9326L67.255 100.671C66.991 100.712 66.81 100.96 66.8519 101.224C66.8885 101.463 67.095 101.633 67.3291 101.633C67.3538 101.633 67.3792 101.631 67.4046 101.627L78.1024 99.956L77.219 102.765C77.1966 102.769 77.1749 102.765 77.1532 102.772L67.19 105.784C66.9334 105.861 66.789 106.131 66.8668 106.387C66.9297 106.596 67.1219 106.731 67.3298 106.731C67.3762 106.731 67.4233 106.724 67.4697 106.71L76.8727 103.867L75.3296 108.772L69.1018 112.711C69.0996 112.712 69.0988 112.715 69.0966 112.716C69.0936 112.718 69.0899 112.718 69.0869 112.72C64.584 115.796 61.6197 114.84 61.5815 114.827C61.3287 114.738 61.0549 114.87 60.9659 115.121C60.8762 115.373 61.0071 115.65 61.2591 115.74C61.3152 115.759 61.8852 115.954 62.8733 115.954C64.3274 115.954 66.6851 115.533 69.6337 113.519V113.519L74.8808 110.201L66.3171 137.428C66.1936 137.823 66.2707 138.253 66.5235 138.58C66.7763 138.907 67.1705 139.088 67.5856 139.07L99.1531 137.499C99.5518 138.144 100.751 139.49 103.812 139.49C106.231 139.49 107.628 138.143 108.352 137.09C108.499 137.037 108.617 136.915 108.657 136.752L108.724 136.478C108.791 136.352 108.848 136.236 108.89 136.143L133.106 132.158C133.696 132.039 134.186 131.614 134.384 131.049L135.944 126.657C136.334 126.882 136.732 127.114 137.15 127.354C137.381 127.486 137.677 127.407 137.811 127.176C137.944 126.944 137.864 126.648 137.633 126.514C127.326 120.584 125.694 119.065 125.47 118.688C124.9 117.725 124.705 116.945 124.908 116.432C125.024 116.14 125.247 115.995 125.386 115.927L138.752 121.341C138.811 121.366 138.873 121.377 138.934 121.377C139.124 121.377 139.305 121.262 139.382 121.075C139.482 120.826 139.363 120.544 139.115 120.444L125.655 114.991C124.882 114.26 123.703 112.872 123.662 112.068C123.636 111.577 123.744 111.205 123.983 110.963C124.32 110.624 124.841 110.595 124.987 110.592L139.77 114.84C139.815 114.852 139.86 114.858 139.904 114.858C140.115 114.858 140.308 114.721 140.369 114.508C140.443 114.251 140.295 113.983 140.038 113.91L125.337 109.685C125.061 109.323 124.224 108.058 124.924 106.815C125.206 106.314 125.23 106.272 128.005 106.572L128.423 106.617C139.585 107.813 142.76 108.951 143.659 109.523C145.933 110.971 146.74 114.447 146.635 122.349C146.58 126.499 145.646 128.884 143.935 129.246C143.674 129.301 143.507 129.557 143.561 129.819C143.582 129.917 143.635 129.998 143.703 130.063C142.433 132.814 140.281 137.158 137.647 141.186C133.259 147.899 129.337 153.124 122.233 154.267C119.062 154.776 115.943 153.473 113.404 151.823L113.55 153.086C115.681 154.36 118.167 155.349 120.784 155.349C121.313 155.349 121.849 155.309 122.387 155.222C129.882 154.018 133.936 148.632 138.458 141.716C141.293 137.38 143.579 132.68 144.819 129.951C146.607 129.113 147.547 126.574 147.603 122.361C147.714 113.959 146.819 110.387 144.179 108.707C143.799 108.465 143.243 108.234 142.565 108.012L148.924 90.105C149.066 89.7026 148.987 89.2679 148.711 88.9418Z" fill="#393F49"/>
<path fill-rule="evenodd" clip-rule="evenodd" d="M94.1523 5.64252C93.9085 5.65898 93.6205 5.72481 93.7252 5.90434C93.9811 5.81383 94.0185 5.88265 94.3012 5.77942C94.4927 5.81831 94.6101 5.92678 94.5607 5.97391C94.6393 5.95371 94.8368 6.09434 94.9654 6.03525C94.7694 5.83253 94.456 5.74052 94.109 5.74127C94.0491 5.6889 94.1284 5.66646 94.1523 5.64252Z" fill="white"/>
<path fill-rule="evenodd" clip-rule="evenodd" d="M84.0424 75.7417C84.0768 75.7417 84.1135 75.738 84.1494 75.7297C85.4165 75.4447 86.5811 75.0161 87.6103 74.4551C87.8444 74.3272 87.932 74.0339 87.8033 73.7983C87.6754 73.5642 87.3822 73.4766 87.1466 73.6053C86.1966 74.123 85.1173 74.5202 83.9362 74.7857C83.6751 74.8441 83.5121 75.1029 83.5704 75.364C83.6213 75.5891 83.821 75.7417 84.0424 75.7417Z" fill="#393F49"/>
<path fill-rule="evenodd" clip-rule="evenodd" d="M71.6586 29.8859C70.8044 29.8051 69.9682 30.0684 69.3092 30.619C68.6494 31.1695 68.2433 31.9438 68.1655 32.7995C68.0062 34.5664 69.3129 36.1335 71.0797 36.2929C71.0939 36.2936 71.1088 36.2944 71.1238 36.2944C71.3714 36.2944 71.5823 36.1051 71.6048 35.8545C71.6287 35.5882 71.4327 35.3526 71.1664 35.3287C69.9315 35.2164 69.0182 34.1221 69.1297 32.887C69.1835 32.2886 69.4677 31.747 69.9293 31.3625C70.39 30.9765 70.9727 30.7948 71.5711 30.8501C72.1702 30.904 72.711 31.1875 73.0955 31.6483C73.266 31.854 73.5712 31.8809 73.7777 31.7104C73.9826 31.5391 74.0103 31.2339 73.839 31.0289C73.2885 30.3691 72.5143 29.9629 71.6586 29.8859Z" fill="#393F49"/>
</mask>
<g mask="url(#mask1_1547_6803)">
<rect x="-85.0977" y="-102.463" width="326.052" height="325.328" rx="80" fill="#475574"/>
</g>
<mask id="mask2_1547_6803" style="mask-type:alpha" maskUnits="userSpaceOnUse" x="4" y="4" width="119" height="81">
<path fill-rule="evenodd" clip-rule="evenodd" d="M13.0471 63.8904C12.9918 63.8694 12.9978 63.8089 13.0845 63.7565C13.0553 63.8126 13.2698 63.7086 13.417 63.663C13.3124 63.7273 13.1839 63.8066 13.0471 63.8904ZM12.3744 64.3481C12.414 64.3152 12.4663 64.2665 12.5694 64.1985L12.5709 64.2007C12.4842 64.2553 12.417 64.3114 12.3744 64.3481ZM11.0982 64.1931L11.0929 64.2178C11.0892 64.1879 11.0884 64.1572 11.1026 64.1236C11.2222 64.0076 11.2827 63.9949 11.3171 64.0031C11.2581 64.054 11.1893 64.1138 11.0982 64.1931ZM92.9812 5.85788C92.6338 5.8878 92.5232 5.71426 92.5142 5.66339L92.7623 5.68508C92.5725 5.36118 91.782 5.51378 91.2963 5.43299L91.5346 5.26693L91.0034 5.34996C90.904 5.28114 90.8457 5.15772 91.0945 5.16744C90.7538 5.01484 90.7718 5.17941 90.4796 5.03952C90.4475 5.01858 90.4639 5.0111 90.4968 5.00661L90.1396 5.02905C90.2128 4.99464 90.097 4.88169 90.3092 4.9333C89.6891 4.75751 89.2826 4.96547 89.0562 4.81362L89.1092 4.80314C88.229 4.83681 89.0136 4.94752 88.3545 5.09488L87.9219 4.71338L87.8337 4.857C87.7441 4.84429 87.5648 4.83606 87.5984 4.77846C87.2621 4.89066 87.6552 4.84055 87.4609 4.94228C87.0238 4.82259 86.2706 5.04476 86.1585 4.81362C86.0098 4.93106 86.5792 4.88618 86.1204 4.97968C85.9695 4.72385 85.5914 5.07917 85.1872 5.00512C85.2933 4.86149 85.6788 4.88618 85.2686 4.81661C85.0549 5.06645 84.4878 4.85251 84.1568 4.94527C84.1702 5.12181 83.4514 5.16819 82.9104 5.34173C82.9231 5.31331 82.6541 5.33201 82.3224 5.39484C81.9951 5.47339 81.5991 5.57363 81.3368 5.623L81.342 5.59083C81.3025 5.79879 80.766 5.90576 80.4163 6.09726C80.3939 5.99702 80.4372 5.91099 80.627 5.80328C80.5067 5.83619 80.3953 5.89454 80.2803 5.94391C80.2205 6.03292 80.1249 6.10848 79.9119 6.22517L79.947 6.06434C79.495 6.28501 79.0847 6.5947 78.4825 6.81762C78.5124 6.94404 79.072 6.86774 78.5415 7.27991C78.4885 7.23353 78.4123 7.14601 78.5498 7.03156C78.5042 7.06896 78.4011 7.18491 78.2875 7.21932L78.4638 6.98294C78.1918 7.08766 78.3794 7.14377 78.1761 7.25223C78.1328 7.16621 77.9953 7.28066 77.9864 7.19762C78.0327 7.15947 78.1791 7.1288 78.2382 7.05026C78.0043 7.1692 77.7032 7.28215 77.5747 7.27467C77.6225 7.30983 77.6412 7.38463 77.4827 7.49385C77.0598 7.75417 77.2758 7.48338 76.9986 7.59184C76.9268 7.70255 76.6235 7.82224 76.7034 7.95315C76.5883 8.04142 76.5286 8.00401 76.4621 8.00626C76.2939 8.21571 75.5191 8.75953 75.8426 8.70119L75.9009 8.66902L75.8718 8.69969C75.2718 9.2884 74.4984 9.76939 73.9507 10.4075L73.9171 10.3738C73.598 10.7583 73.1579 11.1787 73.013 11.5191C72.9158 11.6275 72.7216 11.7218 72.7193 11.6365C72.5004 11.9477 72.5116 12.0113 72.1014 12.3786C72.2822 12.0345 71.9609 12.4309 72.3054 12.0412C71.9587 12.3905 71.8257 12.4257 71.5918 12.9157C71.6112 12.6995 71.2361 13.1019 71.1188 13.3076L71.4035 13.0967C71.2518 13.3106 71.0994 13.4819 70.9447 13.657L70.8991 13.458C70.1131 14.12 70.0361 15.0835 69.3128 15.4889C69.2411 15.7687 69.7066 15.1044 69.667 15.3737C69.3696 15.726 68.8951 15.9692 68.8077 16.0851C68.3557 16.5377 68.6411 16.6985 68.1988 17.193C68.2951 17.1585 68.4655 17.1862 68.2167 17.6149C67.9275 17.9739 67.6877 17.9298 67.8229 17.6672C67.8842 17.5752 67.9305 17.543 67.9432 17.558C68.0142 17.4256 68.1113 17.2535 67.9522 17.3635L67.9634 17.4465C67.7803 17.5961 67.4104 18.113 67.4224 17.9365C67.2625 18.2514 67.4112 18.113 67.5875 17.9215C67.1721 18.3517 67.0421 18.6688 66.6423 19.1319C66.7245 19.0705 66.8314 19.0376 66.7746 19.1162C66.1962 19.7984 66.6334 19.4962 66.2979 19.9974C66.0236 20.2203 66.2015 19.7752 65.9018 20.3048C65.6351 20.5659 65.7337 20.2764 65.783 20.1313C65.5447 20.6384 65.1188 20.9152 64.9043 21.1426L65.047 20.8883C64.9611 21.0401 64.873 21.1501 64.7833 21.2623L64.9761 21.204C64.855 21.3244 64.7654 21.4366 64.7302 21.4044C64.6802 21.5877 64.9634 21.4171 64.8281 21.753C64.6413 21.8944 64.447 22.3342 64.2804 22.2991C64.7631 21.774 64.113 22.2639 64.468 21.7777C64.4097 21.8794 64.3215 21.9894 64.1997 22.1098C64.1713 22.1196 64.1908 22.0717 64.2124 22.0298C63.6856 22.4749 64.1511 22.3821 63.6924 22.9185C63.6849 22.7943 63.4622 22.9364 63.4017 23.0352C63.587 22.822 63.599 23.0254 63.4794 23.2663C63.1342 23.5663 63.1962 23.6725 63.0363 23.8475L63.2358 23.6628C63.2403 23.7899 63.0864 23.9567 62.8884 24.2036C62.8204 24.1789 63.0498 23.9627 62.9511 24.0256C62.8234 24.3846 62.2973 24.4998 62.0396 24.927C61.8445 25.0519 61.9088 24.8312 61.7459 24.9486C61.4396 25.4109 61.2445 25.2793 60.9038 25.7461C61.1011 25.7131 61.1026 25.672 60.8933 26.037L61.5068 25.3167L61.1937 25.862C61.3985 25.6623 61.5711 25.387 61.7071 25.2808C61.5681 25.5501 61.5681 25.5097 61.734 25.4805C61.3335 25.6324 61.252 26.0984 60.8485 26.3333L60.6617 26.1156C60.0699 26.4642 59.8876 27.0491 59.1546 27.5414L59.4042 27.4015C59.3862 27.5631 58.9947 27.756 58.8034 27.9722C58.7653 27.8802 58.6062 27.9662 58.4761 27.9954C58.5337 28.0463 57.9591 28.3679 58.0084 28.5699L57.6199 28.6993C57.0198 29.0651 57.1028 29.3711 56.5147 29.7234C56.632 29.5229 56.3384 29.6336 56.6791 29.3232C56.4893 29.4451 56.3115 29.5431 56.3406 29.5985C56.1964 29.6119 55.8617 30.0204 55.636 30.0443C55.5725 30.1273 55.5949 30.2351 55.367 30.3488C55.3327 30.3443 55.3454 30.3061 55.3454 30.3061C55.367 30.3488 55.0159 30.5395 55.2647 30.5358C54.5137 30.5874 53.4901 31.393 52.8161 31.3115C52.3648 31.5112 51.7924 31.6683 51.3598 31.7768C51.3822 31.7439 51.3516 31.7304 51.436 31.7252C50.8173 31.7371 51.114 32.0737 50.3974 32.0707C50.0223 31.9511 50.7583 31.9526 50.5281 31.9159C50.3892 31.6122 49.7137 32.0378 49.1951 31.8994L49.3117 31.8703C48.9291 31.7977 48.4113 32.0715 47.8038 32.1037C47.8038 32.1037 47.83 32.0737 47.8016 32.0565C47.4048 32.26 46.6404 32.4627 46.0741 32.5981C46.2287 32.447 46.3229 32.4897 46.1891 32.3857C45.9343 32.4515 46.3012 32.5622 45.7984 32.6999C45.6205 32.6767 45.2402 32.7156 45.158 32.5989L45.6392 32.4657C45.3515 32.3625 45.0138 32.6348 44.753 32.6722L44.7657 32.5914C44.0237 32.7986 44.0843 33.0208 43.3079 33.2811L43.4081 33.305C43.0636 33.6416 43.0076 33.3147 42.6631 33.6446L42.4621 33.5309C42.211 33.706 41.5991 34.1376 41.1896 34.4772C41.2778 34.3373 41.4451 34.1668 41.6282 33.9962C41.827 33.8481 42.0287 33.6977 42.1901 33.5773C42.0564 33.6424 41.83 33.7576 41.626 33.875C41.4287 34.0052 41.2628 34.1526 41.221 34.2318C41.3121 34.1526 41.4168 34.0306 41.5318 33.9925C41.3047 34.3298 40.9251 34.6074 40.4678 34.9672C40.3968 34.7861 40.0815 35.0113 39.7191 35.2896C39.3754 35.5895 39.0197 35.9725 38.7552 36.0331C38.1784 36.9375 37.4454 37.7274 37.0015 38.9101C37.4274 38.6064 36.8782 39.2512 37.1831 39.2819C37.0942 39.5497 37.077 39.6566 37.0456 39.6731C36.9089 39.9282 36.7587 40.1855 36.6436 40.4533C36.5129 40.6336 36.6429 40.1728 36.5726 40.1818C36.406 40.7907 36.3903 40.4084 36.2177 40.8026C36.3365 40.7413 36.3208 41.048 36.22 41.3936L36.4434 40.9246C36.4426 41.8073 36.0593 41.627 36.1004 42.5149L36.0414 42.2292C36.0347 42.6877 35.8606 43.8546 36.0556 44.3012C36.0137 44.3745 35.9233 44.4673 35.9211 44.2743C35.7858 45.3021 35.9218 46.594 35.6431 47.3615L35.5841 47.2732C35.5736 47.4647 35.6685 47.6255 35.5542 47.8484C35.5273 47.8312 35.4974 47.7609 35.4772 47.8469C35.4825 47.9494 35.5071 48.3683 35.419 48.6092L35.3794 48.381C35.0939 49.3348 35.2464 49.9138 35.0551 50.7359C34.8436 50.6701 34.5649 51.3964 34.3781 51.733L34.3549 51.7098C33.9298 52.7563 33.7564 53.5485 33.2439 54.4798C32.9793 54.699 32.6222 55.1089 32.2351 55.557C32.0229 55.7702 31.8032 55.9909 31.5895 56.2063C31.3594 56.3948 31.1375 56.5811 30.923 56.718C31.0702 56.6544 31.009 56.8623 30.873 56.9873C30.66 57.1002 30.4127 57.5004 30.335 57.3067L30.4097 57.267C30.1519 57.1952 29.7798 57.4907 29.4264 57.6276L29.4712 57.8886C28.4498 57.9679 26.8852 58.7459 26.2343 58.5372C25.9908 58.6479 25.6747 58.7055 25.4333 58.8155L25.4221 58.6778C24.7048 58.7788 24.3454 58.8274 23.4719 59.0444L23.6311 58.912C23.1305 59.004 23.0879 59.4334 22.6366 59.5441L22.4535 59.3765C21.5965 59.5822 20.6774 59.6264 19.8898 60.0542C19.8951 60.0221 19.904 59.9577 20.0393 59.9099C19.6373 60.0168 18.4515 60.2285 18.6809 60.4597C18.6174 60.2884 17.8081 60.7215 17.3815 60.9429L17.4091 60.7926C17.0796 61.0738 17.0856 61.1449 16.5752 61.3887C16.4445 61.4216 16.4273 61.3311 16.6059 61.2982C16.1628 61.3962 16.3279 61.5443 15.7974 61.6752L15.9521 61.5219C15.5202 61.6842 15.5673 61.7037 15.3797 61.9019C15.1451 62.0807 14.5899 62.2639 14.4726 62.1869C14.4502 62.2812 14.2724 62.4831 14.0146 62.5744C13.96 62.5504 14.0348 62.4809 14.0721 62.4457C13.3324 62.7075 13.1732 63.1713 12.648 63.3254C12.6143 63.294 12.5732 63.294 12.5284 63.306C13.0492 62.9806 13.4706 62.7232 13.4363 62.7562C13.375 62.6484 12.9401 62.8968 13.1889 62.537C12.893 62.8347 12.4275 63.3688 11.9867 63.5798C11.9613 63.5842 11.9366 63.5887 11.9112 63.5842L11.9433 63.5416C11.8469 63.5999 11.7737 63.671 11.7117 63.7458C11.5765 63.8236 11.489 63.8715 11.3702 63.9613C11.2626 63.9141 10.8816 64.2672 10.6813 64.4161C10.7837 64.5096 10.5132 64.6898 10.8248 64.5911C10.7882 64.6076 10.8517 64.5507 10.978 64.446C11.0049 64.4198 11.0385 64.3914 11.0527 64.3704L11.0467 64.3899C11.1745 64.2889 11.3396 64.1565 11.5279 64.0076C11.4143 64.1827 11.2895 64.3517 11.0273 64.4587C10.9817 64.6046 10.9286 64.7587 10.8943 64.8387C10.499 64.8828 9.97446 65.2778 9.82128 65.2464C9.57321 65.5389 9.23921 65.8373 8.98591 66.1642C8.73784 66.4956 8.53086 66.815 8.47109 67.0754C8.35527 67.2564 8.2529 67.2107 8.16922 67.2452C8.23198 67.1359 8.33211 67.0282 8.34929 66.9542C8.0945 67.302 7.5595 67.9528 7.64991 68.148C7.26884 68.5355 7.69698 67.8047 7.28378 68.4226L7.29873 68.3089C6.72936 68.8063 6.52985 69.4003 6.31466 69.9807C6.06958 70.5515 5.91715 71.1649 5.41652 71.8299C5.48302 71.7364 5.5159 71.6893 5.55251 71.6803C4.68576 73.332 4.46683 75.3098 4.19036 77.1148C4.09098 77.6347 4.26135 77.6945 4.34802 78.0057L4.20755 78.1232L4.40481 78.6535C4.44665 78.8413 4.44516 79.0193 4.43544 79.1959C4.44366 79.3702 4.43395 79.5452 4.42947 79.7277C4.41975 80.0905 4.43096 80.4892 4.63495 80.9403L4.70668 80.7937C4.75824 81.14 5.09597 81.8237 4.96148 81.8058C4.98987 81.835 5.09373 81.8821 5.0885 82.0272L5.01901 82.0624C5.15874 82.3159 5.26185 82.5822 5.42922 82.8186C5.66758 83.4358 5.10344 82.8426 5.51889 83.7305C5.70644 84.0492 6.16821 84.5548 6.15252 84.4067C6.09199 84.2743 6.03222 84.0514 6.09498 84.0058L6.27282 84.2788C6.49623 84.2234 6.79661 84.317 6.60233 83.5569L6.24592 83.138L6.26983 82.9376L6.47157 83.337C6.45289 83.064 6.30121 82.9608 6.16522 82.8231C6.19884 82.761 6.20333 82.678 6.17717 82.5755C6.02624 82.4513 5.90743 82.3122 5.78788 82.1701C5.85065 82.0796 6.024 82.3287 5.96049 81.9816C5.79087 81.7833 5.84915 82.2741 5.66011 81.909C5.6758 81.6307 5.77891 81.6779 5.60183 81.4198C5.64367 81.3622 5.69896 81.4116 5.76023 81.5155C5.61304 81.2844 5.50843 80.861 5.356 80.7585C5.43072 80.4675 5.15948 79.8781 5.37318 79.8646C5.30818 79.7935 5.12212 79.4337 5.06758 79.1929C5.24691 79.3948 5.17219 79.1734 5.17816 78.9041C5.17069 78.6356 5.16322 78.3266 5.30295 78.3768C5.17966 78.2219 5.13856 77.9264 5.10793 77.5988C5.07505 77.2704 5.13632 76.9121 5.08402 76.6159C5.09971 76.6495 5.13184 76.7161 5.11615 76.7662C5.16023 76.4401 5.2357 76.3511 5.29473 76.1476C5.09747 76.0848 5.10793 75.5679 5.06758 75.2754C5.3276 74.9081 5.23794 75.5551 5.4367 75.4572C5.28128 75.4534 5.42325 74.7465 5.27082 74.855C5.44267 74.5745 5.37692 74.6036 5.56073 74.484C5.34853 74.377 5.55924 74.19 5.51142 73.9109C5.76248 73.516 5.76023 73.8638 5.84243 73.3769C5.98365 73.1786 5.92985 73.6155 5.92985 73.6155C6.08602 73.1479 5.8357 73.3409 5.7707 73.2085C5.90743 72.6206 5.97991 72.9879 6.12786 72.827C6.1839 72.456 6.18838 72.1463 6.29822 71.889C6.33409 71.8823 6.36622 71.8374 6.37369 71.9099C6.40358 71.488 6.8377 70.8358 6.94231 70.3622C6.97369 70.3406 6.99461 70.3323 7.01105 70.3316C6.89598 70.3525 6.81005 70.3181 6.76149 70.2725C6.87506 70.0735 6.88029 69.8461 7.02375 69.8311C6.94978 69.9516 6.9849 69.9852 6.98266 70.0608L7.06037 69.8274C7.31218 69.7287 6.94455 70.1401 7.05215 70.2022C7.23746 69.7758 7.38839 69.2222 7.65664 68.9694C7.83148 69.0008 7.21728 69.6793 7.61255 69.3718C7.48553 69.5072 7.38839 69.6621 7.27407 69.8072C7.7052 69.5828 7.09175 70.084 7.52064 69.8992C7.91218 69.306 7.90396 69.1945 8.3478 68.6343C8.37021 68.4488 8.20807 68.5969 8.23123 68.4106C8.70944 67.4718 9.06287 68.053 9.3752 67.3379C9.42377 67.1225 9.31692 66.9153 9.76375 66.5966C9.76151 66.6804 9.76674 66.7709 9.77122 66.8592C10.2771 66.3827 9.8706 66.3931 10.4923 65.9787C10.4459 66.1208 10.1314 66.3984 10.224 66.3423C10.6709 66.1261 10.3974 66.0371 10.6656 65.7865L10.8308 65.8575C11.3471 65.3257 11.9553 64.7661 12.5956 64.2365C12.5844 64.3016 12.4948 64.4191 12.6861 64.3577C13.1023 64.0473 13.5752 63.754 14.0534 63.484C14.5488 63.2446 15.0629 63.0539 15.5247 62.8699L15.8071 62.5706C15.8908 62.5392 15.9872 62.5691 15.9087 62.629C16.2921 62.537 15.8908 62.5392 16.0432 62.4203C16.2472 62.3298 16.3481 62.3881 16.2345 62.4786C16.5304 62.2984 16.9645 62.0582 17.4181 61.8473C17.8836 61.6543 18.3745 61.5077 18.7481 61.465L18.6233 61.5496C19.1882 61.4276 19.1568 61.0693 19.7098 61.0499L19.6186 61.1022C20.8328 60.8038 22.1419 60.3333 23.1207 60.3377C23.2523 60.0901 24.3484 60.1694 24.3701 59.8732C25.1001 59.8717 24.9066 59.963 25.9175 59.8687C26.1858 59.8321 26.2814 59.6204 26.6057 59.5291L26.6416 59.6742L27.0622 59.4326L27.3372 59.5605L27.6436 59.4558C27.5158 59.476 27.3641 59.4491 27.3746 59.4019C27.8468 59.2381 28.591 59.2276 28.6276 59.2875C29.0087 59.1484 29.3868 58.9621 29.7522 58.7758C29.7514 58.8484 29.5639 58.9352 29.4219 59.0272C29.989 58.6576 29.5975 59.1386 30.1078 58.7624C30.0189 58.7661 30.1108 58.6629 30.1101 58.63C30.4261 58.5963 31.0508 58.2425 31.4274 57.8954L31.408 58.0375C32.1933 57.5034 32.8546 56.7494 33.4927 55.9542C33.2237 56.2086 33.1437 56.0245 33.3148 55.7867L33.5128 55.7941C33.5569 55.5847 33.2715 55.9961 33.4247 55.6183C33.6742 55.3401 33.728 55.5286 33.6294 55.7313C33.7146 55.6011 33.796 55.4695 33.8625 55.3289C33.9156 55.3341 33.8752 55.4381 33.9081 55.4972C33.9298 55.284 34.4962 54.9204 34.4902 54.5913L34.5432 54.5928C35.0513 53.7064 35.1948 53.2628 35.4982 52.5028C35.3779 52.4369 35.5213 52.1512 35.5049 51.8886C35.7425 51.3455 36.0451 50.7456 36.2117 50.0492C36.2708 49.5465 36.1363 49.8794 36.1109 49.6415C36.2394 49.6355 36.3843 48.9391 36.3896 49.3183C36.5517 48.479 36.5928 48.2434 36.6601 47.1685C36.5921 47.2754 36.5502 47.4011 36.5188 47.3278C36.5293 47.1333 36.6384 46.8992 36.6922 46.9351L36.6982 46.9874C36.6899 45.7786 37.3766 44.2765 37.2175 43.3176L37.2242 43.3707L37.2003 42.3952C37.2832 41.9606 37.2563 42.669 37.3766 42.3563C37.3206 41.3001 37.6643 40.7682 37.7809 39.9446C37.9094 39.8152 38.026 39.6237 38.138 39.3963C38.2389 39.1637 38.3435 38.8989 38.4705 38.6363C38.5789 38.3633 38.7164 38.0985 38.871 37.8658C39.0108 37.6242 39.1751 37.423 39.3582 37.2988L39.2596 37.2853C39.3268 37.0609 39.4613 37.1066 39.5734 36.9936C39.5084 36.9682 39.3687 37.132 39.4157 36.9944C40.5082 35.4384 42.4501 34.5715 44.2845 34.0418C44.954 33.8264 44.5431 33.4973 45.4756 33.4516L45.2663 33.6716C46.621 33.0858 48.1931 33.127 49.6121 32.8487C49.5291 32.8928 49.5291 32.9415 49.3894 32.9534C49.6741 33.0454 50.5872 32.8472 50.567 32.753C50.8076 32.7373 50.6335 32.8323 50.7874 32.8584C51.1244 32.8659 51.575 32.5787 51.7648 32.6467C51.7976 32.6565 51.6848 32.7088 51.6265 32.726C51.8238 32.6258 52.5972 32.4979 52.3648 32.4201C52.9416 32.3348 53.3974 32.0393 53.8525 31.9563C54.0706 31.7012 54.7932 31.6556 54.7872 31.4125C54.8358 31.6234 55.7743 31.1447 56.0283 30.8649C55.9551 30.9824 56.3339 30.7699 56.2555 30.9195C56.6134 30.7123 56.9205 30.4894 56.7994 30.4295C57.5795 30.2433 57.9553 29.4369 58.4806 29.4511C59.4042 28.65 60.194 27.8563 60.9584 27.091C61.0764 27.278 60.0864 27.9101 60.2672 28.05C60.9808 27.2915 61.2961 26.7656 62.0463 26.0812C62.254 25.9166 62.0067 26.2532 61.9693 26.3422C62.6455 25.5673 63.3614 24.9262 63.8807 24.1692C63.8949 24.1842 63.847 24.2739 63.7992 24.3547C63.9105 24.2141 64.0951 24.0592 64.0077 24.0099L63.9135 24.1602C63.6206 24.2806 64.1497 23.4226 64.1108 23.3508C64.1302 23.7645 64.7474 22.7172 64.7093 23.3142C64.7721 23.2124 64.8319 23.0696 64.7631 23.0479C64.8894 22.9259 64.9522 22.905 64.9006 23.0928C65.2578 22.5557 65.0343 22.6679 65.3967 22.2153C65.4334 22.2467 65.3751 22.35 65.381 22.4322C65.4916 22.1427 65.6007 21.8547 65.9377 21.4957C65.9414 21.5249 65.9736 21.5234 65.9594 21.5615C66.4182 20.907 66.5938 20.3063 67.1885 19.642C67.2012 19.9831 67.4254 19.4281 67.6002 19.4939L67.8438 19.0638L67.6578 19.1723C67.9118 18.8244 68.0291 18.4384 68.2959 18.1744L68.1674 18.4766L68.6164 17.8049L68.2907 18.1332C68.4737 17.7263 68.0784 18.0352 68.4595 17.6021C68.405 17.7076 68.7166 17.255 68.937 17.1391L68.9362 17.1406C69.0184 16.9349 69.1006 16.7224 69.3285 16.495C69.4249 16.4636 69.4481 16.6686 69.5108 16.6484C69.5168 16.3888 70.0869 15.8188 70.1228 15.5106C70.0981 15.6041 70.1706 15.6655 70.2042 15.6542L70.2147 15.4395C70.3679 15.3056 70.4008 15.2944 70.4404 15.3662C70.8267 14.9062 70.1422 15.3752 70.6585 14.8748C70.6324 14.9249 70.663 14.9152 70.6062 15.0184C71.0859 14.4858 71.4035 13.8851 71.866 13.4138C72.1283 13.3787 71.538 13.8866 71.7965 13.8118C72.3667 13.0578 72.8792 12.1624 73.5188 11.5041L73.3911 11.6193C73.2767 11.3448 73.9425 11.1982 74.1838 10.8009C74.1173 10.8929 74.1824 11.0029 74.1831 10.9618C74.6673 10.5735 74.9976 9.98483 75.688 9.33927L75.6379 9.4612C75.9644 9.28316 76.4195 8.89867 76.7482 8.68099C76.802 8.55607 76.9874 8.42591 76.8237 8.43189C77.411 8.20748 77.9064 7.92248 78.3525 7.56716C78.7941 7.2051 79.2775 6.92983 79.8364 6.85577C79.7184 6.90888 79.5801 7.03306 79.6735 6.99191L80.4873 6.56254C80.3789 6.48848 80.352 6.54832 80.1413 6.54758C80.2227 6.43911 80.4439 6.28202 80.6561 6.19076C80.3005 6.43238 80.7189 6.34261 80.9154 6.36206C80.8743 6.33812 80.9199 6.28427 80.8937 6.25659C81.4205 6.29698 80.8967 6.01946 81.5722 5.94466L81.5572 6.01123C81.7836 5.90725 81.9802 5.76288 82.2402 5.6978C82.3807 5.78906 82.0048 5.83619 82.019 5.94391C82.3665 5.81076 82.6646 5.49284 83.0315 5.55792C82.8828 5.62524 82.6594 5.67312 82.5122 5.74044C82.9104 5.81225 82.9411 5.76662 83.2138 5.73371L83.1869 5.73595L83.8153 5.67386L83.6509 5.66638C83.8459 5.45469 84.0783 5.38437 84.3324 5.33874C84.5901 5.30807 84.8689 5.28937 85.1707 5.14275C84.5849 5.42103 85.0848 5.27516 85.0549 5.42551C85.2193 5.44796 85.4644 5.46516 85.4001 5.51378C85.6833 5.37166 85.8933 5.528 86.2982 5.35146C86.3199 5.39784 86.6143 5.34547 86.5538 5.46591C86.9349 5.41654 86.4596 5.38736 86.4888 5.32677C87.0813 5.13752 87.8801 5.46815 88.7379 5.30358C89.4813 5.23028 89.63 5.1263 90.3302 5.1076C90.5536 5.20709 90.1202 5.2587 90.1202 5.2587C90.4863 5.36118 90.7658 5.38437 91.1229 5.39335C91.046 5.42252 91.1132 5.4689 91.2111 5.53847C91.4913 5.57138 91.4263 5.39933 91.7835 5.52725C91.7102 5.56914 91.6146 5.63871 91.4711 5.66938C91.8074 5.67312 92.1451 5.65591 92.4918 5.68882C92.5635 5.78831 92.2624 5.76737 92.1339 5.7943C92.518 5.83843 93.1277 5.92969 93.2741 5.84217L93.0433 5.73371C93.183 5.76363 93.0873 5.86087 92.9812 5.85788Z" fill="white"/>
<path fill-rule="evenodd" clip-rule="evenodd" d="M117.579 66.8637L117.58 66.8615C117.624 66.8922 117.662 66.9183 117.686 66.9355C117.664 66.9206 117.633 66.8996 117.579 66.8637ZM117.473 67.9322L117.491 67.9255C117.468 67.9404 117.446 67.9539 117.423 67.9576C117.35 67.921 117.347 67.8828 117.356 67.8537C117.387 67.8746 117.423 67.8993 117.473 67.9322ZM117.237 66.7242C117.278 66.7175 117.199 66.6195 117.162 66.5395C117.209 66.5836 117.27 66.6337 117.336 66.6853C117.322 66.734 117.277 66.7594 117.237 66.7242ZM122.141 73.3769C122.162 73.3948 122.205 73.4307 122.189 73.4621C122.197 73.2684 122.25 73.2078 122.281 73.0769C122.09 73.0687 122.008 72.7777 121.872 72.646C122.021 72.379 122.11 72.7433 122.273 72.6408C122.136 72.6744 122.049 72.2623 121.934 72.3745C121.992 72.177 121.942 72.2151 122.066 72.0835C121.83 72.1201 121.977 71.9331 121.794 71.8374C121.823 71.5554 121.992 71.6915 121.819 71.4544C121.826 71.3048 122.019 71.4993 122.01 71.5053C121.897 71.2322 121.792 71.4469 121.673 71.4297C121.481 71.1462 121.726 71.2345 121.757 71.0901C121.619 70.9128 121.402 70.8432 121.339 70.6989C121.36 70.6734 121.352 70.6435 121.404 70.6547C121.162 70.541 121.04 70.1027 120.754 69.9905C120.757 69.9658 120.764 69.9493 120.772 69.9366C120.721 70.0241 120.651 70.0817 120.594 70.1124C120.527 70.0107 120.367 70.0024 120.435 69.8947C120.479 69.9546 120.52 69.9314 120.571 69.9366L120.452 69.8685C120.514 69.677 120.606 69.9688 120.706 69.8955C120.505 69.7309 120.217 69.5918 120.136 69.4145C120.237 69.2776 120.458 69.7287 120.411 69.4362L120.548 69.7085C120.611 69.3718 120.647 69.8626 120.736 69.5289C120.52 69.1886 120.4 69.223 120.174 68.8998C120.045 68.8961 120.092 69.0105 119.964 69.0075C119.471 68.7203 119.969 68.4031 119.528 68.2602C119.374 68.2655 119.201 68.3867 119.07 68.1114L119.269 68.0448C119.007 67.7718 118.931 68.0927 118.731 67.7321C118.83 67.7254 118.986 67.8885 118.96 67.8331C118.872 67.5511 118.761 67.783 118.614 67.6581L118.692 67.5085C118.371 67.2713 117.969 67.0686 117.605 66.8285C117.654 66.8046 117.745 66.8113 117.696 66.7081C117.216 66.4253 116.778 65.975 116.407 65.5815L116.16 65.5793C116.123 65.5508 116.127 65.4768 116.184 65.4835C116.048 65.3197 116.123 65.5508 116.01 65.5381C115.91 65.4783 115.933 65.3818 116.018 65.39C115.66 65.2733 115.014 65.0085 114.821 64.6637L114.901 64.6719C114.716 64.4572 114.473 64.71 114.345 64.446L114.4 64.4565C113.975 64.0233 113.394 63.6276 113.29 63.1264C113.073 63.1803 113.01 62.6103 112.767 62.7255C112.726 62.3537 112.779 62.4263 112.68 61.9655C112.643 61.8503 112.443 61.8712 112.35 61.7381L112.488 61.6812C112.41 61.6378 112.35 61.587 112.278 61.5361L112.417 61.3775L112.34 61.2533C112.348 61.3087 112.31 61.3865 112.266 61.3902C112.119 61.1905 112.245 60.8344 112.323 60.8232C112.257 60.6624 112.179 60.4971 112.15 60.3235C112.21 60.334 112.23 60.4193 112.268 60.4836C112.118 60.2181 112.425 60.4298 112.287 60.1874C112.253 60.2203 112.198 60.1679 112.168 60.162C112.243 60.0355 112.278 59.7617 112.28 59.5463L112.376 59.6032C112.404 59.4199 112.449 59.2299 112.501 59.0302C112.534 58.8274 112.607 58.6247 112.707 58.4302C112.596 58.5499 112.448 58.4474 112.491 58.318L112.655 58.3397C112.605 58.2193 112.543 58.4385 112.512 58.226C112.601 58.0794 112.718 58.2088 112.724 58.3158L112.761 58.1093C112.806 58.1213 112.809 58.1759 112.856 58.2155C112.803 58.0906 113.176 58.0106 113.092 57.8198L113.138 57.8363C113.359 57.463 113.491 57.2962 113.707 57.0022C113.61 56.905 113.724 56.813 113.731 56.6619C113.97 56.5003 114.248 56.3522 114.5 56.1315C114.642 55.9318 114.48 55.9999 114.512 55.8712C114.606 55.955 114.863 55.7358 114.781 55.9138C115.082 55.6483 115.164 55.5757 115.547 55.1441C115.468 55.1418 115.401 55.1665 115.402 55.1119C115.468 55.0334 115.614 55.0102 115.64 55.0655L115.628 55.0917C115.991 54.5883 116.978 54.3654 117.11 53.7572L117.102 53.7879C117.186 53.6226 117.256 53.4483 117.304 53.259C117.452 53.0473 117.306 53.4416 117.468 53.3151C117.541 52.9995 117.658 52.7982 117.741 52.5716C117.842 52.3584 117.937 52.1467 117.89 51.8669C118.122 51.6889 118.109 51.2879 118.037 50.8945C117.928 50.5115 117.772 50.1487 117.744 49.8614L117.68 49.9272C117.544 49.839 117.651 49.753 117.622 49.6482C117.57 49.6946 117.621 49.8218 117.542 49.7664C116.908 48.8119 116.231 47.8956 115.461 47.1273C115.175 46.8543 115.009 47.3256 114.759 46.8625L114.967 46.8236C114.23 46.4728 113.713 45.8631 113.087 45.5131C113.143 45.5146 113.176 45.4794 113.227 45.5273C113.193 45.3388 112.82 45.1495 112.751 45.2146C112.678 45.1301 112.792 45.1353 112.777 45.0523C112.722 44.8967 112.409 44.8855 112.436 44.7471C112.44 44.7246 112.492 44.7516 112.518 44.765C112.407 44.7351 112.215 44.4262 112.18 44.5832C112.057 44.3379 111.803 44.2317 111.728 44.0177C111.527 43.996 111.517 43.607 111.319 43.6953C111.5 43.5869 111.197 43.2166 111.029 43.1216C111.115 43.1343 111.01 42.9615 111.123 42.9705C111.019 42.8119 110.896 42.6825 110.816 42.7648C110.897 42.3301 110.29 42.2269 110.535 41.8993C110.208 41.431 109.969 40.947 109.818 40.4526C110.021 40.4279 109.966 41.0001 110.19 40.9163C109.966 40.49 109.746 40.2371 109.729 39.7509C109.748 39.623 109.828 39.8107 109.868 39.8466C109.729 39.3761 109.812 38.9251 109.72 38.4919C109.741 38.4942 109.762 38.5413 109.778 38.5854C109.773 38.5009 109.814 38.391 109.714 38.3947L109.74 38.4792C109.591 38.6124 109.446 38.1187 109.388 38.0925C109.652 38.266 109.515 37.6646 109.841 37.9384C109.829 37.8808 109.792 37.8045 109.725 37.809C109.755 37.7282 109.797 37.708 109.86 37.8015C109.85 37.4933 109.719 37.5808 109.774 37.3063C109.821 37.316 109.825 37.3751 109.875 37.4125C109.814 37.2599 109.758 37.0998 109.852 36.8769C109.877 36.8971 109.919 36.8799 109.902 36.948C109.967 36.5508 109.841 36.2052 110.08 35.8035C110.232 36.0002 110.195 35.6808 110.37 35.7242C110.379 35.6419 110.388 35.5604 110.408 35.4811L110.287 35.5364C110.377 35.3457 110.335 35.1205 110.465 34.9769L110.468 35.1512L110.602 34.7742L110.446 34.9515C110.453 34.7136 110.229 34.8759 110.395 34.6343C110.386 34.6934 110.49 34.4428 110.624 34.3732V34.374C110.613 34.2431 110.597 34.1144 110.698 33.976C110.767 33.9558 110.87 34.0815 110.917 34.0695C110.813 33.9087 111.079 33.5429 110.958 33.3656C110.987 33.421 111.077 33.4479 111.099 33.4367L110.995 33.3147C111.05 33.2197 111.071 33.2085 111.142 33.2422C111.215 32.9295 110.902 33.2938 111.059 32.9422C111.064 32.9729 111.084 32.9624 111.093 33.0268C111.192 32.6565 111.164 32.2967 111.193 31.9563C111.374 31.8591 111.241 32.2623 111.393 32.1515C111.341 31.6361 111.201 31.1043 111.141 30.6338L111.134 30.725C110.87 30.6929 111.207 30.3555 111.051 30.1318C111.079 30.1872 111.203 30.1849 111.173 30.1737C111.179 29.8334 110.975 29.5237 110.773 29.0696L110.852 29.1108C110.855 28.911 110.766 28.6058 110.714 28.4046C110.631 28.3672 110.601 28.2528 110.535 28.3507C110.68 27.6162 109.937 27.284 109.986 26.6557C110.014 26.7178 110.104 26.7806 110.083 26.7305L109.833 26.3146C109.747 26.3969 109.797 26.4013 109.758 26.5293C109.673 26.5016 109.575 26.4006 109.525 26.2929C109.679 26.4567 109.69 26.2128 109.7 26.1044C109.676 26.1328 109.628 26.1208 109.6 26.1433C109.666 25.8328 109.38 26.2046 109.345 25.8433L109.406 25.8328C109.321 25.7326 109.2 25.6638 109.152 25.5344C109.241 25.4237 109.267 25.6271 109.365 25.586C109.271 25.4162 108.976 25.3616 109.01 25.1446C109.079 25.2007 109.134 25.3055 109.203 25.3623C109.248 25.1215 109.209 25.117 109.159 24.9823L109.163 24.9965L109.061 24.6771L109.066 24.7706C108.653 24.725 108.768 24.3712 108.416 24.2006C108.753 24.3682 108.546 24.1842 108.685 24.131C108.678 24.0375 108.654 23.9036 108.707 23.9141C108.526 23.843 108.65 23.6456 108.388 23.5506C108.422 23.5169 108.304 23.4077 108.423 23.374C108.285 23.2229 108.379 23.4586 108.319 23.475C108.022 23.2985 108.1 22.7494 107.663 22.5041C107.373 22.2363 107.207 22.2662 106.936 22.0253C106.928 21.8847 107.133 22.0059 107.133 22.0059C107.078 21.8091 106.983 21.6977 106.835 21.581C106.888 21.587 106.895 21.5353 106.906 21.459C106.81 21.3476 106.712 21.48 106.652 21.2847C106.714 21.2795 106.808 21.2638 106.892 21.29C106.755 21.1763 106.581 21.0925 106.441 20.9758C106.477 20.8883 106.605 20.9863 106.685 21.005C106.535 20.8666 106.315 20.6325 106.172 20.6646L106.214 20.794C106.164 20.7402 106.279 20.696 106.331 20.7245C106.516 20.8008 106.444 20.9504 106.412 20.9863L106.312 20.904C106.168 21.1748 106.654 21.281 106.79 21.5002L106.566 21.5323L106.852 21.6468C106.842 21.7231 106.773 21.8188 106.675 21.7343C106.7 21.9408 106.827 21.8241 106.827 22.0156C106.823 22.0395 106.811 22.0388 106.795 22.0305L106.947 22.1405C106.892 22.1368 106.847 22.246 106.808 22.1405C106.899 22.4644 107.223 22.4779 107.165 22.6626L107.14 22.6477C107.441 22.9761 107.286 22.5998 107.615 22.7793L107.435 23.1653L107.583 23.1212C107.604 23.1616 107.644 23.2431 107.585 23.2611C107.759 23.3508 107.623 23.202 107.755 23.2341C107.758 23.493 108.13 23.7151 107.955 23.8812C108.093 23.8894 107.918 23.6575 108.109 23.8154C107.926 24.0054 108.292 24.0211 108.292 24.256C108.151 24.2679 108.112 24.0712 108.115 24.3023C108.364 24.2949 108.266 24.6644 108.384 24.7878C108.541 24.7085 108.63 25.0691 108.819 25.2883C108.759 25.3002 108.975 25.8074 109.037 26.0685L109.007 26.0745C109.187 26.0415 109.286 26.2951 109.401 26.4589C109.3 26.4978 109.253 26.4814 109.16 26.4081L109.238 26.5741C109.307 26.5899 109.357 26.6295 109.424 26.7312L109.285 26.744C109.389 26.9631 109.626 27.1322 109.672 27.4553C109.794 27.4262 109.888 27.0903 110.101 27.3701C110.045 27.4067 109.943 27.4613 109.882 27.391C109.901 27.4142 109.977 27.4636 109.971 27.5286L109.814 27.4479C109.826 27.599 109.934 27.4808 109.963 27.593C109.874 27.6266 109.93 27.6992 109.853 27.7112C109.835 27.6865 109.856 27.602 109.806 27.575C109.835 27.7029 109.834 27.8705 109.784 27.9446C109.831 27.9146 109.904 27.8989 109.947 27.9835C110.037 28.2124 109.868 28.1024 109.87 28.252C109.952 28.2857 109.94 28.454 110.076 28.4121C110.1 28.4794 110.042 28.5131 110.014 28.5512C110.128 28.647 110.206 29.1055 110.311 28.926L110.313 28.8916L110.324 28.9095C110.556 29.2776 110.491 29.7616 110.607 30.152L110.559 30.1603C110.649 30.3922 110.672 30.6906 110.8 30.8529C110.811 30.9263 110.739 31.0317 110.678 31.0063C110.743 31.1866 110.777 31.2068 110.707 31.4776C110.622 31.2958 110.634 31.5441 110.645 31.2905C110.606 31.5329 110.53 31.5823 110.663 31.8389C110.54 31.7513 110.512 32.0124 110.55 32.1254L110.635 31.9638C110.649 32.0902 110.66 32.2039 110.621 32.3116L110.471 32.2406C110.185 32.655 110.7 33.1562 110.25 33.4105C110.313 33.5594 110.417 33.1958 110.505 33.3342C110.403 33.5392 110.105 33.6701 110.083 33.7284C109.896 33.9626 110.215 34.0688 110.027 34.3515C110.097 34.3366 110.25 34.3702 110.194 34.6231C110.078 34.8273 109.854 34.7876 109.876 34.6298C109.895 34.5744 109.924 34.5572 109.94 34.5677C109.953 34.4884 109.974 34.3844 109.878 34.4443L109.917 34.4974C109.814 34.5812 109.681 34.8879 109.628 34.7787C109.601 34.9687 109.681 34.8879 109.764 34.7764C109.562 35.0278 109.55 35.2125 109.401 35.5005C109.448 35.4624 109.526 35.4422 109.509 35.4901C109.288 35.9097 109.543 35.7219 109.465 36.0271C109.323 36.17 109.287 35.903 109.253 36.2269C109.144 36.3997 109.09 36.2239 109.074 36.1356C109.096 36.4498 108.87 36.6577 108.807 36.8223L108.798 36.657C108.804 36.7557 108.785 36.8313 108.766 36.9091L108.899 36.8448C108.858 36.9308 108.84 37.0071 108.794 36.9959C108.845 37.1028 108.997 36.9644 109.055 37.1649C108.965 37.2711 109.065 37.5374 108.905 37.5561C109.006 37.1829 108.748 37.5756 108.766 37.245C108.777 37.3115 108.765 37.3878 108.733 37.4776C108.715 37.4888 108.704 37.4596 108.699 37.4327C108.516 37.7873 108.847 37.6287 108.795 38.0065C108.716 37.9496 108.622 38.0805 108.632 38.1448C108.655 37.99 108.78 38.0843 108.835 38.2286C108.762 38.4695 108.878 38.4964 108.868 38.6229L108.902 38.4792C108.987 38.5316 108.972 38.6505 108.996 38.8181C108.929 38.8323 108.954 38.6655 108.922 38.7246C109.07 38.9093 108.75 39.1502 108.883 39.4098C108.835 39.5355 108.724 39.433 108.693 39.5437C108.835 39.8309 108.591 39.884 108.736 40.1855C108.833 40.0785 108.802 40.0696 108.954 40.267C108.889 40.1055 108.842 39.9394 108.805 39.7711C108.873 39.8743 108.929 39.9776 109.006 40.0748C108.982 39.9252 108.903 39.7636 108.912 39.6701C109.019 39.8152 108.989 39.8003 109.078 39.7187C108.916 39.9476 109.22 40.1107 109.153 40.3598L108.871 40.4039C108.807 40.7989 109.139 41.0151 109.214 41.4841L109.217 41.3225C109.346 41.3502 109.312 41.5986 109.406 41.728C109.311 41.7467 109.313 41.8469 109.282 41.9292C109.345 41.897 109.407 42.2576 109.599 42.2239L109.563 42.4693C109.679 42.8403 110.001 42.7393 110.132 43.0737C109.992 43.0266 110.008 43.2068 109.83 43.0228C109.885 43.1328 109.921 43.2398 109.979 43.2091C109.956 43.3063 110.265 43.4335 110.243 43.5756C110.306 43.5973 110.4 43.5584 110.464 43.6766C110.456 43.6998 110.424 43.7021 110.424 43.7021C110.464 43.6774 110.589 43.8457 110.615 43.6886C110.571 44.1651 111.219 44.5129 111.237 44.9094C111.432 45.0927 111.663 45.3088 111.836 45.4697C111.804 45.4786 111.801 45.5018 111.777 45.4629C111.944 45.7599 112.108 45.4188 112.302 45.7457C112.336 45.9851 112.099 45.6731 112.145 45.7951C111.967 46.0584 112.507 46.0674 112.571 46.3726L112.513 46.3449C112.584 46.5633 112.954 46.5558 113.181 46.772C113.181 46.772 113.151 46.784 113.15 46.8079C113.417 46.8214 113.758 47.0099 114.019 47.1565C113.871 47.1976 113.873 47.1273 113.841 47.2597C113.955 47.3263 113.935 47.0757 114.162 47.2119C114.187 47.3181 114.298 47.4819 114.234 47.6016L114.038 47.4535C114.029 47.6674 114.29 47.6472 114.372 47.7512L114.312 47.7998C114.618 48.016 114.739 47.8776 115.04 48.1477L115.046 48.0781C115.341 48.0788 115.114 48.2801 115.371 48.3235L115.289 48.509C115.43 48.5681 115.785 48.7199 115.988 48.8882C115.782 48.8792 115.529 48.7117 115.33 48.6511C115.439 48.7446 115.679 48.9757 115.798 48.9645C115.745 48.9361 115.662 48.9174 115.645 48.8561C115.865 48.8792 116.099 48.984 116.27 49.2121C116.114 49.3131 116.21 49.468 116.333 49.6385C116.444 49.8143 116.565 50.0185 116.496 50.1689C116.824 50.5085 116.84 50.9925 116.845 51.4398C117.117 51.2647 116.87 51.5797 117.148 51.5625C117.149 51.6889 117.138 51.7368 117.117 51.7457C117.035 51.8624 116.985 51.9739 116.873 52.0689C116.761 52.1235 116.849 51.9462 116.781 51.941C116.672 52.1669 116.624 52.0046 116.497 52.1228C116.606 52.128 116.613 52.2552 116.527 52.3689C116.595 52.3285 116.653 52.2828 116.719 52.2357C116.75 52.6441 116.356 52.401 116.33 52.793L116.308 52.6449C116.294 52.8431 115.884 53.1969 115.947 53.5149C115.895 53.5178 115.802 53.4947 115.851 53.4184C115.661 53.5747 115.512 53.8081 115.356 54.0288C115.188 54.2382 115.003 54.4207 114.806 54.4873L114.792 54.4065C114.731 54.4813 114.745 54.6167 114.609 54.6324C114.597 54.604 114.596 54.5509 114.559 54.5741C114.541 54.6212 114.427 54.8419 114.295 54.8927L114.337 54.7551C113.858 55.0274 113.799 55.4081 113.521 55.7657C113.378 55.6079 113.018 55.8577 112.838 55.9856L112.821 55.9602C112.368 56.4352 112.235 56.9162 112.002 57.4683C111.591 57.662 111.334 58.5604 111.082 59.1446C111.136 59.0571 111.242 59.1962 111.246 59.3069C111.18 59.4453 111.332 59.7176 111.142 59.6727L111.153 59.6219C110.934 59.7064 110.97 60.0236 110.973 60.2629L111.227 60.2988C111.02 60.604 111.14 61.014 111.235 61.3611C111.381 61.6977 111.49 61.9969 111.418 62.2041C111.536 62.3133 111.609 62.4786 111.725 62.5804L111.599 62.6342C111.753 63.0068 111.841 63.1997 112.15 63.5865L112.01 63.5618C112.174 63.7944 112.54 63.6082 112.693 63.7967L112.581 63.9874C112.894 64.3375 113.107 64.8223 113.588 64.9853C113.562 65.0033 113.513 65.0384 113.45 64.9928C113.602 65.1596 114.038 65.6458 114.141 65.3736C114.037 65.5254 114.516 65.684 114.753 65.7461L114.646 65.8351C114.91 65.8104 114.943 65.776 115.201 65.9002C115.234 65.9391 115.21 65.9869 115.174 65.9765C115.289 66.0812 115.368 65.9615 115.527 66.1553L115.395 66.1665C115.575 66.3086 115.587 66.26 115.748 66.2525C115.897 66.2922 116.081 66.5353 116.034 66.6542C116.102 66.6123 116.262 66.6078 116.349 66.7163C116.336 66.7642 116.279 66.7574 116.252 66.7544C116.501 67.0552 116.802 66.9684 116.925 67.2377C116.902 67.2758 116.901 67.3043 116.91 67.3282C116.678 67.1367 116.486 66.9856 116.51 66.9916C116.435 67.0911 116.616 67.2534 116.358 67.2751C116.571 67.3147 116.953 67.3648 117.105 67.5571C117.106 67.5735 117.108 67.59 117.103 67.6102L117.075 67.6057C117.109 67.6491 117.155 67.6708 117.204 67.6828C117.251 67.7456 117.28 67.786 117.334 67.8339C117.29 67.9311 117.508 68.056 117.596 68.1376C117.676 68.0276 117.782 68.1465 117.742 67.9655C117.751 67.985 117.715 67.9625 117.65 67.9147C117.633 67.9064 117.616 67.8937 117.602 67.8922L117.615 67.8885C117.553 67.8384 117.473 67.774 117.381 67.7007C117.498 67.7074 117.611 67.7299 117.665 67.8743C117.768 67.8473 117.878 67.8241 117.935 67.8174C117.939 68.071 118.115 68.353 118.068 68.4704C118.381 68.6687 118.733 69.015 119.069 69.0098C119.163 69.0629 119.098 69.1489 119.095 69.2043C119.036 69.1781 118.99 69.1235 118.942 69.1257C119.131 69.232 119.379 69.5566 119.548 69.4751C119.665 69.7227 119.329 69.4713 119.586 69.7242L119.515 69.7219C119.622 70.0892 119.89 70.2298 120.151 70.4086C120.385 70.5964 120.663 70.8043 120.681 71.2367C120.677 71.1776 120.675 71.1484 120.696 71.1245C120.981 71.9436 121.542 72.7964 121.279 73.6701C121.211 73.9042 121.324 73.9349 121.4 74.095L121.252 74.1294C121.304 74.2191 121.355 74.3127 121.38 74.4062C121.392 74.5954 121.262 74.7331 121.147 74.8714C121.039 75.0143 120.93 75.1527 120.923 75.4003L121.04 75.3861C120.95 75.5275 120.86 75.8895 120.771 75.811C120.78 75.8349 120.837 75.9097 120.765 75.9434L120.695 75.9105C120.685 76.0586 120.627 76.1865 120.586 76.3256C120.354 76.556 120.361 76.1192 120.085 76.4797C120.013 76.6323 119.979 77.0131 120.055 76.9936C120.098 76.939 120.196 76.8769 120.26 76.9196L120.196 77.0774C120.355 77.242 120.449 77.5053 120.825 77.2517L120.888 76.9263L121.033 76.9114L120.891 77.1208C121.058 77.0647 121.038 76.9353 121.046 76.8186C121.107 76.8313 121.165 76.8201 121.218 76.7827L121.206 76.4274C121.302 76.4431 121.28 76.6286 121.434 76.488C121.41 76.3114 121.206 76.5067 121.25 76.2673C121.402 76.1902 121.458 76.2658 121.456 76.072C121.518 76.0765 121.535 76.1267 121.527 76.2C121.534 76.0294 121.68 75.82 121.605 75.701C121.798 75.6187 121.782 75.2245 121.964 75.3023C121.93 75.2365 121.878 74.9859 121.905 74.849C122.085 75.1647 122.057 74.3403 122.308 74.454C122.095 74.2206 122.268 73.721 122.141 73.3769Z" fill="white"/>
</mask>
<g mask="url(#mask2_1547_6803)">
<rect x="-14.7656" y="-14.7925" width="148.693" height="122.679" fill="white"/>
</g>
</svg>
