<svg width="276" height="280" viewBox="0 0 276 280" fill="none" xmlns="http://www.w3.org/2000/svg">
<path fill-rule="evenodd" clip-rule="evenodd" d="M32.6471 271.678H243.128C260.303 271.678 274.227 257.796 274.227 240.669V64.2143C274.227 47.0873 260.303 33.2051 243.128 33.2051H32.6471C15.4726 33.2051 1.54871 47.0873 1.54871 64.2143V240.669C1.54871 257.796 15.4726 271.678 32.6471 271.678Z" fill="#F0F4FF"/>
<path fill-rule="evenodd" clip-rule="evenodd" d="M250.828 208.032C250.828 208.032 231.962 155.26 211.075 131.241C190.188 107.224 165.204 106.74 165.204 106.74L109.648 117.101C109.648 117.101 97.2014 130.621 85.4103 136.372C73.6192 142.122 70.9067 141.294 65.5163 141.294C60.1259 141.294 60.3456 142.221 60.3456 142.221C60.3456 142.221 53.4727 152.746 49.6686 161.798C43.4028 176.714 39.4189 195.363 39.4189 195.363L74.6347 197.545L66.6581 271.32L88.3373 271.355H209.194L202.316 221.225C202.316 221.225 226.236 224.607 250.828 208.032Z" fill="#CBB2FF"/>
<mask id="mask0_1548_8315" style="mask-type:luminance" maskUnits="userSpaceOnUse" x="39" y="106" width="212" height="166">
<path fill-rule="evenodd" clip-rule="evenodd" d="M250.828 208.032C250.828 208.032 231.962 155.26 211.075 131.241C190.188 107.224 165.204 106.74 165.204 106.74L109.648 117.101C109.648 117.101 97.2014 130.621 85.4103 136.372C73.6192 142.122 70.9067 141.294 65.5163 141.294C60.1259 141.294 60.3456 142.221 60.3456 142.221C60.3456 142.221 53.4727 152.746 49.6686 161.798C43.4028 176.714 39.4189 195.363 39.4189 195.363L74.6347 197.545L66.6581 271.32L88.3373 271.355H209.194L202.316 221.225C202.316 221.225 226.236 224.607 250.828 208.032Z" fill="white"/>
</mask>
<g mask="url(#mask0_1548_8315)">
<rect width="714.446" height="695.227" rx="80" transform="matrix(-1 0 0 1 330.793 -156.06)" fill="#CBB2FF"/>
</g>
<path fill-rule="evenodd" clip-rule="evenodd" d="M84.3317 40.4236C91.508 25.8265 117.429 29.4269 126.504 39.6443C135.579 49.8601 139.51 51.5451 139.51 51.5451C139.51 51.5451 141.768 48.6703 146.233 48.0001C151.801 47.1654 159.756 53.1851 156.141 62.0846C154.177 66.9232 149.93 68.8628 146.45 69.6352H146.452C146.452 69.6352 148.838 90.2848 150.8 98.4536C152.761 106.624 165.602 107.04 165.602 107.04C165.602 107.04 159.031 128.237 138.099 131.175C111.956 134.843 109.864 117.37 109.864 117.37C109.864 117.37 115.604 115.56 114.314 108.098C113.684 104.445 113.082 100.925 112.631 98.2752C111.926 98.341 111.232 98.386 110.559 98.3895C102.504 98.4345 92.7766 92.6261 88.1255 77.3138C83.4726 62.0015 84.3317 40.4236 84.3317 40.4236Z" fill="white"/>
<path fill-rule="evenodd" clip-rule="evenodd" d="M168.984 163.007L143.627 200.607L134.618 196.785L159.963 158.096C159.963 158.096 162.613 154.663 166.506 156.708C171.785 159.483 168.984 163.007 168.984 163.007Z" fill="white"/>
<path fill-rule="evenodd" clip-rule="evenodd" d="M247.402 211.939C247.402 211.939 259.101 233.288 253.466 255.436C247.83 277.585 231.041 280.058 224.497 279.999C217.952 279.94 197.591 270.53 178.195 244.229C158.798 217.929 156.469 216.649 156.469 216.649L132.243 209.66L127.574 194.728C127.574 194.728 140.082 189.478 149.589 187.377C159.094 185.276 163.154 188.009 171.668 195.965C180.182 203.922 208.244 223.289 208.244 223.289L209.509 222.736C209.509 222.736 219.379 222.47 235.895 217.472C241.626 215.737 247.402 211.939 247.402 211.939Z" fill="white"/>
<path fill-rule="evenodd" clip-rule="evenodd" d="M17.7669 191.572L21.9286 191.86L27.4683 181.81C27.4683 181.81 35.4742 182.342 55.3057 183.247C73.7575 184.091 76.9282 193.889 76.9282 193.889C76.9282 193.889 84.6859 184.356 104.743 184.205C116.515 184.117 131.6 184.032 131.6 184.032L135.774 194.137L136.029 194.132C136.914 194.107 137.709 194.49 137.988 195.072L163.677 248.54C163.984 249.179 163.281 249.848 162.313 249.839L105.373 249.285C105.373 249.285 104.136 251.819 97.6293 251.981C91.1229 252.144 89.0785 248.08 89.0785 248.08L45.2867 244.149C44.5265 244.064 43.8948 243.7 43.6258 243.196L16.3924 192.769C16.0574 192.142 16.8158 191.482 17.7669 191.572Z" fill="white"/>
<path fill-rule="evenodd" clip-rule="evenodd" d="M24.2722 212.197C28.4461 209.816 45.5199 208.117 50.8306 207.606C56.1429 207.095 56.8284 206.96 57.6597 208.287C59.3675 211.007 56.7122 213.726 56.7122 213.726C56.7122 213.726 60.1276 213.556 59.9367 216.788C59.817 218.833 56.1429 221.888 56.1429 221.888C56.1429 221.888 59.7475 222.738 56.7122 227.329C55.7264 228.822 47.6338 233.293 40.3499 237.128L43.6265 243.196C43.8955 243.7 44.5272 244.063 45.2891 244.15L69.4368 246.316L66.7399 271.117L87.0955 271.15L87.1562 272.329H40.0861C38.1423 269.763 36.2697 266.982 34.3607 264.069C29.4041 256.504 25.4558 248.356 23.368 243.752C20.9071 242.886 18.8783 239.883 18.7707 232.601C18.5816 219.848 20.0984 214.578 24.2722 212.197Z" fill="white"/>
<mask id="mask1_1548_8315" style="mask-type:alpha" maskUnits="userSpaceOnUse" x="0" y="0" width="276" height="280">
<path fill-rule="evenodd" clip-rule="evenodd" d="M2.41992 239.747C2.41992 256.111 15.7536 269.425 32.1448 269.425H37.1961C35.6639 267.294 34.1837 265.123 32.8129 263.03C27.9889 255.664 24.0967 247.705 21.938 242.983C19.526 241.878 17.1453 238.787 17.0273 230.903C16.8329 217.73 18.4311 212.11 23.1388 209.424C23.4182 209.263 23.7687 209.104 24.154 208.948L14.794 191.604C14.4643 190.988 14.5007 190.27 14.8929 189.685C15.3823 188.952 16.3401 188.539 17.3188 188.633L20.7112 188.867L25.8753 179.49C26.0992 179.079 26.5174 178.838 27.0154 178.866C27.0744 178.87 31.5062 179.161 41.6002 179.668C43.0613 174.947 44.9371 169.207 47.3213 162.564C51.3627 151.3 56.0791 144.162 58.512 140.929C55.3833 139.993 53.0216 138.037 52.2494 134.468C49.5997 122.237 53.5734 118.27 59.8637 113.311C66.154 108.352 69.7963 104.055 62.182 99.7567C54.566 95.4598 54.8974 83.5585 60.5266 79.5908C66.154 75.6231 72.7757 69.3424 70.7906 63.0617C68.8038 56.7792 62.5916 52.4182 66.8169 36.2841C67.1223 35.1164 67.5336 34.0699 67.9882 33.0805H32.1448C15.7536 33.0805 2.41992 46.3939 2.41992 62.7585V239.747ZM141.067 186.573C143.649 185.758 146.302 185.008 148.775 184.461C149.802 184.234 150.736 184.099 151.657 183.983L167.426 160.584L167.476 160.518C167.483 160.509 168.144 159.622 167.913 158.588C167.71 157.675 166.837 156.789 165.388 156.027C164.687 155.658 164.04 155.517 163.462 155.517C161.675 155.517 160.538 156.865 160.422 157.004L141.067 186.573ZM54.8235 180.302C67.5551 180.885 73.3474 185.615 75.8357 188.822C81.5048 153.307 90.2314 138.514 90.6149 137.883C90.9602 137.313 91.7046 137.133 92.2772 137.477C92.8464 137.824 93.0286 138.566 92.685 139.137C92.593 139.286 83.896 154.088 78.2928 188.794C82.1885 185.823 90.3216 181.365 104.188 181.259C115.962 181.171 131.043 181.084 131.043 181.084H131.05C131.541 181.084 131.983 181.378 132.169 181.832L134.98 188.64C135.766 188.357 136.542 188.077 137.382 187.787L158.451 155.606C159.583 154.14 162.722 151.896 166.515 153.889C168.665 155.018 169.933 156.439 170.286 158.111C170.705 160.102 169.656 161.642 169.414 161.963L154.694 183.804C160.978 183.882 165.231 187.077 171.939 193.353C174.112 195.381 178.781 199.022 184.497 203.296C181.837 195.724 176.243 179.079 174.244 167.597C174.129 166.941 174.57 166.315 175.229 166.201C175.887 166.093 176.513 166.528 176.628 167.185C179.014 180.876 186.626 202.135 187.992 205.891C193.498 209.958 199.632 214.386 205.343 218.47C212.223 218.746 230.632 218.12 249.472 205.817C247.775 201.231 239.63 179.739 228.859 159.317C228.767 159.144 228.677 158.972 228.585 158.801C227.703 157.137 226.804 155.483 225.89 153.845C225.69 153.49 225.491 153.135 225.293 152.785C224.538 151.449 223.773 150.131 222.999 148.828C222.673 148.279 222.347 147.729 222.022 147.194C221.6 146.499 221.177 145.806 220.75 145.125C220.099 144.086 219.45 143.07 218.807 142.091C218.482 141.598 218.156 141.116 217.828 140.631C217.241 139.763 216.658 138.916 216.077 138.098C215.879 137.817 215.68 137.526 215.482 137.249C214.706 136.18 213.939 135.168 213.178 134.189C212.964 133.913 212.751 133.645 212.535 133.375C211.736 132.371 210.939 131.398 210.151 130.497C208.97 129.147 207.774 127.881 206.57 126.678C206.167 126.278 205.763 125.921 205.36 125.536C204.553 124.765 203.748 123.996 202.938 123.286C202.452 122.863 201.968 122.478 201.482 122.075C200.75 121.466 200.017 120.856 199.285 120.295C198.768 119.898 198.254 119.533 197.739 119.159C197.041 118.653 196.346 118.15 195.653 117.684C195.122 117.325 194.595 116.991 194.067 116.657C193.399 116.23 192.731 115.815 192.07 115.423C191.535 115.108 191.004 114.808 190.477 114.515C189.84 114.162 189.208 113.82 188.582 113.496C188.046 113.221 187.513 112.951 186.986 112.694C186.392 112.408 185.809 112.138 185.228 111.876C184.692 111.636 184.155 111.395 183.631 111.173C183.095 110.949 182.571 110.741 182.051 110.537C181.511 110.327 180.968 110.113 180.444 109.922C179.987 109.757 179.548 109.612 179.104 109.461C178.549 109.272 177.99 109.078 177.459 108.915C177.124 108.811 176.812 108.725 176.487 108.629C175.885 108.454 175.278 108.273 174.712 108.125C174.627 108.103 174.553 108.087 174.469 108.065C171.342 107.257 168.809 106.854 167.127 106.654C167.075 106.649 167.009 106.639 166.959 106.633C166.692 106.602 166.487 106.585 166.267 106.562C166.138 106.552 165.991 106.536 165.881 106.528C164.32 110.65 156.681 127.945 137.722 130.608C135.27 130.952 132.913 131.126 130.717 131.126C130.588 131.126 130.463 131.126 130.337 131.124C129.668 131.119 129.132 130.571 129.137 129.906C129.144 129.241 129.684 128.709 130.349 128.709H130.357C132.568 128.714 134.911 128.563 137.383 128.215C154.165 125.859 161.451 111.043 163.362 106.339C159.629 105.909 150.797 104.138 149.076 96.9551C148.945 96.418 148.815 95.8237 148.683 95.1913C148.671 95.1306 148.657 95.0613 148.645 95.0007C147.061 87.2975 145.369 73.5821 144.855 69.2887C142.478 69.6577 140.675 69.5365 140.488 69.5226C139.821 69.4706 139.323 68.8885 139.375 68.2231C139.428 67.5578 140.026 67.0623 140.677 67.1125C140.727 67.1177 143.006 67.2633 145.753 66.6309C146.166 66.5373 146.559 66.4264 146.948 66.3086C147.096 66.2635 147.243 66.222 147.392 66.17C147.634 66.0885 147.859 65.995 148.09 65.9049C149.457 65.3643 150.821 64.6002 151.998 63.4827C151.999 63.481 152.001 63.481 152.001 63.4792C152.301 63.1934 152.584 62.878 152.855 62.5488C152.893 62.5038 152.935 62.4622 152.971 62.4154C153.211 62.1122 153.431 61.7795 153.644 61.4347C153.695 61.3533 153.754 61.2771 153.802 61.1922C154.049 60.7694 154.274 60.3189 154.47 59.8338C154.641 59.418 154.783 59.0039 154.899 58.5933C154.937 58.4599 154.955 58.3282 154.986 58.1948C155.053 57.9193 155.125 57.6438 155.168 57.3735C155.198 57.1812 155.203 56.9941 155.222 56.8052C155.243 56.5956 155.274 56.3859 155.281 56.1797C155.288 55.9302 155.267 55.6877 155.255 55.4416C155.246 55.3013 155.253 55.1575 155.237 55.0206C155.204 54.7035 155.144 54.3934 155.076 54.0867C155.062 54.0261 155.057 53.962 155.043 53.9013C154.771 52.8029 154.267 51.772 153.539 50.8398C151.663 48.4401 148.513 47.0125 145.862 47.3919C141.97 47.9758 139.931 50.469 139.913 50.4898L139.341 51.2193L138.82 50.9975C138.808 51.098 138.798 51.1846 138.782 51.292C138.454 53.184 138.149 54.7711 137.085 55.9632C135.744 57.4636 133.418 57.2158 131.034 54.4038C128.65 51.59 125.209 48.6446 118.247 46.6504C107.218 43.4883 97.9359 42.4453 91.4357 37.2509C91.4357 37.2509 86.832 40.328 85.0759 49.2423C85.0985 49.8626 85.1332 50.5262 85.1662 51.1794C88.3538 49.2562 91.7272 50.3945 93.2542 51.4532C93.8025 51.8326 93.9396 52.5863 93.5561 53.1355C93.1761 53.683 92.4247 53.8182 91.8729 53.437C91.7324 53.3382 88.3955 51.0962 85.338 54.0798C85.7891 60.7902 86.7435 68.587 88.7425 75.1727C93.2715 90.0922 102.637 95.4009 109.926 95.4009H110.008C116.566 95.3645 123.245 92.4416 128.332 87.3841C131.182 84.5496 134.258 79.9044 136.566 74.9543C136.845 74.3514 137.564 74.0863 138.173 74.3704C138.779 74.6494 139.041 75.3684 138.759 75.9749C136.339 81.1675 133.08 86.0708 130.04 89.0942C125.105 94.0027 118.768 97.0452 112.356 97.6776C112.732 100.117 112.837 102.491 113.77 106.322C116.366 116.962 91.6057 133.468 84.191 136.726C83.1325 137.19 81.8622 137.699 80.455 138.207C76.1307 139.998 73.3161 140.653 70.9215 140.873C67.5568 141.527 64.1419 141.837 61.1503 141.485C59.2363 143.895 53.9802 151.165 49.597 163.378C47.3255 169.713 45.5191 175.214 44.0927 179.793C47.2058 179.947 50.7526 180.115 54.8235 180.302ZM68.7249 192.179L69.4433 192.176L69.7313 192.864C69.7435 192.883 70.8072 194.705 76.2524 194.95C81.7601 195.204 83.1934 193.146 83.1969 193.146L83.5335 192.554L133.436 191.242L130.243 183.506C126.955 183.523 114.352 183.598 104.207 183.676C85.0466 183.819 77.3994 192.829 77.3248 192.921C77.0471 193.257 76.6046 193.42 76.1708 193.338C75.7388 193.259 75.3813 192.95 75.2407 192.535C75.1158 192.167 71.9785 183.506 54.7127 182.716C38.4603 181.973 30.0686 181.475 27.6254 181.325L23.3705 189.05L68.7249 192.179ZM58.2176 211.164C58.6757 211.348 59.146 211.623 59.5537 212.032C60.0847 212.568 60.6973 213.541 60.6053 215.137C60.5064 216.826 58.8475 218.76 57.6085 219.978C57.9 220.269 58.1655 220.64 58.3512 221.108C58.9117 222.518 58.5178 224.256 57.1834 226.278C56.8034 226.855 55.8247 228.294 41.455 235.915L44.1568 240.92C44.1985 240.998 44.4414 241.19 44.8596 241.237L86.9638 245.018L76.8646 218.438C76.6269 217.814 76.941 217.116 77.5674 216.88C78.1852 216.644 78.8879 216.958 79.1257 217.582L90.1063 246.485C90.9566 247.462 93.0129 249.157 97.0543 249.069C101.123 248.968 102.838 247.896 103.449 247.357L100.69 240.139C100.452 239.515 100.764 238.817 101.389 238.579C102.01 238.342 102.713 238.654 102.951 239.278L105.666 246.38L161.772 246.925C161.79 246.927 161.809 246.925 161.826 246.924L136.351 193.867C136.301 193.784 135.955 193.59 135.511 193.606L85.9886 194.905L96.6205 222.715C96.8582 223.339 96.5459 224.037 95.9212 224.277C95.7789 224.33 95.6349 224.355 95.4891 224.355C95.0032 224.355 94.5434 224.058 94.3594 223.577L83.7484 195.82C82.4209 196.674 80.0939 197.537 76.1427 197.364C73.9615 197.265 72.3443 196.92 71.1123 196.487L72.3425 199.725C72.5803 200.349 72.2662 201.047 71.6415 201.283C71.5009 201.337 71.3552 201.361 71.2129 201.361C70.7236 201.361 70.2655 201.065 70.0815 200.581L67.7858 194.538L17.2413 191.05L26.4833 208.174C31.0019 206.928 38.9337 205.757 50.1764 204.677L50.8948 204.608C55.79 204.135 56.9561 204.022 58.1464 205.92C59.3177 207.786 58.9395 209.73 58.2176 211.164ZM68.0497 269.425H202.645C195.35 263.991 186.653 255.756 176.694 243.273L175.226 241.436C171.275 236.495 165.862 229.725 162.588 225.127C162.203 224.583 162.329 223.827 162.874 223.441C163.421 223.053 164.174 223.181 164.561 223.727C167.796 228.27 173.183 235.008 177.117 239.929L178.585 241.767C201.959 271.069 218.208 276.246 224.11 277.114C229.499 277.916 246.177 275.262 251.726 253.436C254.667 241.867 252.632 230.281 250.406 222.599C250.22 221.956 250.59 221.287 251.23 221.1C251.877 220.917 252.544 221.286 252.729 221.925C255.039 229.897 257.145 241.937 254.072 254.03C252.424 260.514 249.83 265.41 246.822 269.104C261.364 267.181 272.638 254.782 272.638 239.747V62.7585C272.638 46.3939 259.304 33.0805 242.913 33.0805H162.531C166.643 38.6474 172.288 43.8418 181.705 45.5398C200.602 48.9478 211.002 54.234 213.158 71.9881C214.196 80.5264 213.849 88.3613 224.767 91.4419C234.094 94.0737 248.264 96.7177 258.711 107.559C271.572 120.908 271.761 146.7 254.213 159.263C246.075 165.09 239.819 166.766 235.417 166.915C245.228 186.978 251.964 205.574 252.077 205.888C252.262 206.41 252.072 206.99 251.612 207.298C250.017 208.367 248.429 209.327 246.85 210.24C246.848 210.239 246.836 210.214 246.836 210.214C246.836 210.214 246.599 210.367 246.264 210.575C242.576 212.663 238.946 214.362 235.451 215.708C235.411 215.721 235.371 215.738 235.332 215.75C222.746 219.56 214.038 220.62 210.597 220.91C209.981 220.934 209.395 220.95 208.831 220.958C218.26 227.676 225.772 232.92 225.956 233.048C226.503 233.431 226.636 234.185 226.254 234.731C226.018 235.067 225.644 235.247 225.26 235.247C225.022 235.247 224.781 235.176 224.568 235.029C223.301 234.143 202.594 219.683 186.797 208.021C186.489 207.945 186.234 207.766 186.066 207.48C178.943 202.21 172.913 197.57 170.286 195.115C161.998 187.365 158.297 184.832 149.298 186.821C144.973 187.777 140.023 189.404 135.905 190.882L136.058 191.253C137.205 191.398 138.112 191.946 138.53 192.819L138.985 193.761L151.305 192.72C151.954 192.653 152.555 193.157 152.612 193.822C152.668 194.486 152.175 195.071 151.508 195.127L140.103 196.092L142.699 201.499C142.709 201.498 142.718 201.492 142.726 201.492H157.308C157.977 201.492 158.519 202.033 158.519 202.702C158.519 203.369 157.977 203.909 157.308 203.909H143.856L147.328 211.138C147.517 211.107 147.712 211.105 147.908 211.169C159.402 214.993 169.777 213.515 169.881 213.501C170.529 213.416 171.157 213.858 171.256 214.518C171.355 215.178 170.9 215.792 170.24 215.89C170.046 215.92 167.91 216.228 164.556 216.228C160.573 216.228 154.866 215.774 148.664 213.924L164.217 246.313C164.511 246.927 164.466 247.611 164.096 248.191C163.636 248.909 162.748 249.335 161.748 249.342L105.425 248.793C104.549 249.753 102.314 251.354 97.1152 251.483C96.9764 251.487 96.8393 251.489 96.7039 251.489C92.5532 251.489 90.0892 249.893 88.7565 248.585C88.4597 248.46 88.1977 248.266 88.0728 247.942L87.9878 247.717C87.9409 247.653 87.8767 247.58 87.8368 247.523L44.6134 243.642C43.4508 243.507 42.4807 242.916 42.0244 242.06L39.3174 237.042C38.1287 237.666 36.8724 238.319 35.5172 239.021C34.922 239.326 34.1949 239.094 33.8861 238.501C33.5807 237.908 33.8114 237.179 34.4066 236.872C52.4793 227.546 54.8635 225.385 55.162 224.947C55.9932 223.691 56.3385 222.62 56.1077 222.013C56.0018 221.731 55.7693 221.561 55.5836 221.461L32.7234 229.767C32.5863 229.817 32.4458 229.84 32.3104 229.84C31.8159 229.84 31.3508 229.536 31.1721 229.046C30.9431 228.419 31.2676 227.726 31.8957 227.497L54.9781 219.111C56.2916 217.983 58.131 215.993 58.19 214.995C58.2386 214.147 57.9401 213.841 57.8412 213.74C57.4195 213.309 56.6578 213.213 56.3211 213.213L30.9431 219.752C30.8424 219.778 30.7401 219.79 30.6394 219.79C30.1032 219.79 29.6104 219.428 29.4681 218.884C29.3033 218.238 29.692 217.58 30.3392 217.412L55.5021 210.928C55.9724 210.348 57.0586 208.738 56.0956 207.201C55.7433 206.64 55.6964 206.571 51.1275 207.012L50.4091 207.082C31.2745 208.918 25.8622 210.651 24.337 211.521C20.5957 213.657 19.2683 218.902 19.447 230.867C19.5112 235.155 20.3112 240.4 23.7626 241.053C24.4185 241.178 24.8506 241.809 24.7256 242.463C24.6961 242.619 24.6354 242.76 24.5556 242.886C26.7455 247.606 30.3913 254.921 34.837 261.708C36.4924 264.237 38.278 266.911 40.1555 269.425H68.0497ZM32.144 30.6634H69.3114C74.4911 22.7679 84.0333 21.7387 84.0333 21.7387C84.0333 21.7387 92.8414 -0.833809 118.173 0.023835C137.911 0.690892 146.938 9.02477 155.524 22.1008C157.167 24.6027 158.824 27.6226 160.836 30.6634H242.913C260.639 30.6634 275.059 45.0614 275.059 62.7583V239.747C275.059 256.95 261.42 270.996 244.374 271.767C237.935 277.977 230.341 279.638 225.826 279.638C225.035 279.638 224.337 279.588 223.759 279.503C219.928 278.942 213.945 277.112 206.053 271.842H87.8838H38.9479H32.144C14.4201 271.842 -0.0015564 257.444 -0.0015564 239.747V62.7583C-0.0015564 45.0614 14.4201 30.6634 32.144 30.6634Z" fill="#393F49"/>
<path fill-rule="evenodd" clip-rule="evenodd" d="M118.455 126.017C120.058 126.889 121.882 127.557 123.877 128.006C124.528 128.152 124.938 128.798 124.79 129.449C124.665 130.012 124.166 130.392 123.612 130.392C123.525 130.392 123.435 130.383 123.345 130.362C121.132 129.867 119.099 129.118 117.297 128.138C116.711 127.821 116.494 127.086 116.813 126.5C117.134 125.915 117.867 125.696 118.455 126.017Z" fill="#393F49"/>
<path fill-rule="evenodd" clip-rule="evenodd" d="M109.882 62.1098C110.821 63.3296 110.925 65.1956 110.113 66.2785C109.301 67.3613 107.881 67.2505 106.943 66.0307C106.004 64.8127 105.902 62.9449 106.712 61.862C107.524 60.7791 108.942 60.89 109.882 62.1098Z" fill="#393F49"/>
<path fill-rule="evenodd" clip-rule="evenodd" d="M89.3239 67.1221C88.4892 65.8504 88.458 63.9844 89.2562 62.9535C90.0544 61.9243 91.3802 62.1201 92.2166 63.3918C93.0512 64.6635 93.0824 66.5296 92.2842 67.5587C91.4843 68.5897 90.1603 68.3939 89.3239 67.1221Z" fill="#393F49"/>
<path fill-rule="evenodd" clip-rule="evenodd" d="M103.094 81.51L99.7861 81.8306C99.6786 81.841 99.5744 81.8479 99.4721 81.8479C98.7051 81.8479 98.0214 81.5239 97.5668 80.9365C97.0497 80.266 96.9212 79.3477 97.185 78.6945L97.9641 75.4199C98.5489 71.6168 97.7559 68.3612 97.7472 68.3283C97.5858 67.682 97.9798 67.0254 98.627 66.8642C99.2795 66.6996 99.9302 67.0912 100.093 67.7375C100.131 67.8899 101.018 71.4799 100.338 75.8808L99.5345 79.4274L102.863 79.1052C103.519 79.0462 104.117 79.5262 104.182 80.1932C104.247 80.8551 103.758 81.4459 103.094 81.51Z" fill="#393F49"/>
<path fill-rule="evenodd" clip-rule="evenodd" d="M116.166 88.9654C115.943 88.9654 115.715 88.903 115.512 88.7713C114.95 88.411 114.789 87.6625 115.151 87.1028C116.267 85.3772 116.838 83.9183 117.107 82.7505C115.108 85.074 111.537 87.5966 105.628 87.1392C104.962 87.0855 104.464 86.5034 104.518 85.838C104.57 85.1744 105.158 84.6737 105.819 84.7309C114.44 85.417 116.895 78.7153 116.994 78.4363C117.152 77.9789 117.57 77.6584 118.054 77.6254C118.546 77.6133 118.995 77.8507 119.215 78.2821C119.297 78.4415 121.162 82.2533 117.183 88.4127C116.953 88.7696 116.564 88.9654 116.166 88.9654Z" fill="#393F49"/>
<path fill-rule="evenodd" clip-rule="evenodd" d="M115.68 54.4812C115.342 54.4812 115.005 54.3391 114.766 54.0619C114.634 53.9112 111.523 50.4078 106.525 53.1661C105.939 53.4867 105.203 53.2736 104.88 52.6914C104.557 52.1075 104.771 51.3729 105.355 51.0489C110.71 48.0965 115.05 50.6954 116.596 52.4835C117.034 52.9877 116.976 53.75 116.472 54.1867C116.242 54.3842 115.961 54.4812 115.68 54.4812Z" fill="#393F49"/>
<path fill-rule="evenodd" clip-rule="evenodd" d="M144.869 50.924C146.431 50.7871 147.973 51.2618 149.184 52.2685C150.397 53.2786 151.142 54.6993 151.284 56.2673C151.426 57.8371 150.947 59.367 149.937 60.5781C148.926 61.7875 147.505 62.5307 145.932 62.6746C145.896 62.678 145.86 62.6798 145.821 62.6798C145.204 62.6798 144.674 62.2067 144.617 61.5795C144.558 60.916 145.049 60.3269 145.714 60.268C146.642 60.1831 147.482 59.743 148.079 59.0309C148.676 58.3153 148.957 57.4126 148.874 56.4857C148.79 55.5587 148.35 54.7201 147.635 54.1241C146.918 53.5298 146.011 53.2526 145.086 53.3306C144.159 53.4137 143.317 53.8538 142.722 54.5694C142.295 55.0805 141.535 55.1515 141.018 54.7219C140.505 54.2939 140.435 53.5333 140.864 53.0204C141.874 51.8111 143.297 51.0678 144.869 50.924Z" fill="#393F49"/>
</mask>
<g mask="url(#mask1_1548_8315)">
<rect width="334.244" height="334.244" rx="80" transform="matrix(-1 0 0 1 296.785 -26.7397)" fill="#475574"/>
<path fill-rule="evenodd" clip-rule="evenodd" d="M245.108 110.914C245.223 110.848 245.233 110.711 245.084 110.625C245.12 110.741 244.742 110.583 244.474 110.531C244.653 110.639 244.874 110.772 245.108 110.914ZM246.244 111.705C246.178 111.648 246.089 111.563 245.916 111.444L245.912 111.449C246.058 111.544 246.173 111.641 246.244 111.705ZM248.868 110.876V110.93C248.887 110.862 248.899 110.795 248.884 110.726C248.684 110.513 248.566 110.506 248.493 110.537C248.592 110.627 248.71 110.734 248.868 110.876ZM107.485 11.0128C107.245 11.0579 107.431 11.3141 107.617 11.328C108.23 11.4578 108.393 11.0475 108.402 10.9245L107.971 10.9384C108.251 10.1713 109.666 10.6787 110.493 10.528L110.057 10.09L110.993 10.3601C111.156 10.2008 111.245 9.90295 110.812 9.89776C111.391 9.55839 111.377 9.97221 111.87 9.64669C111.924 9.59821 111.893 9.57743 111.837 9.56358L112.459 9.64842C112.327 9.55492 112.519 9.28654 112.155 9.39736C113.219 9.00431 113.94 9.56878 114.322 9.18958L114.228 9.16188C115.753 9.27096 114.402 9.52376 115.545 9.91161L116.281 8.97314L116.436 9.33502C116.592 9.30905 116.899 9.28654 116.842 9.1411C117.424 9.41294 116.743 9.29693 117.08 9.548C117.835 9.23633 119.127 9.77136 119.332 9.19131C119.582 9.48047 118.603 9.38351 119.388 9.60514C119.666 8.96968 120.298 9.80945 121.005 9.59302C120.831 9.24499 120.159 9.34022 120.88 9.13071C121.229 9.7298 122.236 9.15495 122.806 9.34888C122.792 9.4822 122.92 9.56878 123.099 9.64323C123.035 9.49259 122.936 9.40255 122.806 9.34888C122.814 9.28481 122.847 9.21382 122.915 9.12725C123.073 9.14456 123.071 9.48566 123.104 9.64496C123.519 9.81465 124.299 9.89429 124.943 10.1315C124.926 9.92892 126.786 10.3324 127.703 10.4986L127.701 10.4207C127.727 10.9107 128.663 11.07 129.257 11.4267C129.327 11.1773 129.264 10.999 128.946 10.7791C129.156 10.8362 129.349 10.9366 129.549 11.0232C129.638 11.2171 129.794 11.3678 130.157 11.5842L130.136 11.2137C130.921 11.6015 131.583 12.2387 132.659 12.5642C132.56 12.8655 131.518 12.8863 132.399 13.6499C132.515 13.5235 132.691 13.2967 132.463 13.082C132.538 13.1512 132.699 13.3832 132.904 13.4213L132.642 12.94C133.132 13.0854 132.755 13.2793 133.109 13.4577C133.218 13.2464 133.448 13.4612 133.493 13.2672C133.416 13.1945 133.142 13.1755 133.057 13.0144C133.467 13.2084 134.01 13.3677 134.262 13.3071C134.158 13.4023 134.097 13.5824 134.365 13.7763C135.096 14.2317 134.773 13.6845 135.275 13.8421C135.372 14.0758 135.928 14.2403 135.726 14.5555C135.926 14.7078 136.06 14.6005 136.193 14.5814C136.457 14.9831 137.822 15.8956 137.188 15.8852L137.084 15.835L137.131 15.8922C138.097 16.9899 139.549 17.6894 140.466 18.8236L140.549 18.7405C141.073 19.433 141.846 20.1464 142.035 20.7819C142.202 20.9689 142.589 21.0866 142.626 20.9117C142.982 21.4623 142.932 21.5991 143.687 22.1913C143.425 21.5576 143.974 22.245 143.371 21.5818C143.993 22.1601 144.27 22.1826 144.595 23.0899C144.633 22.6571 145.3 23.3341 145.481 23.7063L144.937 23.386C145.187 23.7635 145.458 24.0526 145.731 24.347L145.908 23.9262C147.384 24.9738 147.193 26.8802 148.642 27.4221C148.697 27.9554 147.914 26.7988 147.9 27.3234C148.428 27.9173 149.39 28.2273 149.539 28.4264C150.375 29.1623 149.68 29.5899 150.481 30.4107C150.279 30.3778 149.89 30.4972 150.285 31.2574C150.797 31.8634 151.347 31.6885 151.146 31.2158C151.042 31.0548 150.951 31.008 150.917 31.0427C150.807 30.8054 150.654 30.499 150.967 30.66L150.913 30.8279C151.266 31.0582 151.9 31.9482 151.938 31.6037C152.181 32.1681 151.898 31.9482 151.577 31.6331C152.344 32.3343 152.518 32.9161 153.242 33.6849C153.08 33.5949 152.853 33.5689 152.952 33.7022C153.994 34.8415 153.126 34.4035 153.687 35.2744C154.213 35.6155 153.985 34.7982 154.452 35.7384C154.947 36.1575 154.838 35.6172 154.784 35.3471C155.123 36.2665 155.967 36.6527 156.347 37.0284L156.134 36.573C156.262 36.8449 156.413 37.0336 156.568 37.2241L156.165 37.1808C156.385 37.3764 156.538 37.5669 156.628 37.489C156.668 37.8387 156.109 37.605 156.279 38.2283C156.635 38.4413 156.896 39.2534 157.274 39.1166C156.415 38.2456 157.655 38.9815 157.063 38.1383C157.151 38.3218 157.302 38.5105 157.523 38.7045C157.584 38.7114 157.558 38.6231 157.526 38.5469C158.511 39.2378 157.526 39.2343 158.313 40.1485C158.379 39.894 158.806 40.0966 158.898 40.2749C158.58 39.9113 158.475 40.3303 158.641 40.7771C159.272 41.2532 159.096 41.4956 159.376 41.7917L159.015 41.4922C158.957 41.7536 159.226 42.0324 159.551 42.4705C159.708 42.3908 159.301 42.0324 159.489 42.1242C159.621 42.8185 160.701 42.8531 161.083 43.6357C161.453 43.8175 161.401 43.3847 161.701 43.563C162.163 44.4132 162.625 44.06 163.155 44.9066C162.755 44.917 162.766 44.8287 163.063 45.5161L162.057 44.2418L162.5 45.2651C162.148 44.9257 161.894 44.4149 161.651 44.2452C161.835 44.756 161.852 44.6712 161.514 44.6746C162.297 44.8374 162.286 45.788 163.044 46.1256L163.518 45.5889C164.598 46.1066 164.765 47.2649 166.057 48.0614L165.603 47.8536C165.577 48.1982 166.298 48.4683 166.602 48.8648C166.715 48.6501 167.005 48.7731 167.255 48.7852C167.121 48.9185 168.139 49.4137 167.967 49.8795L168.689 50.0197C169.735 50.6067 169.452 51.3408 170.475 51.9226C170.317 51.5123 170.846 51.6542 170.298 51.0759C170.622 51.2837 170.931 51.4378 170.853 51.5763C171.122 51.5573 171.621 52.3815 172.043 52.3607C172.133 52.5304 172.057 52.7832 172.453 52.9719C172.517 52.9494 172.505 52.868 172.505 52.868C172.451 52.9719 173.045 53.3095 172.581 53.3771C173.971 53.2541 175.622 54.8575 176.843 54.5285C177.602 54.8921 178.571 55.1813 179.307 55.3717C179.274 55.2938 179.33 55.2557 179.184 55.2557C180.249 55.2038 179.695 56.0609 180.935 55.9795C181.589 55.654 180.327 55.7128 180.726 55.6038C180.995 54.8402 182.091 55.8444 183.017 55.4652L182.814 55.3994C183.486 55.1934 184.37 55.8375 185.422 55.8773C185.422 55.8773 185.379 55.8046 185.431 55.7596C186.105 56.234 187.419 56.6236 188.39 56.8903C188.143 56.537 187.97 56.6548 188.22 56.3812C188.659 56.5059 187.996 56.8366 188.859 57.0998C189.178 57.0097 189.845 57.0305 190.015 56.731L189.18 56.4955C189.71 56.189 190.267 56.7933 190.726 56.8348L190.719 56.6392C192.006 57.0184 191.858 57.5413 193.207 57.9794L193.018 58.0625C193.56 58.7776 193.744 58.0036 194.3 58.6737L194.71 58.343C195.135 58.6806 196.149 59.5221 196.842 60.1299C196.611 59.5256 195.748 58.8278 195.211 58.3724C195.693 58.5715 196.778 59.2053 196.865 59.5827C196.714 59.4321 196.549 59.1897 196.337 59.1429C196.677 59.8286 197.302 60.3532 198.096 60.9731C198.304 60.5472 198.867 60.9246 199.508 61.4025C200.118 61.9202 200.743 62.5851 201.288 62.6232C202.224 64.2733 203.638 65.5771 204.409 67.6687C203.461 67.2151 204.621 68.2713 203.876 68.3977C204.011 68.8462 204.049 69.021 204.112 69.0591C204.115 69.0643 204.119 69.0695 204.124 69.0765L204.12 69.0782C204.4 69.5059 204.706 69.9405 204.951 70.3958C205.242 70.6937 204.999 69.8954 205.171 69.8972C205.48 70.9568 205.581 70.2712 205.944 70.9516C205.657 70.8616 205.65 71.4053 205.859 72.0009L205.366 71.2027C205.249 72.7576 206.222 72.3957 206.033 73.954L206.206 73.4502C206.177 74.257 206.522 76.2586 206 77.0413C206.099 77.1625 206.319 77.3149 206.338 76.9841C206.599 78.7399 206.14 80.9735 206.731 82.2652L206.889 82.1059C206.89 82.4349 206.639 82.724 206.89 83.0946C206.96 83.0599 207.045 82.9335 207.081 83.079C207.052 83.2573 206.932 83.9845 207.116 84.388L207.246 83.988C207.806 85.5896 207.318 86.625 207.608 88.0379C208.132 87.8769 208.658 89.089 208.999 89.643L209.063 89.5945C209.798 91.3451 209.938 92.7407 210.751 94.3509C211.275 94.6695 211.892 95.3396 212.547 96.0824C213.255 96.8131 214.033 97.575 214.789 97.9767C214.525 97.897 214.558 98.323 214.775 98.5463C215.15 98.7039 215.478 99.5056 215.695 99.045L215.57 98.9809C216.086 98.7264 216.668 99.2458 217.253 99.4657L217.091 100.094C218.882 99.9315 221.445 101.646 222.628 101.036C223.038 101.275 223.581 101.372 223.988 101.609L224.028 101.27C225.273 101.415 225.895 101.488 227.404 101.886L227.143 101.583C228.012 101.736 228.018 102.78 228.795 102.977L229.147 102.534C230.63 102.891 232.259 102.833 233.583 103.708C233.579 103.63 233.576 103.476 233.343 103.388C234.039 103.568 236.125 103.836 235.661 104.44C235.814 104.009 237.178 104.878 237.893 105.318L237.877 104.96C238.405 105.571 238.386 105.729 239.258 106.184C239.428 106.217 239.501 106.104 239.399 106.03C239.918 106.184 239.769 106.509 240.613 106.665L240.368 106.34C241.123 106.613 241.026 106.679 241.319 107.091C241.707 107.439 242.698 107.692 242.945 107.477C242.959 107.69 243.231 108.106 243.69 108.241C243.803 108.168 243.683 108.028 243.624 107.959C244.944 108.352 245.121 109.316 246.085 109.494C246.163 109.411 246.243 109.398 246.328 109.41C245.421 108.849 244.685 108.409 244.741 108.473C244.893 108.203 245.663 108.622 245.293 107.884C245.777 108.463 246.503 109.52 247.293 109.848C247.344 109.848 247.392 109.848 247.445 109.829L247.394 109.747C247.568 109.839 247.689 109.971 247.79 110.113C248.033 110.234 248.193 110.308 248.401 110.464C248.636 110.319 249.278 110.963 249.631 111.217C249.388 111.46 249.869 111.759 249.272 111.655C249.341 111.678 249.233 111.574 249.016 111.389C248.971 111.344 248.914 111.292 248.893 111.25L248.898 111.292C248.678 111.115 248.391 110.885 248.066 110.625C248.231 110.97 248.419 111.297 248.912 111.437C248.948 111.742 248.997 112.061 249.035 112.223C249.812 112.185 250.777 112.812 251.105 112.693C251.982 113.69 253.24 114.976 253.283 116.02C253.465 116.348 253.705 116.218 253.874 116.258C253.782 116.057 253.603 115.872 253.596 115.724C254 116.36 254.954 117.468 254.686 117.887C255.397 118.519 254.707 117.219 255.405 118.299L255.414 118.079C256.492 118.879 256.772 119.961 257.078 121.004C257.432 122.032 257.628 123.114 258.627 124.207C258.495 124.053 258.431 123.973 258.345 123.968C259.971 126.792 260.117 130.255 260.789 133.36C261.003 134.26 260.619 134.366 260.402 134.902L260.758 135.11L260.287 136.021C259.978 137.28 260.818 138.426 259.98 139.991L259.782 139.719C259.707 140.322 259.066 141.485 259.382 141.48C259.32 141.527 259.077 141.588 259.125 141.851L259.299 141.932C259.026 142.36 258.816 142.807 258.493 143.201C258.12 144.285 259.275 143.333 258.559 144.883C258.21 145.43 257.277 146.235 257.27 145.956C257.373 145.728 257.448 145.328 257.286 145.22L256.954 145.674C256.414 145.496 255.746 145.554 255.961 144.213L256.664 143.558L256.545 143.182L256.197 143.851C256.154 143.355 256.475 143.215 256.755 143.004C256.652 142.879 256.614 142.727 256.644 142.547C256.953 142.362 257.208 142.15 257.465 141.929C257.291 141.752 256.934 142.145 257.003 141.548C257.366 141.241 257.34 142.097 257.712 141.498C257.607 140.999 257.368 141.059 257.734 140.646C257.62 140.535 257.496 140.609 257.373 140.777C257.677 140.407 257.823 139.685 258.175 139.536C257.948 139.022 258.533 138.054 258.002 138C258.153 137.889 258.561 137.299 258.66 136.89C257.96 137.558 258.754 135.351 258.028 135.498C258.648 134.984 258.408 133.534 258.583 132.541C258.542 132.599 258.458 132.714 258.495 132.797C258.405 132.248 258.22 132.104 258.087 131.767C258.573 131.645 258.59 130.769 258.752 130.255C258.165 129.661 258.285 130.759 257.807 130.615C258.194 130.591 257.953 129.4 258.312 129.561C257.934 129.105 258.09 129.145 257.654 128.974C258.201 128.747 257.691 128.472 257.884 127.971C257.368 127.327 257.291 127.94 257.206 127.104C256.913 126.79 256.937 127.543 256.937 127.543C256.673 126.761 257.234 127.038 257.423 126.789C257.229 125.783 256.967 126.453 256.649 126.207C256.591 125.571 256.704 124.998 256.513 124.565C256.432 124.562 256.369 124.489 256.327 124.624C256.381 123.864 255.549 122.811 255.496 121.94C255.431 121.909 255.384 121.902 255.346 121.906C255.607 121.906 255.815 121.812 255.944 121.708C255.751 121.369 255.817 120.936 255.49 120.959C255.621 121.161 255.529 121.239 255.508 121.381L255.409 120.964C254.865 120.865 255.567 121.52 255.298 121.675C255.022 120.931 254.857 119.928 254.365 119.518C253.959 119.644 255.079 120.747 254.308 120.292C254.537 120.51 254.716 120.765 254.924 121.002C254.016 120.732 255.246 121.463 254.33 121.267C253.636 120.29 253.736 120.041 252.953 119.118C252.974 118.761 253.276 118.99 253.297 118.63C252.582 116.95 251.623 118.235 251.23 116.912C251.213 116.49 251.515 116.024 250.69 115.543L250.571 116.09C249.702 115.297 250.551 115.148 249.424 114.518C249.463 114.803 250.004 115.266 249.834 115.182C248.994 114.902 249.598 114.604 249.14 114.178L248.771 114.398C247.908 113.482 246.932 112.459 245.852 111.539C245.85 111.681 245.979 111.913 245.63 111.842C244.94 111.29 244.131 110.797 243.31 110.357C242.455 109.972 241.563 109.685 240.764 109.408L240.331 108.798C240.187 108.748 240.005 108.843 240.13 108.966C239.461 108.85 240.187 108.748 239.946 108.504C239.602 108.343 239.402 108.511 239.583 108.695C239.1 108.347 238.378 107.891 237.613 107.508C236.825 107.157 235.977 106.908 235.319 106.892L235.522 107.067C234.543 106.904 234.675 106.028 233.696 106.094L233.847 106.203C231.75 105.739 229.526 104.837 227.81 105.008C227.619 104.428 225.69 104.792 225.697 104.065C224.42 104.17 224.747 104.368 222.994 104.278C222.529 104.226 222.393 103.715 221.838 103.536L221.754 103.898L221.048 103.363L220.546 103.72L220.019 103.51C220.243 103.538 220.516 103.448 220.504 103.336C219.698 103.001 218.368 103.109 218.283 103.266C217.623 102.995 216.961 102.636 216.327 102.279C216.312 102.447 216.636 102.615 216.881 102.802C215.916 102.046 216.525 103.107 215.654 102.345C215.824 102.33 215.674 102.111 215.687 102.034C215.098 102.034 213.974 101.4 213.325 100.766L213.314 101.076C211.895 100.136 210.779 98.7801 209.65 97.3828C210.154 97.8087 210.393 97.3983 210.103 96.9776L209.664 97.0624C209.645 96.6521 210.122 97.388 209.924 96.6729C209.476 96.1967 209.285 96.5949 209.428 96.9759C209.289 96.7386 209.157 96.4997 209.051 96.2452C208.928 96.2746 208.985 96.4668 208.891 96.5967C208.914 96.1828 207.752 95.6444 207.87 95.0002L207.747 95.021C206.849 93.4627 206.633 92.6679 206.107 91.3399C206.413 91.1875 206.142 90.6958 206.248 90.211C205.803 89.2829 205.197 88.263 204.916 87.051C204.862 86.1679 205.131 86.7359 205.237 86.3099C204.921 86.322 204.678 85.1135 204.602 85.7853C204.334 84.3291 204.266 83.917 204.225 82.0505C204.383 82.2305 204.473 82.4435 204.56 82.3119C204.556 81.9743 204.312 81.5795 204.174 81.6488L204.153 81.7405C204.31 79.6402 202.702 77.0984 203.177 75.4379L203.155 75.5297L203.303 73.8553C203.144 73.1177 203.134 74.3315 202.867 73.8069C203.125 71.9888 202.358 71.1335 202.269 69.7258C201.149 69.002 200.896 66.1849 199.485 65.4057L199.708 65.3399C199.652 64.9243 199.339 65.0681 199.142 64.8932C199.293 64.8153 199.532 65.0802 199.485 64.8291C197.716 62.1765 194.343 60.8761 191.255 60.0571C190.127 59.7143 190.922 58.7949 189.295 58.8763L189.618 59.3732C187.36 58.2339 184.654 58.4607 182.247 57.8582C182.388 57.962 182.385 58.0833 182.624 58.104C182.152 58.3534 180.521 57.9222 180.575 57.6885C180.151 57.6677 180.45 57.8893 180.174 57.9707C179.57 58.0348 178.807 57.3716 178.456 57.5742C178.396 57.6054 178.592 57.711 178.693 57.7473C178.354 57.5309 176.982 57.3578 177.416 57.1257C176.39 57.0219 175.62 56.4193 174.804 56.331C174.466 55.7821 173.137 55.8566 173.213 55.2869C173.061 55.8063 171.428 54.9406 171.024 54.3883C171.128 54.6359 170.468 54.2671 170.569 54.5891C169.945 54.2255 169.424 53.8117 169.679 53.6333C168.212 53.4775 167.757 51.7824 166.699 52.0161C165.141 50.553 163.813 49.1367 162.516 47.7878C162.198 48.2346 164.016 49.2129 163.587 49.5886C162.391 48.2224 161.944 47.2113 160.618 46.0598C160.241 45.7932 160.635 46.4078 160.68 46.5827C159.556 45.1958 158.254 44.1483 157.424 42.7804C157.387 42.8185 157.457 42.983 157.53 43.1336C157.342 42.886 157 42.6384 157.21 42.5033L157.356 42.7752C157.947 42.9102 157.123 41.3536 157.236 41.1926C157.035 42.048 156.095 40.1399 155.946 41.345C155.85 41.1597 155.774 40.8913 155.932 40.8203C155.703 40.6195 155.571 40.6039 155.614 40.9641C155.027 40.0117 155.479 40.1537 154.852 39.3763C154.76 39.4525 154.848 39.6395 154.803 39.8092C154.67 39.2655 154.538 38.7253 153.931 38.1262C153.905 38.211 153.77 38.192 153.928 38.3876C153.079 37.2067 152.949 36.0363 151.83 34.8969C151.676 35.5757 151.379 34.561 150.964 34.7567L150.578 33.9948L150.955 34.142C150.515 33.5464 150.396 32.8243 149.901 32.3984L150.074 32.9507L149.324 31.7837L149.927 32.3136C149.67 31.5742 150.437 32.0417 149.75 31.3232C149.831 31.5119 149.303 30.7275 148.859 30.5786V30.5821C148.755 30.2029 148.65 29.8098 148.23 29.4393C148.029 29.4133 147.898 29.8306 147.766 29.815C147.851 29.299 146.803 28.3744 146.841 27.7684C146.858 27.9468 146.676 28.0974 146.606 28.0887L146.664 27.6611C146.375 27.4516 146.308 27.4412 146.191 27.6005C145.514 26.823 146.848 27.5052 145.898 26.6949C145.938 26.7867 145.873 26.778 145.96 26.9633C145.102 26.0768 144.635 24.9859 143.802 24.2067C143.241 24.2362 144.34 25.0379 143.802 24.9859C142.843 23.6804 142.072 22.0528 140.947 20.9481L141.178 21.1334C141.525 20.5308 140.156 20.4789 139.816 19.7395C139.917 19.9075 139.736 20.1603 139.75 20.0754C138.899 19.4382 138.397 18.3786 137.254 17.2289L137.307 17.4765C136.718 17.2081 135.952 16.5397 135.375 16.1882C135.315 15.9337 134.993 15.719 135.318 15.6671C134.227 15.4021 133.408 14.8896 132.666 14.2438C131.935 13.5876 131.124 13.0681 130.117 13.0543C130.318 13.146 130.535 13.3988 130.376 13.3296L129.005 12.5539C129.222 12.3461 129.257 12.4811 129.644 12.4153C129.525 12.1833 129.16 11.8768 128.794 11.7193C129.384 12.1868 128.634 12.1106 128.283 12.1885C128.361 12.1244 128.293 12.0032 128.349 11.9305C127.394 12.1487 128.403 11.3591 127.206 11.3297L127.218 11.4873C126.836 11.2881 126.517 10.9834 126.064 10.883C125.796 11.1375 126.456 11.1652 126.409 11.4284C125.817 11.1964 125.35 10.4726 124.695 10.6821C124.943 10.8258 125.327 10.9072 125.572 11.0492C124.86 11.2864 124.815 11.1791 124.344 11.1427L124.391 11.1444L123.306 11.0925L123.592 11.0475C122.969 10.0294 122.029 10.5834 121.02 9.93412C122.008 10.573 121.156 10.2527 121.194 10.6267C120.909 10.696 120.487 10.76 120.593 10.876C120.117 10.5419 119.747 10.9747 119.065 10.5367C119.027 10.6527 118.523 10.5297 118.624 10.8293C117.974 10.715 118.787 10.6302 118.74 10.4813C117.728 10.0311 116.363 10.876 114.892 10.4207C113.615 10.2233 113.348 9.922 112.134 9.8285C111.757 10.0571 112.511 10.2198 112.511 10.2198C111.889 10.4501 111.41 10.4795 110.79 10.4518C110.927 10.5349 110.814 10.6406 110.654 10.8016C110.173 10.8483 110.264 10.4293 109.659 10.7029C109.793 10.8137 109.968 10.999 110.22 11.0925C109.64 11.0648 109.048 10.9678 108.445 10.9903C108.336 11.2241 108.86 11.2206 109.088 11.3089C108.424 11.3539 107.374 11.4803 107.099 11.2327L107.485 11.0128Z" fill="white"/>
</g>
</svg>
