<svg width="311" height="285" viewBox="0 0 311 285" fill="none" xmlns="http://www.w3.org/2000/svg">
<path fill-rule="evenodd" clip-rule="evenodd" d="M280.348 283.859H68.0071C52.1534 283.859 39.3008 271.043 39.3008 255.235V76.5674C39.3008 60.7591 52.1534 47.9434 68.0071 47.9434H280.348C296.202 47.9434 309.055 60.7591 309.055 76.5674V255.235C309.055 271.043 296.202 283.859 280.348 283.859Z" fill="#F0F4FF"/>
<path fill-rule="evenodd" clip-rule="evenodd" d="M288.877 196.919C285.519 193.009 267.409 166.355 245.303 137.306C229.919 117.091 207.629 111.7 196.407 110.264C196.481 113.191 196.492 115.126 196.492 115.126C196.492 115.126 193.717 128.1 173.45 127.474C148.137 126.694 151.675 116.976 151.675 116.976C151.675 116.976 152.663 114.199 153.479 111.388C147.864 113.471 135.161 119.37 119.499 134.217C111.946 141.378 88.8281 172.343 88.8281 172.343C88.8281 172.343 90.2264 175.826 92.5728 180.74H116.357C118.71 180.74 120.869 182.041 121.965 184.12L161.18 258.581H110.532L107.15 284.687H249.319L234.114 231.287C234.114 231.287 278.432 209.683 288.877 196.919Z" fill="#CBB2FF"/>
<mask id="mask0_1548_8312" style="mask-type:luminance" maskUnits="userSpaceOnUse" x="88" y="110" width="201" height="175">
<path fill-rule="evenodd" clip-rule="evenodd" d="M288.877 196.919C285.519 193.009 267.409 166.355 245.303 137.306C229.919 117.091 207.629 111.7 196.407 110.264C196.481 113.191 196.492 115.126 196.492 115.126C196.492 115.126 193.717 128.1 173.45 127.474C148.137 126.694 151.675 116.976 151.675 116.976C151.675 116.976 152.663 114.199 153.479 111.388C147.864 113.471 135.161 119.37 119.499 134.217C111.946 141.378 88.8281 172.343 88.8281 172.343C88.8281 172.343 90.2264 175.826 92.5728 180.74H116.357C118.71 180.74 120.869 182.041 121.965 184.12L161.18 258.581H110.532L107.15 284.687H249.319L234.114 231.287C234.114 231.287 278.432 209.683 288.877 196.919Z" fill="white"/>
</mask>
<g mask="url(#mask0_1548_8312)">
<rect x="-371.371" y="-267.515" width="740.678" height="744.811" rx="80" fill="#CBB2FF"/>
</g>
<path fill-rule="evenodd" clip-rule="evenodd" d="M54.2597 104.336C54.2597 104.336 53.846 110.119 53.0185 120.033C52.191 129.948 51.3653 131.599 53.4323 134.077C55.5009 136.557 63.7705 147.297 73.695 160.516C83.6195 173.733 87.3397 177.04 87.3397 177.04L89.7826 174.515L106.852 214.352L119.18 241.068C119.18 241.068 101.36 249.015 87.3397 243.546C67.422 235.775 54.6735 197.28 47.2297 184.474C39.7859 171.669 33.585 159.276 33.585 159.276C33.585 159.276 20.766 151.426 12.4948 140.687C4.2252 129.948 3.39944 127.056 3.81146 124.576C4.2252 122.098 5.59344 122.496 5.59344 122.496C5.59344 122.496 -0.355079 115.955 1.58999 112.069C2.87584 109.498 5.87842 111.069 5.87842 111.069C5.87842 111.069 4.0209 105.356 7.02349 103.641C9.53681 102.207 12.0278 104.499 12.0278 104.499C12.0278 104.499 9.98144 101.281 13.5574 99.7103C17.1317 98.1393 31.1867 109.211 35.0476 112.64C38.9086 116.068 41.3395 118.925 41.3395 118.925C41.3395 118.925 46.0193 100.602 54.2597 104.336Z" fill="white"/>
<path fill-rule="evenodd" clip-rule="evenodd" d="M201.039 60.1296C197.317 59.7197 193.935 61.7691 193.935 61.7691C193.935 61.7691 194.835 49.819 188.939 38.114C183.044 26.4091 154.879 23.2261 144.635 35.0064C144.635 35.0064 139.434 57.7149 139.973 73.0642C140.505 88.1665 149.561 93.9821 155.161 95.5599C154.969 98.9848 154.687 103.077 154.314 106.436C153.978 109.463 151.489 116.471 151.489 116.471C151.489 116.471 147.952 126.193 173.25 126.975C193.504 127.6 196.279 114.619 196.279 114.619C196.279 114.619 196.237 106.749 195.717 98.7018C195.46 94.7093 195.252 86.9797 195.111 80.2072C198.608 80.4953 203.499 79.9585 206.754 75.6281C212.296 68.257 205.873 60.6629 201.039 60.1296Z" fill="white"/>
<path fill-rule="evenodd" clip-rule="evenodd" d="M281.21 203.3C281.21 203.3 287.536 212.383 291.344 235.313C295.151 258.244 280.463 271.261 253.658 275.682C235.743 278.637 167.772 276.027 167.772 276.027C167.772 276.027 142.619 282.552 129.886 278.593C117.152 274.633 102.273 263.195 102.273 263.195L171.513 264.752L177.601 258.157L236.808 239.782L233.012 231.514C233.012 231.514 245.78 225.165 257.381 218.348C270.396 210.702 281.21 203.3 281.21 203.3Z" fill="white"/>
<path fill-rule="evenodd" clip-rule="evenodd" d="M56.0501 264.94H209.318C209.948 264.94 210.458 264.43 210.458 263.801V259.525C210.458 258.896 209.948 258.387 209.318 258.387H56.0501C55.42 258.387 54.9102 258.896 54.9102 259.525V263.801C54.9102 264.43 55.42 264.94 56.0501 264.94Z" fill="white"/>
<path fill-rule="evenodd" clip-rule="evenodd" d="M19.4944 180.27H116.185C118.537 180.27 120.697 181.573 121.79 183.653L160.982 258.157H54.9023L16.5193 185.188C15.3433 182.954 16.9656 180.27 19.4944 180.27Z" fill="white"/>
<path fill-rule="evenodd" clip-rule="evenodd" d="M80.579 224.772C84.2632 228.01 89.1885 228.432 91.5799 225.716C93.9731 222.999 92.9259 218.171 89.2417 214.935C85.5576 211.697 80.634 211.275 78.2408 213.992C75.8494 216.708 76.8949 221.534 80.579 224.772Z" fill="white"/>
<mask id="mask1_1548_8312" style="mask-type:alpha" maskUnits="userSpaceOnUse" x="0" y="0" width="311" height="285">
<path fill-rule="evenodd" clip-rule="evenodd" d="M38.4258 179.799H40.8205V172.608C39.9639 171.033 39.1639 169.545 38.4258 168.159V179.799Z" fill="#393F49"/>
<path fill-rule="evenodd" clip-rule="evenodd" d="M165.715 58.386C165.48 60.0297 166.316 61.5089 167.581 61.6889C168.847 61.8689 170.062 60.6828 170.297 59.0373C170.532 57.3935 169.696 55.9143 168.431 55.7343C167.166 55.5544 165.951 56.7422 165.715 58.386Z" fill="#393F49"/>
<path fill-rule="evenodd" clip-rule="evenodd" d="M111.535 257.87L111.564 257.641H109.15L109.121 257.87H111.535Z" fill="#393F49"/>
<path fill-rule="evenodd" clip-rule="evenodd" d="M146.876 57.6167C148.014 57.8086 149.161 56.6345 149.437 54.9976C149.712 53.359 149.013 51.8764 147.875 51.6861C146.737 51.4941 145.59 52.6665 145.314 54.3052C145.039 55.9421 145.738 57.4264 146.876 57.6167Z" fill="#393F49"/>
<path fill-rule="evenodd" clip-rule="evenodd" d="M170.171 74.4949C169.709 74.416 169.235 74.6183 168.973 75.0091C168.811 75.2491 164.93 80.8591 157.14 78.2092C156.513 77.9949 155.832 78.3309 155.619 78.9548C155.406 79.5804 155.741 80.2592 156.366 80.4717C162.418 82.532 166.631 80.3706 168.926 78.4732C168.7 80.6054 167.553 83.5776 163.277 85.2813C162.662 85.5264 162.363 86.2223 162.609 86.8342C162.796 87.3022 163.246 87.5867 163.721 87.5867C163.869 87.5867 164.02 87.5593 164.164 87.501C173.19 83.9015 171.151 75.4599 171.129 75.3759C171.012 74.92 170.636 74.5737 170.171 74.4949Z" fill="#393F49"/>
<path fill-rule="evenodd" clip-rule="evenodd" d="M170.733 43.0808C170.109 43.2933 169.772 43.9721 169.987 44.596C170.199 45.2216 170.881 45.5644 171.506 45.3416C176.594 43.6156 178.985 47.3899 179.092 47.563C179.315 47.9366 179.71 48.1423 180.117 48.1423C180.324 48.1423 180.535 48.0875 180.728 47.9744C181.296 47.6367 181.483 46.9031 181.145 46.3357C179.981 44.3817 176.307 41.1868 170.733 43.0808Z" fill="#393F49"/>
<path fill-rule="evenodd" clip-rule="evenodd" d="M145.016 40.8335C144.484 41.2243 144.369 41.9699 144.758 42.5046C145.148 43.036 145.895 43.1525 146.43 42.7617C149.701 40.3741 152.459 42.8097 152.765 43.096C152.995 43.3188 153.293 43.4285 153.59 43.4285C153.905 43.4285 154.217 43.3051 154.452 43.0634C154.912 42.5869 154.897 41.831 154.421 41.3717C152.911 39.9164 149 37.9247 145.016 40.8335Z" fill="#393F49"/>
<path fill-rule="evenodd" clip-rule="evenodd" d="M194.327 73.9397C195.225 74.4779 196.229 74.7539 197.25 74.7539C197.714 74.7539 198.181 74.6956 198.643 74.5807C200.121 74.2122 201.365 73.2901 202.148 71.9874C202.933 70.683 203.161 69.1541 202.79 67.68C202.63 67.039 201.98 66.6465 201.34 66.8093C200.697 66.9704 200.308 67.6183 200.469 68.2594C200.684 69.1147 200.55 70.0025 200.097 70.7584C199.642 71.5143 198.919 72.0474 198.062 72.2616C197.208 72.4708 196.315 72.3422 195.56 71.8897C194.991 71.5503 194.258 71.7354 193.917 72.2994C193.577 72.8667 193.761 73.6003 194.327 73.9397Z" fill="#393F49"/>
<path fill-rule="evenodd" clip-rule="evenodd" d="M156.252 123.846C160.135 126.35 165.278 127.604 171.624 127.604C176.197 127.604 181.394 126.953 187.194 125.65C187.84 125.505 188.245 124.865 188.101 124.221C187.953 123.578 187.314 123.167 186.669 123.318C170.311 126.993 161.853 124.572 157.641 121.895C153.462 119.24 152.679 115.959 152.64 115.79C152.506 115.143 151.878 114.73 151.229 114.864C150.582 114.996 150.165 115.628 150.298 116.275C150.334 116.449 151.239 120.611 156.252 123.846Z" fill="#393F49"/>
<path fill-rule="evenodd" clip-rule="evenodd" d="M79.1343 214.29C79.9291 213.389 81.1359 212.905 82.5711 212.905C82.7599 212.905 82.9539 212.915 83.1496 212.933C84.9744 213.089 86.8558 213.942 88.4454 215.341C90.0367 216.738 91.1251 218.491 91.5131 220.279C91.8718 221.931 91.5766 223.404 90.6753 224.427C89.7758 225.449 88.3373 225.918 86.6601 225.788C84.8353 225.632 82.9556 224.775 81.3643 223.38C79.7746 221.981 78.6829 220.228 78.2966 218.44C77.9361 216.786 78.2348 215.312 79.1343 214.29ZM79.7809 225.173C81.7534 226.906 84.1223 227.969 86.4535 228.169C86.7213 228.192 86.9857 228.204 87.2449 228.204C89.3753 228.204 91.2104 227.436 92.4721 226.004C93.8849 224.402 94.3741 222.187 93.8523 219.774C93.3562 217.491 91.9966 215.28 90.0242 213.549C88.0535 211.814 85.6828 210.75 83.3516 210.551C80.8882 210.335 78.751 211.108 77.3347 212.714C75.9202 214.316 75.431 216.531 75.9545 218.948C76.4506 221.229 77.8085 223.44 79.7809 225.173Z" fill="#393F49"/>
<path fill-rule="evenodd" clip-rule="evenodd" d="M270.619 233.633C270.63 232.973 270.103 232.431 269.44 232.419C252.808 232.149 240.238 237.383 239.713 237.606C239.105 237.865 238.822 238.564 239.079 239.171C239.272 239.627 239.716 239.899 240.182 239.899C240.338 239.899 240.496 239.87 240.649 239.805C240.774 239.75 253.249 234.522 269.404 234.81C270.06 234.74 270.609 234.291 270.619 233.633Z" fill="#393F49"/>
<path fill-rule="evenodd" clip-rule="evenodd" d="M308.148 253.249C308.148 269.438 294.957 282.608 278.744 282.608H249.978L248.371 276.964C250.479 276.789 252.338 276.583 253.838 276.335C267.814 274.031 278.237 269.462 284.819 262.755C291.835 255.605 294.422 246.139 292.508 234.614C289.308 215.348 284.388 205.816 282.74 203.033C285.56 200.813 287.926 198.675 289.515 196.733L290.149 195.959L289.497 195.199C288.223 193.715 284.582 188.605 279.543 181.533C271.554 170.32 259.481 153.374 245.995 135.642C230.87 115.752 209.02 109.998 197.306 108.318L196.655 81.3C196.654 81.216 196.623 81.1423 196.605 81.0635C200.183 81.0755 204.576 80.0762 207.693 75.9317C210.225 72.5653 210.761 68.7259 209.197 65.1213C208.407 63.2992 207.092 61.6812 205.57 60.4951C205.802 60.2191 206.227 59.4701 206.507 58.7673C206.507 58.7673 208.804 54.7256 210.885 48.7985H278.744C294.957 48.7985 308.148 61.9691 308.148 78.1599V253.249ZM40.8296 253.25V233.471L53.931 258.366C53.7868 258.702 53.7044 259.071 53.7044 259.46V262.833C53.7044 264.367 54.9542 265.616 56.4906 265.616H104.258C105.228 266.306 106.431 267.14 107.805 268.054L105.92 282.609H70.2357C54.022 282.609 40.8296 269.439 40.8296 253.25ZM159.267 259.066H208.849C209.065 259.066 209.24 259.241 209.24 259.459V262.832C209.24 263.05 209.065 263.225 208.849 263.225H169.745C167.361 262.042 163.787 260.475 159.267 259.066ZM56.4888 263.225C56.2725 263.225 56.0974 263.05 56.0974 262.832V259.459C56.0974 259.241 56.2725 259.066 56.4888 259.066H125.773C125.846 259.276 125.929 259.486 126.042 259.694C126.683 260.887 128.063 262.073 129.881 263.225H56.4888ZM167.81 274.306C167.692 274.306 167.575 274.318 167.463 274.342C167.211 274.407 142.491 280.734 130.233 276.922C122.499 274.519 113.92 269.267 108.493 265.616H134.353C143.321 269.767 156.255 273.026 158.278 273.521C158.374 273.543 158.47 273.555 158.564 273.555C159.102 273.555 159.593 273.192 159.727 272.645C159.883 272.006 159.491 271.356 158.849 271.2C151.19 269.32 130.741 263.384 128.149 258.564C127.886 258.076 127.941 257.783 128.006 257.603C128.425 256.435 131.548 255.815 139.077 257.551C141.345 258.074 143.787 258.403 146.151 258.722C148.536 259.043 151.001 259.377 153.274 259.906C164.513 262.525 171.774 267.042 171.846 267.086C172.406 267.436 173.144 267.27 173.497 266.711C173.714 266.368 173.712 265.964 173.566 265.616H208.848C210.385 265.616 211.634 264.366 211.634 262.832V259.459C211.634 257.925 210.385 256.675 208.848 256.675H184.731L237.149 240.42C237.477 240.317 237.746 240.077 237.885 239.765C238.026 239.449 238.024 239.093 237.882 238.781L234.569 231.561C237.849 229.904 248.366 224.525 257.972 218.884C268.56 212.669 277.792 206.545 280.824 204.509C282.48 207.431 287.131 216.852 290.145 235.005C291.929 245.736 289.56 254.509 283.11 261.082C276.891 267.419 266.91 271.759 253.449 273.979C235.856 276.875 168.488 274.33 167.81 274.306ZM108.334 282.552L110.023 269.505C115.458 272.979 122.733 277.094 129.519 279.204C132.626 280.171 136.408 280.539 140.377 280.539C152.37 280.539 166.056 277.166 167.89 276.7C171.981 276.854 222.158 278.709 245.93 277.146L247.468 282.552H108.334ZM162.406 61.2396C162.315 58.6943 163.223 56.2672 164.96 54.404C166.699 52.5409 169.06 51.4645 171.607 51.3736C171.724 51.3702 171.839 51.3685 171.956 51.3685C174.376 51.3685 176.673 52.2684 178.453 53.9241C180.319 55.6604 181.397 58.0172 181.488 60.5626C181.578 63.1062 180.671 65.5333 178.932 67.3964C177.195 69.2596 174.833 70.336 172.285 70.4268C169.738 70.5057 167.307 69.611 165.439 67.8764C163.573 66.1401 162.497 63.7832 162.406 61.2396ZM17.6448 182.037C18.0397 181.382 18.7315 180.995 19.4971 180.995H116.184C118.096 180.995 119.837 182.045 120.728 183.735L147.461 234.527C147.767 235.112 148.489 235.335 149.076 235.03C149.66 234.725 149.887 234.001 149.578 233.417L122.848 182.625C122.475 181.919 121.995 181.298 121.444 180.76C125.018 156.311 128.363 141.57 128.408 141.371C128.556 140.727 128.154 140.087 127.51 139.94C126.866 139.789 126.224 140.194 126.075 140.838C126.03 141.034 122.772 155.396 119.246 179.257C118.299 178.835 117.26 178.604 116.184 178.604H93.1807C91.6117 175.285 90.5061 172.7 90.0358 171.574C93.1532 167.416 113.301 140.634 120.146 134.141C134.825 120.218 146.958 114.23 152.843 111.905C153.133 110.968 153.425 109.972 153.675 109.024C148.412 110.848 135.165 116.6 118.498 132.41C110.96 139.56 88.6573 169.42 87.7114 170.688L87.3115 171.225L87.5604 171.845C87.6342 172.034 87.938 172.779 88.4359 173.941L87.3681 174.918C85.8352 173.335 81.9006 168.991 74.6495 159.338C64.5419 145.883 56.3912 135.312 54.3502 132.866C53.0987 131.366 53.1519 130.449 53.691 125.175C53.8437 123.689 54.0274 121.893 54.2094 119.696C55.0385 109.776 55.4522 103.992 55.4522 103.992C55.4883 103.493 55.2085 103.025 54.7536 102.817C52.9356 101.996 51.1263 102 49.377 102.841C44.9103 104.982 42.0401 112.282 40.8316 115.995V78.1611C40.8316 61.9703 54.024 48.7997 70.2377 48.7997H134.552C133.051 50.8719 132.24 53.3419 132.334 55.9386C132.442 59.0239 133.747 61.8812 136.011 63.986C136.862 64.7779 137.834 65.3847 138.852 65.88C138.737 68.2317 138.692 70.5336 138.77 72.6933C139.278 87.1186 147.55 94.3844 155.124 96.3744C157.73 97.06 160.207 97.4063 162.628 97.4063C166.933 97.4063 171.055 96.3093 175.391 94.0725C179.612 91.8957 183.952 88.4162 186.999 84.767C187.423 84.2579 187.352 83.5037 186.846 83.0821C186.336 82.6604 185.583 82.729 185.16 83.2346C182.35 86.601 178.186 89.9399 174.292 91.9488C168.085 95.154 162.36 95.8037 155.734 94.0639C153.404 93.452 141.757 89.5423 141.161 72.6093C141.096 70.7496 141.12 68.7699 141.209 66.7353C142.081 66.9427 142.97 67.085 143.887 67.085C144.028 67.085 144.169 67.0833 144.308 67.0764C146.592 66.9959 148.749 66.2537 150.572 64.963C150.184 65.6983 149.741 66.4679 149.219 67.2838C146.426 71.6392 146.455 71.7712 146.58 72.3162C146.68 72.7516 147.015 73.0961 147.447 73.2075L153.631 74.8119C153.73 74.8376 153.831 74.8496 153.933 74.8496C154.463 74.8496 154.949 74.4913 155.088 73.9548C155.255 73.3155 154.872 72.6642 154.231 72.4979L149.536 71.2792C149.888 70.6999 150.422 69.8394 151.232 68.5728C155.605 61.7561 155.416 57.2756 155.407 57.0887C155.402 57.0116 155.371 56.9465 155.354 56.8745C155.421 56.2951 155.485 55.7141 155.462 55.121C155.438 54.4063 155.334 53.7087 155.183 53.0248C156.525 52.5465 159.364 52.0358 161.639 54.9393C160.521 56.8591 159.938 59.0479 160.02 61.3224C160.132 64.5054 161.479 67.4535 163.812 69.6252C166.04 71.6975 168.912 72.8236 171.94 72.8236C172.086 72.8236 172.231 72.8202 172.375 72.815C175.563 72.7036 178.515 71.3581 180.688 69.027C182.863 66.6959 183.998 63.6604 183.885 60.4791C183.772 57.2961 182.424 54.348 180.089 52.1763C177.755 50.0046 174.699 48.8442 171.528 48.9865C168.341 49.0996 165.388 50.4434 163.215 52.7745C163.167 52.8259 163.134 52.8894 163.086 52.9425C160.286 49.8332 156.71 49.9686 154.439 50.7502C153.816 49.3807 152.923 48.1312 151.787 47.0736C149.645 45.0819 146.876 44.0124 143.978 44.0107C144.786 39.501 145.509 36.1587 145.727 35.1782C146.132 34.7343 146.616 34.3349 147.089 33.9287C152.465 33.5327 156.036 30.8177 159.623 30.6206C164.07 30.3772 172.035 35.8638 172.035 35.8638C172.035 35.8638 175.76 35.3719 173.866 31.493C171.975 27.6125 182.429 36.6334 184.571 39.8815C190.89 49.4716 191.799 60.1054 191.91 64.6836C191.915 64.8567 192.331 64.2106 192.957 63.3381L194.542 62.3868C194.573 62.368 197.64 60.5442 200.895 60.9145C202.867 61.1304 205.681 63.0142 207.005 66.0703C207.858 68.0397 208.34 71.101 205.784 74.4982C200.837 81.0784 191.639 77.9845 191.248 77.8474C190.631 77.6366 189.943 77.9588 189.725 78.581C189.507 79.2032 189.835 79.8837 190.458 80.1014C190.624 80.1597 192.168 80.679 194.341 80.9327C194.295 81.0664 194.262 81.2086 194.265 81.3595L195.155 118.259C195.172 118.909 195.704 119.425 196.353 119.425H196.382C197.041 119.409 197.565 118.861 197.549 118.201L197.369 110.735C208.759 112.425 229.628 118.067 244.093 137.088C257.555 154.79 269.618 171.718 277.598 182.921C282.161 189.327 285.383 193.846 287.036 195.956C285.237 197.964 282.642 200.178 279.555 202.482C276.647 204.439 267.408 210.575 256.763 216.827C255.835 217.372 254.897 217.913 253.958 218.45C242.912 224.586 233.541 229.176 233.338 229.274L232.438 229.713L232.442 229.72C224.341 233.722 215.71 234.689 213.03 234.899C211.99 232.15 208.368 222.032 202.799 200.819C197.385 180.199 196.114 164.927 196.102 164.775C196.049 164.118 195.495 163.628 194.813 163.679C194.156 163.733 193.663 164.309 193.714 164.967C193.728 165.119 195.012 180.587 200.481 201.426C207.163 226.874 210.965 236.217 211.125 236.603L211.44 237.371L212.273 237.344C212.714 237.328 222.551 236.927 232.335 232.426L234.637 237.436L234.967 238.595L177.24 256.5C177.132 256.532 177.053 256.614 176.958 256.676H161.821L155.806 245.249C155.498 244.666 154.776 244.436 154.19 244.746C153.605 245.053 153.378 245.777 153.687 246.359L158.995 256.445H147.116C146.903 256.417 146.689 256.383 146.477 256.354C144.062 256.028 141.781 255.72 139.621 255.223C131.603 253.375 127.261 253.779 125.951 256.445H55.6273L17.5813 184.157C17.226 183.483 17.2517 182.69 17.6448 182.037ZM34.6499 158.282C34.5503 158.083 34.3958 157.913 34.2035 157.799C34.0782 157.721 21.4729 149.936 13.4407 139.51C5.09094 128.672 4.67379 126.226 4.98794 124.334C5.09952 123.664 5.26947 123.37 5.26604 123.259C11.2348 126.78 17.3838 133.152 18.8499 134.719C17.8405 136.935 17.4422 138.454 17.3993 138.622C17.2414 139.261 17.6345 139.909 18.2765 140.067C18.3709 140.091 18.4688 140.101 18.5632 140.101C19.1005 140.101 19.5897 139.738 19.7236 139.193C19.7305 139.164 21.0214 135.016 23.5569 131.462C26.8494 126.85 31.7539 122.448 33.6937 121.192C34.2465 120.834 34.4044 120.093 34.0439 119.538C33.6851 118.986 32.9435 118.827 32.3873 119.188C31.7058 119.629 31.0621 120.086 30.4372 120.547C30.3943 120.477 30.3634 120.402 30.3033 120.34C30.3033 120.34 27.4623 117.402 24.8547 114.783C18.7846 108.688 13.7274 104.014 12.9841 103.328C12.8021 102.989 12.5034 102.238 12.7043 101.594C12.857 101.109 13.3051 100.699 14.0329 100.378C16.2715 99.3808 27.8417 107.416 34.2482 113.1C36.8506 115.41 38.7836 117.448 39.7414 118.503C38.5982 120.018 36.7493 123.513 37.472 129.885C38.0763 135.214 42.0864 140.267 42.258 140.48C42.4949 140.776 42.8417 140.929 43.1919 140.929C43.4545 140.929 43.7172 140.843 43.9386 140.667C44.4553 140.255 44.5377 139.503 44.1275 138.989C44.0897 138.941 40.3749 134.249 39.8513 129.616C39.0136 122.231 41.9576 119.531 42.1087 119.399C42.1224 119.387 42.1276 119.37 42.1396 119.358C42.1722 119.33 42.1877 119.294 42.2151 119.264C42.3233 119.142 42.4005 119.007 42.4503 118.857C42.4589 118.83 42.4864 118.811 42.4932 118.784C43.3035 115.616 46.3025 106.964 50.407 104.996C51.2584 104.588 52.1082 104.495 52.9939 104.723C52.848 106.703 52.4566 111.88 51.8198 119.497C51.6378 121.677 51.4558 123.458 51.3048 124.932C50.7572 130.28 50.5735 132.081 52.5064 134.397C54.5286 136.819 62.6449 147.346 72.7285 160.771C82.6112 173.928 86.381 177.323 86.5372 177.462C86.9938 177.868 87.6856 177.861 88.1406 177.45L89.4452 176.257C89.7662 176.975 90.1199 177.757 90.513 178.604H45.5197C39.4427 167.826 34.7031 158.39 34.6499 158.282ZM2.65993 112.171C2.92086 111.65 3.22643 111.499 3.43242 111.429C4.08647 111.22 4.93106 111.515 5.26237 111.669C5.78766 112.067 10.7934 115.885 15.1296 120.577C17.8385 123.506 21.0401 126.768 22.6159 128.358C21.5516 129.8 20.6933 131.18 19.9998 132.446C17.787 130.134 12.0963 124.48 6.37819 121.135C4.92076 119.492 1.40335 114.684 2.65993 112.171ZM7.61826 104.25C9.32804 103.279 11.1442 104.884 11.2163 104.949C11.2163 104.949 11.2163 104.949 11.2181 104.949C11.2181 104.949 11.2181 104.949 11.2181 104.951C11.273 104.999 16.665 109.945 23.1608 116.469C25.7563 119.074 28.5854 121.998 28.5871 122.002C28.5888 122.004 28.5922 122.004 28.594 122.007C26.8567 123.467 25.3787 124.979 24.1169 126.472C22.4947 124.833 19.47 121.748 16.8916 118.956C12.7819 114.51 8.17617 110.886 6.9213 109.925C6.51789 108.452 5.99603 105.175 7.61826 104.25ZM137.178 49.2819C137.354 49.0916 137.576 48.9699 137.768 48.7985H140.733C140.024 53.2858 139.359 58.3131 139.001 63.2752C138.522 62.9719 138.062 62.629 137.638 62.2348C135.844 60.5653 134.807 58.2994 134.721 55.8535C134.633 53.4075 135.506 51.073 137.178 49.2819ZM143.562 46.37C143.565 46.37 143.565 46.37 143.568 46.3683C143.68 46.3649 143.792 46.3632 143.903 46.3632C146.229 46.3632 148.437 47.2288 150.15 48.8211C151.944 50.4923 152.979 52.7583 153.067 55.2042C153.154 57.6501 152.282 59.9846 150.61 61.7758C148.938 63.567 146.669 64.6005 144.219 64.6879C143.227 64.7239 142.264 64.5628 141.335 64.292C141.742 58.1335 142.662 51.6733 143.562 46.37ZM278.744 46.4097H211.67C214.02 38.8405 215.608 29.0071 212.222 20.4387C205.277 2.86293 192.931 2.39672 186.002 2.47556C178.998 2.55269 172.049 5.0569 172.049 5.0569C172.049 5.0569 166.141 -1.16505 157.218 0.19418C147.337 1.6991 144.461 10.7372 138.973 13.5259C133.483 16.3164 130.103 15.9376 132.131 20.8312C134.158 25.7247 137.257 32.8757 142.901 33.7807C143.184 33.8253 143.43 33.8167 143.704 33.8493L143.522 34.0584L143.457 34.3498C143.368 34.732 142.473 38.688 141.488 44.2466C139.777 44.6066 138.178 45.3402 136.796 46.4097H70.2335C52.6997 46.4097 38.4344 60.6534 38.4344 78.1605V113.728C37.6636 112.979 36.8035 112.169 35.8388 111.313C35.6637 111.157 18.1848 95.9453 13.0709 98.1907C11.3251 98.9569 10.6625 100.093 10.4135 100.907C10.3243 101.197 10.2762 101.483 10.2556 101.759C9.15181 101.434 7.80596 101.386 6.42749 102.176C3.92977 103.6 3.94522 106.841 4.27482 108.977C3.78214 108.946 3.23968 108.981 2.70237 109.152C1.75821 109.457 1.00289 110.131 0.515363 111.101C-1.23047 114.591 1.87495 119.328 3.65167 121.601C3.14355 122.131 2.7985 122.914 2.62855 123.941C2.12214 126.978 3.32723 130.301 11.5431 140.966C19.2577 150.98 30.6459 158.384 32.6613 159.653C33.4887 161.288 37.5829 169.333 42.774 178.603H19.4929C17.8827 178.603 16.4252 179.426 15.5927 180.8C14.7601 182.177 14.7103 183.846 15.4588 185.269L38.4344 228.924V253.249C38.4344 270.758 52.6997 285 70.2335 285H278.744C296.276 285 310.543 270.758 310.543 253.249V78.1605C310.543 60.6534 296.276 46.4097 278.744 46.4097Z" fill="#393F49"/>
</mask>
<g mask="url(#mask1_1548_8312)">
<rect x="-9.46484" y="-9.38379" width="330.66" height="330.66" rx="80" fill="#475574"/>
</g>
</svg>
