<svg width="36" height="36" viewBox="0 0 36 36" fill="none" xmlns="http://www.w3.org/2000/svg">
<rect width="36" height="36" rx="4" fill="#BBE4FF"/>
<path d="M11.0163 8.66406C8.43911 8.66406 6.34961 10.7536 6.34961 13.3307V22.6641C6.34961 25.2412 8.43911 27.3307 11.0163 27.3307L14.5268 27.3424C15.0238 27.3424 15.5441 27.571 16.1403 28.1205C16.3724 28.3352 16.6501 28.6036 16.8391 28.8544C17.0491 29.1344 17.3233 29.6675 18.0163 29.664C18.7093 29.6605 18.9345 29.1892 19.183 28.8614C19.3708 28.6304 19.596 28.4099 19.8281 28.1952C20.4255 27.6457 21.0193 27.3307 21.5163 27.3307H25.0163C27.5935 27.3307 29.683 25.2412 29.683 22.6641V13.3307C29.683 10.7536 27.5935 8.66406 25.0163 8.66406H21.5163C20.1035 8.66406 18.8726 9.31274 18.0163 10.3044C17.16 9.31274 15.9291 8.66406 14.5163 8.66406H11.0163ZM11.0163 10.9974H14.5163C15.8055 10.9974 16.8496 12.0416 16.8496 13.3307L16.8566 25.7545C16.1286 25.282 15.3469 24.9974 14.5163 24.9974H11.0163C9.72711 24.9974 8.68294 23.9532 8.68294 22.6641V13.3307C8.68294 12.0416 9.72711 10.9974 11.0163 10.9974ZM21.5163 10.9974H25.0163C26.3055 10.9974 27.3496 12.0416 27.3496 13.3307V22.6641C27.3496 23.9532 26.3055 24.9974 25.0163 24.9974H21.5163C20.6856 24.9974 19.9063 25.2972 19.1783 25.7697L19.183 13.3307C19.183 12.0416 20.2271 10.9974 21.5163 10.9974Z" fill="#009AFF"/>
</svg>
