<svg width="36" height="36" viewBox="0 0 36 36" fill="none" xmlns="http://www.w3.org/2000/svg">
<rect width="36" height="36" rx="4" fill="#FFFBD5"/>
<path opacity="0.986784" d="M23.8314 6.27869C23.5222 6.27869 23.2119 6.38836 22.9926 6.60653C21.2426 8.35653 21.2426 8.35653 20.6592 8.93986L12.4926 17.1065C12.2744 17.3259 12.1647 17.6362 12.1647 17.9454V22.612C12.1647 23.256 12.6874 23.7787 13.3314 23.7787C13.9147 23.7787 17.4147 23.7787 17.998 23.7787C18.3072 23.7787 18.6175 23.669 18.8369 23.4508L27.0035 15.2842C27.5869 14.7008 27.5869 14.7008 29.3369 12.9508C29.555 12.7315 29.6647 12.4212 29.6647 12.112C29.6647 10.2034 29.1782 8.83953 28.1702 7.80937C27.1517 6.77103 25.7925 6.27869 23.8314 6.27869ZM12.1647 7.44535C9.58755 7.44535 7.49805 9.53485 7.49805 12.112V23.7787C7.49805 26.3559 9.58755 28.4454 12.1647 28.4454H23.8314C26.4085 28.4454 28.498 26.3559 28.498 23.7787V19.112C28.498 18.468 27.9754 17.9454 27.3314 17.9454C26.6874 17.9454 26.1647 18.468 26.1647 19.112V23.7787C26.1647 25.0679 25.1205 26.112 23.8314 26.112H12.1647C10.8755 26.112 9.83138 25.0679 9.83138 23.7787V12.112C9.83138 10.8229 10.8755 9.77869 12.1647 9.77869H16.8314C17.4754 9.77869 17.998 9.25602 17.998 8.61202C17.998 7.96802 17.4754 7.44535 16.8314 7.44535H12.1647ZM24.3062 8.63417C25.3585 8.696 26.0247 8.93634 26.4926 9.41467C26.9709 9.90234 27.2462 10.6385 27.3104 11.671C26.7399 12.2415 26.3864 12.5799 26.1694 12.798C25.2442 11.874 24.0705 10.7108 23.1465 9.78567C23.3647 9.5675 23.7357 9.20467 24.3062 8.63417ZM21.5004 11.4424L24.5162 14.4501L17.487 21.4454C16.7497 21.4454 15.5725 21.4454 14.498 21.4454V18.4563L21.5004 11.4424Z" fill="#F7A500"/>
</svg>
