<svg width="36" height="36" viewBox="0 0 36 36" fill="none" xmlns="http://www.w3.org/2000/svg">
<rect width="36" height="36" rx="4" fill="#ECEDFF"/>
<path d="M12.1647 7.41797C9.58755 7.41797 7.49805 9.50747 7.49805 12.0846V23.7513C7.49805 26.3285 9.58755 28.418 12.1647 28.418H23.8314C26.4085 28.418 28.498 26.3285 28.498 23.7513V12.0846C28.498 9.50747 26.4085 7.41797 23.8314 7.41797H12.1647ZM12.1647 9.7513H23.8314C25.1205 9.7513 26.1647 10.7955 26.1647 12.0846V23.7513C26.1647 25.0405 25.1205 26.0846 23.8314 26.0846H12.1647C10.8755 26.0846 9.83138 25.0405 9.83138 23.7513V12.0846C9.83138 10.7955 10.8755 9.7513 12.1647 9.7513ZM13.3314 12.0846C12.6874 12.0846 12.1647 12.6073 12.1647 13.2513C12.1647 13.8953 12.6874 14.418 13.3314 14.418C13.9754 14.418 14.498 13.8953 14.498 13.2513C14.498 12.6073 13.9754 12.0846 13.3314 12.0846ZM16.8314 12.0846C16.1874 12.0846 15.6647 12.6073 15.6647 13.2513C15.6647 13.8953 16.1874 14.418 16.8314 14.418H22.6647C23.3087 14.418 23.8314 13.8953 23.8314 13.2513C23.8314 12.6073 23.3087 12.0846 22.6647 12.0846H16.8314ZM13.3314 16.7513C12.6874 16.7513 12.1647 17.274 12.1647 17.918C12.1647 18.562 12.6874 19.0846 13.3314 19.0846C13.9754 19.0846 14.498 18.562 14.498 17.918C14.498 17.274 13.9754 16.7513 13.3314 16.7513ZM16.8314 16.7513C16.1874 16.7513 15.6647 17.274 15.6647 17.918C15.6647 18.562 16.1874 19.0846 16.8314 19.0846H22.6647C23.3087 19.0846 23.8314 18.562 23.8314 17.918C23.8314 17.274 23.3087 16.7513 22.6647 16.7513H16.8314ZM13.3314 21.418C12.6874 21.418 12.1647 21.9406 12.1647 22.5846C12.1647 23.2286 12.6874 23.7513 13.3314 23.7513C13.9754 23.7513 14.498 23.2286 14.498 22.5846C14.498 21.9406 13.9754 21.418 13.3314 21.418ZM16.8314 21.418C16.1874 21.418 15.6647 21.9406 15.6647 22.5846C15.6647 23.2286 16.1874 23.7513 16.8314 23.7513H22.6647C23.3087 23.7513 23.8314 23.2286 23.8314 22.5846C23.8314 21.9406 23.3087 21.418 22.6647 21.418H16.8314Z" fill="#8551F3"/>
</svg>
