<svg width="36" height="36" viewBox="0 0 36 36" fill="none" xmlns="http://www.w3.org/2000/svg">
<rect width="36" height="36" rx="4" fill="#FFD4B2"/>
<path d="M26.1566 11V8.66663L29.6566 12.1666L26.1566 15.6666L26.1566 13.3333H23.8232C21.1853 13.3333 19.7474 14.661 18.1307 18.0047C19.8345 21.4591 21.1853 22.6666 23.8232 22.6666H26.1657L26.1566 20.3333C26.1657 20.3333 27.1045 21.2725 27.3324 21.5L29.6657 23.8059L26.1657 27.3333V25L23.8232 24.9999C20.4446 24.9999 18.6745 23.5545 16.8105 20.5421C14.9741 23.5171 13.2018 24.9999 9.82324 24.9999H7.48991C6.84556 24.9999 6.32324 24.4773 6.32324 23.8333C6.32324 23.1893 6.84556 22.6666 7.48991 22.6666H9.82324C12.4611 22.6666 13.921 21.3459 15.5118 18.0163C13.9139 14.6854 12.4611 13.3333 9.82324 13.3333H7.48991C6.84556 13.3333 6.32324 12.8106 6.32324 12.1666C6.32324 11.5226 6.84556 11 7.48991 11H9.82324C12.8162 11.0396 14.9435 12.2506 16.8326 15.5068C18.45 12.6741 20.4688 11.0105 23.8232 11H26.1566Z" fill="#FF7000"/>
</svg>
