<svg width="38" height="28" viewBox="0 0 38 28" fill="none" xmlns="http://www.w3.org/2000/svg">
<path id="Loved by so many peo" d="M16.4577 0.263065C16.4131 0.263065 14.7183 2.69171 11.3732 7.54899C10.7934 8.35185 10.5035 8.77335 10.5035 8.81349C9.4777 10.2988 8.96479 11.5432 8.96479 12.5468C8.96479 13.5504 9.5 14.2328 10.5704 14.5941C11.9977 15.1159 13.1796 15.8385 14.1162 16.7618C15.0974 17.6851 15.588 18.9897 15.588 20.6757C15.588 22.6427 14.8744 24.2484 13.4472 25.4929C12.02 26.7373 10.2805 27.3595 8.22887 27.3595C5.86502 27.3595 3.90258 26.6771 2.34155 25.3122C0.780516 23.9474 0 22.0606 0 19.6521C0 18.2069 0.200704 16.9023 0.602113 15.7381C1.04812 14.5339 1.71714 13.2694 2.60915 11.9446C4.17019 9.77692 6.15493 7.26799 8.56338 4.41785C10.9718 1.56771 12.1761 0.182779 12.1761 0.263065H16.4577ZM32.1127 14.5941C33.5399 15.1159 34.7218 15.8385 35.6585 16.7618C36.6397 17.6851 37.1303 18.9897 37.1303 20.6757C37.1303 22.6427 36.4167 24.2484 34.9894 25.4929C33.5622 26.7373 31.8228 27.3595 29.7711 27.3595C27.4073 27.3595 25.4448 26.6771 23.8838 25.3122C22.3228 23.9474 21.5423 22.0606 21.5423 19.6521C21.5423 18.2069 21.743 16.9023 22.1444 15.7381C22.5904 14.5339 23.2594 13.2694 24.1514 11.9446C25.7124 9.77692 27.6972 7.26799 30.1056 4.41785C32.5141 1.56771 33.7183 0.182779 33.7183 0.263065H38C37.9554 0.263065 36.2606 2.69171 32.9155 7.54899C32.3357 8.35185 32.0458 8.77335 32.0458 8.81349C31.02 10.2988 30.507 11.5432 30.507 12.5468C30.507 13.5504 31.0423 14.2328 32.1127 14.5941Z" fill="#8551F3"/>
</svg>
