<svg width="61" height="41" viewBox="0 0 61 41" fill="none" xmlns="http://www.w3.org/2000/svg">
<path id="Shape" fill-rule="evenodd" clip-rule="evenodd" d="M-0.000305176 26.7668C-0.000305176 12.0057 12.4142 0 27.6788 0C28.7698 0 29.6602 0.849056 29.6602 1.90331C29.6602 2.96946 28.7698 3.81852 27.6788 3.81852C18.1608 3.81852 9.93591 9.27269 6.15678 17.1149C8.1073 15.9596 10.3988 15.2919 12.8493 15.2919C19.9354 15.2919 25.7005 20.8665 25.7005 27.7185C25.7005 34.5719 19.9354 40.1465 12.8493 40.1465C5.76329 40.1465 -0.000305176 34.5719 -0.000305176 27.7185C-0.000305176 27.4761 0.00895309 27.2352 0.0228424 26.9943C0.0135841 26.92 -0.000305176 26.8441 -0.000305176 26.7668ZM58.612 0C59.7138 0 60.5918 0.849056 60.5918 1.90331C60.5918 2.96946 59.7138 3.81852 58.612 3.81852C49.097 3.81852 40.8783 9.26972 37.1023 17.1075C39.0497 15.9566 41.3366 15.2919 43.7825 15.2919C50.8685 15.2919 56.6429 20.8665 56.6429 27.7185C56.6429 34.5719 50.8685 40.1465 43.7825 40.1465C36.6949 40.1465 30.9313 34.5719 30.9313 27.7185C30.9313 27.4761 30.9406 27.2337 30.9545 26.9928C30.9452 26.917 30.9313 26.8441 30.9313 26.7668C30.9313 12.0057 43.3473 0 58.612 0Z" fill="#8551F3"/>
</svg>
