<svg width="80" height="80" viewBox="0 0 80 80" fill="none" xmlns="http://www.w3.org/2000/svg">
<path d="M9.70272 16.3173C8.86272 16.468 8.10942 16.7603 7.51609 17.463C6.32942 18.8686 6.30275 20.7636 7.93275 22.359C11.2694 25.626 14.8794 26.3173 17.6194 26.3173C19.9227 26.3173 22.7494 25.694 25.0161 24.1296C25.7094 23.6506 26.9494 22.9976 28.3494 22.984C29.7994 22.9696 31.4394 23.2086 32.4127 23.9213C34.4761 25.4346 37.2594 26.3093 39.9127 26.3173C42.7794 26.3256 45.6494 25.4926 47.4127 24.1296C48.6061 23.2063 50.1294 22.984 51.5794 22.984C53.0261 22.984 53.7527 23.2533 55.5361 24.338C57.7027 25.6553 60.0028 26.3313 62.5161 26.3173C66.7928 26.293 69.5761 24.8196 72.4127 21.9423C73.7027 20.632 73.6428 18.6226 72.3061 17.359C70.9694 16.0953 68.9894 15.9203 67.7228 17.2546C67.5494 17.4396 66.7394 18.1366 66.6828 18.1923C65.6961 19.1563 64.0261 19.6743 62.5161 19.6506C61.1328 19.6286 59.9194 19.236 58.9728 18.609C56.1761 16.7513 53.8227 16.317 50.9527 16.3173C49.0227 16.3173 46.1228 16.9423 44.1828 18.2963C41.7294 20.0086 38.4761 19.9646 36.3694 18.5046C34.0027 16.8646 31.1428 16.219 28.3494 16.3173C25.4561 16.419 23.2061 17.2836 21.1627 18.713C19.4061 19.9396 15.8994 19.9633 13.9727 18.609L12.0994 17.1506C11.1461 16.484 10.6061 16.155 9.70272 16.3173ZM9.70272 32.984C8.86272 33.1346 8.10942 33.4266 7.51609 34.1296C6.32942 35.5353 6.40605 37.4303 8.03605 39.0256C11.3761 42.2926 14.8794 42.984 17.6194 42.984C19.9227 42.984 22.7494 42.3606 25.0161 40.7963C25.7094 40.3173 26.9494 39.664 28.3494 39.6506C29.7994 39.6363 31.4394 39.8753 32.4127 40.588C34.4761 42.1013 37.2594 42.976 39.9127 42.984C42.7794 42.9923 45.6494 42.1593 47.4127 40.7963C48.6061 39.873 50.1294 39.6506 51.5794 39.6506C53.0261 39.6506 53.7527 39.92 55.5361 41.0046C57.7027 42.322 60.0028 42.998 62.5161 42.984C66.7928 42.9596 69.5761 41.4863 72.4127 38.609C73.7027 37.2986 73.6428 35.185 72.3061 33.9213C70.9694 32.6576 68.9894 32.587 67.7228 33.9213C67.5494 34.1063 66.7394 34.8033 66.6828 34.859C65.6961 35.823 64.0261 36.341 62.5161 36.3173C61.1328 36.2953 59.9194 35.9026 58.9728 35.2756C56.1761 33.418 53.8227 32.984 50.9527 32.984C49.0227 32.984 46.1228 33.609 44.1828 34.963C41.7294 36.6753 38.4761 36.6313 36.3694 35.1713C34.0027 33.5313 31.1428 32.8856 28.3494 32.984C25.4561 33.0856 23.2061 33.9503 21.1627 35.3796C19.4061 36.6063 15.8994 36.63 13.9727 35.2756L12.0994 33.713C11.1461 33.0466 10.6061 32.8216 9.70272 32.984ZM9.70272 49.6506C8.86272 49.8013 8.10942 50.0933 7.51609 50.7963C6.32942 52.202 6.40605 54.097 8.03605 55.6923C11.3761 58.9593 14.8794 59.6506 17.6194 59.6506C19.9227 59.6506 22.7494 59.0273 25.0161 57.463C25.7094 56.984 26.9494 56.331 28.3494 56.3173C29.7994 56.303 31.4394 56.542 32.4127 57.2546C34.4761 58.768 37.2594 59.6426 39.9127 59.6506C42.7794 59.659 45.6494 58.826 47.4127 57.463C48.6061 56.5396 50.1294 56.3173 51.5794 56.3173C53.0261 56.3173 53.7527 56.5866 55.5361 57.6713C57.7027 58.9886 60.0028 59.6646 62.5161 59.6506C66.7928 59.6263 69.5761 58.153 72.4127 55.2756C73.7027 53.9653 73.6428 51.9556 72.3061 50.6923C70.9694 49.4286 68.9894 49.2536 67.7228 50.588C67.5494 50.773 66.7394 51.47 66.6828 51.5256C65.6961 52.4896 64.0261 53.0076 62.5161 52.984C61.1328 52.962 59.9194 52.5693 58.9728 51.9423C56.1761 50.0846 53.8227 49.6506 50.9527 49.6506C49.0227 49.6506 46.1228 50.2756 44.1828 51.6296C41.7294 53.342 38.4761 53.298 36.3694 51.838C34.0027 50.198 31.1428 49.5523 28.3494 49.6506C25.4561 49.7523 23.2061 50.617 21.1627 52.0463C19.4061 53.273 15.8994 53.2966 13.9727 51.9423L12.0994 50.484C11.1461 49.8173 10.6061 49.4883 9.70272 49.6506Z" fill="#8551F3"/>
</svg>
