<svg width="80" height="80" viewBox="0 0 80 80" fill="none" xmlns="http://www.w3.org/2000/svg">
<path d="M27.8472 16.2764V42.303H32.8439V39.8044C33.5139 40.7457 34.0405 41.4057 34.6138 41.7824C35.5772 42.4177 36.8805 42.7194 38.4672 42.7194C40.9905 42.7194 42.9939 41.7694 44.4005 39.8044C45.8072 37.8394 46.4839 35.4014 46.4839 32.4127C46.4839 29.53 45.8272 27.1574 44.4005 25.3337C42.9739 23.5097 40.9905 22.6267 38.4672 22.6267C37.0705 22.6267 35.9338 22.8714 35.0305 23.4597C34.2672 23.9304 33.4772 24.6477 32.8439 25.5417V16.2764H27.8472ZM15.5639 22.5227C12.3372 22.5227 10.0172 23.431 8.69054 25.1254C7.85721 26.208 7.44386 27.607 7.33719 29.2897H12.1272C12.2438 28.5484 12.5039 27.955 12.8572 27.5197C13.3505 26.9314 14.1705 26.583 15.3538 26.583C16.4105 26.583 17.2039 26.8034 17.7505 27.1034C18.2939 27.4034 18.5805 27.8767 18.5805 28.665C18.5805 29.312 18.2572 29.8167 17.5405 30.1224C17.1405 30.299 16.4905 30.4214 15.5639 30.539L13.7938 30.747C11.8572 30.9944 10.4172 31.4197 9.42052 31.9964C7.60052 33.0554 6.71387 34.7324 6.71387 37.0977C6.71387 38.9214 7.2472 40.3717 8.38053 41.366C9.51053 42.36 11.0139 42.8234 12.7505 42.8234C14.1139 42.8234 15.3172 42.51 16.3972 41.8864C17.3005 41.357 18.0972 40.7657 18.7905 40.0127C18.8272 40.448 18.8372 40.8164 18.8939 41.1577C18.9539 41.499 19.0539 41.9147 19.2072 42.303H24.7239V41.47C24.3939 41.317 24.1605 41.1847 23.9939 40.9494C23.8305 40.714 23.7172 40.255 23.6839 39.596C23.6605 38.7254 23.5805 38.0217 23.5805 37.41V28.561C23.5805 26.243 22.8172 24.6074 21.1839 23.772C19.5539 22.9367 17.6639 22.5227 15.5639 22.5227ZM58.0372 22.5227C55.2105 22.5227 52.9838 23.498 51.3738 25.3337C49.7672 27.169 48.9805 29.731 48.9805 33.0374C48.9805 35.9674 49.7105 38.3854 51.1672 40.2207C51.9705 41.2364 53.0905 41.8494 54.3939 42.303L58.0372 38.659C56.4372 38.6274 55.2938 37.8324 54.7072 36.2647C54.3772 35.4057 54.1872 34.3454 54.1872 32.9334C54.1872 31.4507 54.3772 30.184 54.7072 29.2897C55.3272 27.607 56.5572 26.791 58.2472 26.791C59.4305 26.791 60.2872 27.1597 60.8505 27.9364C61.2372 28.5127 61.4838 29.1967 61.5772 29.9144H66.6805C66.3972 27.1727 65.5038 25.271 63.9738 24.1884C62.4405 23.106 60.4439 22.5227 58.0372 22.5227ZM37.0072 26.9994C38.8038 26.9994 39.9839 27.8034 40.6539 29.4977C41.0039 30.392 41.2772 31.5684 41.2772 32.9334C41.2772 34.6394 40.8472 36.0504 40.1305 37.0977C39.4172 38.1447 38.4038 38.659 37.1138 38.659C35.6238 38.659 34.5105 38.076 33.7805 36.9934C33.0538 35.911 32.7405 34.5807 32.7405 32.9334C32.7405 31.533 32.9105 30.3804 33.2605 29.4977C33.9405 27.8387 35.1905 26.9994 37.0072 26.9994ZM18.5805 32.9334V34.8074C18.5472 36.49 18.1372 37.6074 17.2272 38.2427C16.3206 38.878 15.2905 39.1797 14.2105 39.1797C13.5305 39.1797 12.9139 39.0417 12.4405 38.659C11.9639 38.2767 11.7105 37.6444 11.7105 36.7854C11.7105 35.8204 12.1872 35.058 12.9605 34.599C13.4172 34.3284 14.0905 34.1627 15.1472 33.9744L16.2905 33.766C16.8539 33.6604 17.3239 33.4734 17.6439 33.3497C17.9672 33.2264 18.2639 33.1334 18.5805 32.9334ZM70.0105 32.9334C69.1572 32.9334 68.2672 33.2197 67.6172 33.8704L46.6905 54.7957L39.0905 47.196C37.7905 45.895 35.6039 45.895 34.3005 47.196C33.0005 48.4967 33.0005 50.6837 34.3005 51.9847L44.2972 61.979C45.5972 63.28 47.7838 63.28 49.0838 61.979L72.4038 38.659C73.7072 37.358 73.7072 35.1714 72.4038 33.8704C71.7538 33.2197 70.8638 32.9334 70.0105 32.9334Z" fill="#8551F3"/>
</svg>
