<svg width="76" height="80" viewBox="0 0 76 80" fill="none" xmlns="http://www.w3.org/2000/svg">
<path d="M12.6613 9.96924C10.9123 9.96924 9.49463 11.4626 9.49463 13.3026V56.6359C9.49463 63.9992 15.1658 69.9692 22.1613 69.9692H63.3279C65.0759 69.9692 66.4946 68.4759 66.4946 66.6359C66.4946 64.7959 65.0759 63.3026 63.3279 63.3026H22.1613C18.6634 63.3026 15.828 60.3192 15.828 56.6359V13.3026C15.828 11.4626 14.4102 9.96924 12.6613 9.96924ZM44.3279 16.6359V23.3026H55.6076L46.8011 32.5726C46.5161 32.8759 45.6263 33.3026 45.2178 33.3026H40.2715C38.1846 33.3026 35.6101 34.3526 34.1344 35.9059L23.0517 47.5726C21.8152 48.8759 21.8152 51.0625 23.0517 52.3659C23.6702 53.0159 24.5176 53.3026 25.328 53.3026C26.1383 53.3026 26.9857 53.0159 27.6042 52.3659L38.6881 40.6992C38.9731 40.3959 39.863 39.9692 40.2715 39.9692H45.2178C47.3046 39.9692 49.8791 38.9192 51.3548 37.3659L60.1613 28.0959V39.9692H66.4946V19.9692C66.4946 18.1292 65.0759 16.6359 63.3279 16.6359H44.3279Z" fill="#8551F3"/>
</svg>
