<svg width="16" height="17" viewBox="0 0 16 17" fill="none" xmlns="http://www.w3.org/2000/svg">
<g id="book">
<path id="Vector" d="M4.00944 3.16504C2.53677 3.16504 1.34277 4.35904 1.34277 5.8317V11.165C1.34277 12.6377 2.53677 13.8317 4.00944 13.8317L6.01545 13.8384C6.29945 13.8384 6.59678 13.969 6.93744 14.283C7.07011 14.4057 7.22878 14.559 7.33678 14.7024C7.45678 14.8624 7.61344 15.167 8.00945 15.165C8.40545 15.163 8.53411 14.8937 8.67611 14.7064C8.78345 14.5744 8.91212 14.4484 9.04479 14.3257C9.38612 14.0117 9.72545 13.8317 10.0094 13.8317H12.0094C13.4821 13.8317 14.6761 12.6377 14.6761 11.165V5.8317C14.6761 4.35904 13.4821 3.16504 12.0094 3.16504H10.0094C9.20211 3.16504 8.49878 3.53571 8.00945 4.10238C7.52011 3.53571 6.81678 3.16504 6.00944 3.16504H4.00944ZM4.00944 4.49837H6.00944C6.74611 4.49837 7.34278 5.09504 7.34278 5.8317L7.34679 12.931C6.93079 12.661 6.48411 12.4984 6.00944 12.4984H4.00944C3.27277 12.4984 2.67611 11.9017 2.67611 11.165V5.8317C2.67611 5.09504 3.27277 4.49837 4.00944 4.49837ZM10.0094 4.49837H12.0094C12.7461 4.49837 13.3428 5.09504 13.3428 5.8317V11.165C13.3428 11.9017 12.7461 12.4984 12.0094 12.4984H10.0094C9.53478 12.4984 9.08945 12.6697 8.67345 12.9397L8.67611 5.8317C8.67611 5.09504 9.27278 4.49837 10.0094 4.49837Z" fill="#8652DB"/>
</g>
</svg>
