<svg width="24" height="24" viewBox="0 0 24 24" fill="none" xmlns="http://www.w3.org/2000/svg">
<g id="book-half">
<path id="Vector" d="M6.01416 3.99609C3.80516 3.99609 2.01416 5.78709 2.01416 7.99609V15.9961C2.01416 18.2051 3.80516 19.9961 6.01416 19.9961L9.02316 20.0061C9.44916 20.0061 9.89516 20.2021 10.4062 20.6731C10.6052 20.8571 10.8432 21.0871 11.0052 21.3021C11.1852 21.5421 11.4202 21.9991 12.0142 21.9961C12.6082 21.9931 12.8012 21.5891 13.0142 21.3081C13.1752 21.1101 13.3682 20.9211 13.5672 20.7371C14.0792 20.2661 14.5882 19.9961 15.0142 19.9961H18.0142C20.2232 19.9961 22.0142 18.2051 22.0142 15.9961V7.99609C22.0142 5.78709 20.2232 3.99609 18.0142 3.99609H15.0142C13.8032 3.99609 12.7482 4.5521 12.0142 5.4021C11.2802 4.5521 10.2252 3.99609 9.01416 3.99609H6.01416ZM15.0142 5.99609H18.0142C19.1192 5.99609 20.0142 6.89109 20.0142 7.99609V15.9961C20.0142 17.1011 19.1192 17.9961 18.0142 17.9961H15.0142C14.3022 17.9961 13.6342 18.2531 13.0102 18.6581L13.0142 7.99609C13.0142 6.89109 13.9092 5.99609 15.0142 5.99609Z" fill="#8652DB"/>
</g>
</svg>
