<svg width="24" height="24" viewBox="0 0 24 24" fill="none" xmlns="http://www.w3.org/2000/svg">
<g id="AI Icons">
<path id="Vector" fill-rule="evenodd" clip-rule="evenodd" d="M11.995 5.82157C12.7742 5.82157 13.4058 5.18994 13.4058 4.41078C13.4058 3.63163 12.7742 3 11.995 3C11.2158 3 10.5842 3.63163 10.5842 4.41078C10.5842 5.18994 11.2158 5.82157 11.995 5.82157ZM11.995 18.1784C11.2146 18.1784 10.5842 18.8088 10.5842 19.5892C10.5842 20.3697 11.2146 21 11.995 21C12.7754 21 13.4058 20.3697 13.4058 19.5892C13.4058 18.8088 12.7754 18.1784 11.995 18.1784ZM18.1784 12.005C18.1784 11.2246 18.8088 10.5942 19.5892 10.5942C20.3696 10.5942 21 11.2246 21 12.005C21 12.7854 20.3696 13.4158 19.5892 13.4158C18.8088 13.4158 18.1784 12.7854 18.1784 12.005ZM5.82157 12.005C5.82157 11.2246 5.19122 10.5942 4.41078 10.5942C3.63035 10.5942 3 11.2246 3 12.005C3 12.7854 3.63035 13.4158 4.41078 13.4158C5.19122 13.4158 5.82157 12.7854 5.82157 12.005ZM18.3585 5.63146C18.9088 6.18177 18.9088 7.08227 18.3585 7.63257C17.8082 8.18288 16.9077 8.18288 16.3574 7.63257C15.8071 7.08227 15.8071 6.18177 16.3574 5.63146C16.9077 5.08115 17.8082 5.08115 18.3585 5.63146ZM5.63146 16.3774C5.08116 16.9277 5.08116 17.8282 5.63146 18.3785C6.18177 18.9288 7.08227 18.9288 7.63257 18.3785C8.18288 17.8282 8.18288 16.9277 7.63257 16.3774C7.08227 15.8271 6.18177 15.8271 5.63146 16.3774ZM16.3674 18.3785C15.8171 17.8282 15.8171 16.9277 16.3674 16.3774C16.9177 15.8271 17.8182 15.8271 18.3685 16.3774C18.9189 16.9277 18.9189 17.8282 18.3685 18.3785C17.8182 18.9288 16.9177 18.9288 16.3674 18.3785ZM7.62257 7.63257C8.17288 7.08227 8.17288 6.18177 7.62257 5.63146C7.07227 5.08115 6.17177 5.08115 5.62146 5.63146C5.07116 6.18177 5.07116 7.08227 5.62146 7.63257C6.17177 8.18288 7.07227 8.18288 7.62257 7.63257ZM12.8655 7.99277C13.5259 9.95386 14.0562 10.4842 16.0072 11.1345C16.8577 11.4147 16.8577 12.5953 16.0072 12.8755C14.0461 13.5258 13.5159 14.0661 12.8655 16.0172C12.5853 16.8677 11.4047 16.8677 11.1245 16.0172C10.4642 14.0561 9.93386 13.5258 7.98278 12.8755C7.56255 12.7354 7.34242 12.3752 7.34242 12.005C7.34242 11.6348 7.56255 11.2746 7.98278 11.1345C9.94387 10.4842 10.4742 9.95386 11.1245 7.99277C11.4047 7.1423 12.5853 7.1423 12.8655 7.99277Z" fill="#828282"/>
</g>
</svg>
