<svg width="20" height="21" viewBox="0 0 20 21" fill="none" xmlns="http://www.w3.org/2000/svg">
<g id="file-earmark-font-fill">
<path id="Vector" d="M6.32528 2.16577C4.69944 2.16577 3.35693 3.3991 3.35693 4.95243V16.0458C3.35693 17.5991 4.69944 18.8324 6.32528 18.8324H13.7219C15.3478 18.8324 16.6903 17.5991 16.6903 16.0458C16.6903 15.5033 16.6903 9.54744 16.6903 7.9991C16.6903 7.99077 16.6903 7.9816 16.6903 7.97327C16.6903 5.0041 13.8244 2.16577 10.8569 2.16577C7.34527 2.16577 7.33694 2.16577 6.32528 2.16577ZM11.6903 4.04077C13.1669 4.43244 14.4586 5.69327 14.8411 7.16577H12.9919C12.2511 7.16577 11.6903 6.64078 11.6903 6.04578V4.04077ZM8.1486 10.4991H10.0236H11.8986C12.2436 10.4991 12.5236 10.7791 12.5236 11.1241C12.5236 11.4691 12.2436 11.7491 11.8986 11.7491H10.6486V14.8741C10.6486 15.2191 10.3686 15.4991 10.0236 15.4991C9.6786 15.4991 9.3986 15.2191 9.3986 14.8741V11.7491H8.1486C7.8036 11.7491 7.5236 11.4691 7.5236 11.1241C7.5236 10.7791 7.8036 10.4991 8.1486 10.4991Z" fill="#8652DB"/>
</g>
</svg>
