<svg width="24" height="24" viewBox="0 0 24 24" fill="none" xmlns="http://www.w3.org/2000/svg">
<g id="file-earmark-check-fill">
<path id="Vector" d="M7.59033 2C5.63933 2 4.02832 3.47999 4.02832 5.34399V18.656C4.02832 20.52 5.63933 22 7.59033 22H16.4663C18.4173 22 20.0283 20.52 20.0283 18.656C20.0283 18.003 20.0283 10.798 20.0283 8.96899C20.0283 5.40599 16.5893 2 13.0283 2C8.81432 2 8.80433 2 7.59033 2ZM14.0283 4.25C15.7873 4.717 17.3063 6.21599 17.7783 7.96899C17.1153 7.97899 16.5293 8.006 16.0283 8C14.5603 7.982 14.0143 7.696 13.9973 6C13.9953 5.825 14.0193 5.03 14.0283 4.25ZM15.0283 11C15.2843 11 15.5513 11.086 15.7473 11.281C16.1373 11.672 16.1373 12.328 15.7473 12.719L11.7473 16.719C11.3563 17.109 10.7003 17.109 10.3093 16.719L8.30933 14.719C7.91933 14.328 7.91933 13.672 8.30933 13.281C8.70033 12.891 9.35631 12.891 9.74731 13.281L11.0283 14.562L14.3093 11.281C14.5053 11.086 14.7723 11 15.0283 11Z" fill="#8652DB"/>
</g>
</svg>
