<svg width="20" height="20" viewBox="0 0 20 20" fill="none" xmlns="http://www.w3.org/2000/svg">
<g id="layout-sidebar-ihset-reverse">
<path id="Vector" d="M5.15407 3.25525C3.24157 3.25525 1.66406 4.73692 1.66406 6.58858V13.2552C1.66406 15.1069 3.24157 16.5886 5.15407 16.5886H14.8407C16.7532 16.5886 18.3307 15.1069 18.3307 13.2552V6.58858C18.3307 4.73692 16.7532 3.25525 14.8407 3.25525H5.15407ZM5.15407 4.92192H14.8407C15.8532 4.92192 16.6641 5.67942 16.6641 6.58858V13.2552C16.6641 14.1644 15.8532 14.9219 14.8407 14.9219H5.15407C4.14157 14.9219 3.33073 14.1644 3.33073 13.2552V6.58858C3.33073 5.67942 4.14157 4.92192 5.15407 4.92192ZM12.4974 6.58858C12.0374 6.58858 11.6641 6.96192 11.6641 7.42192V12.4219C11.6641 12.8819 12.0374 13.2552 12.4974 13.2552H14.1641C14.6241 13.2552 14.9974 12.8819 14.9974 12.4219V7.42192C14.9974 6.96192 14.6241 6.58858 14.1641 6.58858H12.4974Z" fill="#57545E"/>
</g>
</svg>
