<svg width="24" height="24" viewBox="0 0 24 24" fill="none" xmlns="http://www.w3.org/2000/svg">
<g id="bookmark-star-fill">
<path id="Vector" d="M7.98242 2.01562C5.43012 2.01562 3.98242 3.46312 3.98242 6.01562V21.0156C3.98242 21.7335 4.72872 22.204 5.38862 21.9218L11.9824 19.1094L18.5761 21.9218C19.236 22.2047 19.9824 21.7334 19.9824 21.0156V6.01562C19.9824 3.39222 18.6777 2.01572 15.9824 2.01562H7.98242ZM11.7324 7.23442C11.877 6.93832 12.0879 6.93812 12.2324 7.23442L13.2949 9.39062L15.6699 9.73442C15.9962 9.78062 16.0941 10.005 15.8574 10.2344L14.1074 11.9218L14.5136 14.2656C14.5708 14.59 14.399 14.7318 14.1074 14.5781L11.9824 13.4531L9.85742 14.5781C9.56592 14.732 9.39502 14.5904 9.45112 14.2656L9.85742 11.9218L8.10742 10.2344C7.87172 10.0039 7.96842 9.77982 8.29492 9.73442L10.6699 9.39062L11.7324 7.23442Z" fill="#8652DB"/>
</g>
</svg>
