<svg width="24" height="24" viewBox="0 0 24 24" fill="none" xmlns="http://www.w3.org/2000/svg">
<g id="shield-check-fill">
<path id="Vector" d="M11.6226 2.03375C11.5686 2.05675 4.68355 4.94076 4.68555 4.93976C4.69455 4.93676 4.70056 4.95376 4.74756 4.93976C4.78656 4.92976 4.79056 4.92575 4.90356 4.90875C4.92156 4.90675 4.95255 4.90975 4.96655 4.90875C4.47655 4.92175 3.99756 5.25575 3.99756 5.90875C3.99756 10.4218 4.15155 12.2588 4.93555 14.5028C5.96555 17.4508 8.01256 19.8238 11.4976 21.8148C11.8046 21.9908 12.1906 21.9908 12.4976 21.8148C15.9806 19.8248 18.0296 17.4778 19.0596 14.5338C19.8436 12.2938 19.9976 10.4308 19.9976 5.93976C19.9976 5.54076 19.7706 5.19175 19.4036 5.03375L12.4355 2.03375C12.1835 1.92575 11.8746 1.92675 11.6226 2.03375ZM14.9976 8.93976C15.2536 8.93976 15.5206 9.02574 15.7166 9.22074C16.1066 9.61174 16.1066 10.2678 15.7166 10.6588L12.7166 13.6588C12.3256 14.0488 11.6696 14.0488 11.2786 13.6588L9.27856 11.6588C8.88856 11.2678 8.88856 10.6117 9.27856 10.2207C9.66956 9.83074 10.3256 9.83074 10.7166 10.2207L11.9976 11.5028L14.2786 9.22074C14.4746 9.02574 14.7416 8.93976 14.9976 8.93976Z" fill="#8652DB"/>
</g>
</svg>
