<svg width="24" height="24" viewBox="0 0 24 24" fill="none" xmlns="http://www.w3.org/2000/svg">
<g id="Component 2">
<path id="Vector" d="M6.99854 2.92969C4.78954 2.92969 2.99854 4.72069 2.99854 6.92969V16.9297C2.99854 19.1387 4.78954 20.9297 6.99854 20.9297H16.9985C19.2075 20.9297 20.9985 19.1387 20.9985 16.9297V6.92969C20.9985 4.72069 19.2075 2.92969 16.9985 2.92969H6.99854ZM6.99854 4.92969H16.9985C18.1035 4.92969 18.9985 5.82469 18.9985 6.92969V16.9297C18.9985 18.0347 18.1035 18.9297 16.9985 18.9297H6.99854C5.89354 18.9297 4.99854 18.0347 4.99854 16.9297V6.92969C4.99854 5.82469 5.89354 4.92969 6.99854 4.92969ZM7.99854 6.92969C7.44654 6.92969 6.99854 7.37769 6.99854 7.92969C6.99854 8.48169 7.44654 8.92969 7.99854 8.92969C8.55054 8.92969 8.99854 8.48169 8.99854 7.92969C8.99854 7.37769 8.55054 6.92969 7.99854 6.92969ZM10.9985 6.92969C10.4465 6.92969 9.99854 7.37769 9.99854 7.92969C9.99854 8.48169 10.4465 8.92969 10.9985 8.92969H15.9985C16.5505 8.92969 16.9985 8.48169 16.9985 7.92969C16.9985 7.37769 16.5505 6.92969 15.9985 6.92969H10.9985ZM7.99854 10.9297C7.44654 10.9297 6.99854 11.3777 6.99854 11.9297C6.99854 12.4817 7.44654 12.9297 7.99854 12.9297C8.55054 12.9297 8.99854 12.4817 8.99854 11.9297C8.99854 11.3777 8.55054 10.9297 7.99854 10.9297ZM10.9985 10.9297C10.4465 10.9297 9.99854 11.3777 9.99854 11.9297C9.99854 12.4817 10.4465 12.9297 10.9985 12.9297H15.9985C16.5505 12.9297 16.9985 12.4817 16.9985 11.9297C16.9985 11.3777 16.5505 10.9297 15.9985 10.9297H10.9985ZM7.99854 14.9297C7.44654 14.9297 6.99854 15.3777 6.99854 15.9297C6.99854 16.4817 7.44654 16.9297 7.99854 16.9297C8.55054 16.9297 8.99854 16.4817 8.99854 15.9297C8.99854 15.3777 8.55054 14.9297 7.99854 14.9297ZM10.9985 14.9297C10.4465 14.9297 9.99854 15.3777 9.99854 15.9297C9.99854 16.4817 10.4465 16.9297 10.9985 16.9297H15.9985C16.5505 16.9297 16.9985 16.4817 16.9985 15.9297C16.9985 15.3777 16.5505 14.9297 15.9985 14.9297H10.9985Z" fill="#A0A8B0"/>
</g>
</svg>
