<svg width="1920" height="1129" viewBox="0 0 1920 1129" fill="none" xmlns="http://www.w3.org/2000/svg">
<g clip-path="url(#clip0_885_56671)">
<rect width="1920" height="1129" fill="black"/>
<g opacity="0.6" filter="url(#filter0_f_885_56671)">
<ellipse cx="610.5" cy="701" rx="578.5" ry="386" fill="#7433FF"/>
</g>
<g opacity="0.6" filter="url(#filter1_f_885_56671)">
<circle cx="163" cy="851" r="386" fill="#3719F0"/>
</g>
<g filter="url(#filter2_f_885_56671)">
<path d="M408.341 643.086C219.705 641.558 -29.2636 720.986 2.81211 1183.81C528.752 1214.87 1588.58 1276.37 1620.35 1273.93C1660.06 1270.87 1964.78 862.276 1976.23 850.82C1987.69 839.365 2038.86 735.497 1710.46 468.191C1382.07 200.886 1104.84 406.52 912.389 541.51C719.934 676.499 596.977 644.613 408.341 643.086Z" fill="#6C0DB5"/>
</g>
<mask id="mask0_885_56671" style="mask-type:alpha" maskUnits="userSpaceOnUse" x="1087" y="322" width="854" height="740">
<ellipse cx="1513.81" cy="692.132" rx="484.544" ry="289.781" transform="rotate(-36.2854 1513.81 692.132)" fill="url(#paint0_radial_885_56671)"/>
</mask>
<g mask="url(#mask0_885_56671)">
<path d="M1089.49 951.241C1029.04 974.441 1015.76 998.208 979.999 1053.91L1561.84 1270.07C1710.09 1044.51 1967.05 612.563 1865.02 571.728C1758.25 528.998 1595.49 546.795 1495.67 595.708C1395.85 644.621 1315.4 807.922 1277.61 866.041C1242.6 919.886 1149.93 928.04 1089.49 951.241Z" fill="#9C2CF3"/>
<g filter="url(#filter3_f_885_56671)">
<path d="M1089.49 950.241C1029.04 973.441 1015.76 997.208 979.999 1052.91L1561.84 1269.07C1710.09 1043.51 1930.53 545.835 1828.5 505C1747.82 472.71 1601.17 550.324 1526 594.922C1501.7 609.34 1518.89 625.68 1503.67 626.708C1392.76 634.194 1315.4 806.922 1277.61 865.041C1242.6 918.886 1149.93 927.04 1089.49 950.241Z" fill="#9C2CF3"/>
</g>
<g filter="url(#filter4_f_885_56671)">
<path d="M1073.49 943.241C1013.04 966.441 999.756 990.208 963.999 1045.91L1561.84 1270.07C1710.09 1044.51 1839.05 588.563 1737.02 547.728C1641.31 509.424 1585.89 554.902 1508.5 599.346C1499.56 604.481 1514 606.642 1503.67 611.708C1403.85 660.62 1299.4 799.922 1261.61 858.041C1226.6 911.886 1133.93 920.04 1073.49 943.241Z" fill="#9C2CF3"/>
</g>
<g filter="url(#filter5_f_885_56671)">
<path d="M1057.49 935.241C997.037 958.441 983.756 982.208 947.999 1037.91L1561.84 1270.07C1710.09 1044.51 1991.05 532.563 1889.02 491.728C1802.9 457.262 1650.55 540.995 1556 577.907C1533.33 586.756 1519.97 604.249 1500.67 613.708C1400.85 662.62 1283.4 791.922 1245.61 850.041C1210.6 903.886 1117.93 912.04 1057.49 935.241Z" fill="#9C2CF3"/>
</g>
<g filter="url(#filter6_f_885_56671)">
<path d="M966.485 913.391C906.037 936.592 892.756 960.358 856.999 1016.06L1486.84 1264.22C1635.09 1038.66 1764.05 582.714 1662.02 541.879C1582.88 510.208 1522.71 575.372 1485 598.801C1471.83 606.982 1509.6 621 1481 621C1370.5 621 1391.39 737.31 1209.5 814C1150.32 838.954 1026.93 890.19 966.485 913.391Z" fill="#9C2CF3"/>
</g>
</g>
<g opacity="0.6" filter="url(#filter7_f_885_56671)">
<circle cx="1788.5" cy="836.5" r="164.5" fill="#B819F0"/>
</g>
<g opacity="0.3" filter="url(#filter8_f_885_56671)">
<ellipse cx="741.5" cy="840.5" rx="368.5" ry="164.5" fill="black"/>
</g>
<g opacity="0.6" filter="url(#filter9_f_885_56671)">
<ellipse cx="1285.81" cy="793.079" rx="164.5" ry="48.7174" transform="rotate(-41.2443 1285.81 793.079)" fill="#28009B"/>
</g>
<mask id="mask1_885_56671" style="mask-type:alpha" maskUnits="userSpaceOnUse" x="-594" y="393" width="1472" height="975">
<path d="M-380.318 1367.69C-435.28 1050.49 -589.988 573.287 -594 557.713L877.678 393.845L807.651 1159.83L-380.318 1367.69Z" fill="url(#paint1_linear_885_56671)"/>
</mask>
<g mask="url(#mask1_885_56671)">
<path d="M59.064 620.7C193.051 597.256 319.092 654.061 331.094 722.659C343.097 791.257 304.61 890.77 160.853 915.923C89.6141 928.387 11.1405 989.378 -79.4738 970.026C-171.716 950.327 -168.495 853.34 -174.55 818.736C-186.552 750.138 -74.9234 644.143 59.064 620.7Z" fill="#9C2CF3"/>
<g filter="url(#filter10_f_885_56671)">
<path d="M58.4873 626.857C202.186 601.714 316.535 649.491 326.851 708.455C337.168 767.42 296.491 854.286 152.793 879.429C81.5835 891.888 2.28676 947.966 -87.4537 933.406C-178.806 918.584 -173.294 834.737 -178.499 804.993C-188.816 746.028 -85.211 651.999 58.4873 626.857Z" fill="#9C2CF3"/>
</g>
<g filter="url(#filter11_f_885_56671)">
<path d="M62.8406 626.095C223.898 597.915 353.351 658.834 366.071 731.53C378.79 804.226 334.716 910.259 173.658 938.439C93.8465 952.403 6.95824 1026.62 -94.1992 1007.01C-197.174 987.045 -193.649 877.907 -200.065 841.235C-212.785 768.539 -98.2172 654.275 62.8406 626.095Z" fill="#9C2CF3"/>
</g>
<g filter="url(#filter12_f_885_56671)">
<path d="M82.9346 631.452C284.903 614.491 466.111 679.959 480.998 765.04C495.885 850.121 411.051 959.758 217.895 993.554C122.176 1010.3 15.3531 1124.56 -105.782 1102.09C-229.093 1079.22 -223.073 958.569 -230.583 915.65C-245.469 830.568 -151.034 651.099 82.9346 631.452Z" fill="#9C2CF3"/>
</g>
<g filter="url(#filter13_f_885_56671)">
<path d="M155.955 654.164C363.934 617.774 562.162 696.066 576.716 779.25C591.271 862.435 498.334 971.376 290.355 1007.77C187.291 1025.8 67.7069 1079.44 -61.9896 1059.44C-194.016 1039.08 -185.524 920.669 -192.866 878.707C-207.42 795.522 -52.0245 690.554 155.955 654.164Z" fill="#9C2CF3"/>
</g>
<g filter="url(#filter14_f_885_56671)">
<path d="M242.713 673.203C457.64 635.598 662.286 715.342 677.173 800.424C692.06 885.505 595.851 997.132 380.924 1034.74C274.417 1053.37 150.779 1108.47 16.8261 1088.24C-119.533 1067.65 -110.546 946.484 -118.056 903.565C-132.942 818.483 27.7852 710.809 242.713 673.203Z" fill="#9C2CF3"/>
</g>
<g filter="url(#filter15_f_885_56671)">
<path d="M78.6915 687.959C266.753 655.054 448.271 738.845 463.157 823.927C478.044 909.008 395.873 1018.18 207.812 1051.08C114.618 1067.39 5.4234 1109.82 -112.712 1086.82C-232.969 1063.41 -227.644 942.89 -235.153 899.971C-250.04 814.89 -109.37 720.864 78.6915 687.959Z" fill="#9C2CF3"/>
</g>
</g>
</g>
<defs>
<filter id="filter0_f_885_56671" x="-380" y="-97" width="1981" height="1596" filterUnits="userSpaceOnUse" color-interpolation-filters="sRGB">
<feFlood flood-opacity="0" result="BackgroundImageFix"/>
<feBlend mode="normal" in="SourceGraphic" in2="BackgroundImageFix" result="shape"/>
<feGaussianBlur stdDeviation="206" result="effect1_foregroundBlur_885_56671"/>
</filter>
<filter id="filter1_f_885_56671" x="-635" y="53" width="1596" height="1596" filterUnits="userSpaceOnUse" color-interpolation-filters="sRGB">
<feFlood flood-opacity="0" result="BackgroundImageFix"/>
<feBlend mode="normal" in="SourceGraphic" in2="BackgroundImageFix" result="shape"/>
<feGaussianBlur stdDeviation="206" result="effect1_foregroundBlur_885_56671"/>
</filter>
<filter id="filter2_f_885_56671" x="-156" y="181.998" width="2298" height="1248" filterUnits="userSpaceOnUse" color-interpolation-filters="sRGB">
<feFlood flood-opacity="0" result="BackgroundImageFix"/>
<feBlend mode="normal" in="SourceGraphic" in2="BackgroundImageFix" result="shape"/>
<feGaussianBlur stdDeviation="78" result="effect1_foregroundBlur_885_56671"/>
</filter>
<filter id="filter3_f_885_56671" x="959.999" y="477.352" width="914.56" height="811.721" filterUnits="userSpaceOnUse" color-interpolation-filters="sRGB">
<feFlood flood-opacity="0" result="BackgroundImageFix"/>
<feBlend mode="normal" in="SourceGraphic" in2="BackgroundImageFix" result="shape"/>
<feGaussianBlur stdDeviation="10" result="effect1_foregroundBlur_885_56671"/>
</filter>
<filter id="filter4_f_885_56671" x="935.999" y="505.348" width="865.542" height="792.725" filterUnits="userSpaceOnUse" color-interpolation-filters="sRGB">
<feFlood flood-opacity="0" result="BackgroundImageFix"/>
<feBlend mode="normal" in="SourceGraphic" in2="BackgroundImageFix" result="shape"/>
<feGaussianBlur stdDeviation="14" result="effect1_foregroundBlur_885_56671"/>
</filter>
<filter id="filter5_f_885_56671" x="911.999" y="447.58" width="1034.83" height="858.492" filterUnits="userSpaceOnUse" color-interpolation-filters="sRGB">
<feFlood flood-opacity="0" result="BackgroundImageFix"/>
<feBlend mode="normal" in="SourceGraphic" in2="BackgroundImageFix" result="shape"/>
<feGaussianBlur stdDeviation="18" result="effect1_foregroundBlur_885_56671"/>
</filter>
<filter id="filter6_f_885_56671" x="804.999" y="481.363" width="945.541" height="834.859" filterUnits="userSpaceOnUse" color-interpolation-filters="sRGB">
<feFlood flood-opacity="0" result="BackgroundImageFix"/>
<feBlend mode="normal" in="SourceGraphic" in2="BackgroundImageFix" result="shape"/>
<feGaussianBlur stdDeviation="26" result="effect1_foregroundBlur_885_56671"/>
</filter>
<filter id="filter7_f_885_56671" x="1412" y="460" width="753" height="753" filterUnits="userSpaceOnUse" color-interpolation-filters="sRGB">
<feFlood flood-opacity="0" result="BackgroundImageFix"/>
<feBlend mode="normal" in="SourceGraphic" in2="BackgroundImageFix" result="shape"/>
<feGaussianBlur stdDeviation="106" result="effect1_foregroundBlur_885_56671"/>
</filter>
<filter id="filter8_f_885_56671" x="161" y="464" width="1161" height="753" filterUnits="userSpaceOnUse" color-interpolation-filters="sRGB">
<feFlood flood-opacity="0" result="BackgroundImageFix"/>
<feBlend mode="normal" in="SourceGraphic" in2="BackgroundImageFix" result="shape"/>
<feGaussianBlur stdDeviation="106" result="effect1_foregroundBlur_885_56671"/>
</filter>
<filter id="filter9_f_885_56671" x="945.984" y="466.578" width="679.643" height="653.002" filterUnits="userSpaceOnUse" color-interpolation-filters="sRGB">
<feFlood flood-opacity="0" result="BackgroundImageFix"/>
<feBlend mode="normal" in="SourceGraphic" in2="BackgroundImageFix" result="shape"/>
<feGaussianBlur stdDeviation="106" result="effect1_foregroundBlur_885_56671"/>
</filter>
<filter id="filter10_f_885_56671" x="-186.747" y="612.458" width="522.653" height="330.883" filterUnits="userSpaceOnUse" color-interpolation-filters="sRGB">
<feFlood flood-opacity="0" result="BackgroundImageFix"/>
<feBlend mode="normal" in="SourceGraphic" in2="BackgroundImageFix" result="shape"/>
<feGaussianBlur stdDeviation="3.76999" result="effect1_foregroundBlur_885_56671"/>
</filter>
<filter id="filter11_f_885_56671" x="-227.419" y="592.678" width="621.938" height="443.997" filterUnits="userSpaceOnUse" color-interpolation-filters="sRGB">
<feFlood flood-opacity="0" result="BackgroundImageFix"/>
<feBlend mode="normal" in="SourceGraphic" in2="BackgroundImageFix" result="shape"/>
<feGaussianBlur stdDeviation="13.195" result="effect1_foregroundBlur_885_56671"/>
</filter>
<filter id="filter12_f_885_56671" x="-269.794" y="591.062" width="790.155" height="551.644" filterUnits="userSpaceOnUse" color-interpolation-filters="sRGB">
<feFlood flood-opacity="0" result="BackgroundImageFix"/>
<feBlend mode="normal" in="SourceGraphic" in2="BackgroundImageFix" result="shape"/>
<feGaussianBlur stdDeviation="18.8499" result="effect1_foregroundBlur_885_56671"/>
</filter>
<filter id="filter13_f_885_56671" x="-295.6" y="543.216" width="975.581" height="622.413" filterUnits="userSpaceOnUse" color-interpolation-filters="sRGB">
<feFlood flood-opacity="0" result="BackgroundImageFix"/>
<feBlend mode="normal" in="SourceGraphic" in2="BackgroundImageFix" result="shape"/>
<feGaussianBlur stdDeviation="50.8948" result="effect1_foregroundBlur_885_56671"/>
</filter>
<filter id="filter14_f_885_56671" x="-371.601" y="411.053" width="1302.86" height="934.173" filterUnits="userSpaceOnUse" color-interpolation-filters="sRGB">
<feFlood flood-opacity="0" result="BackgroundImageFix"/>
<feBlend mode="normal" in="SourceGraphic" in2="BackgroundImageFix" result="shape"/>
<feGaussianBlur stdDeviation="126.295" result="effect1_foregroundBlur_885_56671"/>
</filter>
<filter id="filter15_f_885_56671" x="-353.104" y="563.767" width="934.839" height="646.608" filterUnits="userSpaceOnUse" color-interpolation-filters="sRGB">
<feFlood flood-opacity="0" result="BackgroundImageFix"/>
<feBlend mode="normal" in="SourceGraphic" in2="BackgroundImageFix" result="shape"/>
<feGaussianBlur stdDeviation="58.4348" result="effect1_foregroundBlur_885_56671"/>
</filter>
<radialGradient id="paint0_radial_885_56671" cx="0" cy="0" r="1" gradientUnits="userSpaceOnUse" gradientTransform="translate(1596.85 645.729) rotate(103.875) scale(346.288 557.278)">
<stop offset="0.120131" stop-color="#C4C4C4"/>
<stop offset="0.692585" stop-color="#C4C4C4" stop-opacity="0"/>
</radialGradient>
<linearGradient id="paint1_linear_885_56671" x1="7.79361" y1="660.189" x2="115.536" y2="1179.65" gradientUnits="userSpaceOnUse">
<stop stop-color="#C4C4C4"/>
<stop offset="1" stop-color="#C4C4C4" stop-opacity="0"/>
</linearGradient>
<clipPath id="clip0_885_56671">
<rect width="1920" height="1129" fill="white"/>
</clipPath>
</defs>
</svg>
