<?xml version="1.0" encoding="UTF-8"?>
<svg xmlns="http://www.w3.org/2000/svg" xmlns:xlink="http://www.w3.org/1999/xlink" width="16px" height="16px" viewBox="0 0 16 16" version="1.1">
<defs>
<filter id="alpha" filterUnits="objectBoundingBox" x="0%" y="0%" width="100%" height="100%">
  <feColorMatrix type="matrix" in="SourceGraphic" values="0 0 0 0 1 0 0 0 0 1 0 0 0 0 1 0 0 0 1 0"/>
</filter>
<mask id="mask0">
  <g filter="url(#alpha)">
<rect x="0" y="0" width="16" height="16" style="fill:rgb(0%,0%,0%);fill-opacity:0.988235;stroke:none;"/>
  </g>
</mask>
<clipPath id="clip1">
  <rect x="0" y="0" width="16" height="16"/>
</clipPath>
<g id="surface5" clip-path="url(#clip1)">
<path style=" stroke:none;fill-rule:nonzero;fill:rgb(100%,100%,100%);fill-opacity:1;" d="M 10.332031 3.3125 C 10.210938 3.3125 10.085938 3.355469 9.996094 3.441406 C 9.296875 4.140625 9.296875 4.140625 9.066406 4.375 L 5.796875 7.640625 C 5.710938 7.730469 5.667969 7.855469 5.667969 7.976562 L 5.667969 9.84375 C 5.667969 10.101562 5.875 10.3125 6.132812 10.3125 C 6.367188 10.3125 7.765625 10.3125 8 10.3125 C 8.125 10.3125 8.246094 10.265625 8.335938 10.179688 L 11.601562 6.914062 C 11.835938 6.679688 11.835938 6.679688 12.535156 5.980469 C 12.621094 5.890625 12.667969 5.769531 12.667969 5.644531 C 12.667969 4.882812 12.472656 4.335938 12.070312 3.921875 C 11.660156 3.507812 11.117188 3.3125 10.332031 3.3125 Z M 5.667969 3.777344 C 4.636719 3.777344 3.800781 4.613281 3.800781 5.644531 L 3.800781 10.3125 C 3.800781 11.34375 4.636719 12.179688 5.667969 12.179688 L 10.332031 12.179688 C 11.363281 12.179688 12.199219 11.34375 12.199219 10.3125 L 12.199219 8.445312 C 12.199219 8.1875 11.992188 7.976562 11.734375 7.976562 C 11.476562 7.976562 11.265625 8.1875 11.265625 8.445312 L 11.265625 10.3125 C 11.265625 10.828125 10.847656 11.246094 10.332031 11.246094 L 5.667969 11.246094 C 5.152344 11.246094 4.734375 10.828125 4.734375 10.3125 L 4.734375 5.644531 C 4.734375 5.128906 5.152344 4.710938 5.667969 4.710938 L 7.535156 4.710938 C 7.789062 4.710938 8 4.503906 8 4.246094 C 8 3.988281 7.789062 3.777344 7.535156 3.777344 Z M 10.523438 4.253906 C 10.945312 4.277344 11.210938 4.375 11.398438 4.566406 C 11.589844 4.761719 11.699219 5.054688 11.726562 5.46875 C 11.496094 5.695312 11.355469 5.832031 11.269531 5.917969 C 10.898438 5.550781 10.429688 5.085938 10.058594 4.714844 C 10.148438 4.625 10.296875 4.480469 10.523438 4.253906 Z M 9.402344 5.375 L 10.605469 6.578125 L 7.796875 9.378906 C 7.5 9.378906 7.03125 9.378906 6.601562 9.378906 L 6.601562 8.183594 Z M 9.402344 5.375 "/>
</g>
</defs>
<g id="surface1">
<path style=" stroke:none;fill-rule:nonzero;fill:rgb(46.666667%,30.588235%,73.333333%);fill-opacity:1;" d="M 3.199219 0 L 12.800781 0 C 14.566406 0 16 1.433594 16 3.199219 L 16 12.800781 C 16 14.566406 14.566406 16 12.800781 16 L 3.199219 16 C 1.433594 16 0 14.566406 0 12.800781 L 0 3.199219 C 0 1.433594 1.433594 0 3.199219 0 Z M 3.199219 0 "/>
<use xlink:href="#surface5" mask="url(#mask0)"/>
</g>
</svg>
