<svg width="32" height="32" viewBox="0 0 32 32" fill="none" xmlns="http://www.w3.org/2000/svg">
<g id="layout-text-window-reverse-fill">
<path id="Vector" d="M9.08061 3.90625C6.24727 3.90625 3.99792 6.31158 3.99792 9.23958H10.6646H27.9979C27.9979 6.31158 25.7486 3.90625 22.9139 3.90625H9.08061ZM3.99792 11.9062V22.5729C3.99792 25.5009 6.24727 27.9062 9.08061 27.9062H9.33126V11.9062H3.99792ZM11.9979 11.9062V27.9062H22.9139C25.7486 27.9062 27.9979 25.5009 27.9979 22.5729V11.9062H11.9979ZM17.3313 15.9062H22.6646C23.4006 15.9062 23.9979 16.5036 23.9979 17.2396C23.9979 17.9756 23.4006 18.5729 22.6646 18.5729H17.3313C16.5953 18.5729 15.9979 17.9756 15.9979 17.2396C15.9979 16.5036 16.5953 15.9062 17.3313 15.9062ZM17.3313 21.2396H22.6646C23.4006 21.2396 23.9979 21.8369 23.9979 22.5729C23.9979 23.3089 23.4006 23.9062 22.6646 23.9062H17.3313C16.5953 23.9062 15.9979 23.3089 15.9979 22.5729C15.9979 21.8369 16.5953 21.2396 17.3313 21.2396Z" fill="#D84C10"/>
</g>
</svg>
