<svg width="26" height="26" viewBox="0 0 26 26" fill="none" xmlns="http://www.w3.org/2000/svg">
<g id="stickies">
<path id="Vector" d="M6.51497 2.11621C4.12189 2.11621 2.18164 4.05635 2.18164 6.44954V15.1162C2.18164 17.5093 4.12189 19.4495 6.51497 19.4495L6.52582 19.455C6.77715 21.8697 8.84196 23.7829 11.3228 23.7829C11.6705 23.7829 14.4428 23.7829 15.1816 23.7829C19.0296 23.7829 23.8483 18.9642 23.8483 15.1162C23.8483 14.3774 23.8483 11.7936 23.8483 11.2574C23.8483 8.77622 21.9362 6.70336 19.5215 6.45192L19.515 6.44954C19.515 4.05635 17.5747 2.11621 15.1816 2.11621H6.51497ZM6.51497 4.28288H15.1816C16.3787 4.28288 17.3483 5.25289 17.3483 6.44954H11.3228C8.67296 6.44954 6.51497 8.60722 6.51497 11.2574V17.2829C5.31789 17.2829 4.34831 16.3133 4.34831 15.1162V6.44954C4.34831 5.25289 5.31789 4.28288 6.51497 4.28288ZM11.3228 8.61621H18.4316H19.0405C20.4943 8.61621 21.6816 9.80387 21.6816 11.2574C21.6816 11.643 21.6816 12.9766 21.6816 14.0329C20.6341 14.0329 19.2528 14.0329 18.9061 14.0329C16.2563 14.0329 14.0983 16.1909 14.0983 18.8407V21.6162C12.9987 21.6162 11.573 21.6162 11.3228 21.6162C9.86896 21.6162 8.68164 20.4289 8.68164 18.975V18.3662V11.2574C8.68164 9.80376 9.86896 8.61621 11.3228 8.61621ZM18.9061 16.1995C19.2105 16.1995 20.4737 16.1974 21.4877 16.1974C20.8172 18.3391 18.4284 20.6932 16.2725 21.432L16.265 18.8407C16.265 17.3869 17.4523 16.1995 18.9061 16.1995Z" fill="black"/>
</g>
</svg>
