<svg width="24" height="24" viewBox="0 0 24 24" fill="none" xmlns="http://www.w3.org/2000/svg">
<g id="newspaper">
<path id="Vector" d="M9.99829 1.95319C8.34139 1.95319 6.99829 3.29619 6.99829 4.95318V5.95318H5.99829C4.34139 5.95318 2.99829 7.29618 2.99829 8.95318V18.9532C2.99829 20.6102 4.34139 21.9532 5.99829 21.9532H17.9983C19.6766 21.9572 21.0195 20.5972 20.9983 18.9532V7.95318V4.95318C20.9983 3.29619 19.6551 1.95319 17.9983 1.95319H9.99829ZM9.99829 3.95319H17.9983C18.5505 3.95319 18.9983 4.40118 18.9983 4.95318V7.95318V18.9532C18.9983 19.5052 18.5505 19.9532 17.9983 19.9532C17.446 19.9532 16.9982 19.5052 16.9983 18.9532V11.9532V8.95318C16.9983 7.29618 15.6551 5.95318 13.9983 5.95318H8.99829V4.95318C8.99829 4.40118 9.44599 3.95319 9.99829 3.95319ZM5.99829 7.95318H13.9983C14.5505 7.95318 14.9983 8.40118 14.9983 8.95318V11.9532V18.9532C14.9983 19.3422 15.0322 19.6102 15.167 19.9512L5.99829 19.9532C5.44599 19.9532 4.99819 19.5052 4.99829 18.9532V8.95318C4.99829 8.40118 5.44599 7.95318 5.99829 7.95318ZM6.99829 8.95318C6.44599 8.95318 5.99829 9.40118 5.99829 9.95318V11.9532C5.99819 12.5052 6.44599 12.9532 6.99829 12.9532H7.99829C8.55049 12.9532 8.99829 12.5052 8.99829 11.9532V9.95318C8.99829 9.40118 8.55049 8.95318 7.99829 8.95318H6.99829ZM10.9983 10.9532C10.446 10.9532 9.99819 11.4012 9.99829 11.9532C9.99829 12.5052 10.446 12.9532 10.9983 12.9532H12.9983C13.5505 12.9532 13.9983 12.5052 13.9983 11.9532C13.9983 11.4012 13.5505 10.9532 12.9983 10.9532H10.9983ZM6.99829 13.9532C6.44599 13.9532 5.99819 14.4012 5.99829 14.9532C5.99829 15.5052 6.44599 15.9532 6.99829 15.9532H12.9983C13.5505 15.9532 13.9983 15.5052 13.9983 14.9532C13.9983 14.4012 13.5505 13.9532 12.9983 13.9532H6.99829ZM6.99829 16.9532C6.44599 16.9532 5.99819 17.4012 5.99829 17.9532C5.99829 18.5052 6.44599 18.9532 6.99829 18.9532H12.9983C13.5505 18.9532 13.9983 18.5052 13.9983 17.9532C13.9983 17.4012 13.5505 16.9532 12.9983 16.9532H6.99829Z" fill="#1D1B1E"/>
</g>
</svg>
