<svg width="26" height="26" viewBox="0 0 26 26" fill="none" xmlns="http://www.w3.org/2000/svg">
<g id="box-arrow-in-down-fill">
<path id="Vector" d="M12.9902 2.18164C12.3922 2.18164 11.9069 2.66697 11.9069 3.26497V13.015H8.6569L12.9902 17.3483L17.3236 13.015H14.0736V3.26497C14.0736 2.66697 13.5882 2.18164 12.9902 2.18164ZM7.57357 5.43164C5.18048 5.43164 3.24023 7.37189 3.24023 9.76497V18.4316C3.24023 20.8247 5.18048 22.765 7.57357 22.765H18.4069C20.8 22.765 22.7402 20.8247 22.7402 18.4316V9.76497C22.7402 7.37189 20.8 5.43164 18.4069 5.43164C17.8089 5.43164 17.3236 5.91697 17.3236 6.51497C17.3236 7.11297 17.8089 7.5983 18.4069 7.5983C19.604 7.5983 20.5736 8.56789 20.5736 9.76497V18.4316C20.5736 19.6287 19.604 20.5983 18.4069 20.5983H7.57357C6.37648 20.5983 5.4069 19.6287 5.4069 18.4316V9.76497C5.4069 8.56789 6.37648 7.5983 7.57357 7.5983C8.17157 7.5983 8.6569 7.11297 8.6569 6.51497C8.6569 5.91697 8.17157 5.43164 7.57357 5.43164Z" fill="black"/>
</g>
</svg>
