<svg width="20" height="20" viewBox="0 0 20 20" fill="none" xmlns="http://www.w3.org/2000/svg">
<g id="google-symbol 1">
<g id="Group">
<path id="Vector" d="M17.8714 8.51911C17.9425 8.51911 18.0002 8.57677 18.0002 8.64789V9.99998C18.0002 10.506 17.9532 11.0009 17.863 11.4809C17.1656 15.2093 13.881 18.0269 9.94381 17.9997C5.52604 17.9693 1.99048 14.3998 2.00026 9.98195C2.00998 5.57205 5.58804 2 10.0002 2C12.1619 2 14.1232 2.85756 15.5631 4.25056C15.6151 4.30084 15.6165 4.38371 15.5653 4.43484L13.6525 6.34768C13.6032 6.39693 13.5237 6.39821 13.4732 6.35018C12.5694 5.4899 11.3466 4.96174 10.0002 4.96174C7.21988 4.96174 4.98098 7.18474 4.9621 9.96501C4.94313 12.7635 7.20613 15.0382 10.0002 15.0382C12.2672 15.0382 14.1847 13.5406 14.817 11.4809H10.129C10.0579 11.4809 10.0002 11.4232 10.0002 11.3521V8.64786C10.0002 8.57674 10.0579 8.51908 10.129 8.51908H17.8714V8.51911Z" fill="white"/>
<g id="Group_2">
<path id="Vector_2" d="M17.871 8.51953H16.9052C16.9763 8.51953 17.034 8.57719 17.034 8.64831V10.0004C17.034 10.5065 16.987 11.0013 16.8968 11.4813C16.2315 15.0382 13.2113 17.7662 9.51636 17.9859C9.65773 17.9943 9.80004 17.9992 9.94336 18.0002C13.8805 18.0273 17.1652 15.2096 17.8626 11.4813C17.9527 11.0013 17.9997 10.5065 17.9997 10.0004V8.64828C17.9997 8.57719 17.9421 8.51953 17.871 8.51953Z" fill="white"/>
</g>
<path id="Vector_3" d="M5.424 7.89005L2.99438 6.13455C4.35744 3.66922 6.98406 2 10.0002 2C12.1619 2 14.1232 2.85756 15.5632 4.25056C15.6152 4.30084 15.6165 4.38371 15.5654 4.43484L13.6525 6.34768C13.6034 6.39683 13.5238 6.39837 13.4735 6.35043C12.5697 5.48999 11.3468 4.96178 10.0002 4.96178C7.97112 4.96178 6.22207 6.16127 5.424 7.89005Z" fill="white"/>
<path id="Vector_4" d="M4.72217 7.38341L5.42357 7.89019C6.15201 6.31226 7.67288 5.17582 9.47569 4.98941C9.48925 4.98795 9.50228 4.98616 9.5161 4.98485C9.35744 4.96979 9.19666 4.96191 9.03403 4.96191C7.20101 4.96191 5.60351 5.92826 4.72217 7.38341Z" fill="white"/>
<path id="Vector_5" d="M14.5972 4.25056C14.6492 4.30084 14.6505 4.38371 14.5994 4.43487L13.0468 5.98746C13.1956 6.10058 13.3379 6.22158 13.473 6.35021C13.5235 6.39824 13.6031 6.39696 13.6523 6.34771L15.5652 4.43487C15.6163 4.38371 15.615 4.30087 15.563 4.25056C14.123 2.85756 12.1617 2 10.0001 2C9.83784 2 9.6769 2.00541 9.51709 2.01494C11.4871 2.13228 13.2652 2.96206 14.5972 4.25056Z" fill="white"/>
<path id="Vector_6" d="M15.8681 15.4366C14.4072 17.0131 12.3185 17.9998 9.99963 17.9998C6.86758 17.9998 4.15596 16.1999 2.84277 13.5777L5.32324 11.8779C6.06758 13.73 7.88101 15.038 9.99963 15.038C11.3292 15.038 12.5384 14.5229 13.4385 13.6814L15.8681 15.4366Z" fill="white"/>
<path id="Vector_7" d="M5.32348 11.8779L4.59204 12.3791C5.44157 13.9618 7.11216 15.038 9.03406 15.038C9.19659 15.038 9.35725 15.03 9.51584 15.015C7.60807 14.8331 6.01041 13.5873 5.32348 11.8779Z" fill="white"/>
<path id="Vector_8" d="M10 18C12.3189 18 14.4075 17.0132 15.8685 15.4367L15.2734 15.0068C13.9016 16.714 11.8438 17.8465 9.51831 17.9854C9.67769 17.9949 9.83825 18 10 18Z" fill="white"/>
<path id="Vector_9" d="M4.96177 10.0002C4.96177 10.664 5.09021 11.2979 5.32362 11.8783L2.84312 13.5781C2.30359 12.5016 2 11.2863 2 10.0002C2 8.5982 2.36056 7.28051 2.99412 6.13477L5.42374 7.89026C5.12724 8.53185 4.96177 9.24688 4.96177 10.0002Z" fill="white"/>
<path id="Vector_10" d="M4.59206 12.3799L5.3235 11.8787C5.09009 11.2982 4.96165 10.6643 4.96165 10.0005C4.96165 9.2472 5.12712 8.53216 5.42362 7.89057L4.72222 7.38379C4.26675 8.13582 4.00241 9.01829 3.99597 9.96557C3.99003 10.8391 4.2065 11.6617 4.59206 12.3799Z" fill="white"/>
</g>
</g>
</svg>
