<svg width="20" height="21" viewBox="0 0 20 21" fill="none" xmlns="http://www.w3.org/2000/svg">
<g id="google-symbol 1" clip-path="url(#clip0_1806_3769)">
<g id="Group">
<path id="Vector" d="M19.5395 8.82862C19.6271 8.82862 19.6981 8.8996 19.6981 8.98716V10.6518C19.6981 11.2748 19.6402 11.884 19.5292 12.4749C18.6706 17.0651 14.6267 20.534 9.77958 20.5005C4.34072 20.4631 -0.0120171 16.0685 2.49256e-05 10.6296C0.01199 5.2004 4.41705 0.802734 9.84902 0.802734C12.5103 0.802734 14.9249 1.8585 16.6977 3.57347C16.7617 3.63537 16.7634 3.7374 16.7004 3.80034L14.3454 6.1553C14.2848 6.21593 14.1869 6.21751 14.1247 6.15838C13.0121 5.09926 11.5066 4.44903 9.84902 4.44903C6.42606 4.44903 3.66967 7.18583 3.64644 10.6087C3.62308 14.0541 6.40913 16.8545 9.84902 16.8545C12.64 16.8545 15.0006 15.0107 15.7791 12.4749H10.0076C9.92 12.4749 9.84902 12.4039 9.84902 12.3164V8.98713C9.84902 8.89956 9.92 8.82858 10.0076 8.82858H19.5395V8.82862Z" fill="#2196F3"/>
<g id="Group_2">
<path id="Vector_2" d="M19.5395 8.82812H18.3505C18.4381 8.82812 18.5091 8.89911 18.5091 8.98667V10.6513C18.5091 11.2743 18.4512 11.8835 18.3402 12.4744C17.5211 16.8535 13.8029 20.212 9.25391 20.4825C9.42796 20.4928 9.60316 20.4988 9.7796 20.5C14.6268 20.5335 18.6706 17.0645 19.5292 12.4744C19.6402 11.8835 19.6981 11.2743 19.6981 10.6513V8.98663C19.6981 8.89911 19.6271 8.82812 19.5395 8.82812Z" fill="#1E88E5"/>
</g>
<path id="Vector_3" d="M4.21579 8.05416L1.22461 5.89291C2.90272 2.85776 6.13643 0.802734 9.84975 0.802734C12.511 0.802734 14.9257 1.8585 16.6984 3.57347C16.7625 3.63537 16.7641 3.7374 16.7011 3.80034L14.3462 6.1553C14.2857 6.21582 14.1877 6.2177 14.1257 6.15869C13.0131 5.09938 11.5075 4.44907 9.84975 4.44907C7.35163 4.44907 5.19831 5.92581 4.21579 8.05416Z" fill="#F44336"/>
<path id="Vector_4" d="M3.35156 7.4304L4.21508 8.05432C5.11188 6.11167 6.98428 4.71257 9.20377 4.48307C9.22047 4.48127 9.23651 4.47907 9.25352 4.47746C9.05819 4.45891 8.86025 4.44922 8.66004 4.44922C6.40334 4.44922 4.43661 5.63891 3.35156 7.4304Z" fill="#E53935"/>
<path id="Vector_5" d="M15.5092 3.57347C15.5732 3.63537 15.5748 3.7374 15.5119 3.80038L13.6004 5.71182C13.7836 5.85109 13.9588 6.00006 14.1252 6.15842C14.1873 6.21755 14.2853 6.21597 14.3459 6.15534L16.7009 3.80038C16.7638 3.7374 16.7622 3.63541 16.6982 3.57347C14.9254 1.8585 12.5108 0.802734 9.84948 0.802734C9.64977 0.802734 9.45163 0.80939 9.25488 0.821124C11.6802 0.96559 13.8693 1.98716 15.5092 3.57347Z" fill="#E53935"/>
<path id="Vector_6" d="M17.074 17.346C15.2754 19.2869 12.704 20.5017 9.84912 20.5017C5.99315 20.5017 2.65479 18.2857 1.03809 15.0575L4.09186 12.9648C5.00825 15.245 7.24082 16.8553 9.84912 16.8553C11.486 16.8553 12.9747 16.2212 14.0828 15.1851L17.074 17.346Z" fill="#4CAF50"/>
<path id="Vector_7" d="M4.0919 12.9648L3.19141 13.5819C4.23729 15.5303 6.29401 16.8553 8.66012 16.8553C8.86022 16.8553 9.05801 16.8455 9.25325 16.827C6.90453 16.6031 4.93761 15.0693 4.0919 12.9648Z" fill="#43A047"/>
<path id="Vector_8" d="M9.84888 20.5013C12.7037 20.5013 15.2752 19.2866 17.0738 17.3457L16.3411 16.8164C14.6523 18.9182 12.1189 20.3125 9.25586 20.4834C9.45207 20.4951 9.64974 20.5013 9.84888 20.5013Z" fill="#43A047"/>
<path id="Vector_9" d="M3.64634 10.6514C3.64634 11.4687 3.80446 12.2491 4.09181 12.9637L1.038 15.0563C0.373763 13.731 0 12.2348 0 10.6514C0 8.92539 0.443899 7.30314 1.2239 5.89258L4.21508 8.05383C3.85005 8.84371 3.64634 9.72401 3.64634 10.6514Z" fill="#FFC107"/>
<path id="Vector_10" d="M3.19105 13.5805L4.09154 12.9635C3.80419 12.2489 3.64606 11.4685 3.64606 10.6512C3.64606 9.72379 3.84978 8.84349 4.21481 8.0536L3.35129 7.42969C2.79054 8.35554 2.4651 9.44197 2.45718 10.6082C2.44987 11.6837 2.71637 12.6963 3.19105 13.5805Z" fill="#FFB300"/>
</g>
</g>
<defs>
<clipPath id="clip0_1806_3769">
<rect width="20" height="20" fill="white" transform="translate(0 0.802734)"/>
</clipPath>
</defs>
</svg>
