<svg width="24" height="24" viewBox="0 0 24 24" fill="none" xmlns="http://www.w3.org/2000/svg">
<g id="grid">
<path id="Vector" d="M4.99854 2.99023C3.89394 2.99023 2.99854 3.88523 2.99854 4.99023V8.99023C2.99854 10.0952 3.89394 10.9902 4.99854 10.9902H8.99854C10.1035 10.9902 10.9985 10.0952 10.9985 8.99023V4.99023C10.9985 3.88523 10.1035 2.99023 8.99854 2.99023H4.99854ZM14.9985 2.99023C13.8935 2.99023 12.9985 3.88523 12.9985 4.99023V8.99023C12.9985 10.0952 13.8935 10.9902 14.9985 10.9902H18.9985C20.1035 10.9902 20.9985 10.0952 20.9985 8.99023V4.99023C20.9985 3.88523 20.1035 2.99023 18.9985 2.99023H14.9985ZM4.99854 4.99023H8.99854V8.99023H4.99854V4.99023ZM14.9985 4.99023H18.9985V8.99023H14.9985V4.99023ZM4.99854 12.9902C3.89394 12.9902 2.99854 13.8852 2.99854 14.9902V18.9902C2.99854 20.0952 3.89394 20.9902 4.99854 20.9902H8.99854C10.1035 20.9902 10.9985 20.0952 10.9985 18.9902V14.9902C10.9985 13.8852 10.1035 12.9902 8.99854 12.9902H4.99854ZM14.9985 12.9902C13.8935 12.9902 12.9985 13.8852 12.9985 14.9902V18.9902C12.9985 20.0952 13.8935 20.9902 14.9985 20.9902H18.9985C20.1035 20.9902 20.9985 20.0952 20.9985 18.9902V14.9902C20.9985 13.8852 20.1035 12.9902 18.9985 12.9902H14.9985ZM4.99854 14.9902H8.99854V18.9902H4.99854V14.9902ZM14.9985 14.9902H18.9985V18.9902H14.9985V14.9902Z" fill="#7D22F5"/>
</g>
</svg>
