<svg width="22" height="25" viewBox="0 0 22 25" fill="none" xmlns="http://www.w3.org/2000/svg">
<g id="Logo" clip-path="url(#clip0_1292_40303)">
<path id="Vector" d="M21.9956 6.02457C21.8042 6.13755 21.6111 6.23935 21.4217 6.34759C21.0589 6.5549 20.6983 6.76617 20.3366 6.97525C19.8941 7.23097 19.4513 7.48627 19.0086 7.7415C18.6466 7.95016 18.2843 8.15822 17.9223 8.36695C17.4831 8.62028 17.0439 8.87386 16.6049 9.12767C16.2432 9.33682 15.8817 9.54642 15.5202 9.75591C15.0745 10.0141 14.6289 10.2725 14.1832 10.5307C13.8462 10.726 13.5098 10.9223 13.1718 11.1159C12.8128 11.3216 12.4633 11.548 12.0901 11.7239C11.3823 12.0575 10.6551 12.081 9.9487 11.7206C9.47584 11.4794 9.02343 11.198 8.56188 10.9346C8.16025 10.7053 7.75782 10.4775 7.35725 10.2464C6.95666 10.0154 6.5585 9.78011 6.15823 9.5485C5.76144 9.31891 5.36303 9.0921 4.96589 8.86309C4.5618 8.63007 4.15857 8.39554 3.75463 8.16226C3.46305 7.99387 3.17102 7.82626 2.8788 7.65899C2.85845 7.64734 2.8348 7.64144 2.80391 7.62946C2.80391 11.8419 2.80391 16.0446 2.80391 20.2727C2.73809 20.2382 2.68633 20.2134 2.63687 20.1847C2.12463 19.8875 1.60447 19.6029 1.10299 19.2885C0.543144 18.9375 0.237994 18.399 0.0755142 17.7713C0.0636833 17.7255 0.0535348 17.6794 0.0335091 17.6301C0.0244141 17.6157 0.0244141 17.6046 0.0323126 17.5825C0.0349454 17.5485 0.0296798 17.5255 0.0244141 17.5026C0.0244141 14.0677 0.0244141 10.6329 0.0323129 7.18369C0.0349459 7.1463 0.02968 7.12334 0.0244141 7.10037C0.0244141 7.08934 0.0244141 7.07831 0.03351 7.05561C0.0522467 7.03104 0.0669121 7.01947 0.0707594 7.00502C0.114328 6.84138 0.142214 6.67205 0.201262 6.51433C0.369716 6.0644 0.644664 5.68638 1.04861 5.42333C1.42534 5.17802 1.81847 4.95757 2.20752 4.7316C2.66689 4.46478 3.13059 4.20541 3.59068 3.93982C4.14549 3.61955 4.69762 3.29465 5.25249 2.97451C5.77239 2.67454 6.29535 2.37988 6.81515 2.07975C7.43323 1.72287 8.04938 1.36264 8.66638 1.00388C9.02394 0.795976 9.37858 0.582817 9.74016 0.38216C9.97035 0.254416 10.2074 0.137584 10.4735 0.096935C10.5993 0.0777222 10.7237 0.0492043 10.8486 0.0249023C10.9486 0.0249023 11.0485 0.0249023 11.1649 0.0341317C11.3026 0.0580078 11.4253 0.0650117 11.5447 0.0888473C11.8171 0.143207 12.0677 0.251363 12.3072 0.39392C12.7041 0.630195 13.1085 0.853788 13.5087 1.08461C13.9125 1.31747 14.3144 1.55341 14.718 1.78657C15.118 2.01769 15.5194 2.24646 15.9196 2.47729C16.3234 2.71015 16.7263 2.94427 17.1296 3.17782C17.5329 3.41138 17.9359 3.64547 18.3397 3.87832C18.7399 4.10915 19.1409 4.33861 19.5414 4.56889C19.9385 4.7972 20.3355 5.02559 20.7324 5.2543C21.1536 5.49705 21.5745 5.74021 21.9956 5.98319C21.9956 5.99423 21.9956 6.00526 21.9956 6.02457Z" fill="#9C2CF3"/>
<path id="Vector_2" d="M21.9964 17.6894C21.9638 17.7844 21.9242 17.8659 21.8997 17.9516C21.748 18.4841 21.4547 18.9235 21.0004 19.2359C20.6674 19.4649 20.3081 19.6559 19.9587 19.8608C19.5566 20.0966 19.1528 20.3293 18.7494 20.5627C18.3529 20.7922 17.9558 21.0206 17.5592 21.2498C17.1522 21.4849 16.7456 21.7208 16.3384 21.9556C15.9416 22.1845 15.5443 22.4125 15.1473 22.6408C14.7467 22.8711 14.3459 23.1009 13.9456 23.3317C13.5419 23.5646 13.1387 23.7983 12.7354 24.0319C12.332 24.2655 11.9288 24.4992 11.5256 24.7331C11.3681 24.8245 11.2108 24.9164 11.0507 25.0164C11.037 25.0247 11.026 25.0247 11.0067 25.0247C10.9984 24.4583 10.9997 23.8918 10.9981 23.3253C10.9964 22.7646 11.1423 22.2492 11.4721 21.7926C11.7108 21.462 12.0299 21.2255 12.383 21.0275C12.8284 20.7777 13.2686 20.5187 13.7111 20.2636C14.0728 20.055 14.4347 19.8468 14.796 19.6375C15.2414 19.3794 15.6857 19.1194 16.1316 18.8621C16.4897 18.6555 16.85 18.4524 17.2084 18.2462C17.6476 17.9935 18.086 17.7393 18.5247 17.4856C18.8861 17.2765 19.2473 17.0668 19.6088 16.8579C20.0511 16.6024 20.4938 16.3478 20.936 16.0922C21.2379 15.9178 21.5391 15.7422 21.8409 15.5675C21.8861 15.5413 21.9325 15.5171 21.9874 15.4917C21.9964 16.2202 21.9964 16.949 21.9964 17.6894Z" fill="#9C2CF3"/>
<path id="Vector_3" d="M21.9957 11.3588C21.9627 11.458 21.9232 11.5438 21.8979 11.6336C21.8127 11.9349 21.6619 12.2003 21.4762 12.4499C21.192 12.832 20.7877 13.0531 20.387 13.2816C19.9431 13.5346 19.5013 13.7913 19.0588 14.047C18.7005 14.254 18.3431 14.4624 17.9846 14.6691C17.5419 14.9242 17.0982 15.1776 16.6555 15.4329C16.2936 15.6416 15.9328 15.8523 15.571 16.0613C15.1286 16.317 14.6857 16.5718 14.243 16.827C13.8811 17.0356 13.519 17.2439 13.1573 17.453C12.7149 17.7088 12.273 17.9656 11.8305 18.2211C11.5575 18.3787 11.2837 18.5348 10.9977 18.6987C10.9977 18.0441 10.9652 17.4094 11.0056 16.7794C11.0608 15.9182 11.4604 15.2381 12.221 14.7953C12.8625 14.4218 13.5063 14.0523 14.1482 13.6794C14.8005 13.3005 15.4504 12.9175 16.1036 12.54C16.7251 12.1808 17.3506 11.8285 17.9723 11.4694C18.7414 11.0251 19.5073 10.5752 20.2766 10.1312C20.8419 9.805 21.4104 9.48444 21.9866 9.16113C21.9957 9.88966 21.9957 10.6184 21.9957 11.3588Z" fill="#9C2CF3"/>
<path id="Vector_4" d="M0.0244141 7.10962C0.02968 7.12327 0.0349459 7.14623 0.0323129 7.17199C0.0244141 7.15617 0.0244141 7.13755 0.0244141 7.10962Z" fill="white"/>
<path id="Vector_5" d="M0.0244141 17.5117C0.0296798 17.5254 0.0349454 17.5483 0.0323126 17.5741C0.0244141 17.5583 0.0244141 17.5396 0.0244141 17.5117Z" fill="white"/>
</g>
<defs>
<clipPath id="clip0_1292_40303">
<rect width="21.9712" height="25" fill="white"/>
</clipPath>
</defs>
</svg>
