<svg width="15" height="14" viewBox="0 0 15 14" fill="none" xmlns="http://www.w3.org/2000/svg">
<path d="M10.4103 5.61667L8.37005 3.57425L11.4301 0.510607C11.5653 0.375212 11.7487 0.299152 11.94 0.299152C12.1312 0.299152 12.3146 0.375212 12.4499 0.510607L13.4703 1.53182C13.6055 1.66726 13.6815 1.85092 13.6815 2.04243C13.6815 2.23393 13.6055 2.4176 13.4703 2.55303L10.4103 5.61739V5.61667ZM9.39054 6.63861L2.2507 13.7885C2.11545 13.9239 1.93205 14 1.74081 14C1.54958 14 1.36617 13.9239 1.23093 13.7885L0.211156 12.7666C0.075953 12.6312 0 12.4475 0 12.256C0 12.0645 0.075953 11.8808 0.211156 11.7454L7.351 4.59546L9.39054 6.63861ZM5.82062 0L6.82524 0.50844L7.86016 0L7.37047 1.05444L7.86088 2.04243L6.86275 1.56288L5.82062 2.04243L6.31752 1.01688L5.8199 0H5.82062ZM12.9605 5.10607L13.9651 5.61523L15 5.10679L14.5096 6.16122L15 7.14921L14.0019 6.66966L12.9597 7.14921L13.4574 6.12367L12.9597 5.10679L12.9605 5.10607Z" fill="#9C2CF3"/>
</svg>
