<svg width="24" height="24" viewBox="0 0 24 24" fill="none" xmlns="http://www.w3.org/2000/svg">
<g id="Component 2">
<path id="Vector" d="M11.9981 1.95312C6.4751 1.95312 2.01711 6.43012 1.99811 11.9531C1.97911 17.4681 6.4801 21.9731 11.9981 21.9841C17.5161 21.9951 22.0081 17.4291 21.9981 11.9531C21.9881 6.43012 17.5211 1.95312 11.9981 1.95312ZM11.9981 3.95312C16.4161 3.95312 19.9981 7.53512 19.9981 11.9531C19.9981 14.2031 19.0611 16.2311 17.5661 17.6851C16.8291 16.0921 15.2481 14.9531 13.4351 14.9531C13.0761 14.9531 10.9201 14.9531 10.5601 14.9531C8.75011 14.9531 7.17211 16.0781 6.43512 17.6721C4.94112 16.2181 3.99811 14.2031 3.99811 11.9531C3.99811 7.53512 7.5801 3.95312 11.9981 3.95312ZM11.9981 5.95312C9.7891 5.95312 7.9981 7.74412 7.9981 9.95312C7.9981 12.1621 9.7891 13.9531 11.9981 13.9531C14.2071 13.9531 15.9981 12.1621 15.9981 9.95312C15.9981 7.74412 14.2071 5.95312 11.9981 5.95312ZM11.9981 7.95312C13.1031 7.95312 13.9981 8.84812 13.9981 9.95312C13.9981 11.0581 13.1031 11.9531 11.9981 11.9531C10.8931 11.9531 9.9981 11.0581 9.9981 9.95312C9.9981 8.84812 10.8931 7.95312 11.9981 7.95312ZM10.5601 16.9531C10.9201 16.9531 13.0761 16.9531 13.4351 16.9531C14.5511 16.9531 15.5611 17.7671 15.9151 18.9141C14.4871 19.7571 12.8921 19.9531 11.9981 19.9531C11.0801 19.9531 9.5571 19.7471 8.0931 18.9401C8.4441 17.7831 9.45411 16.9531 10.5601 16.9531Z" fill="#9C2CF3"/>
</g>
</svg>
