<svg width="24" height="24" viewBox="0 0 24 24" fill="none" xmlns="http://www.w3.org/2000/svg">
<g id="Component 2">
<path id="Vector" d="M8.51367 2.92969C6.02867 2.92969 4.01367 4.94439 4.01367 7.42969C4.01367 9.91499 6.02867 11.9297 8.51367 11.9297C10.9987 11.9297 13.0137 9.91499 13.0137 7.42969C13.0137 4.94439 10.9987 2.92969 8.51367 2.92969ZM8.51367 4.92969C9.89467 4.92969 11.0137 6.04899 11.0137 7.42969C11.0137 8.81039 9.89467 9.92959 8.51367 9.92969C7.13267 9.92969 6.01367 8.81039 6.01367 7.42969C6.01367 6.04899 7.13267 4.92979 8.51367 4.92969ZM19.0137 8.92969C18.4617 8.92969 18.0137 9.37739 18.0137 9.92969V10.9297H17.0137C16.4617 10.9297 16.0137 11.3774 16.0137 11.9297C16.0137 12.482 16.4617 12.9297 17.0137 12.9297H18.0137V13.9297C18.0137 14.482 18.4617 14.9297 19.0137 14.9297C19.5657 14.9297 20.0137 14.482 20.0137 13.9297V12.9297H21.0137C21.5657 12.9297 22.0137 12.482 22.0137 11.9297C22.0137 11.3774 21.5657 10.9297 21.0137 10.9297H20.0137V9.92969C20.0137 9.37739 19.5657 8.92969 19.0137 8.92969ZM5.07567 13.2735C3.24167 14.0303 2.01367 15.8858 2.01367 17.9297V19.9297C2.01367 20.482 2.46167 20.9297 3.01367 20.9297H14.0137C14.5657 20.9297 15.0137 20.482 15.0137 19.9297V17.9297C15.0137 15.9339 13.7787 14.1234 11.9517 13.3359C11.6937 13.2251 11.3947 13.2217 11.1387 13.3359C10.2537 13.7325 9.39167 13.9295 8.51367 13.9297C7.63867 13.9297 6.77367 13.7217 5.85767 13.3047C5.60567 13.1901 5.33167 13.1682 5.07567 13.2735ZM5.45168 15.3047C6.39568 15.6632 7.54467 15.9299 8.51367 15.9297C9.47467 15.9297 10.5567 15.7093 11.4827 15.3672C12.3847 15.882 13.0137 16.8291 13.0137 17.9297V18.9297H4.01367V17.9297C4.01367 16.765 4.65968 15.7682 5.45168 15.3047Z" fill="#828282"/>
</g>
</svg>
