<svg xmlns="http://www.w3.org/2000/svg" width="24" height="24" viewBox="0 0 24 24" fill="none">
    <path
        d="M8.51416 2.92975C6.02916 2.92975 4.01416 4.94445 4.01416 7.42975C4.01416 9.91505 6.02916 11.9297 8.51416 11.9297C10.9992 11.9297 13.0142 9.91505 13.0142 7.42975C13.0142 4.94445 10.9992 2.92975 8.51416 2.92975ZM8.51416 4.92975C9.89516 4.92975 11.0142 6.04905 11.0142 7.42975C11.0142 8.81045 9.89516 9.92965 8.51416 9.92975C7.13316 9.92975 6.01416 8.81045 6.01416 7.42975C6.01416 6.04905 7.13316 4.92985 8.51416 4.92975ZM19.0142 8.92975C18.4622 8.92975 18.0142 9.37745 18.0142 9.92975V10.9297H17.0142C16.4622 10.9297 16.0142 11.3774 16.0142 11.9297C16.0142 12.482 16.4622 12.9297 17.0142 12.9297H18.0142V13.9297C18.0142 14.482 18.4622 14.9298 19.0142 14.9298C19.5662 14.9298 20.0142 14.482 20.0142 13.9297V12.9297H21.0142C21.5662 12.9297 22.0142 12.482 22.0142 11.9297C22.0142 11.3774 21.5662 10.9297 21.0142 10.9297H20.0142V9.92975C20.0142 9.37745 19.5662 8.92975 19.0142 8.92975ZM5.07616 13.2735C3.24216 14.0303 2.01416 15.8858 2.01416 17.9298V19.9298C2.01416 20.482 2.46216 20.9298 3.01416 20.9298H14.0142C14.5662 20.9298 15.0142 20.482 15.0142 19.9298V17.9298C15.0142 15.934 13.7792 14.1235 11.9522 13.3359C11.6942 13.2252 11.3952 13.2218 11.1392 13.3359C10.2542 13.7326 9.39216 13.9296 8.51416 13.9297C7.63916 13.9297 6.77415 13.7218 5.85815 13.3047C5.60615 13.1901 5.33216 13.1682 5.07616 13.2735ZM5.45216 15.3048C6.39616 15.6632 7.54516 15.9299 8.51416 15.9298C9.47516 15.9298 10.5572 15.7093 11.4832 15.3673C12.3852 15.8821 13.0142 16.8292 13.0142 17.9298V18.9298H4.01416V17.9298C4.01416 16.765 4.66016 15.7683 5.45216 15.3048Z"
        fill="#1D1B1E" />
</svg>