<svg width="24" height="24" viewBox="0 0 24 24" fill="none" xmlns="http://www.w3.org/2000/svg">
<path d="M10.8262 3.93832C10.4302 4.00932 10.0136 4.20832 9.60719 4.53232L3.13849 9.68833C1.63939 10.8843 1.63939 12.9303 3.13849 14.1253L9.60719 19.2823C11.2332 20.5783 13.0132 19.7413 13.0132 17.6573V15.8753C13.1642 15.8733 13.3632 15.8763 13.4202 15.8753C14.1802 15.8643 14.6762 15.8853 14.9512 15.9073C17.0952 16.0763 18.0922 16.4813 19.2322 17.5323C19.3832 17.6713 20.2082 18.5393 20.2952 18.6253C20.9252 19.2543 22.0132 18.7973 22.0132 17.9073C22.0132 17.7823 22.0132 16.9073 22.0132 16.9073C22.0602 11.3783 20.3212 8.32332 15.1072 7.90732C14.9232 7.89232 14.4032 7.90232 13.5132 7.90732C13.4512 7.90732 13.2262 7.90532 13.0132 7.90732C13.0132 7.18232 13.0132 6.37532 13.0132 6.15732C13.0132 4.59432 12.0142 3.72432 10.8262 3.93832ZM11.0132 5.96732L11.0142 9.90033C11.0142 9.90033 14.8492 9.89932 14.9512 9.90732C18.4922 10.1713 19.7662 11.8423 19.9912 15.5893C18.7212 14.6043 17.3232 14.0823 15.1072 13.9073C14.7472 13.8783 14.2162 13.8633 13.3882 13.8753C13.1902 13.8783 11.0142 13.9003 11.0142 13.9003L11.0292 17.8563L4.38849 12.5633C3.89329 12.1683 3.89329 11.6453 4.38849 11.2503L11.0132 5.96732Z" fill="white"/>
</svg>
