<svg width="24" height="24" viewBox="0 0 24 24" fill="none" xmlns="http://www.w3.org/2000/svg">
<g id="file-earmark-person">
<path id="Vector" d="M7.58936 1.99902C5.63836 1.99902 4.02734 3.47902 4.02734 5.34302V18.655C4.02734 20.519 5.63836 21.999 7.58936 21.999H8.05835H16.0273H16.4653C18.4163 21.999 20.0273 20.519 20.0273 18.655C20.0273 18.004 20.0273 10.857 20.0273 8.99902C20.0273 8.98902 20.0273 8.97802 20.0273 8.96802C20.0273 5.40502 16.5883 1.99902 13.0273 1.99902C8.81334 1.99902 8.80336 1.99902 7.58936 1.99902ZM7.58936 3.99902C8.58036 3.99902 9.70134 3.99902 12.0273 3.99902V6.65503C12.0273 8.51903 13.6384 9.99902 15.5894 9.99902H18.0273C18.0273 12.536 18.0273 18.071 18.0273 18.655C18.0273 19.28 17.5433 19.818 16.8873 19.963C16.3293 18.088 14.3123 16.999 11.9963 16.999C9.72834 16.999 7.69034 18.069 7.18234 19.957C6.53634 19.837 6.02734 19.28 6.02734 18.655V5.34302C6.02734 4.62902 6.70136 3.99902 7.58936 3.99902ZM14.0273 4.24902C15.7993 4.71902 17.3493 6.23202 17.8083 7.99902H15.5894C14.7004 7.99902 14.0273 7.36903 14.0273 6.65503V4.24902ZM12.0273 10.999C10.9223 10.999 10.0273 11.894 10.0273 12.999C10.0273 14.104 10.9223 14.999 12.0273 14.999C13.1323 14.999 14.0273 14.104 14.0273 12.999C14.0273 11.894 13.1323 10.999 12.0273 10.999Z" fill="#A0A8B0"/>
</g>
</svg>
