<svg width="24" height="25" viewBox="0 0 24 25" fill="none" xmlns="http://www.w3.org/2000/svg">
<g id="file-earmark-person">
<path id="Vector" d="M7.58936 2.57202C5.63836 2.57202 4.02734 4.05202 4.02734 5.91602V19.228C4.02734 21.092 5.63836 22.572 7.58936 22.572H8.05835H16.0273H16.4653C18.4163 22.572 20.0273 21.092 20.0273 19.228C20.0273 18.577 20.0273 11.43 20.0273 9.57202C20.0273 9.56202 20.0273 9.55102 20.0273 9.54102C20.0273 5.97802 16.5883 2.57202 13.0273 2.57202C8.81334 2.57202 8.80336 2.57202 7.58936 2.57202ZM7.58936 4.57202C8.58036 4.57202 9.70134 4.57202 12.0273 4.57202V7.22803C12.0273 9.09203 13.6384 10.572 15.5894 10.572H18.0273C18.0273 13.109 18.0273 18.644 18.0273 19.228C18.0273 19.853 17.5433 20.391 16.8873 20.536C16.3293 18.661 14.3123 17.572 11.9963 17.572C9.72834 17.572 7.69034 18.642 7.18234 20.53C6.53634 20.41 6.02734 19.853 6.02734 19.228V5.91602C6.02734 5.20202 6.70136 4.57202 7.58936 4.57202ZM14.0273 4.82202C15.7993 5.29202 17.3493 6.80502 17.8083 8.57202H15.5894C14.7004 8.57202 14.0273 7.94203 14.0273 7.22803V4.82202ZM12.0273 11.572C10.9223 11.572 10.0273 12.467 10.0273 13.572C10.0273 14.677 10.9223 15.572 12.0273 15.572C13.1323 15.572 14.0273 14.677 14.0273 13.572C14.0273 12.467 13.1323 11.572 12.0273 11.572Z" fill="#9C2CF3"/>
</g>
</svg>
