<svg xmlns="http://www.w3.org/2000/svg" width="72" height="58" viewBox="0 0 72 58" fill="none">
<g clip-path="url(#clip0_333_22650)">
<path d="M28.0106 38.7469C28.0106 41.5145 25.5915 43.8008 22.6631 43.8008C19.7347 43.8008 17.3157 41.5145 17.3157 38.7469C17.3157 35.9793 19.7347 33.6929 22.6631 33.6929C25.5915 33.6929 28.0106 35.9793 28.0106 38.7469ZM49.3369 33.6929C46.4085 33.6929 43.9894 35.9793 43.9894 38.7469C43.9894 41.5145 46.4085 43.8008 49.3369 43.8008C52.2653 43.8008 54.6844 41.5145 54.6844 38.7469C54.6844 35.9793 52.2653 33.6929 49.3369 33.6929ZM72 35.7386V36.2199C72 39.6494 69.4536 42.4772 66.0159 43.139C61.7507 51.8029 49.9098 58 35.9682 58C22.0265 58 10.2493 51.8029 5.98409 43.139C2.54642 42.4772 0 39.6494 0 36.2199L0 35.7386C0 32.3091 2.61008 29.4813 5.98409 28.8195C10.122 20.5768 21.2626 14.5 34.4403 14.0788V9.44606C32.3395 8.8444 30.8753 6.97925 30.8753 4.81328C30.8753 2.16597 33.1671 0 35.9682 0C38.7692 0 41.061 2.16597 41.061 4.81328C41.061 6.97925 39.5332 8.78423 37.496 9.44606V14.0788C50.7374 14.5 61.8143 20.5166 65.9523 28.8195C69.3899 29.4813 72 32.3091 72 35.7386ZM60.8594 36.0394C60.8594 35.9793 60.8594 35.8589 60.8594 35.7988C60.7958 31.888 55.9576 28.3382 50.3554 29C40.8064 30.0228 31.1936 30.0228 21.6446 29C16.0424 28.3983 11.2042 31.888 11.1406 35.7988C11.1406 35.8589 11.1406 35.9191 11.1406 35.9793C11.0769 45.3651 22.0902 53.1266 35.6499 53.2469C49.5279 53.4274 60.8594 45.666 60.8594 36.0394Z" fill="url(#paint0_linear_333_22650)"/>
</g>
<defs>
<linearGradient id="paint0_linear_333_22650" x1="0" y1="29" x2="72" y2="29" gradientUnits="userSpaceOnUse">
<stop stop-color="#C451AF"/>
<stop offset="1" stop-color="#7E00F7"/>
</linearGradient>
<clipPath id="clip0_333_22650">
<rect width="72" height="58" fill="white"/>
</clipPath>
</defs>
</svg>
