<svg width="32" height="32" viewBox="0 0 32 32" fill="none" xmlns="http://www.w3.org/2000/svg">
<g id="diagram-3-fill">
<path id="Vector" d="M16.0189 5.33105C13.8095 5.33105 12.0189 7.12172 12.0189 9.33105C12.0189 11.0217 13.0989 12.5524 14.6909 13.1044L14.6855 14.6644H6.68555C5.94955 14.6644 5.35221 15.2617 5.35221 15.9977L5.36155 18.9044C3.68022 19.535 2.68555 20.9737 2.68555 22.6644C2.68555 24.8737 4.47621 26.6644 6.68555 26.6644C8.89488 26.6644 10.6855 24.8737 10.6855 22.6644C10.6855 20.9737 9.57754 19.4764 8.00954 18.8964L8.01888 17.3311H14.6855L14.6815 18.8964C13.1135 19.4417 12.0189 20.9737 12.0189 22.6644C12.0189 24.8737 13.8095 26.6644 16.0189 26.6644C18.2282 26.6644 20.0189 24.8737 20.0189 22.6644C20.0189 20.9737 18.9602 19.4964 17.3575 18.9044L17.3522 17.3311H24.0189L24.0149 18.9017C22.4629 19.487 21.3522 20.9737 21.3522 22.6644C21.3522 24.8737 23.1429 26.6644 25.3522 26.6644C27.5615 26.6644 29.3522 24.8737 29.3522 22.6644C29.3522 20.9737 28.2629 19.4297 26.6709 18.8737L26.6855 15.9977C26.6855 15.2617 26.0882 14.6644 25.3522 14.6644H17.3522L17.3549 13.0871C18.8615 12.6044 20.0189 11.0217 20.0189 9.33105C20.0189 7.12172 18.2282 5.33105 16.0189 5.33105Z" fill="#8E55EA"/>
</g>
</svg>
