<svg width="24" height="24" viewBox="0 0 24 24" fill="none" xmlns="http://www.w3.org/2000/svg">
<g id="telegram2">
<path id="Vector" d="M20.3577 2.94791C19.9527 2.88891 19.5047 2.97889 19.0457 3.13589C18.7957 3.22089 19.2017 3.08591 11.7017 5.44791C11.6907 5.45191 4.93154 7.5869 4.42054 7.7609C2.84504 8.2959 2.07154 9.0399 2.01424 10.3859C1.97364 11.3399 2.42604 12.0469 3.13924 12.5109C3.35094 12.6479 3.48724 12.7369 3.76424 12.8539C3.80994 12.8729 3.81224 12.8679 3.85804 12.8859C4.42594 13.1049 5.42604 13.2999 6.79554 13.5109C7.47554 13.6149 8.19454 13.7329 8.92054 13.8229C9.05564 13.8399 9.23804 13.8609 9.45174 13.8859C9.65374 14.1489 9.91664 14.4619 10.0767 14.6669C10.7287 15.5009 11.3947 16.3239 12.0457 17.1039C12.2227 17.3169 12.4067 17.5309 12.5767 17.7289C13.2967 18.5729 13.9197 19.2709 14.4517 19.7919C15.2347 20.5579 16.0967 20.9339 16.9827 20.9479C18.5017 20.9729 19.6137 19.9959 19.9827 18.5109C20.0337 18.3089 20.3347 16.2729 20.9207 12.4169C21.2757 10.0769 21.9007 5.94391 21.9207 5.82291C21.9767 5.45891 22.0107 5.17191 21.9827 4.85391C21.9397 4.36091 21.7567 3.9119 21.4207 3.5419C21.1057 3.1949 20.7627 3.00691 20.3577 2.94791ZM17.4517 5.72891L9.73304 11.8859C9.55824 11.8609 9.42464 11.8549 9.17054 11.8229C8.46274 11.7349 7.76614 11.6429 7.10804 11.5419C5.88704 11.3539 4.96154 11.1589 4.57674 11.0109C4.55874 11.0039 4.31714 10.9089 4.23304 10.8539C4.07134 10.7489 4.00644 10.6609 4.01424 10.4789C4.03034 10.1009 4.17054 9.96391 5.04554 9.66691C5.53324 9.50091 12.3157 7.35792 12.3267 7.35392C17.7117 5.65791 17.0577 5.86291 17.4517 5.72891ZM19.8267 6.3859C19.5877 7.9569 18.0687 17.9179 18.0457 18.0109C17.8887 18.6399 17.5447 18.9569 17.0147 18.9479C16.6507 18.9419 16.2827 18.7699 15.8577 18.3539C15.3767 17.8829 14.7607 17.2189 14.0767 16.4169C13.9127 16.2239 13.7487 16.0299 13.5767 15.8229C12.9407 15.0599 12.2787 14.2359 11.6397 13.4169C11.5767 13.3369 11.5157 13.2319 11.4207 13.1039L19.8267 6.3859Z" fill="white"/>
</g>
</svg>
