<svg width="22" height="23" viewBox="0 0 22 23" fill="none" xmlns="http://www.w3.org/2000/svg">
<g id="telegram-fill">
<path id="Vector" d="M3.41286 9.49712C2.84448 9.74844 2.49169 10.1958 2.48636 10.8292C2.48269 11.272 2.76636 11.8667 3.33473 12.1098C3.56885 12.2101 6.85598 12.6759 6.85598 12.6759C6.85598 12.6759 7.72603 15.573 8.03958 16.5911C8.13037 16.8857 8.18211 17.0303 8.38136 17.2227C8.71938 17.5486 9.29081 17.4464 9.53795 17.1849C10.1918 16.4945 11.2253 15.4294 11.2253 15.4294L11.6602 15.8022C11.6602 15.8022 13.5916 17.4252 14.6473 18.1893C15.2689 18.6394 15.7004 19.1089 16.4 19.1117C16.7564 19.1136 17.328 18.9267 17.7058 18.471C17.9555 18.1699 18.1157 17.6885 18.1777 17.2567C18.3185 16.2763 19.9711 5.67486 19.9641 5.30387C19.953 4.71193 19.4803 4.37867 19.0874 4.38235C18.8406 4.38512 18.6372 4.46061 18.1847 4.60607C14.6845 5.73194 3.6447 9.39494 3.41286 9.49712ZM16.4686 7.14411C16.4686 7.14411 11.8562 11.3733 10.0131 13.3194C9.42259 13.9426 9.38091 15.0123 9.38091 15.0123L8.4282 11.8013L16.4686 7.14411Z" fill="#B0B0B0"/>
</g>
</svg>
