<svg width="24" height="24" viewBox="0 0 24 24" fill="none" xmlns="http://www.w3.org/2000/svg">
<g id="grid">
<path id="Vector" d="M4.99805 3.56372C3.89345 3.56372 2.99805 4.45872 2.99805 5.56372V9.56372C2.99805 10.6687 3.89345 11.5637 4.99805 11.5637H8.99805C10.103 11.5637 10.998 10.6687 10.998 9.56372V5.56372C10.998 4.45872 10.103 3.56372 8.99805 3.56372H4.99805ZM14.998 3.56372C13.893 3.56372 12.998 4.45872 12.998 5.56372V9.56372C12.998 10.6687 13.893 11.5637 14.998 11.5637H18.998C20.103 11.5637 20.998 10.6687 20.998 9.56372V5.56372C20.998 4.45872 20.103 3.56372 18.998 3.56372H14.998ZM4.99805 5.56372H8.99805V9.56372H4.99805V5.56372ZM14.998 5.56372H18.998V9.56372H14.998V5.56372ZM4.99805 13.5637C3.89345 13.5637 2.99805 14.4587 2.99805 15.5637V19.5637C2.99805 20.6687 3.89345 21.5637 4.99805 21.5637H8.99805C10.103 21.5637 10.998 20.6687 10.998 19.5637V15.5637C10.998 14.4587 10.103 13.5637 8.99805 13.5637H4.99805ZM14.998 13.5637C13.893 13.5637 12.998 14.4587 12.998 15.5637V19.5637C12.998 20.6687 13.893 21.5637 14.998 21.5637H18.998C20.103 21.5637 20.998 20.6687 20.998 19.5637V15.5637C20.998 14.4587 20.103 13.5637 18.998 13.5637H14.998ZM4.99805 15.5637H8.99805V19.5637H4.99805V15.5637ZM14.998 15.5637H18.998V19.5637H14.998V15.5637Z" fill="#A0A8B0"/>
</g>
</svg>
