<svg width="63" height="60" viewBox="0 0 63 60" fill="none" xmlns="http://www.w3.org/2000/svg">
<g id="Group 427319963">
<path id="Ellipse 10332" d="M62.0174 30C62.0174 46.2768 48.3702 59.5 31.5 59.5C14.6298 59.5 0.982574 46.2768 0.982574 30C0.982574 13.7232 14.6298 0.5 31.5 0.5C48.3702 0.5 62.0174 13.7232 62.0174 30Z" fill="white" stroke="#9C2CF3"/>
<g id="Vector">
<mask id="path-2-inside-1_3099_5453" fill="white">
<path d="M39.4857 44.9875H32.8091C28.0419 44.9875 24.8395 44.2379 23.0374 42.7H20.1993V27.45H23.0082L33.368 16.5996L33.8978 16.855C35.5139 17.6374 37.0244 19.3751 35.0386 23.2158L33.4098 25.925H41.4771C41.7892 25.925 42.0982 25.9847 42.3864 26.1008C42.6745 26.2168 42.936 26.3869 43.1559 26.6012C43.3758 26.8154 43.5496 27.0697 43.6674 27.3492C43.7852 27.6288 43.8446 27.9282 43.8422 28.23C43.7972 33.7269 43.2903 40.5688 39.7222 44.7153L39.4857 44.9875ZM21.772 41.175H23.6751L23.9061 41.3984C25.3252 42.7709 28.3209 43.4655 32.8091 43.4655H38.7375C41.8121 39.6004 42.2268 32.943 42.2655 28.2193C42.2664 28.1186 42.2467 28.0187 42.2075 27.9254C42.1683 27.8321 42.1104 27.7473 42.0371 27.6757C41.9638 27.6042 41.8765 27.5474 41.7804 27.5087C41.6843 27.4699 41.5812 27.45 41.4771 27.45H30.6687L33.6518 22.4937C34.9447 19.9904 34.3141 18.974 33.6913 18.5104L23.6941 28.975H21.772V41.175Z"/>
</mask>
<path d="M39.4857 44.9875H32.8091C28.0419 44.9875 24.8395 44.2379 23.0374 42.7H20.1993V27.45H23.0082L33.368 16.5996L33.8978 16.855C35.5139 17.6374 37.0244 19.3751 35.0386 23.2158L33.4098 25.925H41.4771C41.7892 25.925 42.0982 25.9847 42.3864 26.1008C42.6745 26.2168 42.936 26.3869 43.1559 26.6012C43.3758 26.8154 43.5496 27.0697 43.6674 27.3492C43.7852 27.6288 43.8446 27.9282 43.8422 28.23C43.7972 33.7269 43.2903 40.5688 39.7222 44.7153L39.4857 44.9875ZM21.772 41.175H23.6751L23.9061 41.3984C25.3252 42.7709 28.3209 43.4655 32.8091 43.4655H38.7375C41.8121 39.6004 42.2268 32.943 42.2655 28.2193C42.2664 28.1186 42.2467 28.0187 42.2075 27.9254C42.1683 27.8321 42.1104 27.7473 42.0371 27.6757C41.9638 27.6042 41.8765 27.5474 41.7804 27.5087C41.6843 27.4699 41.5812 27.45 41.4771 27.45H30.6687L33.6518 22.4937C34.9447 19.9904 34.3141 18.974 33.6913 18.5104L23.6941 28.975H21.772V41.175Z" fill="#9C2CF3"/>
<path d="M39.4857 44.9875V48.9875H41.3092L42.5052 47.6109L39.4857 44.9875ZM23.0374 42.7L25.6339 39.6573L24.5121 38.7H23.0374V42.7ZM20.1993 42.7H16.1993V46.7H20.1993V42.7ZM20.1993 27.45V23.45H16.1993V27.45H20.1993ZM23.0082 27.45V31.45H24.7195L25.9013 30.2123L23.0082 27.45ZM33.368 16.5996L35.1053 12.9966L32.4843 11.7328L30.475 13.8373L33.368 16.5996ZM33.8978 16.855L35.6406 13.2547L35.6351 13.252L33.8978 16.855ZM35.0386 23.2158L38.4667 25.2768L38.5328 25.1669L38.5917 25.053L35.0386 23.2158ZM33.4098 25.925L29.9817 23.864L26.3378 29.925H33.4098V25.925ZM41.4771 25.925V29.925H41.4772L41.4771 25.925ZM43.8422 28.23L47.842 28.2627L47.842 28.2617L43.8422 28.23ZM39.7222 44.7153L42.7417 47.3387L42.748 47.3316L42.7542 47.3243L39.7222 44.7153ZM21.772 41.175H17.772V45.175H21.772V41.175ZM23.6751 41.175L26.456 38.2998L25.2931 37.175H23.6751V41.175ZM23.9061 41.3984L26.687 38.5232L26.687 38.5232L23.9061 41.3984ZM38.7375 43.4655V47.4655H40.6669L41.8679 45.9557L38.7375 43.4655ZM42.2655 28.2193L38.2656 28.1821L38.2656 28.1866L42.2655 28.2193ZM41.4771 27.45V31.45H41.4773L41.4771 27.45ZM30.6687 27.45L27.2416 25.3872L23.5924 31.45H30.6687V27.45ZM33.6518 22.4937L37.0789 24.5565L37.1461 24.445L37.2058 24.3293L33.6518 22.4937ZM33.6913 18.5104L36.0797 15.3018L33.2423 13.1897L30.799 15.7473L33.6913 18.5104ZM23.6941 28.975V32.975H25.4047L26.5863 31.7381L23.6941 28.975ZM21.772 28.975V24.975H17.772V28.975H21.772ZM39.4857 40.9875H32.8091V48.9875H39.4857V40.9875ZM32.8091 40.9875C28.1777 40.9875 26.2694 40.1996 25.6339 39.6573L20.4408 45.7427C23.4097 48.2763 27.906 48.9875 32.8091 48.9875V40.9875ZM23.0374 38.7H20.1993V46.7H23.0374V38.7ZM24.1993 42.7V27.45H16.1993V42.7H24.1993ZM20.1993 31.45H23.0082V23.45H20.1993V31.45ZM25.9013 30.2123L36.2611 19.3619L30.475 13.8373L20.1151 24.6877L25.9013 30.2123ZM31.6308 20.2027L32.1606 20.4581L35.6351 13.252L35.1053 12.9966L31.6308 20.2027ZM32.155 20.4554C32.268 20.5101 32.2751 20.5329 32.2295 20.4879C32.1679 20.4272 32.073 20.3028 32.0175 20.133C31.8919 19.7493 32.2042 19.9885 31.4854 21.3786L38.5917 25.053C39.8588 22.6024 40.4088 20.0524 39.6204 17.644C38.8286 15.2254 37.0038 13.9145 35.6406 13.2547L32.155 20.4554ZM31.6104 21.1548L29.9817 23.864L36.838 27.986L38.4667 25.2768L31.6104 21.1548ZM33.4098 29.925H41.4771V21.925H33.4098V29.925ZM41.4772 29.925C41.2797 29.925 41.0812 29.8873 40.8919 29.8111L43.8808 22.3904C43.1153 22.0821 42.2987 21.925 41.477 21.925L41.4772 29.925ZM40.8919 29.8111C40.7025 29.7348 40.5219 29.6196 40.3641 29.4657L45.9477 23.7366C45.3501 23.1542 44.6465 22.6988 43.8808 22.3904L40.8919 29.8111ZM40.3641 29.4657C40.2059 29.3116 40.0735 29.1213 39.9812 28.9023L47.3536 25.7962C47.0257 25.0181 46.5456 24.3193 45.9477 23.7366L40.3641 29.4657ZM39.9812 28.9023C39.8888 28.683 39.8404 28.4433 39.8423 28.1983L47.842 28.2617C47.8488 27.413 47.6815 26.5746 47.3536 25.7962L39.9812 28.9023ZM39.8423 28.1973C39.8205 30.8679 39.6846 33.6558 39.1798 36.2008C38.6695 38.7735 37.8448 40.7646 36.6902 42.1062L42.7542 47.3243C45.1678 44.5195 46.3805 41.0164 47.0269 37.7573C47.6789 34.4705 47.8189 31.089 47.842 28.2627L39.8423 28.1973ZM36.7027 42.0918L36.4662 42.364L42.5052 47.6109L42.7417 47.3387L36.7027 42.0918ZM21.772 45.175H23.6751V37.175H21.772V45.175ZM20.8943 44.0502L21.1253 44.2736L26.687 38.5232L26.456 38.2998L20.8943 44.0502ZM21.1253 44.2736C22.5687 45.6697 24.4665 46.417 26.3023 46.8431C28.1886 47.2809 30.3877 47.4655 32.8091 47.4655V39.4655C30.7424 39.4655 29.1995 39.3029 28.1111 39.0502C26.9723 38.7859 26.6626 38.4996 26.687 38.5232L21.1253 44.2736ZM32.8091 47.4655H38.7375V39.4655H32.8091V47.4655ZM41.8679 45.9557C44.0029 43.2718 45.0342 39.8869 45.5767 36.873C46.1298 33.8005 46.2454 30.6887 46.2653 28.2521L38.2656 28.1866C38.2469 30.4737 38.1358 33.0525 37.7033 35.4558C37.2601 37.9178 36.5468 39.7942 35.6072 40.9754L41.8679 45.9557ZM46.2653 28.2566C46.2713 27.6086 46.1444 26.969 45.8953 26.3761L38.5197 29.4747C38.349 29.0685 38.2615 28.6287 38.2656 28.1821L46.2653 28.2566ZM45.8953 26.3761C45.6463 25.7836 45.2822 25.2536 44.8308 24.813L39.2433 30.5384C38.9385 30.241 38.6903 29.8807 38.5197 29.4747L45.8953 26.3761ZM44.8308 24.813C44.3796 24.3727 43.8501 24.0302 43.276 23.7988L40.2848 31.2185C39.903 31.0646 39.5479 30.8357 39.2433 30.5384L44.8308 24.813ZM43.276 23.7988C42.7022 23.5675 42.0911 23.45 41.4769 23.45L41.4773 31.45C41.0713 31.45 40.6664 31.3724 40.2848 31.2185L43.276 23.7988ZM41.4771 23.45H30.6687V31.45H41.4771V23.45ZM34.0958 29.5127L37.0789 24.5565L30.2247 20.431L27.2416 25.3872L34.0958 29.5127ZM37.2058 24.3293C38.0377 22.7186 38.5675 21.0028 38.3623 19.2674C38.1329 17.3276 37.075 16.0427 36.0797 15.3018L31.3028 21.7191C31.1552 21.6092 30.9402 21.4161 30.7511 21.1177C30.5532 20.8055 30.4501 20.4819 30.4176 20.207C30.3602 19.7215 30.5589 19.7656 30.0979 20.6582L37.2058 24.3293ZM30.799 15.7473L20.8018 26.2119L26.5863 31.7381L36.5835 21.2735L30.799 15.7473ZM23.6941 24.975H21.772V32.975H23.6941V24.975ZM17.772 28.975V41.175H25.772V28.975H17.772Z" fill="#9C2CF3" mask="url(#path-2-inside-1_3099_5453)"/>
</g>
</g>
</svg>
