<svg width="61" height="60" viewBox="0 0 61 60" fill="none" xmlns="http://www.w3.org/2000/svg">
<g id="Group 427319964">
<circle id="Ellipse 10332" cx="30.5174" cy="30" r="29.5" stroke="#9C2CF3"/>
<g id="Vector">
<mask id="path-2-inside-1_3099_5456" fill="white">
<path d="M29.2305 46.6785L28.7265 46.4265C27.189 45.6578 25.752 43.9515 27.6413 40.1707L29.1908 37.503H21.5175C21.2205 37.503 20.9263 37.4442 20.6521 37.33C20.3779 37.2157 20.129 37.0483 19.9199 36.8374C19.7107 36.6265 19.5453 36.3762 19.4334 36.101C19.3214 35.8259 19.265 35.5313 19.2675 35.2342C19.3095 29.8275 19.7925 23.0985 23.1863 19.02L23.4113 18.75H29.7623C34.2975 18.75 37.344 19.4873 39.0623 21H41.7623V36.003H39.0908L29.2305 46.6785ZM31.7985 36.003L28.9605 40.884C27.7305 43.3462 28.3305 44.346 28.923 44.8013L38.4338 34.503H40.2623V22.503H38.4518L38.232 22.2832C36.8828 20.937 34.0328 20.253 29.7623 20.253H24.1223C21.1973 24.0547 20.8035 30.603 20.7668 35.253C20.7654 35.352 20.7839 35.4504 20.8213 35.5421C20.8586 35.6338 20.9141 35.7171 20.9843 35.787C21.0539 35.8576 21.1368 35.9139 21.2281 35.9525C21.3195 35.9911 21.4176 36.0113 21.5168 36.012L31.7985 36.003Z"/>
</mask>
<path d="M29.2305 46.6785L28.7265 46.4265C27.189 45.6578 25.752 43.9515 27.6413 40.1707L29.1908 37.503H21.5175C21.2205 37.503 20.9263 37.4442 20.6521 37.33C20.3779 37.2157 20.129 37.0483 19.9199 36.8374C19.7107 36.6265 19.5453 36.3762 19.4334 36.101C19.3214 35.8259 19.265 35.5313 19.2675 35.2342C19.3095 29.8275 19.7925 23.0985 23.1863 19.02L23.4113 18.75H29.7623C34.2975 18.75 37.344 19.4873 39.0623 21H41.7623V36.003H39.0908L29.2305 46.6785ZM31.7985 36.003L28.9605 40.884C27.7305 43.3462 28.3305 44.346 28.923 44.8013L38.4338 34.503H40.2623V22.503H38.4518L38.232 22.2832C36.8828 20.937 34.0328 20.253 29.7623 20.253H24.1223C21.1973 24.0547 20.8035 30.603 20.7668 35.253C20.7654 35.352 20.7839 35.4504 20.8213 35.5421C20.8586 35.6338 20.9141 35.7171 20.9843 35.787C21.0539 35.8576 21.1368 35.9139 21.2281 35.9525C21.3195 35.9911 21.4176 36.0113 21.5168 36.012L31.7985 36.003Z" fill="black"/>
<path d="M29.2305 46.6785L27.4417 50.2562L30.1298 51.6003L32.1689 49.3925L29.2305 46.6785ZM28.7265 46.4265L30.5154 42.8488L30.5154 42.8488L28.7265 46.4265ZM27.6413 40.1707L24.1824 38.1617L24.1193 38.2704L24.0631 38.3827L27.6413 40.1707ZM29.1908 37.503L32.6497 39.512L36.1398 33.503H29.1908V37.503ZM21.5175 37.503V33.503L21.5174 33.503L21.5175 37.503ZM19.2675 35.2342L23.2674 35.2676L23.2674 35.2653L19.2675 35.2342ZM23.1863 19.02L20.1134 16.4593L20.1115 16.4615L23.1863 19.02ZM23.4113 18.75V14.75H21.5378L20.3384 16.1893L23.4113 18.75ZM39.0623 21L36.4191 24.0023L37.5524 25H39.0623V21ZM41.7623 21H45.7623V17H41.7623V21ZM41.7623 36.003V40.003H45.7623V36.003H41.7623ZM39.0908 36.003V32.003H37.3402L36.1524 33.289L39.0908 36.003ZM31.7985 36.003L35.2565 38.0136L38.7548 31.9969L31.795 32.003L31.7985 36.003ZM28.9605 40.884L25.5026 38.8734L25.4388 38.983L25.3822 39.0965L28.9605 40.884ZM28.923 44.8013L26.4859 47.9731L29.3829 50.199L31.8616 47.5151L28.923 44.8013ZM38.4338 34.503V30.503H36.683L35.4952 31.7892L38.4338 34.503ZM40.2623 34.503V38.503H44.2623V34.503H40.2623ZM40.2623 22.503H44.2623V18.503H40.2623V22.503ZM38.4518 22.503L35.6233 25.3314L36.7949 26.503H38.4518V22.503ZM38.232 22.2832L41.0605 19.4548L41.0573 19.4517L38.232 22.2832ZM24.1223 20.253V16.253H22.1529L20.952 17.8139L24.1223 20.253ZM20.7668 35.253L24.7664 35.3095L24.7665 35.297L24.7666 35.2846L20.7668 35.253ZM20.9843 35.787L23.8327 32.9788L23.8195 32.9654L23.8062 32.9521L20.9843 35.787ZM21.5168 36.012L21.4886 40.0119L21.5044 40.012L21.5203 40.012L21.5168 36.012ZM31.0194 43.1008L30.5154 42.8488L26.9377 50.0042L27.4417 50.2562L31.0194 43.1008ZM30.5154 42.8488C30.4271 42.8047 30.4386 42.7947 30.4959 42.8531C30.5686 42.9271 30.6605 43.0572 30.7121 43.2201C30.8255 43.578 30.5365 43.3253 31.2194 41.9588L24.0631 38.3827C22.8567 40.797 22.3417 43.2877 23.0856 45.6361C23.8392 48.0148 25.5913 49.331 26.9377 50.0042L30.5154 42.8488ZM31.1002 42.1798L32.6497 39.512L25.7319 35.494L24.1824 38.1617L31.1002 42.1798ZM29.1908 33.503H21.5175V41.503H29.1908V33.503ZM21.5174 33.503C21.7484 33.503 21.9772 33.5487 22.1905 33.6376L19.1138 41.0223C19.8755 41.3397 20.6925 41.503 21.5177 41.503L21.5174 33.503ZM22.1905 33.6376C22.4037 33.7264 22.5973 33.8567 22.76 34.0207L17.0797 39.654C17.6608 40.2399 18.3521 40.705 19.1138 41.0223L22.1905 33.6376ZM22.76 34.0207C22.9227 34.1848 23.0513 34.3794 23.1384 34.5934L15.7284 37.6087C16.0394 38.373 16.4987 39.0682 17.0797 39.654L22.76 34.0207ZM23.1384 34.5934C23.2255 34.8074 23.2693 35.0365 23.2674 35.2676L15.2677 35.2009C15.2608 36.026 15.4174 36.8444 15.7284 37.6087L23.1384 34.5934ZM23.2674 35.2653C23.2878 32.6374 23.4171 29.8909 23.8983 27.3827C24.3858 24.8421 25.1729 22.8862 26.261 21.5785L20.1115 16.4615C17.8059 19.2323 16.6546 22.6802 16.0416 25.8754C15.4224 29.103 15.2892 32.4243 15.2676 35.2032L23.2674 35.2653ZM26.2592 21.5807L26.4842 21.3107L20.3384 16.1893L20.1134 16.4593L26.2592 21.5807ZM23.4113 22.75H29.7623V14.75H23.4113V22.75ZM29.7623 22.75C34.1421 22.75 35.8721 23.5207 36.4191 24.0023L41.7055 17.9977C38.8159 15.4538 34.453 14.75 29.7623 14.75V22.75ZM39.0623 25H41.7623V17H39.0623V25ZM37.7623 21V36.003H45.7623V21H37.7623ZM41.7623 32.003H39.0908V40.003H41.7623V32.003ZM36.1524 33.289L26.2921 43.9645L32.1689 49.3925L42.0292 38.717L36.1524 33.289ZM28.3406 33.9924L25.5026 38.8734L32.4185 42.8946L35.2565 38.0136L28.3406 33.9924ZM25.3822 39.0965C24.5885 40.6851 24.0912 42.3621 24.2843 44.0499C24.5 45.9362 25.4998 47.2154 26.4859 47.9731L31.3601 41.6294C31.5169 41.7499 31.7312 41.9513 31.9157 42.252C32.1072 42.5644 32.2026 42.8803 32.2324 43.1406C32.2849 43.5991 32.1025 43.5451 32.5389 42.6715L25.3822 39.0965ZM31.8616 47.5151L41.3723 37.2168L35.4952 31.7892L25.9845 42.0874L31.8616 47.5151ZM38.4338 38.503H40.2623V30.503H38.4338V38.503ZM44.2623 34.503V22.503H36.2623V34.503H44.2623ZM40.2623 18.503H38.4518V26.503H40.2623V18.503ZM41.2802 19.6746L41.0604 19.4548L35.4036 25.1117L35.6233 25.3314L41.2802 19.6746ZM41.0573 19.4517C39.6541 18.0516 37.8052 17.3003 36.0253 16.8735C34.2 16.4359 32.0816 16.253 29.7623 16.253V24.253C31.7134 24.253 33.1553 24.4121 34.1599 24.653C35.21 24.9048 35.4607 25.1687 35.4067 25.1148L41.0573 19.4517ZM29.7623 16.253H24.1223V24.253H29.7623V16.253ZM20.952 17.8139C18.9134 20.4635 17.9349 23.7937 17.4206 26.7492C16.8956 29.767 16.7858 32.8245 16.7669 35.2214L24.7666 35.2846C24.7845 33.0315 24.89 30.4898 25.3022 28.1206C25.7253 25.689 26.4061 23.8443 27.2925 22.6921L20.952 17.8139ZM16.7672 35.1965C16.7582 35.8319 16.8771 36.4625 17.1168 37.051L24.5258 34.0332C24.6907 34.4382 24.7725 34.8722 24.7664 35.3095L16.7672 35.1965ZM17.1168 37.051C17.3564 37.6394 17.712 38.1736 18.1623 38.6219L23.8062 32.9521C24.1161 33.2606 24.3608 33.6283 24.5258 34.0332L17.1168 37.051ZM18.1358 38.5952C18.5742 39.04 19.096 39.394 19.6713 39.637L22.785 32.2679C23.1775 32.4337 23.5336 32.6753 23.8327 32.9788L18.1358 38.5952ZM19.6713 39.637C20.2466 39.8801 20.8641 40.0075 21.4886 40.0119L21.545 32.0121C21.9711 32.0151 22.3925 32.102 22.785 32.2679L19.6713 39.637ZM21.5203 40.012L31.802 40.003L31.795 32.003L21.5133 32.012L21.5203 40.012Z" fill="#9C2CF3" mask="url(#path-2-inside-1_3099_5456)"/>
</g>
</g>
</svg>
