<svg width="25" height="25" viewBox="0 0 25 25" fill="none" xmlns="http://www.w3.org/2000/svg">
<g id="trash2-fill">
<path id="Vector" d="M12.4974 2.03516C11.3464 2.03516 10.4141 2.96744 10.4141 4.11848H5.20573C4.63073 4.11848 4.16406 4.58515 4.16406 5.16015C4.16406 5.73514 4.63073 6.20181 5.20573 6.20181H19.7891C20.3641 6.20181 20.8307 5.73514 20.8307 5.16015C20.8307 4.58515 20.3641 4.11848 19.7891 4.11848H14.5807C14.5807 2.96744 13.6484 2.03516 12.4974 2.03516ZM5.20573 8.28514V18.7018C5.20573 20.983 7.08594 22.8361 9.3724 22.8361L15.6547 22.8684C17.9412 22.8684 19.7891 20.9882 19.7891 18.7018V8.28514H5.20573ZM10.4141 11.4101C10.9891 11.4101 11.4557 11.8768 11.4557 12.4518V18.7018C11.4557 19.2768 10.9891 19.7434 10.4141 19.7434C9.83907 19.7434 9.3724 19.2768 9.3724 18.7018V12.4518C9.3724 11.8768 9.83907 11.4101 10.4141 11.4101ZM14.5807 11.4101C15.1557 11.4101 15.6224 11.8768 15.6224 12.4518V18.7018C15.6224 19.2768 15.1557 19.7434 14.5807 19.7434C14.0057 19.7434 13.5391 19.2768 13.5391 18.7018V12.4518C13.5391 11.8768 14.0057 11.4101 14.5807 11.4101Z" fill="#A0A8B0"/>
</g>
</svg>
