<svg width="26" height="21" viewBox="0 0 26 21" fill="none" xmlns="http://www.w3.org/2000/svg">
<path id="Vector" d="M10.0527 13.9366C10.0527 14.9321 9.18451 15.7544 8.13354 15.7544C7.08258 15.7544 6.21439 14.9321 6.21439 13.9366C6.21439 12.9411 7.08258 12.1188 8.13354 12.1188C9.18451 12.1188 10.0527 12.9411 10.0527 13.9366ZM17.7065 12.1188C16.6555 12.1188 15.7873 12.9411 15.7873 13.9366C15.7873 14.9321 16.6555 15.7544 17.7065 15.7544C18.7574 15.7544 19.6256 14.9321 19.6256 13.9366C19.6256 12.9411 18.7574 12.1188 17.7065 12.1188ZM25.84 12.8546V13.0277C25.84 14.2612 24.9261 15.2783 23.6924 15.5164C22.1616 18.6327 17.9121 20.8617 12.9086 20.8617C7.90508 20.8617 3.67837 18.6327 2.14762 15.5164C0.913881 15.2783 0 14.2612 0 13.0277L0 12.8546C0 11.6211 0.936728 10.604 2.14762 10.3659C3.63268 7.40113 7.63091 5.21541 12.3602 5.06393V3.39759C11.6063 3.18119 11.0808 2.51032 11.0808 1.73126C11.0808 0.779066 11.9033 0 12.9086 0C13.9138 0 14.7363 0.779066 14.7363 1.73126C14.7363 2.51032 14.188 3.15954 13.4569 3.39759V5.06393C18.2091 5.21541 22.1845 7.37949 23.6695 10.3659C24.9033 10.604 25.84 11.6211 25.84 12.8546ZM21.8418 12.9628C21.8418 12.9411 21.8418 12.8979 21.8418 12.8762C21.8189 11.4696 20.0825 10.1928 18.072 10.4308C14.645 10.7987 11.195 10.7987 7.76799 10.4308C5.75745 10.2144 4.02108 11.4696 3.99823 12.8762C3.99823 12.8979 3.99823 12.9195 3.99823 12.9411C3.97538 16.3171 7.92792 19.1088 12.7943 19.152C17.775 19.217 21.8418 16.4253 21.8418 12.9628Z" fill="url(#paint0_linear_333_15521)"/>
<defs>
<linearGradient id="paint0_linear_333_15521" x1="0" y1="10.4308" x2="25.84" y2="10.4308" gradientUnits="userSpaceOnUse">
<stop stop-color="#C451AF"/>
<stop offset="1" stop-color="#7E00F7"/>
</linearGradient>
</defs>
</svg>
