<svg width="80" height="80" viewBox="0 0 80 80" fill="none" xmlns="http://www.w3.org/2000/svg">
<path d="M10.0472 16.6831C8.2072 16.6831 6.71387 18.1764 6.71387 20.0164C6.71387 21.8564 8.2072 23.3498 10.0472 23.3498H70.0472C71.8872 23.3498 73.3805 21.8564 73.3805 20.0164C73.3805 18.1764 71.8872 16.6831 70.0472 16.6831H10.0472ZM43.3805 30.0164C41.5405 30.0164 40.0472 31.5098 40.0472 33.3498C40.0472 35.1898 41.5405 36.6831 43.3805 36.6831H70.0472C71.8872 36.6831 73.3805 35.1898 73.3805 33.3498C73.3805 31.5098 71.8872 30.0164 70.0472 30.0164H43.3805ZM17.2339 30.3298C12.7439 33.7798 10.0472 39.1398 10.0472 44.9131C10.0472 44.9464 10.0472 44.9831 10.0472 45.0164C10.0472 47.7798 12.2839 50.0164 15.0472 50.0164C17.8105 50.0164 20.0472 47.7798 20.0472 45.0164C20.0472 42.2531 17.8105 40.0164 15.0472 40.0164C14.8105 40.0164 14.4439 39.9864 14.2139 40.0164C15.1472 37.1864 16.8272 34.7664 19.2139 32.9331C19.9439 32.3731 20.0872 31.3731 19.5272 30.6431C18.9638 29.9097 17.9639 29.7664 17.2339 30.3298ZM30.5672 30.3298C26.0772 33.7798 23.3805 39.1398 23.3805 44.9131C23.3805 44.9464 23.3805 44.9831 23.3805 45.0164C23.3805 47.7798 25.6172 50.0164 28.3805 50.0164C31.1439 50.0164 33.3805 47.7798 33.3805 45.0164C33.3805 42.2531 31.1439 40.0164 28.3805 40.0164C28.1439 40.0164 27.7772 40.0898 27.5472 40.1198C28.4805 37.2898 30.1605 34.7664 32.5472 32.9331C33.2772 32.3731 33.4205 31.3731 32.8605 30.6431C32.2972 29.9097 31.2972 29.7664 30.5672 30.3298ZM43.3805 43.3498C41.5405 43.3498 40.0472 44.8431 40.0472 46.6831C40.0472 48.5231 41.5405 50.0164 43.3805 50.0164H70.0472C71.8872 50.0164 73.3805 48.5231 73.3805 46.6831C73.3805 44.8431 71.8872 43.3498 70.0472 43.3498H43.3805ZM10.0472 56.6831C8.2072 56.6831 6.71387 58.1764 6.71387 60.0164C6.71387 61.8564 8.2072 63.3498 10.0472 63.3498H70.0472C71.8872 63.3498 73.3805 61.8564 73.3805 60.0164C73.3805 58.1764 71.8872 56.6831 70.0472 56.6831H10.0472Z" fill="#8551F3"/>
</svg>
