<svg width="80" height="80" viewBox="0 0 80 80" fill="none" xmlns="http://www.w3.org/2000/svg">
<path d="M38.7428 6.78074C35.8138 8.03074 18.2342 15.5307 15.3055 16.7807C14.0772 17.3041 13.3262 18.4641 13.3262 19.8008C13.3275 34.3974 13.9092 40.9241 16.5555 48.4474C20.0208 58.2974 26.8195 66.1408 38.3262 72.7175C39.3508 73.3041 40.6345 73.3041 41.6595 72.7175C53.2705 66.0808 60.0992 58.2641 63.5345 48.4474C66.1478 40.9774 66.6595 34.7741 66.6595 19.8008C66.6595 18.4674 65.9035 17.3074 64.6802 16.7807L41.4512 6.78074C40.6132 6.42074 39.5818 6.42074 38.7428 6.78074ZM39.9928 13.3408L59.9928 21.9875C60.2828 45.9075 55.5505 56.4108 39.9928 65.9474C24.0282 56.0174 19.8288 45.3741 19.9928 21.9875C24.5365 20.0475 36.1495 14.9841 39.9928 13.3408ZM49.9928 29.8008C49.1398 29.8008 48.2478 30.0875 47.5968 30.7375L39.9928 38.3408L35.7222 34.0708C34.4202 32.7708 32.2322 32.7708 30.9302 34.0708C29.6285 35.3741 29.6285 37.5608 30.9302 38.8641L37.5968 45.5308C38.8988 46.8308 41.0868 46.8308 42.3888 45.5308L52.3888 35.5308C53.6905 34.2274 53.6905 32.0408 52.3888 30.7375C51.7378 30.0875 50.8458 29.8008 49.9928 29.8008Z" fill="#8551F3"/>
</svg>
