<svg width="80" height="80" viewBox="0 0 80 80" fill="none" xmlns="http://www.w3.org/2000/svg">
<path d="M56.6359 9.76587C55.4526 9.76587 54.2293 10.4125 53.6159 11.6409C52.1593 14.5499 51.7126 15.5069 51.1159 16.4325C50.1459 17.9325 49.3493 18.5305 47.2626 19.3492C46.7893 19.5342 46.2326 19.7619 45.5959 19.9742C42.7759 20.9132 42.5226 24.7919 45.1793 26.1199C47.9926 27.5268 48.7659 27.9909 49.5526 28.5159C50.2992 29.0125 50.7226 29.4375 51.2192 30.1825C51.7459 30.9699 52.2093 31.7442 53.6159 34.5592C54.8426 37.0159 58.4293 37.0159 59.6559 34.5592C61.0626 31.7442 61.5292 30.9702 62.0526 30.1825C62.5492 29.4375 62.9759 29.0125 63.7192 28.5159C64.5059 27.9909 65.2826 27.5265 68.0959 26.1199C70.5526 24.8915 70.5526 21.3069 68.0959 20.0785C65.2826 18.6715 64.5059 18.2075 63.7192 17.6825C62.9759 17.1859 62.5492 16.7609 62.0526 16.0159C61.5292 15.2285 61.0626 14.4542 59.6559 11.6409C59.0426 10.4125 57.8192 9.76587 56.6359 9.76587ZM23.3026 16.4325C22.1192 16.4325 20.8959 17.0792 20.2826 18.3075C19.3326 20.2042 19.0859 20.7602 18.7193 21.3285C18.2026 22.1252 17.8193 22.4269 16.6359 22.8909C16.3393 23.0065 16.0026 23.1715 15.5959 23.3075C12.7759 24.2465 12.5226 28.1252 15.1793 29.4532C17.0026 30.3662 17.5193 30.5985 17.9893 30.9119C18.3659 31.1615 18.5726 31.3705 18.8226 31.7452C19.1359 32.2149 19.3693 32.7319 20.2826 34.5592C21.5093 37.0159 25.0959 37.0159 26.3226 34.5592C27.2359 32.7319 27.4693 32.2149 27.7826 31.7452C28.0326 31.3705 28.2393 31.1615 28.6159 30.9119C29.0859 30.5985 29.6026 30.3662 31.4293 29.4532C33.8859 28.2248 33.8859 24.6402 31.4293 23.4119C29.6026 22.4989 29.0859 22.2665 28.6159 21.9532C28.2393 21.7035 28.0326 21.4945 27.7826 21.1199C27.4693 20.6502 27.2359 20.1332 26.3226 18.3075C25.7093 17.0792 24.4859 16.4325 23.3026 16.4325ZM39.9692 36.4325C38.6426 36.4325 37.3526 37.2059 36.8459 38.7259C34.5093 45.7292 32.5993 47.6392 25.5959 49.9725C22.5559 50.9858 22.5559 55.2125 25.5959 56.2259C32.5993 58.5592 34.5093 60.4692 36.8459 67.4725C37.8559 70.5125 42.0826 70.5125 43.0959 67.4725C45.4293 60.4692 47.3393 58.5592 54.3459 56.2259C57.3826 55.2125 57.3826 50.9858 54.3459 49.9725C47.3393 47.6392 45.4293 45.7292 43.0959 38.7259C42.5893 37.2059 41.2959 36.4325 39.9692 36.4325Z" stroke="#8551F3" stroke-width="6"/>
</svg>
