<svg width="25" height="25" viewBox="0 0 25 25" fill="none" xmlns="http://www.w3.org/2000/svg">
<g id="pencil-square">
<path id="Vector" opacity="0.986784" d="M17.5 2.45312C17.235 2.45312 16.969 2.54713 16.781 2.73413C15.281 4.23413 15.281 4.23413 14.781 4.73413L7.78101 11.7341C7.59401 11.9221 7.5 12.1881 7.5 12.4531V16.4531C7.5 17.0051 7.948 17.4531 8.5 17.4531C9 17.4531 12 17.4531 12.5 17.4531C12.765 17.4531 13.031 17.3591 13.219 17.1721L20.219 10.1721C20.719 9.67212 20.719 9.67212 22.219 8.17212C22.406 7.98412 22.5 7.71812 22.5 7.45312C22.5 5.81712 22.083 4.64814 21.219 3.76514C20.346 2.87514 19.181 2.45312 17.5 2.45312ZM7.5 3.45312C5.291 3.45312 3.5 5.24412 3.5 7.45312V17.4531C3.5 19.6621 5.291 21.4531 7.5 21.4531H17.5C19.709 21.4531 21.5 19.6621 21.5 17.4531V13.4531C21.5 12.9011 21.052 12.4531 20.5 12.4531C19.948 12.4531 19.5 12.9011 19.5 13.4531V17.4531C19.5 18.5581 18.605 19.4531 17.5 19.4531H7.5C6.395 19.4531 5.5 18.5581 5.5 17.4531V7.45312C5.5 6.34812 6.395 5.45312 7.5 5.45312H11.5C12.052 5.45312 12.5 5.00513 12.5 4.45312C12.5 3.90112 12.052 3.45312 11.5 3.45312H7.5ZM17.907 4.47211C18.809 4.52511 19.38 4.73111 19.781 5.14111C20.191 5.55911 20.427 6.19013 20.482 7.07513C19.993 7.56413 19.69 7.85414 19.504 8.04114C18.711 7.24914 17.705 6.25211 16.913 5.45911C17.1 5.27211 17.418 4.96111 17.907 4.47211ZM15.502 6.87915L18.087 9.45715L12.062 15.4531C11.43 15.4531 10.421 15.4531 9.5 15.4531V12.8911L15.502 6.87915Z" fill="black" fill-opacity="0.3"/>
</g>
</svg>
