<svg width="12" height="14" viewBox="0 0 12 14" fill="none" xmlns="http://www.w3.org/2000/svg">
<g id="Logo" clip-path="url(#clip0_11365_44310)">
<path id="Vector" d="M12.0117 3.46384C11.9072 3.52554 11.8017 3.58113 11.6982 3.64024C11.5001 3.75345 11.3032 3.86882 11.1056 3.98299C10.8639 4.12264 10.6221 4.26206 10.3803 4.40144C10.1826 4.51538 9.98469 4.629 9.78702 4.74298C9.5471 4.88132 9.30726 5.0198 9.06749 5.1584C8.86992 5.27262 8.67249 5.38708 8.47502 5.50147C8.2316 5.64249 7.98822 5.78358 7.74479 5.92458C7.56073 6.0312 7.37701 6.13841 7.19243 6.24414C6.99635 6.35647 6.80545 6.48009 6.60162 6.57617C6.21507 6.75837 5.81786 6.77119 5.43206 6.57438C5.1738 6.44263 4.92671 6.28898 4.67462 6.14513C4.45526 6.01995 4.23547 5.89552 4.01669 5.76935C3.7979 5.64317 3.58044 5.51469 3.36182 5.38821C3.14511 5.26283 2.92751 5.13898 2.7106 5.01392C2.4899 4.88667 2.26967 4.7586 2.04905 4.63121C1.8898 4.53925 1.7303 4.44772 1.5707 4.35637C1.55958 4.35001 1.54667 4.34679 1.5298 4.34025C1.5298 6.64058 1.5298 8.93567 1.5298 11.2446C1.49384 11.2257 1.46558 11.2122 1.43856 11.1965C1.15879 11.0342 0.874698 10.8788 0.600803 10.7071C0.295033 10.5154 0.12837 10.2213 0.0396281 9.87855C0.0331664 9.85359 0.0276236 9.82839 0.0166862 9.80146C0.0117188 9.79358 0.0117188 9.78756 0.0160327 9.77548C0.0174707 9.7569 0.0145947 9.74436 0.0117188 9.73182C0.0117188 7.85611 0.0117188 5.98041 0.0160329 4.09682C0.0174709 4.0764 0.0145948 4.06386 0.0117188 4.05132C0.0117188 4.0453 0.0117187 4.03927 0.0166867 4.02688C0.0269201 4.01346 0.0349299 4.00714 0.0370312 3.99925C0.0608273 3.90989 0.0760573 3.81742 0.108308 3.73129C0.200312 3.48559 0.35048 3.27916 0.571105 3.13551C0.77686 3.00155 0.991575 2.88117 1.20406 2.75777C1.45496 2.61206 1.70822 2.47042 1.95951 2.32538C2.26252 2.15049 2.56408 1.97307 2.86713 1.79824C3.15109 1.63443 3.43671 1.47352 3.72061 1.30962C4.05819 1.11474 4.39471 0.918018 4.7317 0.722106C4.92698 0.608573 5.12068 0.49217 5.31816 0.382594C5.44389 0.312834 5.57338 0.249034 5.71871 0.226836C5.7874 0.216344 5.85532 0.200771 5.92358 0.1875C5.97815 0.1875 6.03272 0.1875 6.09629 0.19254C6.1715 0.205578 6.23855 0.209403 6.30377 0.222419C6.4525 0.252104 6.58941 0.311167 6.7202 0.389016C6.93698 0.518043 7.15787 0.640144 7.37644 0.766191C7.59695 0.893357 7.81649 1.0222 8.03691 1.14952C8.2554 1.27574 8.47462 1.40067 8.6932 1.52672C8.9137 1.65388 9.1338 1.78173 9.35407 1.90927C9.57435 2.03681 9.79445 2.16464 10.0149 2.2918C10.2335 2.41786 10.4525 2.54316 10.6713 2.66891C10.8882 2.79359 11.105 2.91831 11.3218 3.04321C11.5518 3.17577 11.7817 3.30856 12.0117 3.44125C12.0117 3.44727 12.0117 3.4533 12.0117 3.46384Z" fill="white"/>
<path id="Vector_2" d="M12.0148 9.83293C11.997 9.88484 11.9753 9.92931 11.962 9.97615C11.8791 10.2669 11.7189 10.5069 11.4708 10.6775C11.2889 10.8026 11.0927 10.9068 10.9018 11.0187C10.6822 11.1475 10.4617 11.2746 10.2413 11.402C10.0248 11.5273 9.80794 11.6521 9.59131 11.7772C9.36901 11.9056 9.14694 12.0344 8.92456 12.1627C8.70784 12.2877 8.49086 12.4122 8.27398 12.5368C8.05522 12.6626 7.83629 12.7881 7.61769 12.9142C7.39719 13.0413 7.17697 13.169 6.95669 13.2965C6.7364 13.4241 6.51616 13.5517 6.29596 13.6794C6.20991 13.7293 6.12401 13.7795 6.03659 13.8341C6.02911 13.8387 6.02309 13.8387 6.01254 13.8387C6.00802 13.5293 6.00872 13.22 6.00782 12.9107C6.00693 12.6044 6.08661 12.323 6.26673 12.0736C6.39712 11.8931 6.5714 11.764 6.76421 11.6558C7.00747 11.5194 7.24794 11.378 7.48959 11.2387C7.68714 11.1248 7.88482 11.0111 8.08214 10.8968C8.32542 10.7558 8.56808 10.6139 8.8116 10.4734C9.0072 10.3605 9.20395 10.2496 9.39971 10.137C9.63962 9.99902 9.87906 9.86021 10.1186 9.72163C10.316 9.60745 10.5133 9.49295 10.7108 9.37888C10.9523 9.23936 11.1941 9.1003 11.4356 8.96075C11.6005 8.86548 11.765 8.76962 11.9298 8.67422C11.9546 8.65991 11.9799 8.64667 12.0099 8.63281C12.0148 9.03065 12.0148 9.42861 12.0148 9.83293Z" fill="white"/>
<path id="Vector_3" d="M12.0135 6.3759C11.9955 6.4301 11.9739 6.47694 11.9601 6.52596C11.9136 6.69048 11.8312 6.83542 11.7298 6.97176C11.5745 7.18039 11.3537 7.30116 11.1349 7.42589C10.8925 7.56409 10.6511 7.70428 10.4095 7.84388C10.2138 7.95693 10.0186 8.07075 9.82277 8.18359C9.58098 8.32293 9.33863 8.46131 9.09686 8.60069C8.89918 8.71466 8.70214 8.82974 8.50457 8.94389C8.26292 9.0835 8.02101 9.22264 7.77922 9.362C7.58155 9.47593 7.38378 9.58969 7.18624 9.70387C6.9446 9.84353 6.7033 9.98377 6.46158 10.1233C6.3125 10.2094 6.16293 10.2946 6.00674 10.3841C6.00674 10.0267 5.98901 9.68007 6.01106 9.33601C6.04118 8.86574 6.25947 8.49433 6.67486 8.25253C7.02523 8.04857 7.37688 7.8468 7.72743 7.64317C8.0837 7.43622 8.43869 7.22706 8.79543 7.02093C9.13489 6.82477 9.47653 6.63237 9.81604 6.4363C10.2361 6.19369 10.6544 5.94798 11.0746 5.70553C11.3833 5.52739 11.6939 5.35233 12.0085 5.17578C12.0135 5.57362 12.0135 5.97158 12.0135 6.3759Z" fill="white"/>
<path id="Vector_4" d="M0.0117188 4.05664C0.0145948 4.0641 0.0174709 4.07664 0.0160329 4.0907C0.0117188 4.08206 0.0117188 4.07189 0.0117188 4.05664Z" fill="white"/>
<path id="Vector_5" d="M0.0117188 9.73633C0.0145947 9.74378 0.0174707 9.75632 0.0160327 9.77039C0.0117188 9.76175 0.0117188 9.75158 0.0117188 9.73633Z" fill="white"/>
</g>
<defs>
<clipPath id="clip0_11365_44310">
<rect width="12" height="13.6522" fill="white" transform="translate(0 0.173828)"/>
</clipPath>
</defs>
</svg>
