<svg width="71" height="80" viewBox="0 0 71 80" fill="none" xmlns="http://www.w3.org/2000/svg">
<rect width="71" height="80" fill="#F5F5F5"/>
<g clip-path="url(#clip0_5103_15028)">
<rect width="1920" height="1080" transform="translate(-1503 -792)" fill="url(#paint0_radial_5103_15028)"/>
<rect width="1920" height="1080" transform="translate(-1503 -792)" fill="white"/>
<rect x="-99.7358" y="-94.104" width="269.104" height="269.104" rx="28.7044" fill="#EDEFF3"/>
<rect x="-100" y="-95" width="269.104" height="269.104" rx="28.7044" fill="#7270E8"/>
<mask id="mask0_5103_15028" style="mask-type:alpha" maskUnits="userSpaceOnUse" x="-100" y="-95" width="270" height="270">
<rect x="-100" y="-95" width="269.104" height="269.104" rx="28.7044" fill="#EDEFF3"/>
</mask>
<g mask="url(#mask0_5103_15028)">
</g>
<path d="M36.3047 0C39.4995 0.887569 42.0412 2.91575 44.8342 4.45601C46.9834 5.64122 49.0863 6.91144 51.2113 8.14103C53.3547 9.38123 55.5019 10.6149 57.6441 11.8571C59.8051 13.1101 61.961 14.3721 64.1212 15.6267C66.0542 16.7494 67.9898 17.8675 70.0399 19.0545C69.2854 19.5019 68.6068 19.9096 67.9232 20.3087C64.5081 22.3025 61.0947 24.2991 57.675 26.2848C54.6689 28.0303 51.6516 29.7563 48.6461 31.5029C45.6789 33.2273 42.7184 34.9633 39.7589 36.7012C38.3766 37.513 36.9393 38.1344 35.3061 38.201C33.38 38.2795 31.6993 37.6017 30.0811 36.6269C27.9413 35.3381 25.7669 34.1075 23.6073 32.8521C21.2595 31.4873 18.9112 30.1235 16.5638 28.7581C14.6295 27.633 12.6965 26.5056 10.7623 25.3803C10.1656 25.0332 9.5669 24.6894 8.87846 24.2917C8.87846 37.84 8.87846 51.2845 8.87846 64.8392C7.27835 63.8928 5.79926 62.9495 4.25708 62.1257C2.80237 61.3486 1.67357 60.2777 0.928214 58.8213C0.578006 58.137 0.360528 57.3839 0.0355442 56.6451C-0.0118137 45.1394 -0.0118137 33.6507 0.0353381 22.0827C0.13937 21.8901 0.221486 21.7829 0.249295 21.6629C0.594326 20.1743 1.2783 18.8225 2.41621 17.8555C3.46412 16.965 4.71813 16.3116 5.91039 15.6031C8.00098 14.3609 10.1143 13.1573 12.2171 11.9358C14.3941 10.6713 16.5697 9.40423 18.7464 8.13912C20.8678 6.90621 22.9686 5.63557 25.1167 4.45175C27.9082 2.91334 30.4481 0.886187 33.5788 0C34.4667 0 35.3546 0 36.3047 0Z" fill="white"/>
<path d="M34.9405 80C34.9073 78.1311 34.9064 76.2622 34.9075 74.3933C34.9094 71.036 36.5175 68.6742 39.3639 67.0561C41.5532 65.8115 43.7225 64.5313 45.9008 63.2673C48.0237 62.0354 50.1477 60.8053 52.2696 59.5718C54.447 58.306 56.6198 57.0321 58.7998 55.7708C60.9425 54.531 63.0938 53.3064 65.2371 52.0677C66.5348 51.3177 67.8233 50.5517 69.1184 49.797C69.3578 49.6575 69.6086 49.5378 69.9584 49.3542C69.9584 50.9976 70.0082 52.5447 69.942 54.0868C69.8925 55.2411 69.8119 56.4191 69.5307 57.5318C69.1865 58.8941 68.4913 60.1453 67.2963 60.9554C65.7349 62.0138 64.1226 62.9992 62.5049 63.97C60.3635 65.2551 58.1973 66.4985 56.0387 67.7545C53.9173 68.9889 51.7928 70.2179 49.6683 71.4469C47.5255 72.6866 45.3793 73.9203 43.2379 75.1623C41.0776 76.4153 38.9215 77.6754 36.7634 78.9319C36.2007 79.2595 35.6372 79.5856 35.057 79.9562C35.0401 80 34.9737 80 34.9405 80Z" fill="white"/>
<path d="M51.3398 50.1825C45.8631 53.3796 40.4223 56.5423 34.9063 59.7488C34.9063 57.4912 34.789 55.3689 34.9354 53.2652C35.1257 50.5315 36.5484 48.4697 38.8921 47.0819C41.4159 45.5875 43.9567 44.122 46.4938 42.6504C49.2003 41.0804 51.9146 39.5241 54.6191 37.9507C57.5858 36.2247 60.5411 34.4791 63.509 32.7556C65.4444 31.6316 67.3936 30.5316 69.3365 29.4206C69.5034 29.3251 69.669 29.2272 69.8981 29.0938C69.9207 29.2939 69.9544 29.4546 69.9547 29.6153C69.9584 31.485 70.0389 33.3591 69.9377 35.2232C69.7909 37.9256 68.5677 40.0828 66.2612 41.5198C64.4181 42.668 62.5213 43.7293 60.6421 44.8184C57.6344 46.5616 54.6215 48.2959 51.6103 50.0331C51.5351 50.0765 51.4541 50.11 51.3398 50.1825Z" fill="white"/>
</g>
<defs>
<radialGradient id="paint0_radial_5103_15028" cx="0" cy="0" r="1" gradientUnits="userSpaceOnUse" gradientTransform="translate(954.5 526) rotate(-180) scale(965.5 965.5)">
<stop stop-color="#F6F7FB"/>
<stop offset="0.35" stop-color="#F5F6FB"/>
<stop offset="0.74" stop-color="#EDEDFB"/>
<stop offset="1" stop-color="#D7E2F9"/>
</radialGradient>
<clipPath id="clip0_5103_15028">
<rect width="1920" height="1080" fill="white" transform="translate(-1503 -792)"/>
</clipPath>
</defs>
</svg>
