<svg width="29" height="28" viewBox="0 0 29 28" fill="none" xmlns="http://www.w3.org/2000/svg">
<g id="&#230;&#169;&#132;&#230;&#166;&#132;&#230;&#158;&#157;_&#229;&#143;&#179; 2">
<path id="Vector" d="M16.6742 2.37945C17.4111 2.48248 18.2949 2.3852 18.6168 1.16664C17.3275 0.910457 16.7337 1.64597 16.5551 2.24374L16.3706 2.38817C15.7962 2.83483 15.0524 3.41329 14.3098 4.18241C14.5885 3.7183 14.7258 3.1235 13.9391 2.574C13.3117 3.41125 13.7421 4.05357 14.1599 4.33946C13.8581 4.66159 13.5752 5.00096 13.3126 5.35585C13.4145 4.81006 13.2685 4.21898 12.3519 3.81186C11.8563 4.88599 12.4288 5.54632 12.9793 5.83221C12.6804 6.28523 12.4173 6.76093 12.1924 7.25497C12.1349 6.453 11.7688 5.60127 10.2747 5.47225C10.2085 6.96816 11.253 7.50318 12.0445 7.59674C11.7232 8.38301 11.4958 9.20463 11.3671 10.0444C11.2 9.10509 10.7168 8.00293 8.88078 8.12898C9.12295 9.84246 10.4872 10.1889 11.3575 10.1042C11.2333 10.9478 11.1915 11.8014 11.2326 12.6531C10.6823 11.7722 9.75032 10.8405 7.97011 11.5903C8.90672 13.2104 10.3988 13.1016 11.2367 12.7262C11.2941 13.9064 11.4979 15.2098 11.8859 16.6489C12.0062 17.0953 12.1595 17.5321 12.3443 17.9558C11.442 17.1454 10.147 16.5072 8.42442 17.7172C9.94913 19.3401 11.6122 18.93 12.5094 18.3159C13.4058 20.1592 14.8295 21.5723 16.3437 22.6148L16.36 22.6264C14.9266 22.3963 13.1705 22.5109 12.4738 24.7401C15.0448 25.2773 16.2284 23.8585 16.5638 22.763C17.6462 23.4747 18.812 24.0502 20.0347 24.4765C18.4813 24.2262 16.5588 24.3254 15.7999 26.6808C18.6255 27.2544 19.8956 25.6969 20.226 24.5427C20.7833 24.7276 21.2925 24.8594 21.7229 24.9422L21.7612 24.7718C20.7774 24.5832 19.3711 24.1317 17.9221 23.3626C18.9627 22.3828 19.9629 20.9235 18.2104 19.1043C16.337 20.7792 16.9855 22.4463 17.8069 23.3012C17.343 23.0503 16.8927 22.7749 16.458 22.4762C15.7926 22.0208 15.1717 21.5032 14.6039 20.9303C15.8095 20.2564 17.0681 19.1389 15.9583 17.1001C13.9246 18.1503 13.9228 19.6876 14.3617 20.6771C13.6894 19.9581 13.1262 19.144 12.6901 18.261C13.864 17.9125 15.136 17.1906 14.6808 15.2675C12.9187 15.7075 12.4249 16.7855 12.4297 17.6768C12.2884 17.3283 12.1685 16.9713 12.0703 16.6084C11.9444 16.1429 11.8345 15.6732 11.7408 15.2001C12.8553 15.046 14.136 14.5559 13.9303 12.6165C12.2876 12.7821 11.7236 13.7426 11.6304 14.5966C11.4634 13.616 11.391 12.6215 11.4142 11.627C12.4566 11.7338 13.7719 11.6153 14.1282 9.94735C12.3701 9.72198 11.6228 10.6845 11.4199 11.4557C11.4585 10.5143 11.5959 9.66238 11.8044 8.89123C12.791 9.21369 14.0986 9.3726 14.8653 7.82564C13.2166 7.23956 12.2463 8.01239 11.8533 8.71802C12.0664 7.97733 12.3629 7.26334 12.7371 6.58982C13.4375 6.93641 14.3963 7.18387 15.1725 6.08153C14.0908 5.50604 13.2963 5.88809 12.8764 6.34718C13.195 5.81078 13.5595 5.30318 13.9659 4.83011C14.3886 5.20567 15.0159 5.55505 15.8143 4.90437C15.1436 4.27003 14.4645 4.43933 14.0678 4.71371C14.4388 4.29444 14.8357 3.89899 15.2562 3.52969C15.5579 3.8954 16.04 4.23253 16.8471 3.73092C16.4293 3.16286 15.8788 3.17659 15.478 3.33736C15.846 3.02437 16.1929 2.75389 16.4945 2.51905L16.6742 2.37945Z" fill="#090101" fill-opacity="0.3"/>
<path id="Vector_2" d="M11.5446 15.3644C10.9008 14.5405 9.86522 13.6656 8.17524 14.601C9.30511 16.1123 10.7789 15.8283 11.5445 15.3644H11.5446ZM14.4518 21.0541C13.4497 20.0338 11.9115 18.9952 9.79018 20.4862C11.5589 22.3672 13.4959 21.783 14.4518 21.0541ZM15.4586 3.11271C15.7995 2.7546 16.1177 2.22719 15.4249 1.61401C14.7927 2.24835 15.1242 2.83833 15.4586 3.11271Z" fill="#090101" fill-opacity="0.3"/>
</g>
</svg>
