<svg width="600" height="720" viewBox="0 0 600 720" fill="none" xmlns="http://www.w3.org/2000/svg">
<rect width="600" height="720" rx="20" fill="#F8F9FC"/>
<mask id="mask0_1437_10164" style="mask-type:alpha" maskUnits="userSpaceOnUse" x="0" y="0" width="600" height="720">
<rect width="600" height="720" rx="20" fill="#F8F9FC"/>
</mask>
<g mask="url(#mask0_1437_10164)">
<path d="M-42.4925 217.304H-34.0445L-25.4685 252.056H-25.2125L-16.1885 217.304H-8.4445L0.579502 252.056H0.835503L9.4115 217.304H17.8595L4.6755 263H-3.2605L-12.1565 228.632H-12.4125L-21.3725 263H-29.3725L-42.4925 217.304ZM37.1075 229.016C42.5475 229.016 46.7075 230.808 49.5875 234.52C52.2115 237.848 53.5555 242.52 53.5555 248.472H28.7875C29.0435 251.544 29.8755 253.912 31.2835 255.512C32.6915 257.112 34.7395 257.944 37.3635 257.944C39.6035 257.944 41.3955 257.432 42.8035 256.408C43.8915 255.576 44.8515 254.232 45.7475 252.376H53.0435C52.2755 255.448 50.7395 258.072 48.4355 260.12C45.4915 262.616 41.8435 263.896 37.4275 263.896C32.4995 263.896 28.5955 262.36 25.7155 259.352C22.6435 256.216 21.1075 251.928 21.1075 246.424C21.1075 241.496 22.5155 237.4 25.4595 234.072C28.2755 230.68 32.1795 229.016 37.1075 229.016ZM37.2995 234.968C34.8675 234.968 33.0115 235.608 31.6035 237.016C30.2595 238.36 29.3635 240.344 28.9155 242.968H45.9395C45.2995 237.592 42.4195 234.968 37.2995 234.968ZM60.98 216.408H68.276V263H60.98V216.408ZM92.438 229.016C96.726 229.016 100.118 229.976 102.678 231.896C105.302 233.944 106.966 237.016 107.606 241.176H100.374C99.926 239.064 99.03 237.528 97.75 236.504C96.406 235.48 94.614 234.968 92.438 234.968C89.75 234.968 87.638 235.928 86.102 237.976C84.566 239.96 83.798 242.776 83.798 246.36C83.798 250.008 84.502 252.888 86.038 254.936C87.446 256.92 89.558 257.944 92.374 257.944C97.238 257.944 99.926 255.512 100.502 250.712H107.734C106.966 255.192 105.238 258.52 102.614 260.696C100.054 262.808 96.598 263.896 92.31 263.896C87.19 263.896 83.222 262.232 80.406 258.904C77.654 255.704 76.31 251.544 76.31 246.424C76.31 241.432 77.654 237.336 80.342 234.2C83.222 230.744 87.254 229.016 92.438 229.016ZM129.825 229.016C134.817 229.016 138.849 230.616 141.921 233.944C144.929 237.208 146.465 241.368 146.465 246.488C146.465 251.544 144.929 255.704 141.985 258.904C138.913 262.232 134.817 263.896 129.825 263.896C124.769 263.896 120.737 262.232 117.665 258.904C114.657 255.704 113.185 251.544 113.185 246.488C113.185 241.368 114.657 237.208 117.729 233.944C120.737 230.616 124.769 229.016 129.825 229.016ZM129.825 234.968C126.753 234.968 124.449 236.12 122.785 238.552C121.377 240.6 120.673 243.288 120.673 246.488C120.673 249.688 121.377 252.312 122.785 254.36C124.449 256.728 126.753 257.944 129.825 257.944C132.833 257.944 135.201 256.728 136.865 254.36C138.273 252.248 139.041 249.624 139.041 246.488C139.041 243.288 138.273 240.6 136.865 238.552C135.201 236.12 132.833 234.968 129.825 234.968ZM170.096 229.016C174.96 229.016 178.416 230.808 180.528 234.392C182.064 232.344 183.664 230.936 185.328 230.168C186.8 229.4 188.656 229.016 190.896 229.016C194.288 229.016 197.104 230.104 199.408 232.408C201.584 234.712 202.736 237.656 202.736 241.304V263H195.44V242.584C195.44 239.96 194.864 238.04 193.776 236.888C192.624 235.672 190.832 235.096 188.272 235.096C186.48 235.096 185.008 235.736 183.792 237.144C182.512 238.488 181.936 240.344 181.936 242.776V263H174.64V242.648C174.64 237.592 172.464 235.096 168.112 235.096C166 235.096 164.336 235.864 163.056 237.528C161.776 239.064 161.136 240.984 161.136 243.16V263H153.84V229.912H161.136V233.304C163.888 230.424 166.896 229.016 170.096 229.016ZM225.483 229.016C230.923 229.016 235.083 230.808 237.963 234.52C240.587 237.848 241.931 242.52 241.931 248.472H217.163C217.419 251.544 218.251 253.912 219.659 255.512C221.067 257.112 223.115 257.944 225.739 257.944C227.979 257.944 229.771 257.432 231.179 256.408C232.267 255.576 233.227 254.232 234.123 252.376H241.419C240.651 255.448 239.115 258.072 236.811 260.12C233.867 262.616 230.219 263.896 225.803 263.896C220.875 263.896 216.97 262.36 214.091 259.352C211.019 256.216 209.483 251.928 209.483 246.424C209.483 241.496 210.891 237.4 213.835 234.072C216.651 230.68 220.555 229.016 225.483 229.016ZM225.675 234.968C223.243 234.968 221.387 235.608 219.979 237.016C218.635 238.36 217.739 240.344 217.291 242.968H234.315C233.675 237.592 230.795 234.968 225.675 234.968ZM281.396 219.224V229.912H288.756V235.928H281.396V254.616C281.396 255.384 281.524 255.96 281.908 256.408C282.292 256.792 282.804 256.984 283.572 256.984H287.924V263H282.356C279.476 263 277.364 262.232 276.02 260.696C274.74 259.288 274.1 257.304 274.1 254.616V235.928H268.148V229.912H274.1V222.232L281.396 219.224ZM310.575 229.016C315.567 229.016 319.599 230.616 322.671 233.944C325.679 237.208 327.215 241.368 327.215 246.488C327.215 251.544 325.679 255.704 322.735 258.904C319.663 262.232 315.567 263.896 310.575 263.896C305.519 263.896 301.487 262.232 298.415 258.904C295.407 255.704 293.935 251.544 293.935 246.488C293.935 241.368 295.407 237.208 298.479 233.944C301.487 230.616 305.519 229.016 310.575 229.016ZM310.575 234.968C307.503 234.968 305.199 236.12 303.535 238.552C302.127 240.6 301.423 243.288 301.423 246.488C301.423 249.688 302.127 252.312 303.535 254.36C305.199 256.728 307.503 257.944 310.575 257.944C313.583 257.944 315.951 256.728 317.615 254.36C319.023 252.248 319.791 249.624 319.791 246.488C319.791 243.288 319.023 240.6 317.615 238.552C315.951 236.12 313.583 234.968 310.575 234.968ZM357.543 217.304H376.487C387.495 217.304 393.062 221.976 393.062 231.32C393.062 240.728 387.495 245.464 376.359 245.464H365.031V263H357.543V217.304ZM365.031 223.704V239.064H375.911C379.239 239.064 381.671 238.424 383.207 237.272C384.743 236.056 385.511 234.072 385.511 231.32C385.511 228.568 384.679 226.648 383.143 225.496C381.607 224.28 379.175 223.704 375.911 223.704H365.031ZM415.456 229.016C417.056 229.016 418.464 229.272 419.616 229.848V237.144C417.952 236.632 416.416 236.44 414.88 236.44C412.96 236.44 411.232 237.144 409.696 238.68C407.904 240.408 407.072 242.648 407.072 245.464V263H399.84V229.912H407.072V234.648C407.968 232.984 408.992 231.704 410.208 230.808C411.68 229.592 413.408 229.016 415.456 229.016ZM440.138 229.016C445.13 229.016 449.162 230.616 452.234 233.944C455.242 237.208 456.778 241.368 456.778 246.488C456.778 251.544 455.242 255.704 452.298 258.904C449.226 262.232 445.13 263.896 440.138 263.896C435.082 263.896 431.05 262.232 427.978 258.904C424.97 255.704 423.498 251.544 423.498 246.488C423.498 241.368 424.97 237.208 428.042 233.944C431.05 230.616 435.082 229.016 440.138 229.016ZM440.138 234.968C437.066 234.968 434.762 236.12 433.098 238.552C431.69 240.6 430.986 243.288 430.986 246.488C430.986 249.688 431.69 252.312 433.098 254.36C434.762 256.728 437.066 257.944 440.138 257.944C443.146 257.944 445.514 256.728 447.178 254.36C448.586 252.248 449.354 249.624 449.354 246.488C449.354 243.288 448.586 240.6 447.178 238.552C445.514 236.12 443.146 234.968 440.138 234.968ZM464.793 217.304H481.497C488.921 217.304 494.489 219.352 498.329 223.448C501.977 227.288 503.833 232.856 503.833 240.152C503.833 247.384 501.977 252.952 498.329 256.856C494.489 260.952 488.921 263 481.497 263H464.793V217.304ZM472.281 223.704V256.6H480.089C485.785 256.6 489.945 255.256 492.569 252.632C495.129 249.944 496.409 245.784 496.409 240.152C496.409 234.392 495.129 230.168 492.569 227.608C489.945 224.984 485.785 223.704 480.089 223.704H472.281ZM526.831 229.016C528.431 229.016 529.839 229.272 530.991 229.848V237.144C529.327 236.632 527.791 236.44 526.255 236.44C524.335 236.44 522.607 237.144 521.071 238.68C519.279 240.408 518.447 242.648 518.447 245.464V263H511.215V229.912H518.447V234.648C519.343 232.984 520.367 231.704 521.583 230.808C523.055 229.592 524.783 229.016 526.831 229.016ZM550.233 229.016C555.673 229.016 559.833 230.808 562.713 234.52C565.337 237.848 566.681 242.52 566.681 248.472H541.913C542.169 251.544 543.001 253.912 544.409 255.512C545.817 257.112 547.865 257.944 550.489 257.944C552.729 257.944 554.521 257.432 555.929 256.408C557.017 255.576 557.977 254.232 558.873 252.376H566.169C565.401 255.448 563.865 258.072 561.561 260.12C558.617 262.616 554.969 263.896 550.553 263.896C545.625 263.896 541.72 262.36 538.841 259.352C535.769 256.216 534.233 251.928 534.233 246.424C534.233 241.496 535.641 237.4 538.585 234.072C541.401 230.68 545.305 229.016 550.233 229.016ZM550.425 234.968C547.993 234.968 546.137 235.608 544.729 237.016C543.385 238.36 542.489 240.344 542.041 242.968H559.065C558.425 237.592 555.545 234.968 550.425 234.968ZM588.505 229.016C593.369 229.016 597.017 230.232 599.321 232.664C601.369 234.776 602.393 237.848 602.393 241.88V263H595.609V258.648C594.329 260.312 592.729 261.528 590.873 262.424C588.761 263.384 586.265 263.896 583.385 263.896C579.929 263.896 577.241 263 575.257 261.272C573.209 259.48 572.185 257.24 572.185 254.488C572.185 250.776 573.593 247.896 576.537 245.912C579.225 243.992 583.001 242.968 587.865 242.84L595.097 242.648V241.368C595.097 237.016 592.729 234.904 587.993 234.904C585.945 234.904 584.345 235.224 583.129 235.992C581.721 236.824 580.761 238.104 580.377 239.832L573.145 239.256C573.849 235.608 575.641 232.92 578.521 231.256C580.953 229.72 584.281 229.016 588.505 229.016ZM595.097 247.896L588.377 248.088C582.553 248.216 579.673 250.264 579.673 254.232C579.673 255.384 580.121 256.344 581.145 257.112C582.169 257.88 583.449 258.328 585.049 258.328C587.865 258.328 590.233 257.496 592.153 255.896C594.073 254.232 595.097 252.12 595.097 249.56V247.896ZM627.346 229.016C632.21 229.016 635.666 230.808 637.778 234.392C639.314 232.344 640.914 230.936 642.578 230.168C644.05 229.4 645.906 229.016 648.146 229.016C651.538 229.016 654.354 230.104 656.658 232.408C658.834 234.712 659.986 237.656 659.986 241.304V263H652.69V242.584C652.69 239.96 652.114 238.04 651.026 236.888C649.874 235.672 648.082 235.096 645.522 235.096C643.73 235.096 642.258 235.736 641.042 237.144C639.762 238.488 639.186 240.344 639.186 242.776V263H631.89V242.648C631.89 237.592 629.714 235.096 625.362 235.096C623.25 235.096 621.586 235.864 620.306 237.528C619.026 239.064 618.386 240.984 618.386 243.16V263H611.09V229.912H618.386V233.304C621.138 230.424 624.146 229.016 627.346 229.016Z" fill="#8652DB"/>
<path d="M148.382 306.752L154.398 307.712C153.95 311.04 153.438 314.112 152.798 316.928H173.086V320.896C172.062 326.4 170.782 331.84 169.246 337.216L163.294 335.552C164.702 331.84 165.854 327.616 166.75 322.752H151.198C149.597 327.616 147.614 331.52 145.31 334.464L140.446 330.944C144.542 325.184 147.229 317.12 148.382 306.752ZM137.886 356.544C135.902 353.472 133.854 350.464 131.806 347.52C128.222 354.624 123.87 360.256 118.75 364.352L115.742 358.912C120.862 355.072 125.022 349.632 128.222 342.592C124.574 337.792 120.798 333.184 116.83 328.768L120.862 324.864C123.87 327.872 127.134 331.648 130.718 336.128C132.253 331.392 133.47 326.08 134.366 320.256H116.83V314.368H140.318V320C138.91 327.936 136.99 335.04 134.622 341.248C137.054 344.512 139.614 348.096 142.302 352.064L137.886 356.544ZM154.27 326.592H160.222C160.222 330.944 159.966 334.912 159.454 338.624C162.526 348.288 167.838 356.032 175.262 361.856L171.166 366.656C165.278 361.472 160.734 355.2 157.534 347.84C157.47 347.84 157.47 347.904 157.47 347.968C155.23 355.52 149.918 361.728 141.534 366.656L137.694 361.92C144.734 357.696 149.406 352.576 151.582 346.496C153.31 341.376 154.206 334.72 154.27 326.592ZM201.414 353.088L199.75 347.712C200.902 347.2 201.478 346.24 201.478 344.768V313.28C206.918 311.488 211.27 309.504 214.534 307.2L217.862 312.128C215.174 313.984 211.59 315.712 207.11 317.248V345.92C210.182 345.024 213.19 344.128 216.069 343.104L217.158 348.8C212.678 350.208 207.43 351.616 201.414 353.088ZM232.134 351.04H227.398L225.798 345.216L230.15 345.536C231.43 345.536 232.07 344.832 232.07 343.488V316.416H224.646V358.144H218.822V311.04H237.766V344.704C237.766 348.928 235.846 351.04 232.134 351.04ZM181.83 323.136H197.894V327.872C195.846 331.2 193.414 334.528 190.726 337.792H198.406V341.824C197.446 346.688 196.23 350.72 194.822 353.792L195.91 354.752C197.766 356.608 199.558 357.952 201.35 358.784C203.142 359.552 205.638 359.936 208.902 360.064C212.102 360.064 215.814 360.128 219.91 360.128C225.03 360.128 231.75 359.936 240.006 359.68L238.662 365.44H220.742C216.518 365.44 212.486 365.312 208.71 365.184C204.614 365.056 201.542 364.544 199.494 363.648C197.062 362.624 194.758 360.96 192.71 358.784C192.326 358.336 191.878 358.144 191.366 358.144C190.15 358.144 188.23 360.896 185.606 366.528L181.19 362.496C184.006 356.864 186.758 353.6 189.382 352.576C190.79 349.632 191.878 346.432 192.71 342.912H183.43V338.304C186.502 334.976 189.062 331.712 191.11 328.64H181.83V323.136ZM187.91 307.84C191.558 310.848 194.63 313.856 197.19 316.928L193.222 320.896C190.982 318.08 187.845 315.072 183.75 311.808L187.91 307.84ZM265.326 313.536H281.39V307.52H287.47V313.536H304.686V319.36H287.47V324.416H302.254V343.424H287.214C286.702 348.672 285.742 352.832 284.27 355.84C290.414 358.976 297.39 360.704 305.198 361.088L303.726 366.912C295.022 366.336 287.406 364.224 280.814 360.512C277.358 363.776 271.982 365.888 264.686 366.912L262.062 361.408C268.078 360.896 272.558 359.424 275.438 357.056C271.918 354.432 268.782 351.36 265.966 347.904L270.638 344.704C273.07 347.712 275.822 350.336 278.894 352.512C279.918 350.08 280.686 347.072 281.069 343.424H267.118V324.416H281.39V319.36H265.326V313.536ZM296.558 337.984V329.792H287.47V337.984H296.558ZM281.39 337.984V329.792H272.814V337.984H281.39ZM252.782 333.056C251.054 335.232 249.198 337.408 247.278 339.52L245.294 332.992C251.566 325.568 256.174 316.928 259.118 307.008L264.878 309.696C263.342 314.56 261.358 319.168 258.926 323.648V366.72H252.782V333.056ZM322.902 330.752V340.544H337.622V330.752H322.902ZM322.582 346.176C321.814 354.24 319.446 360.896 315.478 366.144L310.806 361.984C314.646 356.48 316.63 349.504 316.758 341.056V309.696H365.846V357.888C365.846 362.688 363.35 365.12 358.486 365.12H351.126L349.526 359.168C352.022 359.36 354.326 359.488 356.502 359.488C358.55 359.488 359.638 358.208 359.638 355.712V346.176H343.766V364.416H337.622V346.176H322.582ZM359.638 340.544V330.752H343.766V340.544H359.638ZM359.638 325.184V315.584H343.766V325.184H359.638ZM337.622 315.584H322.902V325.184H337.622V315.584ZM377.918 314.304H396.862C407.742 314.304 413.182 318.912 413.182 328.192C413.182 337.536 407.678 342.208 396.734 342.208H384.894V360H377.918V314.304ZM384.894 320.256V336.256H396.286C399.742 336.256 402.238 335.616 403.838 334.336C405.374 333.056 406.206 331.008 406.206 328.192C406.206 325.376 405.374 323.328 403.774 322.176C402.174 320.896 399.678 320.256 396.286 320.256H384.894ZM435.388 326.016C437.052 326.016 438.524 326.272 439.676 326.848V333.632C438.012 333.12 436.412 332.928 434.876 332.928C432.828 332.928 430.972 333.76 429.372 335.424C427.644 337.216 426.812 339.584 426.812 342.464V360H420.028V326.912H426.812V331.904C427.644 330.112 428.732 328.768 430.012 327.872C431.548 326.592 433.34 326.016 435.388 326.016ZM460.072 326.016C465.064 326.016 469.096 327.68 472.104 331.008C475.048 334.272 476.584 338.432 476.584 343.488C476.584 348.48 475.112 352.64 472.168 355.84C469.096 359.168 465.064 360.896 460.072 360.896C455.08 360.896 451.048 359.168 447.976 355.84C445.032 352.64 443.56 348.48 443.56 343.488C443.56 338.432 445.032 334.272 448.04 331.008C451.048 327.68 455.08 326.016 460.072 326.016ZM460.072 331.584C456.936 331.584 454.504 332.8 452.776 335.296C451.24 337.408 450.536 340.16 450.536 343.488C450.536 346.816 451.24 349.504 452.776 351.616C454.504 354.048 456.936 355.328 460.072 355.328C463.208 355.328 465.64 354.048 467.432 351.616C468.968 349.44 469.736 346.752 469.736 343.488C469.736 340.16 468.968 337.408 467.432 335.296C465.64 332.8 463.208 331.584 460.072 331.584ZM484.668 314.304H501.308C508.668 314.304 514.236 316.352 518.076 320.512C521.66 324.352 523.452 329.92 523.452 337.152C523.452 344.32 521.596 349.888 517.948 353.856C514.108 357.952 508.54 360 501.18 360H484.668V314.304ZM491.644 320.256V354.048H499.9C505.66 354.048 509.948 352.64 512.636 349.888C515.26 347.136 516.604 342.912 516.604 337.152C516.604 331.264 515.26 327.04 512.7 324.352C510.012 321.6 505.788 320.256 500.028 320.256H491.644ZM546.263 326.016C547.927 326.016 549.399 326.272 550.551 326.848V333.632C548.887 333.12 547.287 332.928 545.751 332.928C543.703 332.928 541.847 333.76 540.247 335.424C538.519 337.216 537.687 339.584 537.687 342.464V360H530.903V326.912H537.687V331.904C538.519 330.112 539.607 328.768 540.887 327.872C542.423 326.592 544.215 326.016 546.263 326.016ZM569.731 326.016C575.107 326.016 579.267 327.808 582.083 331.52C584.643 334.848 585.987 339.456 586.051 345.344H560.963C561.219 348.544 562.051 351.04 563.587 352.768C565.123 354.432 567.235 355.328 569.923 355.328C572.291 355.328 574.211 354.752 575.683 353.664C576.835 352.768 577.795 351.296 578.691 349.376H585.475C584.707 352.448 583.235 355.072 580.931 357.12C578.051 359.616 574.403 360.896 569.987 360.896C565.123 360.896 561.219 359.36 558.403 356.352C555.331 353.152 553.795 348.864 553.795 343.424C553.795 338.496 555.203 334.4 558.147 331.072C560.963 327.68 564.867 326.016 569.731 326.016ZM569.923 331.584C567.363 331.584 565.379 332.288 563.843 333.824C562.435 335.296 561.475 337.408 561.091 340.224H578.947C578.307 334.464 575.299 331.584 569.923 331.584ZM607.752 326.016C612.616 326.016 616.2 327.232 618.504 329.664C620.488 331.776 621.512 334.848 621.512 338.88V360H615.24V355.328C613.96 356.992 612.36 358.336 610.44 359.296C608.264 360.32 605.704 360.896 602.76 360.896C599.304 360.896 596.616 360 594.696 358.272C592.584 356.544 591.56 354.304 591.56 351.552C591.56 347.84 593.032 344.96 595.976 342.976C598.664 341.056 602.504 340.096 607.368 339.968L614.792 339.776V338.432C614.792 333.824 612.296 331.52 607.304 331.52C605.192 331.52 603.464 331.904 602.184 332.672C600.648 333.568 599.688 334.912 599.304 336.768L592.584 336.192C593.288 332.608 595.08 329.92 597.896 328.256C600.328 326.72 603.656 326.016 607.752 326.016ZM614.792 344.704L607.816 344.896C601.608 345.024 598.536 347.2 598.536 351.296C598.536 352.576 599.048 353.6 600.136 354.432C601.16 355.264 602.568 355.712 604.296 355.712C607.176 355.712 609.608 354.816 611.656 353.088C613.704 351.36 614.792 349.184 614.792 346.624V344.704ZM646.15 326.016C651.014 326.016 654.534 327.872 656.582 331.584C658.054 329.536 659.654 328.064 661.318 327.232C662.854 326.4 664.71 326.016 666.95 326.016C670.342 326.016 673.158 327.104 675.398 329.408C677.574 331.648 678.726 334.592 678.726 338.304V360H671.942V339.456C671.942 336.768 671.366 334.784 670.214 333.568C669.062 332.288 667.142 331.712 664.582 331.712C662.662 331.712 661.126 332.416 659.846 333.824C658.566 335.232 657.926 337.216 657.926 339.648V360H651.142V339.52C651.142 334.272 648.838 331.712 644.358 331.712C642.182 331.712 640.39 332.544 639.11 334.208C637.702 335.808 637.062 337.792 637.062 340.096V360H630.278V326.912H637.062V330.56C639.75 327.488 642.822 326.016 646.15 326.016Z" fill="#8652DB" fill-opacity="0.8"/>
<path d="M-209.693 411.222H-172.253V415.766H-188.381V456.918H-193.565V415.766H-209.693V411.222ZM-152.556 422.934C-147.244 422.934 -143.212 424.726 -140.524 428.31C-138.092 431.51 -136.812 436.054 -136.684 441.814H-162.796C-162.54 445.526 -161.58 448.406 -159.788 450.454C-157.996 452.502 -155.5 453.526 -152.364 453.526C-149.676 453.526 -147.436 452.822 -145.772 451.478C-144.364 450.326 -143.276 448.598 -142.444 446.294H-137.324C-138.092 449.494 -139.564 452.054 -141.804 454.102C-144.556 456.534 -148.076 457.814 -152.364 457.814C-157.1 457.814 -160.94 456.214 -163.756 453.142C-166.7 449.942 -168.108 445.718 -168.108 440.342C-168.108 435.478 -166.764 431.382 -163.948 428.118C-161.132 424.662 -157.356 422.934 -152.556 422.934ZM-152.428 427.222C-155.372 427.222 -157.74 428.182 -159.532 430.102C-161.324 432.022 -162.348 434.582 -162.668 437.846H-141.996C-142.636 430.742 -146.156 427.222 -152.428 427.222ZM-82.9277 410.326H-77.8077V456.918H-82.6077V451.478C-84.9117 455.702 -88.6237 457.814 -93.6157 457.814C-98.4797 457.814 -102.256 456.022 -104.944 452.566C-107.44 449.366 -108.656 445.27 -108.656 440.278C-108.656 435.414 -107.44 431.446 -104.944 428.246C-102.256 424.662 -98.6077 422.934 -93.8717 422.934C-89.1357 422.934 -85.4877 425.238 -82.9277 429.91V410.326ZM-92.7837 427.158C-96.4317 427.158 -99.1837 428.438 -100.976 430.998C-102.64 433.238 -103.408 436.31 -103.408 440.278C-103.408 444.246 -102.64 447.382 -101.04 449.686C-99.2477 452.246 -96.5597 453.59 -92.9757 453.59C-89.6477 453.59 -87.0877 452.31 -85.2317 449.75C-83.6317 447.446 -82.7997 444.438 -82.7997 440.726V440.086C-82.7997 436.246 -83.7597 433.11 -85.5517 430.742C-87.4077 428.31 -89.8397 427.158 -92.7837 427.158ZM-54.4757 422.934C-49.7397 422.934 -46.2837 424.15 -43.9797 426.646C-42.0597 428.822 -41.0357 431.83 -41.0357 435.67V456.918H-45.8357V451.35C-47.1157 453.142 -48.8437 454.614 -50.8917 455.766C-53.3237 457.11 -56.0757 457.814 -59.1477 457.814C-62.4757 457.814 -65.0997 456.982 -67.0837 455.318C-69.1317 453.59 -70.1557 451.35 -70.1557 448.662C-70.1557 444.886 -68.6837 442.07 -65.6117 440.15C-62.9237 438.358 -59.0837 437.398 -54.0917 437.334L-46.1557 437.206V435.478C-46.1557 429.91 -49.0357 427.158 -54.7957 427.158C-57.2277 427.158 -59.2117 427.606 -60.7477 428.63C-62.4757 429.654 -63.5637 431.254 -64.0757 433.366L-69.1317 432.982C-68.4277 429.526 -66.6997 426.902 -64.0117 425.238C-61.5797 423.702 -58.4437 422.934 -54.4757 422.934ZM-46.1557 441.046L-53.7717 441.174C-61.1957 441.302 -64.9077 443.734 -64.9077 448.534C-64.9077 450.07 -64.3317 451.286 -63.0517 452.31C-61.7717 453.27 -60.1077 453.782 -58.0597 453.782C-54.9237 453.782 -52.1717 452.758 -49.7397 450.71C-47.3717 448.726 -46.1557 446.422 -46.1557 443.862V441.046ZM-17.6617 422.934C-12.6057 422.934 -9.14975 424.982 -7.29375 429.206C-6.01375 427.03 -4.47775 425.43 -2.68575 424.47C-1.08575 423.446 0.834251 422.934 3.13825 422.934C6.59425 422.934 9.34625 424.022 11.5223 426.198C13.5703 428.438 14.6583 431.446 14.6583 435.222V456.918H9.53825V436.054C9.53825 433.11 8.89825 430.934 7.68225 429.526C6.40225 427.99 4.35425 427.286 1.53825 427.286C-0.637749 427.286 -2.49375 428.054 -3.90175 429.718C-5.43775 431.382 -6.14175 433.494 -6.14175 436.182V456.918H-11.2617V436.054C-11.2617 430.166 -13.8217 427.286 -18.8777 427.286C-21.2457 427.286 -23.1657 428.182 -24.7017 430.102C-26.2377 431.894 -27.0057 434.134 -27.0057 436.758V456.918H-32.1257V423.83H-27.0057V428.246C-24.5097 424.662 -21.3737 422.934 -17.6617 422.934ZM38.4083 422.934C43.3363 422.934 47.3043 424.598 50.2483 428.054C53.0643 431.318 54.4723 435.414 54.4723 440.406C54.4723 445.334 53.0643 449.43 50.3123 452.63C47.3043 456.086 43.3363 457.814 38.4083 457.814C33.4163 457.814 29.5123 456.086 26.5683 452.63C23.7523 449.43 22.3443 445.334 22.3443 440.406C22.3443 435.414 23.7523 431.318 26.5683 428.054C29.5123 424.598 33.4163 422.934 38.4083 422.934ZM38.4083 427.222C34.8883 427.222 32.1363 428.566 30.2163 431.254C28.4243 433.686 27.5923 436.694 27.5923 440.406C27.5923 444.054 28.4243 447.062 30.2163 449.494C32.1363 452.182 34.8883 453.526 38.4083 453.526C41.8643 453.526 44.6163 452.182 46.6643 449.494C48.3923 447.062 49.2883 443.99 49.2883 440.406C49.2883 436.694 48.3923 433.686 46.6643 431.254C44.6163 428.566 41.8643 427.222 38.4083 427.222ZM73.8363 422.934C82.0283 422.934 86.5083 426.326 87.4043 433.238H82.4123C81.9643 431.19 81.1323 429.654 79.8523 428.758C78.4443 427.734 76.3963 427.222 73.7723 427.222C71.4683 427.222 69.6763 427.606 68.3963 428.502C66.9883 429.334 66.2843 430.486 66.2843 431.958C66.2843 433.366 67.1803 434.582 69.1003 435.542C70.3163 436.118 72.6203 436.822 75.9483 437.718C79.9163 438.678 82.7323 439.702 84.4603 440.79C87.0843 442.454 88.4283 444.694 88.4283 447.574C88.4283 454.358 83.7563 457.814 74.4123 457.814C65.7083 457.814 60.9723 453.974 60.2043 446.358H65.1963C65.5803 448.982 66.5403 450.838 67.9483 451.99C69.3563 453.014 71.4683 453.526 74.2843 453.526C80.1723 453.526 83.1803 451.606 83.1803 447.894C83.1803 446.038 82.0923 444.63 80.0443 443.606C78.9563 443.094 76.5883 442.39 73.0043 441.494C69.1003 440.534 66.3483 439.574 64.8123 438.55C62.2523 437.014 61.0363 434.902 61.0363 432.086C61.0363 429.27 62.2523 427.094 64.7483 425.43C67.0523 423.766 70.1243 422.934 73.8363 422.934ZM118.773 410.326H123.829V456.918H118.773V410.326ZM148.212 422.934C152.948 422.934 156.404 424.15 158.708 426.646C160.628 428.822 161.652 431.83 161.652 435.67V456.918H156.852V451.35C155.572 453.142 153.844 454.614 151.796 455.766C149.364 457.11 146.612 457.814 143.54 457.814C140.212 457.814 137.588 456.982 135.604 455.318C133.556 453.59 132.532 451.35 132.532 448.662C132.532 444.886 134.004 442.07 137.076 440.15C139.764 438.358 143.604 437.398 148.596 437.334L156.532 437.206V435.478C156.532 429.91 153.652 427.158 147.892 427.158C145.46 427.158 143.476 427.606 141.94 428.63C140.212 429.654 139.124 431.254 138.612 433.366L133.556 432.982C134.26 429.526 135.988 426.902 138.676 425.238C141.108 423.702 144.244 422.934 148.212 422.934ZM156.532 441.046L148.916 441.174C141.492 441.302 137.78 443.734 137.78 448.534C137.78 450.07 138.356 451.286 139.636 452.31C140.916 453.27 142.58 453.782 144.628 453.782C147.764 453.782 150.516 452.758 152.948 450.71C155.316 448.726 156.532 446.422 156.532 443.862V441.046ZM192.874 410.326H197.994V429.91C200.554 425.238 204.202 422.934 208.938 422.934C213.61 422.934 217.322 424.662 220.01 428.246C222.442 431.446 223.722 435.414 223.722 440.278C223.722 445.27 222.442 449.366 220.01 452.566C217.258 456.022 213.482 457.814 208.682 457.814C203.562 457.814 199.914 455.702 197.674 451.478V456.918H192.874V410.326ZM207.85 427.158C204.842 427.158 202.41 428.31 200.618 430.742C198.698 433.11 197.802 436.246 197.802 440.086V440.726C197.802 444.438 198.634 447.446 200.298 449.75C202.09 452.31 204.714 453.59 208.042 453.59C211.626 453.59 214.314 452.246 216.106 449.686C217.642 447.382 218.474 444.246 218.474 440.278C218.474 436.31 217.642 433.238 215.978 430.998C214.122 428.438 211.434 427.158 207.85 427.158ZM235.598 411.35C236.686 411.35 237.582 411.67 238.35 412.438C239.118 413.078 239.502 413.974 239.502 415.126C239.502 416.214 239.118 417.11 238.35 417.878C237.582 418.582 236.686 418.966 235.598 418.966C234.51 418.966 233.614 418.582 232.846 417.878C232.078 417.11 231.758 416.214 231.758 415.126C231.758 413.974 232.078 413.078 232.846 412.438C233.614 411.67 234.51 411.35 235.598 411.35ZM233.038 423.83H238.158V456.918H233.038V423.83ZM262.381 422.934C267.693 422.934 271.725 424.726 274.413 428.31C276.845 431.51 278.125 436.054 278.253 441.814H252.141C252.397 445.526 253.357 448.406 255.149 450.454C256.941 452.502 259.437 453.526 262.573 453.526C265.261 453.526 267.501 452.822 269.165 451.478C270.573 450.326 271.661 448.598 272.493 446.294H277.613C276.845 449.494 275.373 452.054 273.133 454.102C270.381 456.534 266.861 457.814 262.573 457.814C257.837 457.814 253.997 456.214 251.181 453.142C248.237 449.942 246.829 445.718 246.829 440.342C246.829 435.478 248.173 431.382 250.989 428.118C253.805 424.662 257.581 422.934 262.381 422.934ZM262.509 427.222C259.565 427.222 257.197 428.182 255.405 430.102C253.613 432.022 252.589 434.582 252.269 437.846H272.941C272.301 430.742 268.781 427.222 262.509 427.222ZM300.737 422.934C308.929 422.934 313.089 427.478 313.089 436.566V456.918H307.969V436.95C307.969 430.486 305.025 427.286 299.265 427.286C296.961 427.286 294.977 428.118 293.313 429.782C291.521 431.574 290.561 433.942 290.369 436.95V456.918H285.249V423.83H290.369V428.694C291.521 426.838 292.993 425.43 294.785 424.47C296.577 423.446 298.561 422.934 300.737 422.934ZM318.351 423.83H323.983L333.455 450.518L342.927 423.83H348.559L336.015 456.918H330.831L318.351 423.83ZM367.506 422.934C372.818 422.934 376.85 424.726 379.538 428.31C381.97 431.51 383.25 436.054 383.378 441.814H357.266C357.522 445.526 358.482 448.406 360.274 450.454C362.066 452.502 364.562 453.526 367.698 453.526C370.386 453.526 372.626 452.822 374.29 451.478C375.698 450.326 376.786 448.598 377.618 446.294H382.738C381.97 449.494 380.498 452.054 378.258 454.102C375.506 456.534 371.986 457.814 367.698 457.814C362.962 457.814 359.122 456.214 356.306 453.142C353.362 449.942 351.954 445.718 351.954 440.342C351.954 435.478 353.298 431.382 356.114 428.118C358.93 424.662 362.706 422.934 367.506 422.934ZM367.634 427.222C364.69 427.222 362.322 428.182 360.53 430.102C358.738 432.022 357.714 434.582 357.394 437.846H378.066C377.426 430.742 373.906 427.222 367.634 427.222ZM405.862 422.934C414.054 422.934 418.214 427.478 418.214 436.566V456.918H413.094V436.95C413.094 430.486 410.15 427.286 404.39 427.286C402.086 427.286 400.102 428.118 398.438 429.782C396.646 431.574 395.686 433.942 395.494 436.95V456.918H390.374V423.83H395.494V428.694C396.646 426.838 398.118 425.43 399.91 424.47C401.702 423.446 403.686 422.934 405.862 422.934ZM431.348 411.35C432.436 411.35 433.332 411.67 434.1 412.438C434.868 413.078 435.252 413.974 435.252 415.126C435.252 416.214 434.868 417.11 434.1 417.878C433.332 418.582 432.436 418.966 431.348 418.966C430.26 418.966 429.364 418.582 428.596 417.878C427.828 417.11 427.508 416.214 427.508 415.126C427.508 413.974 427.828 413.078 428.596 412.438C429.364 411.67 430.26 411.35 431.348 411.35ZM428.788 423.83H433.908V456.918H428.788V423.83ZM468.947 410.326H474.067V456.918H469.267V451.478C466.963 455.702 463.251 457.814 458.259 457.814C453.395 457.814 449.619 456.022 446.931 452.566C444.435 449.366 443.219 445.27 443.219 440.278C443.219 435.414 444.435 431.446 446.931 428.246C449.619 424.662 453.267 422.934 458.003 422.934C462.739 422.934 466.387 425.238 468.947 429.91V410.326ZM459.091 427.158C455.443 427.158 452.691 428.438 450.899 430.998C449.235 433.238 448.467 436.31 448.467 440.278C448.467 444.246 449.235 447.382 450.835 449.686C452.627 452.246 455.315 453.59 458.899 453.59C462.227 453.59 464.787 452.31 466.643 449.75C468.243 447.446 469.075 444.438 469.075 440.726V440.086C469.075 436.246 468.115 433.11 466.323 430.742C464.467 428.31 462.035 427.158 459.091 427.158ZM497.399 422.934C502.135 422.934 505.591 424.15 507.895 426.646C509.815 428.822 510.839 431.83 510.839 435.67V456.918H506.039V451.35C504.759 453.142 503.031 454.614 500.983 455.766C498.551 457.11 495.799 457.814 492.727 457.814C489.399 457.814 486.775 456.982 484.791 455.318C482.743 453.59 481.719 451.35 481.719 448.662C481.719 444.886 483.191 442.07 486.263 440.15C488.951 438.358 492.791 437.398 497.783 437.334L505.719 437.206V435.478C505.719 429.91 502.839 427.158 497.079 427.158C494.647 427.158 492.663 427.606 491.127 428.63C489.399 429.654 488.311 431.254 487.799 433.366L482.743 432.982C483.447 429.526 485.175 426.902 487.863 425.238C490.295 423.702 493.431 422.934 497.399 422.934ZM505.719 441.046L498.103 441.174C490.679 441.302 486.967 443.734 486.967 448.534C486.967 450.07 487.543 451.286 488.823 452.31C490.103 453.27 491.767 453.782 493.815 453.782C496.951 453.782 499.703 452.758 502.135 450.71C504.503 448.726 505.719 446.422 505.719 443.862V441.046Z" fill="#8652DB" fill-opacity="0.6"/>
<path d="M80.047 508.181H100.143C104.239 508.181 107.567 509.141 109.999 511.189C112.431 513.237 113.647 516.053 113.647 519.637C113.647 522.261 112.879 524.501 111.407 526.357C109.935 528.149 108.015 529.365 105.711 530.069C108.719 530.581 111.087 531.797 112.879 533.717C114.607 535.701 115.503 538.197 115.503 541.269C115.503 545.621 113.903 548.885 110.831 551.061C108.143 552.917 104.495 553.877 99.951 553.877H80.047V508.181ZM83.951 511.573V528.597H99.311C102.575 528.597 105.135 527.829 106.927 526.421C108.783 524.949 109.743 522.837 109.743 520.021C109.743 517.205 108.783 515.029 106.991 513.621C105.135 512.213 102.575 511.573 99.375 511.573H83.951ZM83.951 531.925V550.485H99.823C103.215 550.485 105.967 549.781 108.015 548.437C110.383 546.773 111.599 544.405 111.599 541.205C111.599 538.069 110.447 535.701 108.271 534.165C106.159 532.629 103.343 531.925 99.759 531.925H83.951ZM127.122 508.885C128.018 508.885 128.786 509.205 129.426 509.845C130.066 510.357 130.386 511.125 130.386 512.085C130.386 512.981 130.002 513.749 129.362 514.389C128.722 514.965 128.018 515.285 127.122 515.285C126.162 515.285 125.394 514.965 124.818 514.389C124.178 513.749 123.858 512.981 123.858 512.085C123.858 511.125 124.178 510.357 124.818 509.845C125.394 509.205 126.162 508.885 127.122 508.885ZM125.202 520.789H129.042V553.877H125.202V520.789ZM153.408 519.893C158.656 519.893 162.56 521.621 165.184 525.205C167.488 528.341 168.768 532.757 168.96 538.453H142.08C142.272 542.485 143.36 545.685 145.344 547.989C147.392 550.293 150.08 551.445 153.536 551.445C156.544 551.445 158.976 550.613 160.832 549.077C162.368 547.733 163.52 545.813 164.352 543.253H168.256C167.488 546.453 166.016 549.077 163.84 551.125C161.152 553.557 157.76 554.773 153.536 554.773C148.864 554.773 145.152 553.173 142.4 550.037C139.52 546.837 138.112 542.549 138.112 537.301C138.112 532.437 139.456 528.405 142.208 525.077C145.024 521.621 148.736 519.893 153.408 519.893ZM153.472 523.221C150.208 523.221 147.584 524.309 145.6 526.613C143.616 528.853 142.464 531.733 142.144 535.317H164.928C164.288 527.253 160.448 523.221 153.472 523.221ZM190.687 519.893C198.879 519.893 202.975 524.437 202.975 533.525V553.877H199.135V533.781C199.135 526.741 195.999 523.221 189.727 523.221C187.039 523.221 184.863 524.181 183.071 526.101C181.151 528.021 180.127 530.645 179.935 533.909V553.877H176.095V520.789H179.935V526.229C181.087 524.245 182.559 522.709 184.415 521.557C186.271 520.405 188.383 519.893 190.687 519.893ZM208.32 520.789H212.544L222.976 549.013L233.344 520.789H237.632L224.96 553.877H220.992L208.32 520.789ZM256.346 519.893C261.594 519.893 265.498 521.621 268.122 525.205C270.426 528.341 271.706 532.757 271.898 538.453H245.018C245.21 542.485 246.298 545.685 248.282 547.989C250.33 550.293 253.018 551.445 256.474 551.445C259.482 551.445 261.914 550.613 263.77 549.077C265.306 547.733 266.458 545.813 267.29 543.253H271.194C270.426 546.453 268.954 549.077 266.778 551.125C264.09 553.557 260.698 554.773 256.474 554.773C251.802 554.773 248.09 553.173 245.338 550.037C242.458 546.837 241.049 542.549 241.049 537.301C241.049 532.437 242.394 528.405 245.146 525.077C247.962 521.621 251.674 519.893 256.346 519.893ZM256.41 523.221C253.146 523.221 250.522 524.309 248.538 526.613C246.554 528.853 245.402 531.733 245.082 535.317H267.866C267.226 527.253 263.386 523.221 256.41 523.221ZM293.624 519.893C301.816 519.893 305.912 524.437 305.912 533.525V553.877H302.072V533.781C302.072 526.741 298.936 523.221 292.664 523.221C289.976 523.221 287.8 524.181 286.008 526.101C284.088 528.021 283.064 530.645 282.872 533.909V553.877H279.032V520.789H282.872V526.229C284.024 524.245 285.496 522.709 287.352 521.557C289.208 520.405 291.32 519.893 293.624 519.893ZM314.97 520.789H318.81V541.013C318.81 544.469 319.514 547.029 320.986 548.757C322.522 550.549 324.89 551.445 328.09 551.445C330.65 551.445 332.89 550.421 334.81 548.501C336.73 546.581 337.818 544.021 338.074 540.885V520.789H341.914V553.877H338.074V548.309C335.514 552.597 331.802 554.773 327.066 554.773C319.002 554.773 314.97 550.229 314.97 541.205V520.789ZM364.346 519.893C369.594 519.893 373.498 521.621 376.122 525.205C378.426 528.341 379.706 532.757 379.898 538.453H353.018C353.21 542.485 354.298 545.685 356.282 547.989C358.33 550.293 361.018 551.445 364.474 551.445C367.482 551.445 369.914 550.613 371.77 549.077C373.306 547.733 374.458 545.813 375.29 543.253H379.194C378.426 546.453 376.954 549.077 374.778 551.125C372.09 553.557 368.698 554.773 364.474 554.773C359.802 554.773 356.09 553.173 353.338 550.037C350.458 546.837 349.049 542.549 349.049 537.301C349.049 532.437 350.394 528.405 353.146 525.077C355.962 521.621 359.674 519.893 364.346 519.893ZM364.41 523.221C361.146 523.221 358.522 524.309 356.538 526.613C354.554 528.853 353.402 531.733 353.082 535.317H375.866C375.226 527.253 371.386 523.221 364.41 523.221ZM420.609 519.893C428.417 519.893 432.833 523.285 433.793 530.069H430.017C429.569 527.765 428.673 526.101 427.265 525.013C425.729 523.797 423.489 523.221 420.545 523.221C418.113 523.221 416.129 523.669 414.593 524.693C413.057 525.717 412.289 526.997 412.289 528.661C412.289 530.325 413.249 531.669 415.233 532.693C416.513 533.333 418.817 534.101 422.208 534.997C426.241 536.021 429.121 537.045 430.785 538.069C433.409 539.669 434.753 541.909 434.753 544.725C434.753 551.381 430.273 554.773 421.312 554.773C412.801 554.773 408.193 550.997 407.424 543.445H411.201C411.585 546.325 412.609 548.437 414.273 549.717C415.809 550.869 418.113 551.445 421.185 551.445C427.585 551.445 430.785 549.269 430.785 544.917C430.785 542.933 429.697 541.397 427.521 540.309C426.369 539.733 423.937 538.965 420.161 538.005C416.321 536.981 413.633 536.021 412.097 535.061C409.536 533.525 408.321 531.413 408.321 528.725C408.321 526.037 409.473 523.925 411.905 522.261C414.209 520.661 417.153 519.893 420.609 519.893ZM441.907 520.789H445.747V541.013C445.747 544.469 446.451 547.029 447.923 548.757C449.459 550.549 451.827 551.445 455.027 551.445C457.587 551.445 459.827 550.421 461.747 548.501C463.667 546.581 464.755 544.021 465.011 540.885V520.789H468.851V553.877H465.011V548.309C462.451 552.597 458.739 554.773 454.003 554.773C445.939 554.773 441.907 550.229 441.907 541.205V520.789ZM491.795 519.893C493.715 519.893 495.315 520.085 496.595 520.597V524.501C494.867 523.989 493.203 523.797 491.539 523.797C488.595 523.797 486.163 525.077 484.371 527.765C482.579 530.197 481.747 533.077 481.747 536.405V553.877H477.907V520.789H481.747V527.125C482.643 525.077 483.859 523.413 485.395 522.197C487.187 520.661 489.363 519.893 491.795 519.893ZM524.922 508.181H543.482C553.594 508.181 558.714 512.533 558.714 521.301C558.714 530.069 553.594 534.485 543.418 534.485H528.826V553.877H524.922V508.181ZM528.826 511.637V531.029H543.226C547.194 531.029 550.074 530.197 551.994 528.597C553.786 526.997 554.746 524.565 554.746 521.301C554.746 518.037 553.786 515.669 551.994 514.133C550.074 512.469 547.13 511.637 543.226 511.637H528.826ZM579.733 519.893C581.653 519.893 583.253 520.085 584.533 520.597V524.501C582.805 523.989 581.141 523.797 579.477 523.797C576.533 523.797 574.101 525.077 572.309 527.765C570.517 530.197 569.685 533.077 569.685 536.405V553.877H565.845V520.789H569.685V527.125C570.581 525.077 571.797 523.413 573.333 522.197C575.125 520.661 577.301 519.893 579.733 519.893ZM604.371 519.893C609.235 519.893 613.139 521.621 616.083 525.141C618.771 528.405 620.115 532.501 620.115 537.365C620.115 542.229 618.771 546.261 616.083 549.525C613.139 552.981 609.235 554.773 604.371 554.773C599.507 554.773 595.603 552.981 592.659 549.525C589.971 546.261 588.627 542.229 588.627 537.365C588.627 532.501 589.971 528.405 592.723 525.141C595.603 521.621 599.507 519.893 604.371 519.893ZM604.371 523.221C600.595 523.221 597.651 524.629 595.475 527.573C593.491 530.133 592.531 533.397 592.531 537.365C592.531 541.269 593.491 544.533 595.475 547.093C597.651 549.973 600.595 551.445 604.371 551.445C608.147 551.445 611.155 549.973 613.331 547.093C615.251 544.469 616.275 541.205 616.275 537.365C616.275 533.397 615.251 530.133 613.331 527.573C611.155 524.629 608.147 523.221 604.371 523.221ZM628.547 508.181H644.803C651.907 508.181 657.283 510.293 660.867 514.581C664.131 518.421 665.795 523.925 665.795 531.029C665.795 538.005 663.939 543.509 660.291 547.541C656.451 551.765 651.011 553.877 643.971 553.877H628.547V508.181ZM632.451 511.637V550.421H643.395C649.475 550.421 654.147 548.693 657.347 545.237C660.419 541.909 661.955 537.173 661.955 531.029C661.955 524.629 660.611 519.893 657.923 516.757C654.979 513.301 650.371 511.637 644.227 511.637H632.451ZM687.483 519.893C689.403 519.893 691.003 520.085 692.283 520.597V524.501C690.555 523.989 688.891 523.797 687.227 523.797C684.283 523.797 681.851 525.077 680.059 527.765C678.267 530.197 677.435 533.077 677.435 536.405V553.877H673.595V520.789H677.435V527.125C678.331 525.077 679.547 523.413 681.083 522.197C682.875 520.661 685.051 519.893 687.483 519.893ZM711.033 519.893C716.281 519.893 720.185 521.621 722.809 525.205C725.113 528.341 726.393 532.757 726.585 538.453H699.705C699.897 542.485 700.985 545.685 702.969 547.989C705.017 550.293 707.705 551.445 711.161 551.445C714.169 551.445 716.601 550.613 718.457 549.077C719.993 547.733 721.145 545.813 721.977 543.253H725.881C725.113 546.453 723.641 549.077 721.465 551.125C718.777 553.557 715.385 554.773 711.161 554.773C706.489 554.773 702.777 553.173 700.025 550.037C697.145 546.837 695.737 542.549 695.737 537.301C695.737 532.437 697.081 528.405 699.833 525.077C702.649 521.621 706.361 519.893 711.033 519.893ZM711.097 523.221C707.833 523.221 705.209 524.309 703.225 526.613C701.241 528.853 700.089 531.733 699.769 535.317H722.553C721.913 527.253 718.073 523.221 711.097 523.221ZM747.736 519.893C752.344 519.893 755.8 521.109 758.04 523.669C759.96 525.781 760.984 528.725 760.984 532.565V553.877H757.336V547.541C755.992 549.461 754.2 551.125 752.024 552.405C749.336 553.941 746.456 554.773 743.32 554.773C740.12 554.773 737.496 553.941 735.576 552.341C733.464 550.677 732.44 548.437 732.44 545.749C732.44 541.909 733.976 539.093 737.112 537.301C739.8 535.573 743.704 534.677 748.696 534.677L757.144 534.549V532.565C757.144 526.293 753.944 523.157 747.544 523.157C744.856 523.157 742.68 523.669 740.952 524.821C739.032 526.037 737.816 527.765 737.304 530.069L733.528 529.813C734.168 526.485 735.832 523.925 738.52 522.261C740.888 520.661 743.96 519.893 747.736 519.893ZM757.144 537.557L748.888 537.685C740.504 537.749 736.344 540.437 736.344 545.685C736.344 547.477 737.048 548.885 738.456 549.973C739.864 551.061 741.784 551.637 744.088 551.637C747.416 551.637 750.488 550.485 753.176 548.181C755.8 546.005 757.144 543.573 757.144 541.013V537.557ZM783.472 519.893C788.72 519.893 792.176 522.133 793.84 526.677C794.992 524.437 796.464 522.773 798.256 521.621C799.92 520.469 801.968 519.893 804.272 519.893C807.728 519.893 810.544 520.981 812.592 523.157C814.576 525.333 815.6 528.341 815.6 532.245V553.877H811.76V532.757C811.76 529.621 811.12 527.253 809.84 525.717C808.432 524.053 806.192 523.221 803.248 523.221C800.816 523.221 798.832 524.117 797.232 525.973C795.568 527.765 794.8 530.005 794.8 532.821V553.877H790.896V532.757C790.896 526.357 788.144 523.221 782.64 523.221C780.144 523.221 778.096 524.181 776.432 526.229C774.704 528.213 773.872 530.645 773.872 533.525V553.877H770.032V520.789H773.872V525.781C776.24 521.813 779.44 519.893 783.472 519.893Z" fill="#8652DB" fill-opacity="0.4"/>
<path d="M-105.323 599.508C-102.763 602.26 -100.523 605.14 -98.6672 608.148L-100.139 609.236C-102.187 605.972 -104.427 603.092 -106.731 600.66L-105.323 599.508ZM-112.491 602.132C-109.931 604.82 -107.691 607.7 -105.771 610.772L-107.307 611.86C-109.355 608.596 -111.595 605.716 -113.899 603.284L-112.491 602.132ZM-132.779 599.956C-132.651 606.356 -132.139 611.284 -131.371 614.804C-130.795 617.492 -129.835 619.924 -128.555 622.1C-123.819 620.18 -117.611 618.132 -109.995 615.956L-109.035 618.068C-120.043 621.14 -128.235 624.084 -133.611 626.9C-141.739 631.06 -145.771 635.668 -145.771 640.788C-145.771 647.764 -138.859 651.284 -125.035 651.284C-120.939 651.284 -114.987 650.9 -107.179 650.196L-106.987 652.5C-114.859 653.14 -120.875 653.524 -125.035 653.524C-132.779 653.524 -138.539 652.436 -142.379 650.388C-146.219 648.276 -148.139 645.076 -148.139 640.788C-148.139 634.644 -143.467 629.268 -134.123 624.532C-133.099 624.02 -131.947 623.444 -130.667 622.932C-132.075 620.628 -133.035 617.94 -133.675 614.932C-134.443 611.284 -134.955 606.292 -135.083 599.956H-132.779ZM-74.4992 600.724C-64.8992 601.62 -56.5792 603.028 -49.4752 604.948L-50.1152 607.124C-57.3472 605.14 -65.6032 603.732 -74.8192 602.9L-74.4992 600.724ZM-57.8592 615.764C-52.7392 615.764 -48.8352 616.98 -46.1472 619.54C-43.4592 622.036 -42.1152 625.556 -42.1152 630.164C-42.1152 636.564 -44.5472 641.94 -49.3472 646.164C-54.2752 650.452 -61.3792 653.332 -70.7232 654.868L-71.6832 652.756C-62.8512 651.348 -56.0672 648.66 -51.3312 644.692C-46.7872 640.788 -44.4832 635.924 -44.4832 630.164C-44.4832 626.324 -45.6352 623.316 -47.8112 621.204C-50.1152 619.028 -53.4432 617.94 -57.7952 617.94C-63.1712 617.94 -71.4272 619.54 -82.6912 622.868L-83.3312 620.628C-79.4272 619.476 -75.2672 618.452 -70.7872 617.556C-65.0912 616.34 -60.8032 615.764 -57.8592 615.764ZM18.2768 609.3L18.2128 611.54C11.6848 611.796 4.32475 611.988 -3.86725 612.116C-4.37925 616.852 -4.76325 621.012 -5.01925 624.66C1.63675 624.468 8.80475 624.212 16.3568 623.828L16.2928 626.004C9.38075 626.388 2.21275 626.708 -5.21125 626.9C-5.65925 632.468 -5.85125 636.564 -5.85125 639.252C-5.85125 643.412 -4.76325 646.484 -2.45925 648.468C-0.283249 650.388 3.30075 651.348 8.22875 651.348C12.7088 651.348 16.3568 650.772 19.1088 649.748C22.9488 648.212 24.8688 645.716 24.8688 642.132C24.8688 639.444 23.8448 636.18 21.9248 632.276L24.1008 631.252C26.1488 635.604 27.1728 639.188 27.1728 642.132C27.1728 649.684 20.8368 653.524 8.22875 653.524C2.59675 653.524 -1.49925 652.372 -4.18725 650.196C-6.87525 647.892 -8.15525 644.244 -8.15525 639.252C-8.15525 636.18 -8.02725 632.084 -7.64325 626.964C-12.3152 627.028 -17.0512 627.092 -21.9152 627.092V624.916C-17.3712 624.916 -12.5712 624.852 -7.45125 624.724C-7.19525 621.012 -6.81125 616.788 -6.29925 612.116C-10.9072 612.116 -15.7712 612.18 -20.8912 612.18V609.94C-15.7072 609.94 -10.7792 609.876 -6.04325 609.876L-4.95525 599.636H-2.65125C-3.03525 603.22 -3.41925 606.676 -3.67525 609.876C4.51675 609.748 11.8128 609.556 18.2768 609.3ZM62.2848 620.884C64.2688 622.292 66.5728 624.276 69.1328 626.964C71.3088 629.268 73.0368 631.316 74.3168 633.108L72.5888 634.58C71.2448 632.724 69.5168 630.676 67.4048 628.436C64.9088 625.748 62.6688 623.764 60.6848 622.42L62.2848 620.884ZM105.205 605.14H123.637C133.365 605.14 138.293 609.364 138.293 617.876C138.293 626.452 133.365 630.74 123.573 630.74H107.701V650.836H105.205V605.14ZM107.701 607.444V628.436H123.509C127.733 628.436 130.805 627.476 132.853 625.684C134.773 623.956 135.797 621.332 135.797 617.876C135.797 614.42 134.773 611.796 132.853 610.132C130.805 608.34 127.669 607.444 123.509 607.444H107.701ZM158.811 616.852C160.923 616.852 162.651 617.044 163.931 617.492V620.116C162.139 619.604 160.347 619.348 158.683 619.348C155.355 619.348 152.667 620.884 150.683 624.02C148.955 626.708 148.123 629.844 148.123 633.364V650.836H145.627V617.748H148.123V624.66C148.955 622.484 150.235 620.756 151.963 619.348C153.947 617.684 156.251 616.852 158.811 616.852ZM183.521 616.852C188.321 616.852 192.161 618.644 195.041 622.292C197.601 625.492 198.945 629.524 198.945 634.324C198.945 639.06 197.601 643.028 195.041 646.356C192.161 649.94 188.321 651.732 183.521 651.732C178.657 651.732 174.817 649.94 172.001 646.356C169.377 643.028 168.097 639.06 168.097 634.324C168.097 629.524 169.377 625.492 172.001 622.292C174.817 618.644 178.657 616.852 183.521 616.852ZM183.521 619.092C179.425 619.092 176.225 620.628 173.857 623.764C171.681 626.58 170.593 630.1 170.593 634.324C170.593 638.548 171.681 642.004 173.857 644.82C176.225 647.892 179.425 649.492 183.521 649.492C187.553 649.492 190.753 647.892 193.185 644.82C195.361 642.004 196.449 638.484 196.449 634.324C196.449 630.1 195.361 626.58 193.185 623.764C190.753 620.628 187.553 619.092 183.521 619.092ZM207.517 605.14H223.581C230.621 605.14 235.869 607.252 239.325 611.604C242.525 615.444 244.125 620.948 244.125 627.988C244.125 634.9 242.269 640.34 238.621 644.436C234.781 648.66 229.341 650.836 222.429 650.836H207.517V605.14ZM210.013 607.444V648.532H222.173C228.445 648.532 233.309 646.612 236.701 642.9C239.965 639.252 241.629 634.26 241.629 627.988C241.629 621.396 240.221 616.404 237.533 613.012C234.461 609.3 229.789 607.444 223.389 607.444H210.013ZM265.249 616.852C267.361 616.852 269.089 617.044 270.369 617.492V620.116C268.577 619.604 266.785 619.348 265.121 619.348C261.793 619.348 259.105 620.884 257.121 624.02C255.393 626.708 254.561 629.844 254.561 633.364V650.836H252.065V617.748H254.561V624.66C255.393 622.484 256.673 620.756 258.401 619.348C260.385 617.684 262.689 616.852 265.249 616.852ZM288.935 616.852C294.055 616.852 297.895 618.58 300.455 622.1C302.631 625.108 303.847 629.46 304.103 635.092H276.455C276.583 639.444 277.735 642.964 279.975 645.524C282.279 648.148 285.287 649.492 288.999 649.492C292.327 649.492 295.015 648.532 297.063 646.74C298.727 645.204 300.007 643.028 300.775 640.212H303.399C302.631 643.476 301.159 646.1 299.047 648.148C296.423 650.516 293.095 651.732 288.999 651.732C284.391 651.732 280.743 650.132 278.055 646.932C275.239 643.668 273.895 639.444 273.895 634.26C273.895 629.46 275.175 625.428 277.863 622.1C280.679 618.58 284.327 616.852 288.935 616.852ZM288.999 619.092C285.351 619.092 282.407 620.372 280.167 622.996C277.927 625.62 276.711 628.948 276.455 632.916H301.543C300.839 623.7 296.679 619.092 288.999 619.092ZM325.009 616.852C329.489 616.852 332.881 618.132 335.121 620.692C336.977 622.804 337.937 625.748 337.937 629.46V650.836H335.569V643.732C334.161 645.78 332.369 647.508 330.065 649.044C327.185 650.836 324.113 651.732 320.849 651.732C317.713 651.732 315.153 650.9 313.233 649.364C311.121 647.764 310.097 645.588 310.097 642.836C310.097 638.996 311.697 636.244 314.897 634.452C317.585 632.788 321.489 632.02 326.609 632.02L335.505 631.956V629.716C335.505 622.612 331.985 619.092 324.945 619.092C322.001 619.092 319.569 619.668 317.649 620.948C315.537 622.292 314.193 624.276 313.681 626.836L311.313 626.58C311.953 623.38 313.489 620.948 316.049 619.284C318.417 617.62 321.425 616.852 325.009 616.852ZM335.505 634.068L326.673 634.132C317.265 634.196 312.593 637.14 312.593 642.9C312.593 644.948 313.361 646.548 314.961 647.764C316.561 648.916 318.673 649.556 321.297 649.556C324.881 649.556 328.145 648.276 331.153 645.716C334.033 643.284 335.505 640.788 335.505 638.228V634.068ZM359.415 616.852C364.791 616.852 368.247 619.284 369.783 624.212C370.807 621.908 372.215 620.116 374.071 618.836C375.863 617.492 377.911 616.852 380.279 616.852C383.735 616.852 386.487 617.876 388.471 620.052C390.391 622.164 391.415 625.236 391.415 629.204V650.836H388.983V629.396C388.983 626.068 388.279 623.508 386.871 621.844C385.335 619.988 383.031 619.092 379.831 619.092C377.143 619.092 374.967 620.052 373.239 622.1C371.447 624.02 370.551 626.516 370.551 629.46V650.836H368.055V629.396C368.055 622.484 365.047 619.092 359.095 619.092C356.407 619.092 354.167 620.18 352.375 622.356C350.519 624.468 349.623 627.092 349.623 630.228V650.836H347.127V617.748H349.623V623.38C351.799 619.028 355.063 616.852 359.415 616.852ZM448.435 614.612C450.995 617.364 453.235 620.244 455.091 623.252L453.619 624.276C451.571 621.076 449.331 618.196 447.027 615.764L448.435 614.612ZM442.419 618.9C444.979 621.588 447.219 624.468 449.139 627.54L447.603 628.628C445.555 625.364 443.315 622.484 441.011 620.052L442.419 618.9ZM452.851 605.588L452.915 607.7L442.163 608.212C439.923 608.276 437.235 609.556 434.163 612.116C430.835 614.804 428.019 618.004 425.843 621.78C423.283 626.004 422.067 630.228 422.067 634.452C422.067 639.7 424.115 643.732 428.275 646.676C432.499 649.62 438.515 651.092 446.323 651.22L445.875 653.396C437.491 653.268 431.027 651.604 426.547 648.404C421.939 645.14 419.699 640.532 419.699 634.516C419.699 629.012 421.555 623.636 425.395 618.516C428.723 613.78 432.691 610.388 437.299 608.34C428.787 608.916 417.651 609.812 403.891 610.964L403.571 608.724C425.331 606.932 441.779 605.908 452.851 605.588ZM499.355 599.956H501.531L501.723 609.3L520.091 609.044V611.22L501.787 611.476C501.787 612.116 501.851 612.756 501.851 613.46C501.979 622.356 502.107 627.796 502.107 629.78C502.107 637.076 500.763 642.516 498.203 646.1C495.579 649.492 490.779 652.5 483.867 655.06L482.779 652.948C488.347 651.028 492.379 648.788 494.811 646.228C497.371 643.668 499.099 639.892 499.867 634.964C497.819 638.932 494.747 640.916 490.651 640.916C487.003 640.916 484.187 639.828 482.203 637.78C480.219 635.668 479.259 632.98 479.259 629.78C479.259 626.708 480.155 624.148 482.075 622.036C484.123 619.604 487.003 618.452 490.651 618.452C495.131 618.452 498.331 620.5 500.123 624.596C499.803 622.228 499.611 619.22 499.611 615.508L499.547 611.54L467.547 611.988V609.812L499.483 609.364L499.355 599.956ZM490.651 620.564C487.707 620.564 485.403 621.524 483.739 623.508C482.203 625.236 481.499 627.348 481.499 629.78C481.499 632.34 482.267 634.516 483.931 636.244C485.531 637.908 487.771 638.804 490.651 638.804C493.275 638.804 495.451 637.908 497.243 636.116C498.907 634.324 499.803 632.212 499.803 629.908C499.803 627.22 498.907 625.044 497.243 623.252C495.515 621.46 493.339 620.564 490.651 620.564Z" fill="#8652DB" fill-opacity="0.2"/>
</g>
<rect x="75.5" y="79.5" width="450" height="39" rx="19.5" fill="#FEFEFE"/>
<rect x="75.5" y="79.5" width="450" height="39" rx="19.5" stroke="#CED7F2"/>
<path d="M97.976 93.812V103.5H96.702V96.276L93.482 103.5H92.586L89.352 96.262V103.5H88.078V93.812H89.45L93.034 101.82L96.618 93.812H97.976ZM106.941 95.828V103.5H105.667V102.366C105.424 102.758 105.083 103.066 104.645 103.29C104.215 103.505 103.739 103.612 103.217 103.612C102.619 103.612 102.083 103.491 101.607 103.248C101.131 102.996 100.753 102.623 100.473 102.128C100.202 101.633 100.067 101.031 100.067 100.322V95.828H101.327V100.154C101.327 100.91 101.518 101.493 101.901 101.904C102.283 102.305 102.806 102.506 103.469 102.506C104.15 102.506 104.687 102.296 105.079 101.876C105.471 101.456 105.667 100.845 105.667 100.042V95.828H106.941ZM110.366 93.14V103.5H109.092V93.14H110.366ZM114.091 96.878V101.4C114.091 101.773 114.17 102.039 114.329 102.198C114.488 102.347 114.763 102.422 115.155 102.422H116.093V103.5H114.945C114.236 103.5 113.704 103.337 113.349 103.01C112.994 102.683 112.817 102.147 112.817 101.4V96.878H111.823V95.828H112.817V93.896H114.091V95.828H116.093V96.878H114.091ZM118.295 94.582C118.052 94.582 117.847 94.498 117.679 94.33C117.511 94.162 117.427 93.9567 117.427 93.714C117.427 93.4713 117.511 93.266 117.679 93.098C117.847 92.93 118.052 92.846 118.295 92.846C118.528 92.846 118.724 92.93 118.883 93.098C119.051 93.266 119.135 93.4713 119.135 93.714C119.135 93.9567 119.051 94.162 118.883 94.33C118.724 94.498 118.528 94.582 118.295 94.582ZM118.911 95.828V103.5H117.637V95.828H118.911ZM126.402 97.83V98.908H120.816V97.83H126.402ZM130.067 93.14V103.5H128.793V93.14H130.067ZM131.762 99.636C131.762 98.852 131.921 98.166 132.238 97.578C132.555 96.9807 132.989 96.5187 133.54 96.192C134.1 95.8653 134.721 95.702 135.402 95.702C136.074 95.702 136.657 95.8467 137.152 96.136C137.647 96.4253 138.015 96.7893 138.258 97.228V95.828H139.546V103.5H138.258V102.072C138.006 102.52 137.628 102.893 137.124 103.192C136.629 103.481 136.051 103.626 135.388 103.626C134.707 103.626 134.091 103.458 133.54 103.122C132.989 102.786 132.555 102.315 132.238 101.708C131.921 101.101 131.762 100.411 131.762 99.636ZM138.258 99.65C138.258 99.0713 138.141 98.5673 137.908 98.138C137.675 97.7087 137.357 97.382 136.956 97.158C136.564 96.9247 136.13 96.808 135.654 96.808C135.178 96.808 134.744 96.92 134.352 97.144C133.96 97.368 133.647 97.6947 133.414 98.124C133.181 98.5533 133.064 99.0573 133.064 99.636C133.064 100.224 133.181 100.737 133.414 101.176C133.647 101.605 133.96 101.937 134.352 102.17C134.744 102.394 135.178 102.506 135.654 102.506C136.13 102.506 136.564 102.394 136.956 102.17C137.357 101.937 137.675 101.605 137.908 101.176C138.141 100.737 138.258 100.229 138.258 99.65ZM145.437 95.688C146.37 95.688 147.126 95.9727 147.705 96.542C148.284 97.102 148.573 97.914 148.573 98.978V103.5H147.313V99.16C147.313 98.3947 147.122 97.8113 146.739 97.41C146.356 96.9993 145.834 96.794 145.171 96.794C144.499 96.794 143.962 97.004 143.561 97.424C143.169 97.844 142.973 98.4553 142.973 99.258V103.5H141.699V95.828H142.973V96.92C143.225 96.528 143.566 96.2247 143.995 96.01C144.434 95.7953 144.914 95.688 145.437 95.688ZM153.818 95.702C154.481 95.702 155.06 95.8467 155.554 96.136C156.058 96.4253 156.432 96.7893 156.674 97.228V95.828H157.962V103.668C157.962 104.368 157.813 104.989 157.514 105.53C157.216 106.081 156.786 106.51 156.226 106.818C155.676 107.126 155.032 107.28 154.294 107.28C153.286 107.28 152.446 107.042 151.774 106.566C151.102 106.09 150.706 105.441 150.584 104.62H151.844C151.984 105.087 152.274 105.46 152.712 105.74C153.151 106.029 153.678 106.174 154.294 106.174C154.994 106.174 155.564 105.955 156.002 105.516C156.45 105.077 156.674 104.461 156.674 103.668V102.058C156.422 102.506 156.049 102.879 155.554 103.178C155.06 103.477 154.481 103.626 153.818 103.626C153.137 103.626 152.516 103.458 151.956 103.122C151.406 102.786 150.972 102.315 150.654 101.708C150.337 101.101 150.178 100.411 150.178 99.636C150.178 98.852 150.337 98.166 150.654 97.578C150.972 96.9807 151.406 96.5187 151.956 96.192C152.516 95.8653 153.137 95.702 153.818 95.702ZM156.674 99.65C156.674 99.0713 156.558 98.5673 156.324 98.138C156.091 97.7087 155.774 97.382 155.372 97.158C154.98 96.9247 154.546 96.808 154.07 96.808C153.594 96.808 153.16 96.92 152.768 97.144C152.376 97.368 152.064 97.6947 151.83 98.124C151.597 98.5533 151.48 99.0573 151.48 99.636C151.48 100.224 151.597 100.737 151.83 101.176C152.064 101.605 152.376 101.937 152.768 102.17C153.16 102.394 153.594 102.506 154.07 102.506C154.546 102.506 154.98 102.394 155.372 102.17C155.774 101.937 156.091 101.605 156.324 101.176C156.558 100.737 156.674 100.229 156.674 99.65ZM166.919 95.828V103.5H165.645V102.366C165.402 102.758 165.062 103.066 164.623 103.29C164.194 103.505 163.718 103.612 163.195 103.612C162.598 103.612 162.061 103.491 161.585 103.248C161.109 102.996 160.731 102.623 160.451 102.128C160.18 101.633 160.045 101.031 160.045 100.322V95.828H161.305V100.154C161.305 100.91 161.496 101.493 161.879 101.904C162.262 102.305 162.784 102.506 163.447 102.506C164.128 102.506 164.665 102.296 165.057 101.876C165.449 101.456 165.645 100.845 165.645 100.042V95.828H166.919ZM168.594 99.636C168.594 98.852 168.753 98.166 169.07 97.578C169.388 96.9807 169.822 96.5187 170.372 96.192C170.932 95.8653 171.553 95.702 172.234 95.702C172.906 95.702 173.49 95.8467 173.984 96.136C174.479 96.4253 174.848 96.7893 175.09 97.228V95.828H176.378V103.5H175.09V102.072C174.838 102.52 174.46 102.893 173.956 103.192C173.462 103.481 172.883 103.626 172.22 103.626C171.539 103.626 170.923 103.458 170.372 103.122C169.822 102.786 169.388 102.315 169.07 101.708C168.753 101.101 168.594 100.411 168.594 99.636ZM175.09 99.65C175.09 99.0713 174.974 98.5673 174.74 98.138C174.507 97.7087 174.19 97.382 173.788 97.158C173.396 96.9247 172.962 96.808 172.486 96.808C172.01 96.808 171.576 96.92 171.184 97.144C170.792 97.368 170.48 97.6947 170.246 98.124C170.013 98.5533 169.896 99.0573 169.896 99.636C169.896 100.224 170.013 100.737 170.246 101.176C170.48 101.605 170.792 101.937 171.184 102.17C171.576 102.394 172.01 102.506 172.486 102.506C172.962 102.506 173.396 102.394 173.788 102.17C174.19 101.937 174.507 101.605 174.74 101.176C174.974 100.737 175.09 100.229 175.09 99.65ZM181.695 95.702C182.358 95.702 182.936 95.8467 183.431 96.136C183.935 96.4253 184.308 96.7893 184.551 97.228V95.828H185.839V103.668C185.839 104.368 185.69 104.989 185.391 105.53C185.092 106.081 184.663 106.51 184.103 106.818C183.552 107.126 182.908 107.28 182.171 107.28C181.163 107.28 180.323 107.042 179.651 106.566C178.979 106.09 178.582 105.441 178.461 104.62H179.721C179.861 105.087 180.15 105.46 180.589 105.74C181.028 106.029 181.555 106.174 182.171 106.174C182.871 106.174 183.44 105.955 183.879 105.516C184.327 105.077 184.551 104.461 184.551 103.668V102.058C184.299 102.506 183.926 102.879 183.431 103.178C182.936 103.477 182.358 103.626 181.695 103.626C181.014 103.626 180.393 103.458 179.833 103.122C179.282 102.786 178.848 102.315 178.531 101.708C178.214 101.101 178.055 100.411 178.055 99.636C178.055 98.852 178.214 98.166 178.531 97.578C178.848 96.9807 179.282 96.5187 179.833 96.192C180.393 95.8653 181.014 95.702 181.695 95.702ZM184.551 99.65C184.551 99.0713 184.434 98.5673 184.201 98.138C183.968 97.7087 183.65 97.382 183.249 97.158C182.857 96.9247 182.423 96.808 181.947 96.808C181.471 96.808 181.037 96.92 180.645 97.144C180.253 97.368 179.94 97.6947 179.707 98.124C179.474 98.5533 179.357 99.0573 179.357 99.636C179.357 100.224 179.474 100.737 179.707 101.176C179.94 101.605 180.253 101.937 180.645 102.17C181.037 102.394 181.471 102.506 181.947 102.506C182.423 102.506 182.857 102.394 183.249 102.17C183.65 101.937 183.968 101.605 184.201 101.176C184.434 100.737 184.551 100.229 184.551 99.65ZM194.992 99.37C194.992 99.6127 194.978 99.8693 194.95 100.14H188.818C188.865 100.896 189.121 101.489 189.588 101.918C190.064 102.338 190.638 102.548 191.31 102.548C191.861 102.548 192.318 102.422 192.682 102.17C193.055 101.909 193.317 101.563 193.466 101.134H194.838C194.633 101.871 194.222 102.473 193.606 102.94C192.99 103.397 192.225 103.626 191.31 103.626C190.582 103.626 189.929 103.463 189.35 103.136C188.781 102.809 188.333 102.347 188.006 101.75C187.679 101.143 187.516 100.443 187.516 99.65C187.516 98.8567 187.675 98.1613 187.992 97.564C188.309 96.9667 188.753 96.5093 189.322 96.192C189.901 95.8653 190.563 95.702 191.31 95.702C192.038 95.702 192.682 95.8607 193.242 96.178C193.802 96.4953 194.231 96.934 194.53 97.494C194.838 98.0447 194.992 98.67 194.992 99.37ZM193.676 99.104C193.676 98.6187 193.569 98.2033 193.354 97.858C193.139 97.5033 192.845 97.2373 192.472 97.06C192.108 96.8733 191.702 96.78 191.254 96.78C190.61 96.78 190.059 96.9853 189.602 97.396C189.154 97.8067 188.897 98.376 188.832 99.104H193.676ZM203.5 103.598C202.856 103.598 202.277 103.486 201.764 103.262C201.26 103.029 200.863 102.711 200.574 102.31C200.285 101.899 200.135 101.428 200.126 100.896H201.484C201.531 101.353 201.717 101.741 202.044 102.058C202.38 102.366 202.865 102.52 203.5 102.52C204.107 102.52 204.583 102.371 204.928 102.072C205.283 101.764 205.46 101.372 205.46 100.896C205.46 100.523 205.357 100.219 205.152 99.986C204.947 99.7527 204.69 99.5753 204.382 99.454C204.074 99.3327 203.659 99.202 203.136 99.062C202.492 98.894 201.974 98.726 201.582 98.558C201.199 98.39 200.868 98.1287 200.588 97.774C200.317 97.41 200.182 96.9247 200.182 96.318C200.182 95.786 200.317 95.3147 200.588 94.904C200.859 94.4933 201.237 94.176 201.722 93.952C202.217 93.728 202.781 93.616 203.416 93.616C204.331 93.616 205.077 93.8447 205.656 94.302C206.244 94.7593 206.575 95.366 206.65 96.122H205.25C205.203 95.7487 205.007 95.422 204.662 95.142C204.317 94.8527 203.859 94.708 203.29 94.708C202.758 94.708 202.324 94.848 201.988 95.128C201.652 95.3987 201.484 95.7813 201.484 96.276C201.484 96.6307 201.582 96.92 201.778 97.144C201.983 97.368 202.231 97.5407 202.52 97.662C202.819 97.774 203.234 97.9047 203.766 98.054C204.41 98.2313 204.928 98.4087 205.32 98.586C205.712 98.754 206.048 99.02 206.328 99.384C206.608 99.7387 206.748 100.224 206.748 100.84C206.748 101.316 206.622 101.764 206.37 102.184C206.118 102.604 205.745 102.945 205.25 103.206C204.755 103.467 204.172 103.598 203.5 103.598ZM215.427 95.828V103.5H214.153V102.366C213.91 102.758 213.57 103.066 213.131 103.29C212.702 103.505 212.226 103.612 211.703 103.612C211.106 103.612 210.569 103.491 210.093 103.248C209.617 102.996 209.239 102.623 208.959 102.128C208.688 101.633 208.553 101.031 208.553 100.322V95.828H209.813V100.154C209.813 100.91 210.004 101.493 210.387 101.904C210.77 102.305 211.292 102.506 211.955 102.506C212.636 102.506 213.173 102.296 213.565 101.876C213.957 101.456 214.153 100.845 214.153 100.042V95.828H215.427ZM218.852 97.242C219.104 96.8033 219.477 96.4393 219.972 96.15C220.476 95.8513 221.059 95.702 221.722 95.702C222.403 95.702 223.019 95.8653 223.57 96.192C224.13 96.5187 224.569 96.9807 224.886 97.578C225.203 98.166 225.362 98.852 225.362 99.636C225.362 100.411 225.203 101.101 224.886 101.708C224.569 102.315 224.13 102.786 223.57 103.122C223.019 103.458 222.403 103.626 221.722 103.626C221.069 103.626 220.49 103.481 219.986 103.192C219.491 102.893 219.113 102.525 218.852 102.086V107.14H217.578V95.828H218.852V97.242ZM224.06 99.636C224.06 99.0573 223.943 98.5533 223.71 98.124C223.477 97.6947 223.159 97.368 222.758 97.144C222.366 96.92 221.932 96.808 221.456 96.808C220.989 96.808 220.555 96.9247 220.154 97.158C219.762 97.382 219.445 97.7133 219.202 98.152C218.969 98.5813 218.852 99.0807 218.852 99.65C218.852 100.229 218.969 100.737 219.202 101.176C219.445 101.605 219.762 101.937 220.154 102.17C220.555 102.394 220.989 102.506 221.456 102.506C221.932 102.506 222.366 102.394 222.758 102.17C223.159 101.937 223.477 101.605 223.71 101.176C223.943 100.737 224.06 100.224 224.06 99.636ZM228.313 97.242C228.565 96.8033 228.938 96.4393 229.433 96.15C229.937 95.8513 230.52 95.702 231.183 95.702C231.864 95.702 232.48 95.8653 233.031 96.192C233.591 96.5187 234.03 96.9807 234.347 97.578C234.664 98.166 234.823 98.852 234.823 99.636C234.823 100.411 234.664 101.101 234.347 101.708C234.03 102.315 233.591 102.786 233.031 103.122C232.48 103.458 231.864 103.626 231.183 103.626C230.53 103.626 229.951 103.481 229.447 103.192C228.952 102.893 228.574 102.525 228.313 102.086V107.14H227.039V95.828H228.313V97.242ZM233.521 99.636C233.521 99.0573 233.404 98.5533 233.171 98.124C232.938 97.6947 232.62 97.368 232.219 97.144C231.827 96.92 231.393 96.808 230.917 96.808C230.45 96.808 230.016 96.9247 229.615 97.158C229.223 97.382 228.906 97.7133 228.663 98.152C228.43 98.5813 228.313 99.0807 228.313 99.65C228.313 100.229 228.43 100.737 228.663 101.176C228.906 101.605 229.223 101.937 229.615 102.17C230.016 102.394 230.45 102.506 230.917 102.506C231.393 102.506 231.827 102.394 232.219 102.17C232.62 101.937 232.938 101.605 233.171 101.176C233.404 100.737 233.521 100.224 233.521 99.636ZM239.846 103.626C239.127 103.626 238.474 103.463 237.886 103.136C237.307 102.809 236.85 102.347 236.514 101.75C236.187 101.143 236.024 100.443 236.024 99.65C236.024 98.866 236.192 98.1753 236.528 97.578C236.873 96.9713 237.34 96.5093 237.928 96.192C238.516 95.8653 239.174 95.702 239.902 95.702C240.63 95.702 241.288 95.8653 241.876 96.192C242.464 96.5093 242.926 96.9667 243.262 97.564C243.607 98.1613 243.78 98.8567 243.78 99.65C243.78 100.443 243.603 101.143 243.248 101.75C242.903 102.347 242.431 102.809 241.834 103.136C241.237 103.463 240.574 103.626 239.846 103.626ZM239.846 102.506C240.303 102.506 240.733 102.399 241.134 102.184C241.535 101.969 241.857 101.647 242.1 101.218C242.352 100.789 242.478 100.266 242.478 99.65C242.478 99.034 242.357 98.5113 242.114 98.082C241.871 97.6527 241.554 97.3353 241.162 97.13C240.77 96.9153 240.345 96.808 239.888 96.808C239.421 96.808 238.992 96.9153 238.6 97.13C238.217 97.3353 237.909 97.6527 237.676 98.082C237.443 98.5113 237.326 99.034 237.326 99.65C237.326 100.275 237.438 100.803 237.662 101.232C237.895 101.661 238.203 101.983 238.586 102.198C238.969 102.403 239.389 102.506 239.846 102.506ZM246.729 97.074C246.953 96.6353 247.27 96.2947 247.681 96.052C248.101 95.8093 248.61 95.688 249.207 95.688V97.004H248.871C247.443 97.004 246.729 97.7787 246.729 99.328V103.5H245.455V95.828H246.729V97.074ZM252.232 96.878V101.4C252.232 101.773 252.311 102.039 252.47 102.198C252.628 102.347 252.904 102.422 253.296 102.422H254.234V103.5H253.086C252.376 103.5 251.844 103.337 251.49 103.01C251.135 102.683 250.958 102.147 250.958 101.4V96.878H249.964V95.828H250.958V93.896H252.232V95.828H254.234V96.878H252.232Z" fill="#7C757E"/>
<circle cx="503.5" cy="99" r="12.5" fill="#8652DB"/>
<path d="M507.871 95.25V94L509.746 95.875L507.871 97.75L507.871 96.5H506.621C505.208 96.5 504.438 97.2113 503.572 99.0025C504.484 100.853 505.208 101.5 506.621 101.5H507.876L507.871 100.25C507.876 100.25 508.379 100.753 508.501 100.875L509.751 102.11L507.876 104V102.75L506.621 102.75C504.811 102.75 503.863 101.976 502.864 100.362C501.88 101.956 500.931 102.75 499.121 102.75H497.871C497.526 102.75 497.246 102.47 497.246 102.125C497.246 101.78 497.526 101.5 497.871 101.5H499.121C500.534 101.5 501.316 100.792 502.169 99.0087C501.313 97.2244 500.534 96.5 499.121 96.5H497.871C497.526 96.5 497.246 96.22 497.246 95.875C497.246 95.53 497.526 95.25 497.871 95.25H499.121C500.724 95.2712 501.864 95.92 502.876 97.6644C503.743 96.1469 504.824 95.2556 506.621 95.25H507.871Z" fill="white"/>
</svg>
