<svg width="600" height="720" viewBox="0 0 600 720" fill="none" xmlns="http://www.w3.org/2000/svg">
<rect width="600" height="720" rx="20" fill="#F8F9FC"/>
<g clip-path="url(#clip0_1441_10201)">
<rect x="47" y="242" width="506" height="430" rx="8" fill="#ECEDFF"/>
<rect x="47.5" y="242.5" width="505" height="393" fill="white"/>
<rect x="47.5" y="242.5" width="505" height="393" stroke="#CED7F2"/>
<path d="M68.868 655.14H65.22L64.548 657H63.396L66.42 648.684H67.68L70.692 657H69.54L68.868 655.14ZM68.556 654.252L67.044 650.028L65.532 654.252H68.556ZM71.6019 653.7C71.6019 653.02 71.7379 652.428 72.0099 651.924C72.2819 651.412 72.6579 651.016 73.1379 650.736C73.6259 650.456 74.1819 650.316 74.8059 650.316C75.6139 650.316 76.2779 650.512 76.7979 650.904C77.3259 651.296 77.6739 651.84 77.8419 652.536H76.6659C76.5539 652.136 76.3339 651.82 76.0059 651.588C75.6859 651.356 75.2859 651.24 74.8059 651.24C74.1819 651.24 73.6779 651.456 73.2939 651.888C72.9099 652.312 72.7179 652.916 72.7179 653.7C72.7179 654.492 72.9099 655.104 73.2939 655.536C73.6779 655.968 74.1819 656.184 74.8059 656.184C75.2859 656.184 75.6859 656.072 76.0059 655.848C76.3259 655.624 76.5459 655.304 76.6659 654.888H77.8419C77.6659 655.56 77.3139 656.1 76.7859 656.508C76.2579 656.908 75.5979 657.108 74.8059 657.108C74.1819 657.108 73.6259 656.968 73.1379 656.688C72.6579 656.408 72.2819 656.012 72.0099 655.5C71.7379 654.988 71.6019 654.388 71.6019 653.7ZM78.891 653.688C78.891 653.016 79.027 652.428 79.299 651.924C79.571 651.412 79.943 651.016 80.415 650.736C80.895 650.456 81.427 650.316 82.011 650.316C82.587 650.316 83.087 650.44 83.511 650.688C83.935 650.936 84.251 651.248 84.459 651.624V650.424H85.563V657H84.459V655.776C84.243 656.16 83.919 656.48 83.487 656.736C83.063 656.984 82.567 657.108 81.999 657.108C81.415 657.108 80.887 656.964 80.415 656.676C79.943 656.388 79.571 655.984 79.299 655.464C79.027 654.944 78.891 654.352 78.891 653.688ZM84.459 653.7C84.459 653.204 84.359 652.772 84.159 652.404C83.959 652.036 83.687 651.756 83.343 651.564C83.007 651.364 82.635 651.264 82.227 651.264C81.819 651.264 81.447 651.36 81.111 651.552C80.775 651.744 80.507 652.024 80.307 652.392C80.107 652.76 80.007 653.192 80.007 653.688C80.007 654.192 80.107 654.632 80.307 655.008C80.507 655.376 80.775 655.66 81.111 655.86C81.447 656.052 81.819 656.148 82.227 656.148C82.635 656.148 83.007 656.052 83.343 655.86C83.687 655.66 83.959 655.376 84.159 655.008C84.359 654.632 84.459 654.196 84.459 653.7ZM87.0004 653.688C87.0004 653.016 87.1364 652.428 87.4084 651.924C87.6804 651.412 88.0524 651.016 88.5244 650.736C89.0044 650.456 89.5404 650.316 90.1324 650.316C90.6444 650.316 91.1204 650.436 91.5604 650.676C92.0004 650.908 92.3364 651.216 92.5684 651.6V648.12H93.6724V657H92.5684V655.764C92.3524 656.156 92.0324 656.48 91.6084 656.736C91.1844 656.984 90.6884 657.108 90.1204 657.108C89.5364 657.108 89.0044 656.964 88.5244 656.676C88.0524 656.388 87.6804 655.984 87.4084 655.464C87.1364 654.944 87.0004 654.352 87.0004 653.688ZM92.5684 653.7C92.5684 653.204 92.4684 652.772 92.2684 652.404C92.0684 652.036 91.7964 651.756 91.4524 651.564C91.1164 651.364 90.7444 651.264 90.3364 651.264C89.9284 651.264 89.5564 651.36 89.2204 651.552C88.8844 651.744 88.6164 652.024 88.4164 652.392C88.2164 652.76 88.1164 653.192 88.1164 653.688C88.1164 654.192 88.2164 654.632 88.4164 655.008C88.6164 655.376 88.8844 655.66 89.2204 655.86C89.5564 656.052 89.9284 656.148 90.3364 656.148C90.7444 656.148 91.1164 656.052 91.4524 655.86C91.7964 655.66 92.0684 655.376 92.2684 655.008C92.4684 654.632 92.5684 654.196 92.5684 653.7ZM101.518 653.46C101.518 653.668 101.506 653.888 101.482 654.12H96.2258C96.2658 654.768 96.4858 655.276 96.8858 655.644C97.2938 656.004 97.7858 656.184 98.3618 656.184C98.8338 656.184 99.2258 656.076 99.5378 655.86C99.8578 655.636 100.082 655.34 100.21 654.972H101.386C101.21 655.604 100.858 656.12 100.33 656.52C99.8018 656.912 99.1458 657.108 98.3618 657.108C97.7378 657.108 97.1778 656.968 96.6818 656.688C96.1938 656.408 95.8098 656.012 95.5298 655.5C95.2498 654.98 95.1098 654.38 95.1098 653.7C95.1098 653.02 95.2458 652.424 95.5178 651.912C95.7898 651.4 96.1698 651.008 96.6578 650.736C97.1538 650.456 97.7218 650.316 98.3618 650.316C98.9858 650.316 99.5378 650.452 100.018 650.724C100.498 650.996 100.866 651.372 101.122 651.852C101.386 652.324 101.518 652.86 101.518 653.46ZM100.39 653.232C100.39 652.816 100.298 652.46 100.114 652.164C99.9298 651.86 99.6778 651.632 99.3578 651.48C99.0458 651.32 98.6978 651.24 98.3138 651.24C97.7618 651.24 97.2898 651.416 96.8978 651.768C96.5138 652.12 96.2938 652.608 96.2378 653.232H100.39ZM110.867 650.304C111.379 650.304 111.835 650.412 112.235 650.628C112.635 650.836 112.951 651.152 113.183 651.576C113.415 652 113.531 652.516 113.531 653.124V657H112.451V653.28C112.451 652.624 112.287 652.124 111.959 651.78C111.639 651.428 111.203 651.252 110.651 651.252C110.083 651.252 109.631 651.436 109.295 651.804C108.959 652.164 108.791 652.688 108.791 653.376V657H107.711V653.28C107.711 652.624 107.547 652.124 107.219 651.78C106.899 651.428 106.463 651.252 105.911 651.252C105.343 651.252 104.891 651.436 104.555 651.804C104.219 652.164 104.051 652.688 104.051 653.376V657H102.959V650.424H104.051V651.372C104.267 651.028 104.555 650.764 104.915 650.58C105.283 650.396 105.687 650.304 106.127 650.304C106.679 650.304 107.167 650.428 107.591 650.676C108.015 650.924 108.331 651.288 108.539 651.768C108.723 651.304 109.027 650.944 109.451 650.688C109.875 650.432 110.347 650.304 110.867 650.304ZM115.886 649.356C115.678 649.356 115.502 649.284 115.358 649.14C115.214 648.996 115.142 648.82 115.142 648.612C115.142 648.404 115.214 648.228 115.358 648.084C115.502 647.94 115.678 647.868 115.886 647.868C116.086 647.868 116.254 647.94 116.39 648.084C116.534 648.228 116.606 648.404 116.606 648.612C116.606 648.82 116.534 648.996 116.39 649.14C116.254 649.284 116.086 649.356 115.886 649.356ZM116.414 650.424V657H115.322V650.424H116.414ZM117.868 653.7C117.868 653.02 118.004 652.428 118.276 651.924C118.548 651.412 118.924 651.016 119.404 650.736C119.892 650.456 120.448 650.316 121.072 650.316C121.88 650.316 122.544 650.512 123.064 650.904C123.592 651.296 123.94 651.84 124.108 652.536H122.932C122.82 652.136 122.6 651.82 122.272 651.588C121.952 651.356 121.552 651.24 121.072 651.24C120.448 651.24 119.944 651.456 119.56 651.888C119.176 652.312 118.984 652.916 118.984 653.7C118.984 654.492 119.176 655.104 119.56 655.536C119.944 655.968 120.448 656.184 121.072 656.184C121.552 656.184 121.952 656.072 122.272 655.848C122.592 655.624 122.812 655.304 122.932 654.888H124.108C123.932 655.56 123.58 656.1 123.052 656.508C122.524 656.908 121.864 657.108 121.072 657.108C120.448 657.108 119.892 656.968 119.404 656.688C118.924 656.408 118.548 656.012 118.276 655.5C118.004 654.988 117.868 654.388 117.868 653.7ZM129.856 649.524V652.32H132.904V653.22H129.856V656.1H133.264V657H128.764V648.624H133.264V649.524H129.856ZM138.12 650.304C138.92 650.304 139.568 650.548 140.064 651.036C140.56 651.516 140.808 652.212 140.808 653.124V657H139.728V653.28C139.728 652.624 139.564 652.124 139.236 651.78C138.908 651.428 138.46 651.252 137.892 651.252C137.316 651.252 136.856 651.432 136.512 651.792C136.176 652.152 136.008 652.676 136.008 653.364V657H134.916V650.424H136.008V651.36C136.224 651.024 136.516 650.764 136.884 650.58C137.26 650.396 137.672 650.304 138.12 650.304ZM145.856 650.304C146.352 650.304 146.8 650.412 147.2 650.628C147.6 650.836 147.912 651.152 148.136 651.576C148.368 652 148.484 652.516 148.484 653.124V657H147.404V653.28C147.404 652.624 147.24 652.124 146.912 651.78C146.584 651.428 146.136 651.252 145.568 651.252C144.992 651.252 144.532 651.432 144.188 651.792C143.852 652.152 143.684 652.676 143.684 653.364V657H142.592V648.12H143.684V651.36C143.9 651.024 144.196 650.764 144.572 650.58C144.956 650.396 145.384 650.304 145.856 650.304ZM149.86 653.688C149.86 653.016 149.996 652.428 150.268 651.924C150.54 651.412 150.912 651.016 151.384 650.736C151.864 650.456 152.396 650.316 152.98 650.316C153.556 650.316 154.056 650.44 154.48 650.688C154.904 650.936 155.22 651.248 155.428 651.624V650.424H156.532V657H155.428V655.776C155.212 656.16 154.888 656.48 154.456 656.736C154.032 656.984 153.536 657.108 152.968 657.108C152.384 657.108 151.856 656.964 151.384 656.676C150.912 656.388 150.54 655.984 150.268 655.464C149.996 654.944 149.86 654.352 149.86 653.688ZM155.428 653.7C155.428 653.204 155.328 652.772 155.128 652.404C154.928 652.036 154.656 651.756 154.312 651.564C153.976 651.364 153.604 651.264 153.196 651.264C152.788 651.264 152.416 651.36 152.08 651.552C151.744 651.744 151.476 652.024 151.276 652.392C151.076 652.76 150.976 653.192 150.976 653.688C150.976 654.192 151.076 654.632 151.276 655.008C151.476 655.376 151.744 655.66 152.08 655.86C152.416 656.052 152.788 656.148 153.196 656.148C153.604 656.148 153.976 656.052 154.312 655.86C154.656 655.66 154.928 655.376 155.128 655.008C155.328 654.632 155.428 654.196 155.428 653.7ZM161.581 650.304C162.381 650.304 163.029 650.548 163.525 651.036C164.021 651.516 164.269 652.212 164.269 653.124V657H163.189V653.28C163.189 652.624 163.025 652.124 162.697 651.78C162.369 651.428 161.921 651.252 161.353 651.252C160.777 651.252 160.317 651.432 159.973 651.792C159.637 652.152 159.469 652.676 159.469 653.364V657H158.377V650.424H159.469V651.36C159.685 651.024 159.977 650.764 160.345 650.58C160.721 650.396 161.133 650.304 161.581 650.304ZM165.645 653.7C165.645 653.02 165.781 652.428 166.053 651.924C166.325 651.412 166.701 651.016 167.181 650.736C167.669 650.456 168.225 650.316 168.849 650.316C169.657 650.316 170.321 650.512 170.841 650.904C171.369 651.296 171.717 651.84 171.885 652.536H170.709C170.597 652.136 170.377 651.82 170.049 651.588C169.729 651.356 169.329 651.24 168.849 651.24C168.225 651.24 167.721 651.456 167.337 651.888C166.953 652.312 166.761 652.916 166.761 653.7C166.761 654.492 166.953 655.104 167.337 655.536C167.721 655.968 168.225 656.184 168.849 656.184C169.329 656.184 169.729 656.072 170.049 655.848C170.369 655.624 170.589 655.304 170.709 654.888H171.885C171.709 655.56 171.357 656.1 170.829 656.508C170.301 656.908 169.641 657.108 168.849 657.108C168.225 657.108 167.669 656.968 167.181 656.688C166.701 656.408 166.325 656.012 166.053 655.5C165.781 654.988 165.645 654.388 165.645 653.7ZM179.342 653.46C179.342 653.668 179.33 653.888 179.306 654.12H174.05C174.09 654.768 174.31 655.276 174.71 655.644C175.118 656.004 175.61 656.184 176.186 656.184C176.658 656.184 177.05 656.076 177.362 655.86C177.682 655.636 177.906 655.34 178.034 654.972H179.21C179.034 655.604 178.682 656.12 178.154 656.52C177.626 656.912 176.97 657.108 176.186 657.108C175.562 657.108 175.002 656.968 174.506 656.688C174.018 656.408 173.634 656.012 173.354 655.5C173.074 654.98 172.934 654.38 172.934 653.7C172.934 653.02 173.07 652.424 173.342 651.912C173.614 651.4 173.994 651.008 174.482 650.736C174.978 650.456 175.546 650.316 176.186 650.316C176.81 650.316 177.362 650.452 177.842 650.724C178.322 650.996 178.69 651.372 178.946 651.852C179.21 652.324 179.342 652.86 179.342 653.46ZM178.214 653.232C178.214 652.816 178.122 652.46 177.938 652.164C177.754 651.86 177.502 651.632 177.182 651.48C176.87 651.32 176.522 651.24 176.138 651.24C175.586 651.24 175.114 651.416 174.722 651.768C174.338 652.12 174.118 652.608 174.062 653.232H178.214ZM181.875 651.492C182.067 651.116 182.339 650.824 182.691 650.616C183.051 650.408 183.487 650.304 183.999 650.304V651.432H183.711C182.487 651.432 181.875 652.096 181.875 653.424V657H180.783V650.424H181.875V651.492Z" fill="#7F88A4"/>
</g>
<rect x="47.5" y="242.5" width="505" height="429" rx="7.5" stroke="#CED7F2"/>
<path opacity="0.32" d="M123.727 299.544V568.82H495.363" stroke="#8652DB" stroke-width="3.5998" stroke-miterlimit="10" stroke-linecap="round" stroke-linejoin="round"/>
<path fill-rule="evenodd" clip-rule="evenodd" d="M159.624 302.163H137.051V312.801H159.624V302.163Z" fill="#8652DB"/>
<path opacity="0.6" fill-rule="evenodd" clip-rule="evenodd" d="M159.624 327.417H137.051V338.055H159.624V327.417Z" fill="#8652DB"/>
<path opacity="0.25" fill-rule="evenodd" clip-rule="evenodd" d="M159.624 352.673H137.051V363.311H159.624V352.673Z" fill="#8652DB"/>
<path fill-rule="evenodd" clip-rule="evenodd" d="M84.6367 546.593L200.011 457.857L268.509 474.203L413.462 326.137L474.09 371.456L481.009 167L270.325 222.265L332.596 271.477L234.001 407.954L180.465 397.403L84.6367 546.593Z" fill="#8652DB"/>
<path fill-rule="evenodd" clip-rule="evenodd" d="M151.836 529.469L106.949 543.739C106.949 543.739 125.631 589.75 133.76 599.524C138.431 605.145 155.642 602.205 155.642 602.205L147.512 593.21L175.707 561.729L151.836 529.469Z" fill="white"/>
<path d="M151.836 529.469L106.949 543.739C106.949 543.739 125.631 589.751 133.76 599.524C138.431 605.145 155.642 602.205 155.642 602.205L147.512 593.21L175.707 561.729L151.836 529.469Z" stroke="black" stroke-width="1.7999" stroke-miterlimit="10" stroke-linecap="round" stroke-linejoin="round"/>
<path fill-rule="evenodd" clip-rule="evenodd" d="M343.233 420.668C343.233 420.668 363.471 493.836 293.935 541.318C252.248 569.686 166.712 575.394 166.712 575.394L138.863 531.112C138.863 531.112 255.621 495.912 273.351 464.085C291.081 432.257 320.66 412.365 320.66 412.365L343.233 420.668Z" fill="white" stroke="black" stroke-width="1.7999" stroke-miterlimit="10" stroke-linecap="round" stroke-linejoin="round"/>
<path fill-rule="evenodd" clip-rule="evenodd" d="M376.275 563.978L359.41 607.221L432.924 608L421.508 594.075L421.681 567.178L376.275 563.978Z" fill="white"/>
<path d="M376.275 563.978L359.41 607.221L432.924 608L421.508 594.075L421.681 567.178L376.275 563.978Z" stroke="black" stroke-width="1.7999" stroke-miterlimit="10" stroke-linecap="round" stroke-linejoin="round"/>
<path fill-rule="evenodd" clip-rule="evenodd" d="M347.388 427.067C347.388 427.067 440.362 417.381 467.779 449.467C482.914 467.111 475.649 504.041 430.416 575.912L366.07 571.415C366.07 571.415 412.427 514.16 399.973 495.392C392.275 483.716 355.518 494.181 332.167 479.392C299.388 458.635 299.215 434.419 299.215 434.419" fill="white"/>
<path d="M347.388 427.067C347.388 427.067 440.362 417.381 467.779 449.467C482.914 467.111 475.649 504.041 430.416 575.912L366.07 571.415C366.07 571.415 412.427 514.16 399.973 495.392C392.275 483.716 355.518 494.181 332.167 479.392C299.388 458.635 299.215 434.419 299.215 434.419" stroke="black" stroke-width="1.7999" stroke-miterlimit="10" stroke-linecap="round" stroke-linejoin="round"/>
<path fill-rule="evenodd" clip-rule="evenodd" d="M284.336 326.829L287.968 354.332L307.082 338.245L295.406 322.072L284.336 326.829Z" fill="white" stroke="black" stroke-width="1.7999" stroke-miterlimit="10" stroke-linecap="round" stroke-linejoin="round"/>
<path fill-rule="evenodd" clip-rule="evenodd" d="M297.656 307.542L305.354 310.829L303.278 315.066L297.656 307.542Z" fill="white" stroke="black" stroke-width="1.7999" stroke-miterlimit="10" stroke-linecap="round" stroke-linejoin="round"/>
<path fill-rule="evenodd" clip-rule="evenodd" d="M277.419 305.812C280.879 300.883 289.614 301.056 296.879 306.158C304.144 311.261 307.257 319.391 303.884 324.321C300.425 329.251 291.69 329.078 284.425 323.975C277.073 318.872 273.96 310.742 277.419 305.812Z" fill="white" stroke="black" stroke-width="1.7999" stroke-miterlimit="10" stroke-linecap="round" stroke-linejoin="round"/>
<path fill-rule="evenodd" clip-rule="evenodd" d="M289.526 286.699C296.186 289.899 299.213 297.25 296.445 303.045C293.591 308.839 285.98 311.002 279.321 307.802C272.661 304.602 269.634 297.25 272.402 291.456C275.256 285.661 282.953 283.499 289.526 286.699Z" fill="black"/>
<path fill-rule="evenodd" clip-rule="evenodd" d="M296.966 310.223C298.004 310.915 298.523 311.953 298.177 312.385C297.831 312.818 296.793 312.645 295.755 311.953C294.717 311.261 294.198 310.223 294.544 309.791C294.804 309.272 295.928 309.445 296.966 310.223Z" fill="black"/>
<path fill-rule="evenodd" clip-rule="evenodd" d="M267.213 314.374C268.943 309.617 273.526 306.85 277.332 308.32C281.137 309.704 282.867 314.807 281.051 319.563C279.321 324.32 274.737 327.088 270.932 325.618C267.126 324.234 265.397 319.131 267.213 314.374Z" fill="black"/>
<path fill-rule="evenodd" clip-rule="evenodd" d="M272.578 304.342C274.999 299.585 280.707 297.596 285.378 299.931C290.048 302.266 291.951 308.061 289.529 312.818C287.107 317.574 281.399 319.564 276.729 317.229C272.059 314.893 270.156 309.099 272.578 304.342Z" fill="black"/>
<path fill-rule="evenodd" clip-rule="evenodd" d="M269.287 305.207C270.239 302.699 274.39 302.007 278.541 303.65C282.693 305.293 285.201 308.666 284.249 311.088C283.298 313.596 279.147 314.288 274.995 312.645C270.844 311.088 268.336 307.715 269.287 305.207Z" fill="black"/>
<path fill-rule="evenodd" clip-rule="evenodd" d="M278.281 312.127C282 310.743 286.411 313.251 288.054 317.748C289.698 322.246 288.054 327.002 284.335 328.386C280.616 329.77 276.206 327.262 274.562 322.765C272.919 318.354 274.562 313.51 278.281 312.127Z" fill="black"/>
<path fill-rule="evenodd" clip-rule="evenodd" d="M291.34 326.829C289.87 328.991 286.497 329.25 283.816 327.348C281.221 325.532 280.27 322.245 281.74 320.083C283.21 317.921 286.41 317.402 289.005 319.304" fill="white"/>
<path d="M291.34 326.829C289.87 328.991 286.497 329.25 283.816 327.348C281.221 325.532 280.27 322.245 281.74 320.083C283.21 317.921 286.41 317.402 289.005 319.304" stroke="black" stroke-width="1.7999" stroke-miterlimit="10" stroke-linecap="round" stroke-linejoin="round"/>
<path fill-rule="evenodd" clip-rule="evenodd" d="M321.523 324.666C321.523 324.666 344.183 298.72 372.465 271.649C401.87 243.454 414.584 233.681 426.346 223.735C437.071 214.74 452.465 210.935 444.249 231.865C432.919 260.838 424.789 244.232 416.919 266.287C408.443 289.984 379.384 338.504 358.108 351.736" fill="white"/>
<path d="M321.523 324.666C321.523 324.666 344.183 298.72 372.465 271.649C401.87 243.454 414.584 233.681 426.346 223.735C437.071 214.74 452.465 210.935 444.249 231.865C432.919 260.838 424.789 244.232 416.919 266.287C408.443 289.984 379.384 338.504 358.108 351.736" stroke="black" stroke-width="1.7999" stroke-miterlimit="10" stroke-linecap="round" stroke-linejoin="round"/>
<path fill-rule="evenodd" clip-rule="evenodd" d="M305.007 362.461C325.245 389.099 377.224 349.921 377.224 349.921L334.759 305.12C334.759 305.12 290.736 343.607 305.007 362.461Z" fill="white" stroke="black" stroke-width="1.7999" stroke-miterlimit="10" stroke-linecap="round" stroke-linejoin="round"/>
<path fill-rule="evenodd" clip-rule="evenodd" d="M279.229 341.445C279.229 341.445 292.115 390.051 278.277 442.895L373.673 425.77C373.673 425.77 365.889 360.472 310.97 335.045L279.229 341.445Z" fill="white" stroke="black" stroke-width="1.7999" stroke-miterlimit="10" stroke-linecap="round" stroke-linejoin="round"/>
<path fill-rule="evenodd" clip-rule="evenodd" d="M243.771 372.754C243.771 372.754 214.625 403.197 230.798 418.506C250.863 437.447 271.62 418.333 271.62 418.333" fill="white"/>
<path d="M243.771 372.754C243.771 372.754 214.625 403.197 230.798 418.506C250.863 437.447 271.62 418.333 271.62 418.333" stroke="black" stroke-width="1.7999" stroke-miterlimit="10" stroke-linecap="round" stroke-linejoin="round"/>
<path fill-rule="evenodd" clip-rule="evenodd" d="M294.54 347.672C319.881 369.553 275.772 415.478 275.772 415.478L235.469 373.878C235.469 373.878 242.388 366.872 251.815 359.694C265.307 349.315 283.988 338.591 294.54 347.672Z" fill="white" stroke="black" stroke-width="1.7999" stroke-miterlimit="10" stroke-linecap="round" stroke-linejoin="round"/>
<path fill-rule="evenodd" clip-rule="evenodd" d="M239.277 384.17C260.553 366.181 291.862 343.348 304.921 334.007C312.446 328.645 317.462 325.358 318.413 324.753C330.522 317.748 345.051 314.115 335.538 334.526C320.403 366.786 315.819 345.683 306.824 367.305C294.629 396.797 275.948 424.214 253.115 426.635" fill="white"/>
<path d="M239.277 384.17C260.553 366.181 291.862 343.348 304.921 334.007C312.446 328.645 317.462 325.358 318.413 324.753C330.522 317.748 345.051 314.115 335.538 334.526C320.403 366.786 315.819 345.683 306.824 367.305C294.629 396.797 275.948 424.214 253.115 426.635" stroke="black" stroke-width="1.7999" stroke-miterlimit="10" stroke-linecap="round" stroke-linejoin="round"/>
<rect x="58.5" y="48.5" width="243" height="28" rx="14" fill="#ECEDFF"/>
<rect x="58.5" y="48.5" width="243" height="28" rx="14" stroke="#CED7F2"/>
<path d="M88.142 57.242L84.46 67H82.99L79.308 57.242H80.666L83.732 65.656L86.798 57.242H88.142ZM92.8849 67.126C92.1663 67.126 91.5129 66.9627 90.9249 66.636C90.3463 66.3093 89.8889 65.8473 89.5529 65.25C89.2263 64.6433 89.0629 63.9433 89.0629 63.15C89.0629 62.366 89.2309 61.6753 89.5669 61.078C89.9123 60.4713 90.3789 60.0093 90.9669 59.692C91.5549 59.3653 92.2129 59.202 92.9409 59.202C93.6689 59.202 94.3269 59.3653 94.9149 59.692C95.5029 60.0093 95.9649 60.4667 96.3009 61.064C96.6463 61.6613 96.8189 62.3567 96.8189 63.15C96.8189 63.9433 96.6416 64.6433 96.2869 65.25C95.9416 65.8473 95.4703 66.3093 94.8729 66.636C94.2756 66.9627 93.6129 67.126 92.8849 67.126ZM92.8849 66.006C93.3423 66.006 93.7716 65.8987 94.1729 65.684C94.5743 65.4693 94.8963 65.1473 95.1389 64.718C95.3909 64.2887 95.5169 63.766 95.5169 63.15C95.5169 62.534 95.3956 62.0113 95.1529 61.582C94.9103 61.1527 94.5929 60.8353 94.2009 60.63C93.8089 60.4153 93.3843 60.308 92.9269 60.308C92.4603 60.308 92.0309 60.4153 91.6389 60.63C91.2563 60.8353 90.9483 61.1527 90.7149 61.582C90.4816 62.0113 90.3649 62.534 90.3649 63.15C90.3649 63.7753 90.4769 64.3027 90.7009 64.732C90.9343 65.1613 91.2423 65.4833 91.6249 65.698C92.0076 65.9033 92.4276 66.006 92.8849 66.006ZM98.018 63.15C98.018 62.3567 98.1767 61.666 98.494 61.078C98.8113 60.4807 99.25 60.0187 99.81 59.692C100.379 59.3653 101.028 59.202 101.756 59.202C102.699 59.202 103.473 59.4307 104.08 59.888C104.696 60.3453 105.102 60.98 105.298 61.792H103.926C103.795 61.3253 103.539 60.9567 103.156 60.686C102.783 60.4153 102.316 60.28 101.756 60.28C101.028 60.28 100.44 60.532 99.992 61.036C99.544 61.5307 99.32 62.2353 99.32 63.15C99.32 64.074 99.544 64.788 99.992 65.292C100.44 65.796 101.028 66.048 101.756 66.048C102.316 66.048 102.783 65.9173 103.156 65.656C103.529 65.3947 103.786 65.0213 103.926 64.536H105.298C105.093 65.32 104.682 65.95 104.066 66.426C103.45 66.8927 102.68 67.126 101.756 67.126C101.028 67.126 100.379 66.9627 99.81 66.636C99.25 66.3093 98.8113 65.8473 98.494 65.25C98.1767 64.6527 98.018 63.9527 98.018 63.15ZM106.522 63.136C106.522 62.352 106.681 61.666 106.998 61.078C107.315 60.4807 107.749 60.0187 108.3 59.692C108.86 59.3653 109.481 59.202 110.162 59.202C110.834 59.202 111.417 59.3467 111.912 59.636C112.407 59.9253 112.775 60.2893 113.018 60.728V59.328H114.306V67H113.018V65.572C112.766 66.02 112.388 66.3933 111.884 66.692C111.389 66.9813 110.811 67.126 110.148 67.126C109.467 67.126 108.851 66.958 108.3 66.622C107.749 66.286 107.315 65.8147 106.998 65.208C106.681 64.6013 106.522 63.9107 106.522 63.136ZM113.018 63.15C113.018 62.5713 112.901 62.0673 112.668 61.638C112.435 61.2087 112.117 60.882 111.716 60.658C111.324 60.4247 110.89 60.308 110.414 60.308C109.938 60.308 109.504 60.42 109.112 60.644C108.72 60.868 108.407 61.1947 108.174 61.624C107.941 62.0533 107.824 62.5573 107.824 63.136C107.824 63.724 107.941 64.2373 108.174 64.676C108.407 65.1053 108.72 65.4367 109.112 65.67C109.504 65.894 109.938 66.006 110.414 66.006C110.89 66.006 111.324 65.894 111.716 65.67C112.117 65.4367 112.435 65.1053 112.668 64.676C112.901 64.2373 113.018 63.7287 113.018 63.15ZM117.733 60.756C117.994 60.2987 118.377 59.9253 118.881 59.636C119.385 59.3467 119.959 59.202 120.603 59.202C121.294 59.202 121.914 59.3653 122.465 59.692C123.016 60.0187 123.45 60.4807 123.767 61.078C124.084 61.666 124.243 62.352 124.243 63.136C124.243 63.9107 124.084 64.6013 123.767 65.208C123.45 65.8147 123.011 66.286 122.451 66.622C121.9 66.958 121.284 67.126 120.603 67.126C119.94 67.126 119.357 66.9813 118.853 66.692C118.358 66.4027 117.985 66.034 117.733 65.586V67H116.459V56.64H117.733V60.756ZM122.941 63.136C122.941 62.5573 122.824 62.0533 122.591 61.624C122.358 61.1947 122.04 60.868 121.639 60.644C121.247 60.42 120.813 60.308 120.337 60.308C119.87 60.308 119.436 60.4247 119.035 60.658C118.643 60.882 118.326 61.2133 118.083 61.652C117.85 62.0813 117.733 62.5807 117.733 63.15C117.733 63.7287 117.85 64.2373 118.083 64.676C118.326 65.1053 118.643 65.4367 119.035 65.67C119.436 65.894 119.87 66.006 120.337 66.006C120.813 66.006 121.247 65.894 121.639 65.67C122.04 65.4367 122.358 65.1053 122.591 64.676C122.824 64.2373 122.941 63.724 122.941 63.136ZM132.724 59.328V67H131.45V65.866C131.207 66.258 130.866 66.566 130.428 66.79C129.998 67.0047 129.522 67.112 129 67.112C128.402 67.112 127.866 66.9907 127.39 66.748C126.914 66.496 126.536 66.1227 126.256 65.628C125.985 65.1333 125.85 64.5313 125.85 63.822V59.328H127.11V63.654C127.11 64.41 127.301 64.9933 127.684 65.404C128.066 65.8053 128.589 66.006 129.252 66.006C129.933 66.006 130.47 65.796 130.862 65.376C131.254 64.956 131.45 64.3447 131.45 63.542V59.328H132.724ZM136.149 56.64V67H134.875V56.64H136.149ZM137.844 63.136C137.844 62.352 138.003 61.666 138.32 61.078C138.638 60.4807 139.072 60.0187 139.622 59.692C140.182 59.3653 140.803 59.202 141.484 59.202C142.156 59.202 142.74 59.3467 143.234 59.636C143.729 59.9253 144.098 60.2893 144.34 60.728V59.328H145.628V67H144.34V65.572C144.088 66.02 143.71 66.3933 143.206 66.692C142.712 66.9813 142.133 67.126 141.47 67.126C140.789 67.126 140.173 66.958 139.622 66.622C139.072 66.286 138.638 65.8147 138.32 65.208C138.003 64.6013 137.844 63.9107 137.844 63.136ZM144.34 63.15C144.34 62.5713 144.224 62.0673 143.99 61.638C143.757 61.2087 143.44 60.882 143.038 60.658C142.646 60.4247 142.212 60.308 141.736 60.308C141.26 60.308 140.826 60.42 140.434 60.644C140.042 60.868 139.73 61.1947 139.496 61.624C139.263 62.0533 139.146 62.5573 139.146 63.136C139.146 63.724 139.263 64.2373 139.496 64.676C139.73 65.1053 140.042 65.4367 140.434 65.67C140.826 65.894 141.26 66.006 141.736 66.006C142.212 66.006 142.646 65.894 143.038 65.67C143.44 65.4367 143.757 65.1053 143.99 64.676C144.224 64.2373 144.34 63.7287 144.34 63.15ZM149.055 60.574C149.279 60.1353 149.596 59.7947 150.007 59.552C150.427 59.3093 150.936 59.188 151.533 59.188V60.504H151.197C149.769 60.504 149.055 61.2787 149.055 62.828V67H147.781V59.328H149.055V60.574ZM159.612 59.328L154.992 70.612H153.676L155.188 66.916L152.094 59.328H153.508L155.916 65.544L158.296 59.328H159.612ZM165.899 58.278V61.54H169.455V62.59H165.899V65.95H169.875V67H164.625V57.228H169.875V58.278H165.899ZM175.541 59.188C176.474 59.188 177.23 59.4727 177.809 60.042C178.387 60.602 178.677 61.414 178.677 62.478V67H177.417V62.66C177.417 61.8947 177.225 61.3113 176.843 60.91C176.46 60.4993 175.937 60.294 175.275 60.294C174.603 60.294 174.066 60.504 173.665 60.924C173.273 61.344 173.077 61.9553 173.077 62.758V67H171.803V59.328H173.077V60.42C173.329 60.028 173.669 59.7247 174.099 59.51C174.537 59.2953 175.018 59.188 175.541 59.188ZM184.566 59.188C185.144 59.188 185.667 59.314 186.134 59.566C186.6 59.8087 186.964 60.1773 187.226 60.672C187.496 61.1667 187.632 61.7687 187.632 62.478V67H186.372V62.66C186.372 61.8947 186.18 61.3113 185.798 60.91C185.415 60.4993 184.892 60.294 184.23 60.294C183.558 60.294 183.021 60.504 182.62 60.924C182.228 61.344 182.032 61.9553 182.032 62.758V67H180.758V56.64H182.032V60.42C182.284 60.028 182.629 59.7247 183.068 59.51C183.516 59.2953 184.015 59.188 184.566 59.188ZM189.237 63.136C189.237 62.352 189.395 61.666 189.713 61.078C190.03 60.4807 190.464 60.0187 191.015 59.692C191.575 59.3653 192.195 59.202 192.877 59.202C193.549 59.202 194.132 59.3467 194.627 59.636C195.121 59.9253 195.49 60.2893 195.733 60.728V59.328H197.021V67H195.733V65.572C195.481 66.02 195.103 66.3933 194.599 66.692C194.104 66.9813 193.525 67.126 192.863 67.126C192.181 67.126 191.565 66.958 191.015 66.622C190.464 66.286 190.03 65.8147 189.713 65.208C189.395 64.6013 189.237 63.9107 189.237 63.136ZM195.733 63.15C195.733 62.5713 195.616 62.0673 195.383 61.638C195.149 61.2087 194.832 60.882 194.431 60.658C194.039 60.4247 193.605 60.308 193.129 60.308C192.653 60.308 192.219 60.42 191.827 60.644C191.435 60.868 191.122 61.1947 190.889 61.624C190.655 62.0533 190.539 62.5573 190.539 63.136C190.539 63.724 190.655 64.2373 190.889 64.676C191.122 65.1053 191.435 65.4367 191.827 65.67C192.219 65.894 192.653 66.006 193.129 66.006C193.605 66.006 194.039 65.894 194.431 65.67C194.832 65.4367 195.149 65.1053 195.383 64.676C195.616 64.2373 195.733 63.7287 195.733 63.15ZM202.912 59.188C203.845 59.188 204.601 59.4727 205.18 60.042C205.758 60.602 206.048 61.414 206.048 62.478V67H204.788V62.66C204.788 61.8947 204.596 61.3113 204.214 60.91C203.831 60.4993 203.308 60.294 202.646 60.294C201.974 60.294 201.437 60.504 201.036 60.924C200.644 61.344 200.448 61.9553 200.448 62.758V67H199.174V59.328H200.448V60.42C200.7 60.028 201.04 59.7247 201.47 59.51C201.908 59.2953 202.389 59.188 202.912 59.188ZM207.653 63.15C207.653 62.3567 207.811 61.666 208.129 61.078C208.446 60.4807 208.885 60.0187 209.445 59.692C210.014 59.3653 210.663 59.202 211.391 59.202C212.333 59.202 213.108 59.4307 213.715 59.888C214.331 60.3453 214.737 60.98 214.933 61.792H213.561C213.43 61.3253 213.173 60.9567 212.791 60.686C212.417 60.4153 211.951 60.28 211.391 60.28C210.663 60.28 210.075 60.532 209.627 61.036C209.179 61.5307 208.955 62.2353 208.955 63.15C208.955 64.074 209.179 64.788 209.627 65.292C210.075 65.796 210.663 66.048 211.391 66.048C211.951 66.048 212.417 65.9173 212.791 65.656C213.164 65.3947 213.421 65.0213 213.561 64.536H214.933C214.727 65.32 214.317 65.95 213.701 66.426C213.085 66.8927 212.315 67.126 211.391 67.126C210.663 67.126 210.014 66.9627 209.445 66.636C208.885 66.3093 208.446 65.8473 208.129 65.25C207.811 64.6527 207.653 63.9527 207.653 63.15ZM223.633 62.87C223.633 63.1127 223.619 63.3693 223.591 63.64H217.459C217.505 64.396 217.762 64.9887 218.229 65.418C218.705 65.838 219.279 66.048 219.951 66.048C220.501 66.048 220.959 65.922 221.323 65.67C221.696 65.4087 221.957 65.0633 222.107 64.634H223.479C223.273 65.3713 222.863 65.9733 222.247 66.44C221.631 66.8973 220.865 67.126 219.951 67.126C219.223 67.126 218.569 66.9627 217.991 66.636C217.421 66.3093 216.973 65.8473 216.647 65.25C216.32 64.6433 216.157 63.9433 216.157 63.15C216.157 62.3567 216.315 61.6613 216.633 61.064C216.95 60.4667 217.393 60.0093 217.963 59.692C218.541 59.3653 219.204 59.202 219.951 59.202C220.679 59.202 221.323 59.3607 221.883 59.678C222.443 59.9953 222.872 60.434 223.171 60.994C223.479 61.5447 223.633 62.17 223.633 62.87ZM222.317 62.604C222.317 62.1187 222.209 61.7033 221.995 61.358C221.78 61.0033 221.486 60.7373 221.113 60.56C220.749 60.3733 220.343 60.28 219.895 60.28C219.251 60.28 218.7 60.4853 218.243 60.896C217.795 61.3067 217.538 61.876 217.473 62.604H222.317ZM234.54 59.188C235.138 59.188 235.67 59.314 236.136 59.566C236.603 59.8087 236.972 60.1773 237.242 60.672C237.513 61.1667 237.648 61.7687 237.648 62.478V67H236.388V62.66C236.388 61.8947 236.197 61.3113 235.814 60.91C235.441 60.4993 234.932 60.294 234.288 60.294C233.626 60.294 233.098 60.5087 232.706 60.938C232.314 61.358 232.118 61.9693 232.118 62.772V67H230.858V62.66C230.858 61.8947 230.667 61.3113 230.284 60.91C229.911 60.4993 229.402 60.294 228.758 60.294C228.096 60.294 227.568 60.5087 227.176 60.938C226.784 61.358 226.588 61.9693 226.588 62.772V67H225.314V59.328H226.588V60.434C226.84 60.0327 227.176 59.7247 227.596 59.51C228.026 59.2953 228.497 59.188 229.01 59.188C229.654 59.188 230.224 59.3327 230.718 59.622C231.213 59.9113 231.582 60.336 231.824 60.896C232.039 60.3547 232.394 59.9347 232.888 59.636C233.383 59.3373 233.934 59.188 234.54 59.188ZM246.738 62.87C246.738 63.1127 246.724 63.3693 246.696 63.64H240.564C240.611 64.396 240.867 64.9887 241.334 65.418C241.81 65.838 242.384 66.048 243.056 66.048C243.607 66.048 244.064 65.922 244.428 65.67C244.801 65.4087 245.063 65.0633 245.212 64.634H246.584C246.379 65.3713 245.968 65.9733 245.352 66.44C244.736 66.8973 243.971 67.126 243.056 67.126C242.328 67.126 241.675 66.9627 241.096 66.636C240.527 66.3093 240.079 65.8473 239.752 65.25C239.425 64.6433 239.262 63.9433 239.262 63.15C239.262 62.3567 239.421 61.6613 239.738 61.064C240.055 60.4667 240.499 60.0093 241.068 59.692C241.647 59.3653 242.309 59.202 243.056 59.202C243.784 59.202 244.428 59.3607 244.988 59.678C245.548 59.9953 245.977 60.434 246.276 60.994C246.584 61.5447 246.738 62.17 246.738 62.87ZM245.422 62.604C245.422 62.1187 245.315 61.7033 245.1 61.358C244.885 61.0033 244.591 60.7373 244.218 60.56C243.854 60.3733 243.448 60.28 243 60.28C242.356 60.28 241.805 60.4853 241.348 60.896C240.9 61.3067 240.643 61.876 240.578 62.604H245.422ZM252.158 59.188C253.091 59.188 253.847 59.4727 254.426 60.042C255.004 60.602 255.294 61.414 255.294 62.478V67H254.034V62.66C254.034 61.8947 253.842 61.3113 253.46 60.91C253.077 60.4993 252.554 60.294 251.892 60.294C251.22 60.294 250.683 60.504 250.282 60.924C249.89 61.344 249.694 61.9553 249.694 62.758V67H248.42V59.328H249.694V60.42C249.946 60.028 250.286 59.7247 250.716 59.51C251.154 59.2953 251.635 59.188 252.158 59.188ZM258.929 60.378V64.9C258.929 65.2733 259.008 65.5393 259.167 65.698C259.326 65.8473 259.601 65.922 259.993 65.922H260.931V67H259.783C259.074 67 258.542 66.8367 258.187 66.51C257.832 66.1833 257.655 65.6467 257.655 64.9V60.378H256.661V59.328H257.655V57.396H258.929V59.328H260.931V60.378H258.929Z" fill="#8652DB"/>
<rect x="58.5" y="183.5" width="125" height="28" rx="14" fill="#ECEDFF"/>
<rect x="58.5" y="183.5" width="125" height="28" rx="14" stroke="#CED7F2"/>
<path d="M81.352 200.964H84.768V202H80.078V192.242H81.352V200.964ZM89.467 202.126C88.7483 202.126 88.095 201.963 87.507 201.636C86.9283 201.309 86.471 200.847 86.135 200.25C85.8083 199.643 85.645 198.943 85.645 198.15C85.645 197.366 85.813 196.675 86.149 196.078C86.4943 195.471 86.961 195.009 87.549 194.692C88.137 194.365 88.795 194.202 89.523 194.202C90.251 194.202 90.909 194.365 91.497 194.692C92.085 195.009 92.547 195.467 92.883 196.064C93.2283 196.661 93.401 197.357 93.401 198.15C93.401 198.943 93.2236 199.643 92.869 200.25C92.5236 200.847 92.0523 201.309 91.455 201.636C90.8576 201.963 90.195 202.126 89.467 202.126ZM89.467 201.006C89.9243 201.006 90.3536 200.899 90.755 200.684C91.1563 200.469 91.4783 200.147 91.721 199.718C91.973 199.289 92.099 198.766 92.099 198.15C92.099 197.534 91.9776 197.011 91.735 196.582C91.4923 196.153 91.175 195.835 90.783 195.63C90.391 195.415 89.9663 195.308 89.509 195.308C89.0423 195.308 88.613 195.415 88.221 195.63C87.8383 195.835 87.5303 196.153 87.297 196.582C87.0636 197.011 86.947 197.534 86.947 198.15C86.947 198.775 87.059 199.303 87.283 199.732C87.5163 200.161 87.8243 200.483 88.207 200.698C88.5896 200.903 89.0096 201.006 89.467 201.006ZM98.24 194.202C98.9027 194.202 99.4814 194.347 99.976 194.636C100.48 194.925 100.853 195.289 101.096 195.728V194.328H102.384V202.168C102.384 202.868 102.235 203.489 101.936 204.03C101.637 204.581 101.208 205.01 100.648 205.318C100.097 205.626 99.4534 205.78 98.716 205.78C97.708 205.78 96.868 205.542 96.196 205.066C95.524 204.59 95.1274 203.941 95.006 203.12H96.266C96.406 203.587 96.6954 203.96 97.134 204.24C97.5727 204.529 98.1 204.674 98.716 204.674C99.416 204.674 99.9854 204.455 100.424 204.016C100.872 203.577 101.096 202.961 101.096 202.168V200.558C100.844 201.006 100.471 201.379 99.976 201.678C99.4814 201.977 98.9027 202.126 98.24 202.126C97.5587 202.126 96.938 201.958 96.378 201.622C95.8274 201.286 95.3934 200.815 95.076 200.208C94.7587 199.601 94.6 198.911 94.6 198.136C94.6 197.352 94.7587 196.666 95.076 196.078C95.3934 195.481 95.8274 195.019 96.378 194.692C96.938 194.365 97.5587 194.202 98.24 194.202ZM101.096 198.15C101.096 197.571 100.979 197.067 100.746 196.638C100.513 196.209 100.195 195.882 99.794 195.658C99.402 195.425 98.968 195.308 98.492 195.308C98.016 195.308 97.582 195.42 97.19 195.644C96.798 195.868 96.4854 196.195 96.252 196.624C96.0187 197.053 95.902 197.557 95.902 198.136C95.902 198.724 96.0187 199.237 96.252 199.676C96.4854 200.105 96.798 200.437 97.19 200.67C97.582 200.894 98.016 201.006 98.492 201.006C98.968 201.006 99.402 200.894 99.794 200.67C100.195 200.437 100.513 200.105 100.746 199.676C100.979 199.237 101.096 198.729 101.096 198.15ZM105.195 193.082C104.952 193.082 104.747 192.998 104.579 192.83C104.411 192.662 104.327 192.457 104.327 192.214C104.327 191.971 104.411 191.766 104.579 191.598C104.747 191.43 104.952 191.346 105.195 191.346C105.428 191.346 105.624 191.43 105.783 191.598C105.951 191.766 106.035 191.971 106.035 192.214C106.035 192.457 105.951 192.662 105.783 192.83C105.624 192.998 105.428 193.082 105.195 193.082ZM105.811 194.328V202H104.537V194.328H105.811ZM107.506 198.15C107.506 197.357 107.665 196.666 107.982 196.078C108.3 195.481 108.738 195.019 109.298 194.692C109.868 194.365 110.516 194.202 111.244 194.202C112.187 194.202 112.962 194.431 113.568 194.888C114.184 195.345 114.59 195.98 114.786 196.792H113.414C113.284 196.325 113.027 195.957 112.644 195.686C112.271 195.415 111.804 195.28 111.244 195.28C110.516 195.28 109.928 195.532 109.48 196.036C109.032 196.531 108.808 197.235 108.808 198.15C108.808 199.074 109.032 199.788 109.48 200.292C109.928 200.796 110.516 201.048 111.244 201.048C111.804 201.048 112.271 200.917 112.644 200.656C113.018 200.395 113.274 200.021 113.414 199.536H114.786C114.581 200.32 114.17 200.95 113.554 201.426C112.938 201.893 112.168 202.126 111.244 202.126C110.516 202.126 109.868 201.963 109.298 201.636C108.738 201.309 108.3 200.847 107.982 200.25C107.665 199.653 107.506 198.953 107.506 198.15ZM116.01 198.136C116.01 197.352 116.169 196.666 116.486 196.078C116.804 195.481 117.238 195.019 117.788 194.692C118.348 194.365 118.969 194.202 119.65 194.202C120.322 194.202 120.906 194.347 121.4 194.636C121.895 194.925 122.264 195.289 122.506 195.728V194.328H123.794V202H122.506V200.572C122.254 201.02 121.876 201.393 121.372 201.692C120.878 201.981 120.299 202.126 119.636 202.126C118.955 202.126 118.339 201.958 117.788 201.622C117.238 201.286 116.804 200.815 116.486 200.208C116.169 199.601 116.01 198.911 116.01 198.136ZM122.506 198.15C122.506 197.571 122.39 197.067 122.156 196.638C121.923 196.209 121.606 195.882 121.204 195.658C120.812 195.425 120.378 195.308 119.902 195.308C119.426 195.308 118.992 195.42 118.6 195.644C118.208 195.868 117.896 196.195 117.662 196.624C117.429 197.053 117.312 197.557 117.312 198.136C117.312 198.724 117.429 199.237 117.662 199.676C117.896 200.105 118.208 200.437 118.6 200.67C118.992 200.894 119.426 201.006 119.902 201.006C120.378 201.006 120.812 200.894 121.204 200.67C121.606 200.437 121.923 200.105 122.156 199.676C122.39 199.237 122.506 198.729 122.506 198.15ZM127.221 191.64V202H125.947V191.64H127.221ZM138.641 192.242V193.278H134.399V196.568H137.843V197.604H134.399V202H133.125V192.242H138.641ZM141.454 191.64V202H140.18V191.64H141.454ZM146.971 202.126C146.252 202.126 145.599 201.963 145.011 201.636C144.432 201.309 143.975 200.847 143.639 200.25C143.312 199.643 143.149 198.943 143.149 198.15C143.149 197.366 143.317 196.675 143.653 196.078C143.998 195.471 144.465 195.009 145.053 194.692C145.641 194.365 146.299 194.202 147.027 194.202C147.755 194.202 148.413 194.365 149.001 194.692C149.589 195.009 150.051 195.467 150.387 196.064C150.732 196.661 150.905 197.357 150.905 198.15C150.905 198.943 150.728 199.643 150.373 200.25C150.028 200.847 149.556 201.309 148.959 201.636C148.362 201.963 147.699 202.126 146.971 202.126ZM146.971 201.006C147.428 201.006 147.858 200.899 148.259 200.684C148.66 200.469 148.982 200.147 149.225 199.718C149.477 199.289 149.603 198.766 149.603 198.15C149.603 197.534 149.482 197.011 149.239 196.582C148.996 196.153 148.679 195.835 148.287 195.63C147.895 195.415 147.47 195.308 147.013 195.308C146.546 195.308 146.117 195.415 145.725 195.63C145.342 195.835 145.034 196.153 144.801 196.582C144.568 197.011 144.451 197.534 144.451 198.15C144.451 198.775 144.563 199.303 144.787 199.732C145.02 200.161 145.328 200.483 145.711 200.698C146.094 200.903 146.514 201.006 146.971 201.006ZM162.8 194.328L160.406 202H159.09L157.242 195.91L155.394 202H154.078L151.67 194.328H152.972L154.736 200.768L156.64 194.328H157.942L159.804 200.782L161.54 194.328H162.8Z" fill="#8652DB"/>
<rect x="58.5" y="93.5" width="378" height="28" rx="14" fill="#ECEDFF"/>
<rect x="58.5" y="93.5" width="378" height="28" rx="14" stroke="#CED7F2"/>
<path d="M79.602 107.114C79.602 106.162 79.8167 105.308 80.246 104.552C80.6753 103.787 81.2587 103.189 81.996 102.76C82.7427 102.331 83.5687 102.116 84.474 102.116C85.538 102.116 86.4667 102.373 87.26 102.886C88.0533 103.399 88.632 104.127 88.996 105.07H87.47C87.1993 104.482 86.8073 104.029 86.294 103.712C85.79 103.395 85.1833 103.236 84.474 103.236C83.7927 103.236 83.1813 103.395 82.64 103.712C82.0987 104.029 81.674 104.482 81.366 105.07C81.058 105.649 80.904 106.33 80.904 107.114C80.904 107.889 81.058 108.57 81.366 109.158C81.674 109.737 82.0987 110.185 82.64 110.502C83.1813 110.819 83.7927 110.978 84.474 110.978C85.1833 110.978 85.79 110.824 86.294 110.516C86.8073 110.199 87.1993 109.746 87.47 109.158H88.996C88.632 110.091 88.0533 110.815 87.26 111.328C86.4667 111.832 85.538 112.084 84.474 112.084C83.5687 112.084 82.7427 111.874 81.996 111.454C81.2587 111.025 80.6753 110.432 80.246 109.676C79.8167 108.92 79.602 108.066 79.602 107.114ZM92.1665 101.64V112H90.8925V101.64H92.1665ZM101.338 107.87C101.338 108.113 101.324 108.369 101.296 108.64H95.1638C95.2104 109.396 95.4671 109.989 95.9338 110.418C96.4098 110.838 96.9838 111.048 97.6558 111.048C98.2064 111.048 98.6638 110.922 99.0278 110.67C99.4011 110.409 99.6624 110.063 99.8118 109.634H101.184C100.978 110.371 100.568 110.973 99.9518 111.44C99.3358 111.897 98.5704 112.126 97.6558 112.126C96.9278 112.126 96.2744 111.963 95.6958 111.636C95.1264 111.309 94.6784 110.847 94.3518 110.25C94.0251 109.643 93.8618 108.943 93.8618 108.15C93.8618 107.357 94.0204 106.661 94.3378 106.064C94.6551 105.467 95.0984 105.009 95.6678 104.692C96.2464 104.365 96.9091 104.202 97.6558 104.202C98.3838 104.202 99.0278 104.361 99.5878 104.678C100.148 104.995 100.577 105.434 100.876 105.994C101.184 106.545 101.338 107.17 101.338 107.87ZM100.022 107.604C100.022 107.119 99.9144 106.703 99.6998 106.358C99.4851 106.003 99.1911 105.737 98.8178 105.56C98.4538 105.373 98.0478 105.28 97.5998 105.28C96.9558 105.28 96.4051 105.485 95.9478 105.896C95.4998 106.307 95.2431 106.876 95.1778 107.604H100.022ZM102.543 108.136C102.543 107.352 102.702 106.666 103.019 106.078C103.337 105.481 103.771 105.019 104.321 104.692C104.881 104.365 105.502 104.202 106.183 104.202C106.855 104.202 107.439 104.347 107.933 104.636C108.428 104.925 108.797 105.289 109.039 105.728V104.328H110.327V112H109.039V110.572C108.787 111.02 108.409 111.393 107.905 111.692C107.411 111.981 106.832 112.126 106.169 112.126C105.488 112.126 104.872 111.958 104.321 111.622C103.771 111.286 103.337 110.815 103.019 110.208C102.702 109.601 102.543 108.911 102.543 108.136ZM109.039 108.15C109.039 107.571 108.923 107.067 108.689 106.638C108.456 106.209 108.139 105.882 107.737 105.658C107.345 105.425 106.911 105.308 106.435 105.308C105.959 105.308 105.525 105.42 105.133 105.644C104.741 105.868 104.429 106.195 104.195 106.624C103.962 107.053 103.845 107.557 103.845 108.136C103.845 108.724 103.962 109.237 104.195 109.676C104.429 110.105 104.741 110.437 105.133 110.67C105.525 110.894 105.959 111.006 106.435 111.006C106.911 111.006 107.345 110.894 107.737 110.67C108.139 110.437 108.456 110.105 108.689 109.676C108.923 109.237 109.039 108.729 109.039 108.15ZM113.754 105.574C113.978 105.135 114.296 104.795 114.706 104.552C115.126 104.309 115.635 104.188 116.232 104.188V105.504H115.896C114.468 105.504 113.754 106.279 113.754 107.828V112H112.48V104.328H113.754V105.574ZM118.977 101.64V112H117.703V101.64H118.977ZM127.756 104.328L123.136 115.612H121.82L123.332 111.916L120.238 104.328H121.652L124.06 110.544L126.44 104.328H127.756ZM132.293 108.136C132.293 107.352 132.452 106.666 132.769 106.078C133.087 105.481 133.521 105.019 134.071 104.692C134.631 104.365 135.257 104.202 135.947 104.202C136.545 104.202 137.1 104.342 137.613 104.622C138.127 104.893 138.519 105.252 138.789 105.7V101.64H140.077V112H138.789V110.558C138.537 111.015 138.164 111.393 137.669 111.692C137.175 111.981 136.596 112.126 135.933 112.126C135.252 112.126 134.631 111.958 134.071 111.622C133.521 111.286 133.087 110.815 132.769 110.208C132.452 109.601 132.293 108.911 132.293 108.136ZM138.789 108.15C138.789 107.571 138.673 107.067 138.439 106.638C138.206 106.209 137.889 105.882 137.487 105.658C137.095 105.425 136.661 105.308 136.185 105.308C135.709 105.308 135.275 105.42 134.883 105.644C134.491 105.868 134.179 106.195 133.945 106.624C133.712 107.053 133.595 107.557 133.595 108.136C133.595 108.724 133.712 109.237 133.945 109.676C134.179 110.105 134.491 110.437 134.883 110.67C135.275 110.894 135.709 111.006 136.185 111.006C136.661 111.006 137.095 110.894 137.487 110.67C137.889 110.437 138.206 110.105 138.439 109.676C138.673 109.237 138.789 108.729 138.789 108.15ZM149.23 107.87C149.23 108.113 149.216 108.369 149.188 108.64H143.056C143.103 109.396 143.36 109.989 143.826 110.418C144.302 110.838 144.876 111.048 145.548 111.048C146.099 111.048 146.556 110.922 146.92 110.67C147.294 110.409 147.555 110.063 147.704 109.634H149.076C148.871 110.371 148.46 110.973 147.844 111.44C147.228 111.897 146.463 112.126 145.548 112.126C144.82 112.126 144.167 111.963 143.588 111.636C143.019 111.309 142.571 110.847 142.244 110.25C141.918 109.643 141.754 108.943 141.754 108.15C141.754 107.357 141.913 106.661 142.23 106.064C142.548 105.467 142.991 105.009 143.56 104.692C144.139 104.365 144.802 104.202 145.548 104.202C146.276 104.202 146.92 104.361 147.48 104.678C148.04 104.995 148.47 105.434 148.768 105.994C149.076 106.545 149.23 107.17 149.23 107.87ZM147.914 107.604C147.914 107.119 147.807 106.703 147.592 106.358C147.378 106.003 147.084 105.737 146.71 105.56C146.346 105.373 145.94 105.28 145.492 105.28C144.848 105.28 144.298 105.485 143.84 105.896C143.392 106.307 143.136 106.876 143.07 107.604H147.914ZM154.034 105.378H152.424V112H151.15V105.378H150.156V104.328H151.15V103.782C151.15 102.923 151.369 102.298 151.808 101.906C152.256 101.505 152.97 101.304 153.95 101.304V102.368C153.39 102.368 152.993 102.48 152.76 102.704C152.536 102.919 152.424 103.278 152.424 103.782V104.328H154.034V105.378ZM156.177 103.082C155.935 103.082 155.729 102.998 155.561 102.83C155.393 102.662 155.309 102.457 155.309 102.214C155.309 101.971 155.393 101.766 155.561 101.598C155.729 101.43 155.935 101.346 156.177 101.346C156.411 101.346 156.607 101.43 156.765 101.598C156.933 101.766 157.017 101.971 157.017 102.214C157.017 102.457 156.933 102.662 156.765 102.83C156.607 102.998 156.411 103.082 156.177 103.082ZM156.793 104.328V112H155.519V104.328H156.793ZM162.703 104.188C163.636 104.188 164.392 104.473 164.971 105.042C165.549 105.602 165.839 106.414 165.839 107.478V112H164.579V107.66C164.579 106.895 164.387 106.311 164.005 105.91C163.622 105.499 163.099 105.294 162.437 105.294C161.765 105.294 161.228 105.504 160.827 105.924C160.435 106.344 160.239 106.955 160.239 107.758V112H158.965V104.328H160.239V105.42C160.491 105.028 160.831 104.725 161.261 104.51C161.699 104.295 162.18 104.188 162.703 104.188ZM174.92 107.87C174.92 108.113 174.906 108.369 174.878 108.64H168.746C168.792 109.396 169.049 109.989 169.516 110.418C169.992 110.838 170.566 111.048 171.238 111.048C171.788 111.048 172.246 110.922 172.61 110.67C172.983 110.409 173.244 110.063 173.394 109.634H174.766C174.56 110.371 174.15 110.973 173.534 111.44C172.918 111.897 172.152 112.126 171.238 112.126C170.51 112.126 169.856 111.963 169.278 111.636C168.708 111.309 168.26 110.847 167.934 110.25C167.607 109.643 167.444 108.943 167.444 108.15C167.444 107.357 167.602 106.661 167.92 106.064C168.237 105.467 168.68 105.009 169.25 104.692C169.828 104.365 170.491 104.202 171.238 104.202C171.966 104.202 172.61 104.361 173.17 104.678C173.73 104.995 174.159 105.434 174.458 105.994C174.766 106.545 174.92 107.17 174.92 107.87ZM173.604 107.604C173.604 107.119 173.496 106.703 173.282 106.358C173.067 106.003 172.773 105.737 172.4 105.56C172.036 105.373 171.63 105.28 171.182 105.28C170.538 105.28 169.987 105.485 169.53 105.896C169.082 106.307 168.825 106.876 168.76 107.604H173.604ZM176.125 108.136C176.125 107.352 176.284 106.666 176.601 106.078C176.919 105.481 177.353 105.019 177.903 104.692C178.463 104.365 179.089 104.202 179.779 104.202C180.377 104.202 180.932 104.342 181.445 104.622C181.959 104.893 182.351 105.252 182.621 105.7V101.64H183.909V112H182.621V110.558C182.369 111.015 181.996 111.393 181.501 111.692C181.007 111.981 180.428 112.126 179.765 112.126C179.084 112.126 178.463 111.958 177.903 111.622C177.353 111.286 176.919 110.815 176.601 110.208C176.284 109.601 176.125 108.911 176.125 108.136ZM182.621 108.15C182.621 107.571 182.505 107.067 182.271 106.638C182.038 106.209 181.721 105.882 181.319 105.658C180.927 105.425 180.493 105.308 180.017 105.308C179.541 105.308 179.107 105.42 178.715 105.644C178.323 105.868 178.011 106.195 177.777 106.624C177.544 107.053 177.427 107.557 177.427 108.136C177.427 108.724 177.544 109.237 177.777 109.676C178.011 110.105 178.323 110.437 178.715 110.67C179.107 110.894 179.541 111.006 180.017 111.006C180.493 111.006 180.927 110.894 181.319 110.67C181.721 110.437 182.038 110.105 182.271 109.676C182.505 109.237 182.621 108.729 182.621 108.15ZM189.319 108.136C189.319 107.352 189.477 106.666 189.795 106.078C190.112 105.481 190.546 105.019 191.097 104.692C191.657 104.365 192.277 104.202 192.959 104.202C193.631 104.202 194.214 104.347 194.709 104.636C195.203 104.925 195.572 105.289 195.815 105.728V104.328H197.103V112H195.815V110.572C195.563 111.02 195.185 111.393 194.681 111.692C194.186 111.981 193.607 112.126 192.945 112.126C192.263 112.126 191.647 111.958 191.097 111.622C190.546 111.286 190.112 110.815 189.795 110.208C189.477 109.601 189.319 108.911 189.319 108.136ZM195.815 108.15C195.815 107.571 195.698 107.067 195.465 106.638C195.231 106.209 194.914 105.882 194.513 105.658C194.121 105.425 193.687 105.308 193.211 105.308C192.735 105.308 192.301 105.42 191.909 105.644C191.517 105.868 191.204 106.195 190.971 106.624C190.737 107.053 190.621 107.557 190.621 108.136C190.621 108.724 190.737 109.237 190.971 109.676C191.204 110.105 191.517 110.437 191.909 110.67C192.301 110.894 192.735 111.006 193.211 111.006C193.687 111.006 194.121 110.894 194.513 110.67C194.914 110.437 195.231 110.105 195.465 109.676C195.698 109.237 195.815 108.729 195.815 108.15ZM202.994 104.188C203.927 104.188 204.683 104.473 205.262 105.042C205.84 105.602 206.13 106.414 206.13 107.478V112H204.87V107.66C204.87 106.895 204.678 106.311 204.296 105.91C203.913 105.499 203.39 105.294 202.728 105.294C202.056 105.294 201.519 105.504 201.118 105.924C200.726 106.344 200.53 106.955 200.53 107.758V112H199.256V104.328H200.53V105.42C200.782 105.028 201.122 104.725 201.552 104.51C201.99 104.295 202.471 104.188 202.994 104.188ZM207.735 108.136C207.735 107.352 207.893 106.666 208.211 106.078C208.528 105.481 208.962 105.019 209.513 104.692C210.073 104.365 210.698 104.202 211.389 104.202C211.986 104.202 212.541 104.342 213.055 104.622C213.568 104.893 213.96 105.252 214.231 105.7V101.64H215.519V112H214.231V110.558C213.979 111.015 213.605 111.393 213.111 111.692C212.616 111.981 212.037 112.126 211.375 112.126C210.693 112.126 210.073 111.958 209.513 111.622C208.962 111.286 208.528 110.815 208.211 110.208C207.893 109.601 207.735 108.911 207.735 108.136ZM214.231 108.15C214.231 107.571 214.114 107.067 213.881 106.638C213.647 106.209 213.33 105.882 212.929 105.658C212.537 105.425 212.103 105.308 211.627 105.308C211.151 105.308 210.717 105.42 210.325 105.644C209.933 105.868 209.62 106.195 209.387 106.624C209.153 107.053 209.037 107.557 209.037 108.136C209.037 108.724 209.153 109.237 209.387 109.676C209.62 110.105 209.933 110.437 210.325 110.67C210.717 110.894 211.151 111.006 211.627 111.006C212.103 111.006 212.537 110.894 212.929 110.67C213.33 110.437 213.647 110.105 213.881 109.676C214.114 109.237 214.231 108.729 214.231 108.15ZM220.928 108.136C220.928 107.352 221.087 106.666 221.404 106.078C221.722 105.481 222.156 105.019 222.706 104.692C223.266 104.365 223.887 104.202 224.568 104.202C225.24 104.202 225.824 104.347 226.318 104.636C226.813 104.925 227.182 105.289 227.424 105.728V104.328H228.712V112H227.424V110.572C227.172 111.02 226.794 111.393 226.29 111.692C225.796 111.981 225.217 112.126 224.554 112.126C223.873 112.126 223.257 111.958 222.706 111.622C222.156 111.286 221.722 110.815 221.404 110.208C221.087 109.601 220.928 108.911 220.928 108.136ZM227.424 108.15C227.424 107.571 227.308 107.067 227.074 106.638C226.841 106.209 226.524 105.882 226.122 105.658C225.73 105.425 225.296 105.308 224.82 105.308C224.344 105.308 223.91 105.42 223.518 105.644C223.126 105.868 222.814 106.195 222.58 106.624C222.347 107.053 222.23 107.557 222.23 108.136C222.23 108.724 222.347 109.237 222.58 109.676C222.814 110.105 223.126 110.437 223.518 110.67C223.91 110.894 224.344 111.006 224.82 111.006C225.296 111.006 225.73 110.894 226.122 110.67C226.524 110.437 226.841 110.105 227.074 109.676C227.308 109.237 227.424 108.729 227.424 108.15ZM232.139 105.574C232.363 105.135 232.68 104.795 233.091 104.552C233.511 104.309 234.02 104.188 234.617 104.188V105.504H234.281C232.853 105.504 232.139 106.279 232.139 107.828V112H230.865V104.328H232.139V105.574ZM239.252 104.202C239.914 104.202 240.493 104.347 240.988 104.636C241.492 104.925 241.865 105.289 242.108 105.728V104.328H243.396V112.168C243.396 112.868 243.246 113.489 242.948 114.03C242.649 114.581 242.22 115.01 241.66 115.318C241.109 115.626 240.465 115.78 239.728 115.78C238.72 115.78 237.88 115.542 237.208 115.066C236.536 114.59 236.139 113.941 236.018 113.12H237.278C237.418 113.587 237.707 113.96 238.146 114.24C238.584 114.529 239.112 114.674 239.728 114.674C240.428 114.674 240.997 114.455 241.436 114.016C241.884 113.577 242.108 112.961 242.108 112.168V110.558C241.856 111.006 241.482 111.379 240.988 111.678C240.493 111.977 239.914 112.126 239.252 112.126C238.57 112.126 237.95 111.958 237.39 111.622C236.839 111.286 236.405 110.815 236.088 110.208C235.77 109.601 235.612 108.911 235.612 108.136C235.612 107.352 235.77 106.666 236.088 106.078C236.405 105.481 236.839 105.019 237.39 104.692C237.95 104.365 238.57 104.202 239.252 104.202ZM242.108 108.15C242.108 107.571 241.991 107.067 241.758 106.638C241.524 106.209 241.207 105.882 240.806 105.658C240.414 105.425 239.98 105.308 239.504 105.308C239.028 105.308 238.594 105.42 238.202 105.644C237.81 105.868 237.497 106.195 237.264 106.624C237.03 107.053 236.914 107.557 236.914 108.136C236.914 108.724 237.03 109.237 237.264 109.676C237.497 110.105 237.81 110.437 238.202 110.67C238.594 110.894 239.028 111.006 239.504 111.006C239.98 111.006 240.414 110.894 240.806 110.67C241.207 110.437 241.524 110.105 241.758 109.676C241.991 109.237 242.108 108.729 242.108 108.15ZM252.353 104.328V112H251.079V110.866C250.836 111.258 250.495 111.566 250.057 111.79C249.627 112.005 249.151 112.112 248.629 112.112C248.031 112.112 247.495 111.991 247.019 111.748C246.543 111.496 246.165 111.123 245.885 110.628C245.614 110.133 245.479 109.531 245.479 108.822V104.328H246.739V108.654C246.739 109.41 246.93 109.993 247.313 110.404C247.695 110.805 248.218 111.006 248.881 111.006C249.562 111.006 250.099 110.796 250.491 110.376C250.883 109.956 251.079 109.345 251.079 108.542V104.328H252.353ZM254.028 108.136C254.028 107.352 254.186 106.666 254.504 106.078C254.821 105.481 255.255 105.019 255.806 104.692C256.366 104.365 256.986 104.202 257.668 104.202C258.34 104.202 258.923 104.347 259.418 104.636C259.912 104.925 260.281 105.289 260.524 105.728V104.328H261.812V112H260.524V110.572C260.272 111.02 259.894 111.393 259.39 111.692C258.895 111.981 258.316 112.126 257.654 112.126C256.972 112.126 256.356 111.958 255.806 111.622C255.255 111.286 254.821 110.815 254.504 110.208C254.186 109.601 254.028 108.911 254.028 108.136ZM260.524 108.15C260.524 107.571 260.407 107.067 260.174 106.638C259.94 106.209 259.623 105.882 259.222 105.658C258.83 105.425 258.396 105.308 257.92 105.308C257.444 105.308 257.01 105.42 256.618 105.644C256.226 105.868 255.913 106.195 255.68 106.624C255.446 107.053 255.33 107.557 255.33 108.136C255.33 108.724 255.446 109.237 255.68 109.676C255.913 110.105 256.226 110.437 256.618 110.67C257.01 110.894 257.444 111.006 257.92 111.006C258.396 111.006 258.83 110.894 259.222 110.67C259.623 110.437 259.94 110.105 260.174 109.676C260.407 109.237 260.524 108.729 260.524 108.15ZM265.239 105.756C265.5 105.299 265.883 104.925 266.387 104.636C266.891 104.347 267.465 104.202 268.109 104.202C268.799 104.202 269.42 104.365 269.971 104.692C270.521 105.019 270.955 105.481 271.273 106.078C271.59 106.666 271.749 107.352 271.749 108.136C271.749 108.911 271.59 109.601 271.273 110.208C270.955 110.815 270.517 111.286 269.957 111.622C269.406 111.958 268.79 112.126 268.109 112.126C267.446 112.126 266.863 111.981 266.359 111.692C265.864 111.403 265.491 111.034 265.239 110.586V112H263.965V101.64H265.239V105.756ZM270.447 108.136C270.447 107.557 270.33 107.053 270.097 106.624C269.863 106.195 269.546 105.868 269.145 105.644C268.753 105.42 268.319 105.308 267.843 105.308C267.376 105.308 266.942 105.425 266.541 105.658C266.149 105.882 265.831 106.213 265.589 106.652C265.355 107.081 265.239 107.581 265.239 108.15C265.239 108.729 265.355 109.237 265.589 109.676C265.831 110.105 266.149 110.437 266.541 110.67C266.942 110.894 267.376 111.006 267.843 111.006C268.319 111.006 268.753 110.894 269.145 110.67C269.546 110.437 269.863 110.105 270.097 109.676C270.33 109.237 270.447 108.724 270.447 108.136ZM274.7 101.64V112H273.426V101.64H274.7ZM283.871 107.87C283.871 108.113 283.857 108.369 283.829 108.64H277.697C277.744 109.396 278 109.989 278.467 110.418C278.943 110.838 279.517 111.048 280.189 111.048C280.74 111.048 281.197 110.922 281.561 110.67C281.934 110.409 282.196 110.063 282.345 109.634H283.717C283.512 110.371 283.101 110.973 282.485 111.44C281.869 111.897 281.104 112.126 280.189 112.126C279.461 112.126 278.808 111.963 278.229 111.636C277.66 111.309 277.212 110.847 276.885 110.25C276.558 109.643 276.395 108.943 276.395 108.15C276.395 107.357 276.554 106.661 276.871 106.064C277.188 105.467 277.632 105.009 278.201 104.692C278.78 104.365 279.442 104.202 280.189 104.202C280.917 104.202 281.561 104.361 282.121 104.678C282.681 104.995 283.11 105.434 283.409 105.994C283.717 106.545 283.871 107.17 283.871 107.87ZM282.555 107.604C282.555 107.119 282.448 106.703 282.233 106.358C282.018 106.003 281.724 105.737 281.351 105.56C280.987 105.373 280.581 105.28 280.133 105.28C279.489 105.28 278.938 105.485 278.481 105.896C278.033 106.307 277.776 106.876 277.711 107.604H282.555ZM290.839 105.378V109.9C290.839 110.273 290.918 110.539 291.077 110.698C291.236 110.847 291.511 110.922 291.903 110.922H292.841V112H291.693C290.984 112 290.452 111.837 290.097 111.51C289.742 111.183 289.565 110.647 289.565 109.9V105.378H288.571V104.328H289.565V102.396H290.839V104.328H292.841V105.378H290.839ZM298.193 104.188C298.771 104.188 299.294 104.314 299.761 104.566C300.227 104.809 300.591 105.177 300.853 105.672C301.123 106.167 301.259 106.769 301.259 107.478V112H299.999V107.66C299.999 106.895 299.807 106.311 299.425 105.91C299.042 105.499 298.519 105.294 297.857 105.294C297.185 105.294 296.648 105.504 296.247 105.924C295.855 106.344 295.659 106.955 295.659 107.758V112H294.385V101.64H295.659V105.42C295.911 105.028 296.256 104.725 296.695 104.51C297.143 104.295 297.642 104.188 298.193 104.188ZM310.34 107.87C310.34 108.113 310.326 108.369 310.298 108.64H304.166C304.212 109.396 304.469 109.989 304.936 110.418C305.412 110.838 305.986 111.048 306.658 111.048C307.208 111.048 307.666 110.922 308.03 110.67C308.403 110.409 308.664 110.063 308.814 109.634H310.186C309.98 110.371 309.57 110.973 308.954 111.44C308.338 111.897 307.572 112.126 306.658 112.126C305.93 112.126 305.276 111.963 304.698 111.636C304.128 111.309 303.68 110.847 303.354 110.25C303.027 109.643 302.864 108.943 302.864 108.15C302.864 107.357 303.022 106.661 303.34 106.064C303.657 105.467 304.1 105.009 304.67 104.692C305.248 104.365 305.911 104.202 306.658 104.202C307.386 104.202 308.03 104.361 308.59 104.678C309.15 104.995 309.579 105.434 309.878 105.994C310.186 106.545 310.34 107.17 310.34 107.87ZM309.024 107.604C309.024 107.119 308.916 106.703 308.702 106.358C308.487 106.003 308.193 105.737 307.82 105.56C307.456 105.373 307.05 105.28 306.602 105.28C305.958 105.28 305.407 105.485 304.95 105.896C304.502 106.307 304.245 106.876 304.18 107.604H309.024ZM314.737 112.126C314.149 112.126 313.622 112.028 313.155 111.832C312.689 111.627 312.32 111.347 312.049 110.992C311.779 110.628 311.629 110.213 311.601 109.746H312.917C312.955 110.129 313.132 110.441 313.449 110.684C313.776 110.927 314.201 111.048 314.723 111.048C315.209 111.048 315.591 110.941 315.871 110.726C316.151 110.511 316.291 110.241 316.291 109.914C316.291 109.578 316.142 109.331 315.843 109.172C315.545 109.004 315.083 108.841 314.457 108.682C313.888 108.533 313.421 108.383 313.057 108.234C312.703 108.075 312.395 107.847 312.133 107.548C311.881 107.24 311.755 106.839 311.755 106.344C311.755 105.952 311.872 105.593 312.105 105.266C312.339 104.939 312.67 104.683 313.099 104.496C313.529 104.3 314.019 104.202 314.569 104.202C315.419 104.202 316.105 104.417 316.627 104.846C317.15 105.275 317.43 105.863 317.467 106.61H316.193C316.165 106.209 316.002 105.887 315.703 105.644C315.414 105.401 315.022 105.28 314.527 105.28C314.07 105.28 313.706 105.378 313.435 105.574C313.165 105.77 313.029 106.027 313.029 106.344C313.029 106.596 313.109 106.806 313.267 106.974C313.435 107.133 313.641 107.263 313.883 107.366C314.135 107.459 314.481 107.567 314.919 107.688C315.47 107.837 315.918 107.987 316.263 108.136C316.609 108.276 316.903 108.491 317.145 108.78C317.397 109.069 317.528 109.447 317.537 109.914C317.537 110.334 317.421 110.712 317.187 111.048C316.954 111.384 316.623 111.65 316.193 111.846C315.773 112.033 315.288 112.126 314.737 112.126ZM319.994 103.082C319.751 103.082 319.546 102.998 319.378 102.83C319.21 102.662 319.126 102.457 319.126 102.214C319.126 101.971 319.21 101.766 319.378 101.598C319.546 101.43 319.751 101.346 319.994 101.346C320.227 101.346 320.423 101.43 320.582 101.598C320.75 101.766 320.834 101.971 320.834 102.214C320.834 102.457 320.75 102.662 320.582 102.83C320.423 102.998 320.227 103.082 319.994 103.082ZM320.61 104.328V112H319.336V104.328H320.61ZM325.497 112.126C324.909 112.126 324.382 112.028 323.915 111.832C323.448 111.627 323.08 111.347 322.809 110.992C322.538 110.628 322.389 110.213 322.361 109.746H323.677C323.714 110.129 323.892 110.441 324.209 110.684C324.536 110.927 324.96 111.048 325.483 111.048C325.968 111.048 326.351 110.941 326.631 110.726C326.911 110.511 327.051 110.241 327.051 109.914C327.051 109.578 326.902 109.331 326.603 109.172C326.304 109.004 325.842 108.841 325.217 108.682C324.648 108.533 324.181 108.383 323.817 108.234C323.462 108.075 323.154 107.847 322.893 107.548C322.641 107.24 322.515 106.839 322.515 106.344C322.515 105.952 322.632 105.593 322.865 105.266C323.098 104.939 323.43 104.683 323.859 104.496C324.288 104.3 324.778 104.202 325.329 104.202C326.178 104.202 326.864 104.417 327.387 104.846C327.91 105.275 328.19 105.863 328.227 106.61H326.953C326.925 106.209 326.762 105.887 326.463 105.644C326.174 105.401 325.782 105.28 325.287 105.28C324.83 105.28 324.466 105.378 324.195 105.574C323.924 105.77 323.789 106.027 323.789 106.344C323.789 106.596 323.868 106.806 324.027 106.974C324.195 107.133 324.4 107.263 324.643 107.366C324.895 107.459 325.24 107.567 325.679 107.688C326.23 107.837 326.678 107.987 327.023 108.136C327.368 108.276 327.662 108.491 327.905 108.78C328.157 109.069 328.288 109.447 328.297 109.914C328.297 110.334 328.18 110.712 327.947 111.048C327.714 111.384 327.382 111.65 326.953 111.846C326.533 112.033 326.048 112.126 325.497 112.126ZM336.544 112.126C335.956 112.126 335.429 112.028 334.962 111.832C334.495 111.627 334.127 111.347 333.856 110.992C333.585 110.628 333.436 110.213 333.408 109.746H334.724C334.761 110.129 334.939 110.441 335.256 110.684C335.583 110.927 336.007 111.048 336.53 111.048C337.015 111.048 337.398 110.941 337.678 110.726C337.958 110.511 338.098 110.241 338.098 109.914C338.098 109.578 337.949 109.331 337.65 109.172C337.351 109.004 336.889 108.841 336.264 108.682C335.695 108.533 335.228 108.383 334.864 108.234C334.509 108.075 334.201 107.847 333.94 107.548C333.688 107.24 333.562 106.839 333.562 106.344C333.562 105.952 333.679 105.593 333.912 105.266C334.145 104.939 334.477 104.683 334.906 104.496C335.335 104.3 335.825 104.202 336.376 104.202C337.225 104.202 337.911 104.417 338.434 104.846C338.957 105.275 339.237 105.863 339.274 106.61H338C337.972 106.209 337.809 105.887 337.51 105.644C337.221 105.401 336.829 105.28 336.334 105.28C335.877 105.28 335.513 105.378 335.242 105.574C334.971 105.77 334.836 106.027 334.836 106.344C334.836 106.596 334.915 106.806 335.074 106.974C335.242 107.133 335.447 107.263 335.69 107.366C335.942 107.459 336.287 107.567 336.726 107.688C337.277 107.837 337.725 107.987 338.07 108.136C338.415 108.276 338.709 108.491 338.952 108.78C339.204 109.069 339.335 109.447 339.344 109.914C339.344 110.334 339.227 110.712 338.994 111.048C338.761 111.384 338.429 111.65 338 111.846C337.58 112.033 337.095 112.126 336.544 112.126ZM342.696 105.378V109.9C342.696 110.273 342.776 110.539 342.934 110.698C343.093 110.847 343.368 110.922 343.76 110.922H344.698V112H343.55C342.841 112 342.309 111.837 341.954 111.51C341.6 111.183 341.422 110.647 341.422 109.9V105.378H340.428V104.328H341.422V102.396H342.696V104.328H344.698V105.378H342.696ZM345.766 108.136C345.766 107.352 345.925 106.666 346.242 106.078C346.559 105.481 346.993 105.019 347.544 104.692C348.104 104.365 348.725 104.202 349.406 104.202C350.078 104.202 350.661 104.347 351.156 104.636C351.651 104.925 352.019 105.289 352.262 105.728V104.328H353.55V112H352.262V110.572C352.01 111.02 351.632 111.393 351.128 111.692C350.633 111.981 350.055 112.126 349.392 112.126C348.711 112.126 348.095 111.958 347.544 111.622C346.993 111.286 346.559 110.815 346.242 110.208C345.925 109.601 345.766 108.911 345.766 108.136ZM352.262 108.15C352.262 107.571 352.145 107.067 351.912 106.638C351.679 106.209 351.361 105.882 350.96 105.658C350.568 105.425 350.134 105.308 349.658 105.308C349.182 105.308 348.748 105.42 348.356 105.644C347.964 105.868 347.651 106.195 347.418 106.624C347.185 107.053 347.068 107.557 347.068 108.136C347.068 108.724 347.185 109.237 347.418 109.676C347.651 110.105 347.964 110.437 348.356 110.67C348.748 110.894 349.182 111.006 349.658 111.006C350.134 111.006 350.568 110.894 350.96 110.67C351.361 110.437 351.679 110.105 351.912 109.676C352.145 109.237 352.262 108.729 352.262 108.15ZM357.257 105.378V109.9C357.257 110.273 357.336 110.539 357.495 110.698C357.654 110.847 357.929 110.922 358.321 110.922H359.259V112H358.111C357.402 112 356.87 111.837 356.515 111.51C356.16 111.183 355.983 110.647 355.983 109.9V105.378H354.989V104.328H355.983V102.396H357.257V104.328H359.259V105.378H357.257ZM367.803 107.87C367.803 108.113 367.789 108.369 367.761 108.64H361.629C361.675 109.396 361.932 109.989 362.399 110.418C362.875 110.838 363.449 111.048 364.121 111.048C364.671 111.048 365.129 110.922 365.493 110.67C365.866 110.409 366.127 110.063 366.277 109.634H367.649C367.443 110.371 367.033 110.973 366.417 111.44C365.801 111.897 365.035 112.126 364.121 112.126C363.393 112.126 362.739 111.963 362.161 111.636C361.591 111.309 361.143 110.847 360.817 110.25C360.49 109.643 360.327 108.943 360.327 108.15C360.327 107.357 360.485 106.661 360.803 106.064C361.12 105.467 361.563 105.009 362.133 104.692C362.711 104.365 363.374 104.202 364.121 104.202C364.849 104.202 365.493 104.361 366.053 104.678C366.613 104.995 367.042 105.434 367.341 105.994C367.649 106.545 367.803 107.17 367.803 107.87ZM366.487 107.604C366.487 107.119 366.379 106.703 366.165 106.358C365.95 106.003 365.656 105.737 365.283 105.56C364.919 105.373 364.513 105.28 364.065 105.28C363.421 105.28 362.87 105.485 362.413 105.896C361.965 106.307 361.708 106.876 361.643 107.604H366.487ZM378.71 104.188C379.308 104.188 379.84 104.314 380.306 104.566C380.773 104.809 381.142 105.177 381.412 105.672C381.683 106.167 381.818 106.769 381.818 107.478V112H380.558V107.66C380.558 106.895 380.367 106.311 379.984 105.91C379.611 105.499 379.102 105.294 378.458 105.294C377.796 105.294 377.268 105.509 376.876 105.938C376.484 106.358 376.288 106.969 376.288 107.772V112H375.028V107.66C375.028 106.895 374.837 106.311 374.454 105.91C374.081 105.499 373.572 105.294 372.928 105.294C372.266 105.294 371.738 105.509 371.346 105.938C370.954 106.358 370.758 106.969 370.758 107.772V112H369.484V104.328H370.758V105.434C371.01 105.033 371.346 104.725 371.766 104.51C372.196 104.295 372.667 104.188 373.18 104.188C373.824 104.188 374.394 104.333 374.888 104.622C375.383 104.911 375.752 105.336 375.994 105.896C376.209 105.355 376.564 104.935 377.058 104.636C377.553 104.337 378.104 104.188 378.71 104.188ZM390.908 107.87C390.908 108.113 390.894 108.369 390.866 108.64H384.734C384.781 109.396 385.037 109.989 385.504 110.418C385.98 110.838 386.554 111.048 387.226 111.048C387.777 111.048 388.234 110.922 388.598 110.67C388.971 110.409 389.233 110.063 389.382 109.634H390.754C390.549 110.371 390.138 110.973 389.522 111.44C388.906 111.897 388.141 112.126 387.226 112.126C386.498 112.126 385.845 111.963 385.266 111.636C384.697 111.309 384.249 110.847 383.922 110.25C383.595 109.643 383.432 108.943 383.432 108.15C383.432 107.357 383.591 106.661 383.908 106.064C384.225 105.467 384.669 105.009 385.238 104.692C385.817 104.365 386.479 104.202 387.226 104.202C387.954 104.202 388.598 104.361 389.158 104.678C389.718 104.995 390.147 105.434 390.446 105.994C390.754 106.545 390.908 107.17 390.908 107.87ZM389.592 107.604C389.592 107.119 389.485 106.703 389.27 106.358C389.055 106.003 388.761 105.737 388.388 105.56C388.024 105.373 387.618 105.28 387.17 105.28C386.526 105.28 385.975 105.485 385.518 105.896C385.07 106.307 384.813 106.876 384.748 107.604H389.592ZM396.328 104.188C397.261 104.188 398.017 104.473 398.596 105.042C399.174 105.602 399.464 106.414 399.464 107.478V112H398.204V107.66C398.204 106.895 398.012 106.311 397.63 105.91C397.247 105.499 396.724 105.294 396.062 105.294C395.39 105.294 394.853 105.504 394.452 105.924C394.06 106.344 393.864 106.955 393.864 107.758V112H392.59V104.328H393.864V105.42C394.116 105.028 394.456 104.725 394.886 104.51C395.324 104.295 395.805 104.188 396.328 104.188ZM403.099 105.378V109.9C403.099 110.273 403.178 110.539 403.337 110.698C403.495 110.847 403.771 110.922 404.163 110.922H405.101V112H403.953C403.243 112 402.711 111.837 402.357 111.51C402.002 111.183 401.825 110.647 401.825 109.9V105.378H400.831V104.328H401.825V102.396H403.099V104.328H405.101V105.378H403.099Z" fill="#8652DB"/>
<rect x="58.5" y="138.5" width="195" height="28" rx="14" fill="#ECEDFF"/>
<rect x="58.5" y="138.5" width="195" height="28" rx="14" stroke="#CED7F2"/>
<path d="M81.352 148.278V151.54H84.908V152.59H81.352V155.95H85.328V157H80.078V147.228H85.328V148.278H81.352ZM90.1117 155.824L92.4917 149.328H93.8497L90.8397 157H89.3557L86.3457 149.328H87.7177L90.1117 155.824ZM95.7614 148.082C95.5187 148.082 95.3134 147.998 95.1454 147.83C94.9774 147.662 94.8934 147.457 94.8934 147.214C94.8934 146.971 94.9774 146.766 95.1454 146.598C95.3134 146.43 95.5187 146.346 95.7614 146.346C95.9947 146.346 96.1907 146.43 96.3494 146.598C96.5174 146.766 96.6014 146.971 96.6014 147.214C96.6014 147.457 96.5174 147.662 96.3494 147.83C96.1907 147.998 95.9947 148.082 95.7614 148.082ZM96.3774 149.328V157H95.1034V149.328H96.3774ZM98.0727 153.136C98.0727 152.352 98.2314 151.666 98.5487 151.078C98.866 150.481 99.3 150.019 99.8507 149.692C100.411 149.365 101.036 149.202 101.727 149.202C102.324 149.202 102.879 149.342 103.393 149.622C103.906 149.893 104.298 150.252 104.569 150.7V146.64H105.857V157H104.569V155.558C104.317 156.015 103.943 156.393 103.449 156.692C102.954 156.981 102.375 157.126 101.713 157.126C101.031 157.126 100.411 156.958 99.8507 156.622C99.3 156.286 98.866 155.815 98.5487 155.208C98.2314 154.601 98.0727 153.911 98.0727 153.136ZM104.569 153.15C104.569 152.571 104.452 152.067 104.219 151.638C103.985 151.209 103.668 150.882 103.267 150.658C102.875 150.425 102.441 150.308 101.965 150.308C101.489 150.308 101.055 150.42 100.663 150.644C100.271 150.868 99.958 151.195 99.7247 151.624C99.4914 152.053 99.3747 152.557 99.3747 153.136C99.3747 153.724 99.4914 154.237 99.7247 154.676C99.958 155.105 100.271 155.437 100.663 155.67C101.055 155.894 101.489 156.006 101.965 156.006C102.441 156.006 102.875 155.894 103.267 155.67C103.668 155.437 103.985 155.105 104.219 154.676C104.452 154.237 104.569 153.729 104.569 153.15ZM115.01 152.87C115.01 153.113 114.996 153.369 114.968 153.64H108.836C108.882 154.396 109.139 154.989 109.606 155.418C110.082 155.838 110.656 156.048 111.328 156.048C111.878 156.048 112.336 155.922 112.7 155.67C113.073 155.409 113.334 155.063 113.484 154.634H114.856C114.65 155.371 114.24 155.973 113.624 156.44C113.008 156.897 112.242 157.126 111.328 157.126C110.6 157.126 109.946 156.963 109.368 156.636C108.798 156.309 108.35 155.847 108.024 155.25C107.697 154.643 107.534 153.943 107.534 153.15C107.534 152.357 107.692 151.661 108.01 151.064C108.327 150.467 108.77 150.009 109.34 149.692C109.918 149.365 110.581 149.202 111.328 149.202C112.056 149.202 112.7 149.361 113.26 149.678C113.82 149.995 114.249 150.434 114.548 150.994C114.856 151.545 115.01 152.17 115.01 152.87ZM113.694 152.604C113.694 152.119 113.586 151.703 113.372 151.358C113.157 151.003 112.863 150.737 112.49 150.56C112.126 150.373 111.72 150.28 111.272 150.28C110.628 150.28 110.077 150.485 109.62 150.896C109.172 151.307 108.915 151.876 108.85 152.604H113.694ZM120.429 149.188C121.363 149.188 122.119 149.473 122.697 150.042C123.276 150.602 123.565 151.414 123.565 152.478V157H122.305V152.66C122.305 151.895 122.114 151.311 121.731 150.91C121.349 150.499 120.826 150.294 120.163 150.294C119.491 150.294 118.955 150.504 118.553 150.924C118.161 151.344 117.965 151.955 117.965 152.758V157H116.691V149.328H117.965V150.42C118.217 150.028 118.558 149.725 118.987 149.51C119.426 149.295 119.907 149.188 120.429 149.188ZM125.17 153.15C125.17 152.357 125.329 151.666 125.646 151.078C125.964 150.481 126.402 150.019 126.962 149.692C127.532 149.365 128.18 149.202 128.908 149.202C129.851 149.202 130.626 149.431 131.232 149.888C131.848 150.345 132.254 150.98 132.45 151.792H131.078C130.948 151.325 130.691 150.957 130.308 150.686C129.935 150.415 129.468 150.28 128.908 150.28C128.18 150.28 127.592 150.532 127.144 151.036C126.696 151.531 126.472 152.235 126.472 153.15C126.472 154.074 126.696 154.788 127.144 155.292C127.592 155.796 128.18 156.048 128.908 156.048C129.468 156.048 129.935 155.917 130.308 155.656C130.682 155.395 130.938 155.021 131.078 154.536H132.45C132.245 155.32 131.834 155.95 131.218 156.426C130.602 156.893 129.832 157.126 128.908 157.126C128.18 157.126 127.532 156.963 126.962 156.636C126.402 156.309 125.964 155.847 125.646 155.25C125.329 154.653 125.17 153.953 125.17 153.15ZM141.15 152.87C141.15 153.113 141.136 153.369 141.108 153.64H134.976C135.023 154.396 135.28 154.989 135.746 155.418C136.222 155.838 136.796 156.048 137.468 156.048C138.019 156.048 138.476 155.922 138.84 155.67C139.214 155.409 139.475 155.063 139.624 154.634H140.996C140.791 155.371 140.38 155.973 139.764 156.44C139.148 156.897 138.383 157.126 137.468 157.126C136.74 157.126 136.087 156.963 135.508 156.636C134.939 156.309 134.491 155.847 134.164 155.25C133.838 154.643 133.674 153.943 133.674 153.15C133.674 152.357 133.833 151.661 134.15 151.064C134.468 150.467 134.911 150.009 135.48 149.692C136.059 149.365 136.722 149.202 137.468 149.202C138.196 149.202 138.84 149.361 139.4 149.678C139.96 149.995 140.39 150.434 140.688 150.994C140.996 151.545 141.15 152.17 141.15 152.87ZM139.834 152.604C139.834 152.119 139.727 151.703 139.512 151.358C139.298 151.003 139.004 150.737 138.63 150.56C138.266 150.373 137.86 150.28 137.412 150.28C136.768 150.28 136.218 150.485 135.76 150.896C135.312 151.307 135.056 151.876 134.99 152.604H139.834ZM146.088 153.136C146.088 152.352 146.247 151.666 146.564 151.078C146.882 150.481 147.316 150.019 147.866 149.692C148.426 149.365 149.047 149.202 149.728 149.202C150.4 149.202 150.984 149.347 151.478 149.636C151.973 149.925 152.342 150.289 152.584 150.728V149.328H153.872V157H152.584V155.572C152.332 156.02 151.954 156.393 151.45 156.692C150.956 156.981 150.377 157.126 149.714 157.126C149.033 157.126 148.417 156.958 147.866 156.622C147.316 156.286 146.882 155.815 146.564 155.208C146.247 154.601 146.088 153.911 146.088 153.136ZM152.584 153.15C152.584 152.571 152.468 152.067 152.234 151.638C152.001 151.209 151.684 150.882 151.282 150.658C150.89 150.425 150.456 150.308 149.98 150.308C149.504 150.308 149.07 150.42 148.678 150.644C148.286 150.868 147.974 151.195 147.74 151.624C147.507 152.053 147.39 152.557 147.39 153.136C147.39 153.724 147.507 154.237 147.74 154.676C147.974 155.105 148.286 155.437 148.678 155.67C149.07 155.894 149.504 156.006 149.98 156.006C150.456 156.006 150.89 155.894 151.282 155.67C151.684 155.437 152.001 155.105 152.234 154.676C152.468 154.237 152.584 153.729 152.584 153.15ZM159.763 149.188C160.697 149.188 161.453 149.473 162.031 150.042C162.61 150.602 162.899 151.414 162.899 152.478V157H161.639V152.66C161.639 151.895 161.448 151.311 161.065 150.91C160.683 150.499 160.16 150.294 159.497 150.294C158.825 150.294 158.289 150.504 157.887 150.924C157.495 151.344 157.299 151.955 157.299 152.758V157H156.025V149.328H157.299V150.42C157.551 150.028 157.892 149.725 158.321 149.51C158.76 149.295 159.241 149.188 159.763 149.188ZM164.504 153.136C164.504 152.352 164.663 151.666 164.98 151.078C165.298 150.481 165.732 150.019 166.282 149.692C166.842 149.365 167.468 149.202 168.158 149.202C168.756 149.202 169.311 149.342 169.824 149.622C170.338 149.893 170.73 150.252 171 150.7V146.64H172.288V157H171V155.558C170.748 156.015 170.375 156.393 169.88 156.692C169.386 156.981 168.807 157.126 168.144 157.126C167.463 157.126 166.842 156.958 166.282 156.622C165.732 156.286 165.298 155.815 164.98 155.208C164.663 154.601 164.504 153.911 164.504 153.136ZM171 153.15C171 152.571 170.884 152.067 170.65 151.638C170.417 151.209 170.1 150.882 169.698 150.658C169.306 150.425 168.872 150.308 168.396 150.308C167.92 150.308 167.486 150.42 167.094 150.644C166.702 150.868 166.39 151.195 166.156 151.624C165.923 152.053 165.806 152.557 165.806 153.136C165.806 153.724 165.923 154.237 166.156 154.676C166.39 155.105 166.702 155.437 167.094 155.67C167.486 155.894 167.92 156.006 168.396 156.006C168.872 156.006 169.306 155.894 169.698 155.67C170.1 155.437 170.417 155.105 170.65 154.676C170.884 154.237 171 153.729 171 153.15ZM181.268 157.098C180.624 157.098 180.045 156.986 179.532 156.762C179.028 156.529 178.631 156.211 178.342 155.81C178.052 155.399 177.903 154.928 177.894 154.396H179.252C179.298 154.853 179.485 155.241 179.812 155.558C180.148 155.866 180.633 156.02 181.268 156.02C181.874 156.02 182.35 155.871 182.696 155.572C183.05 155.264 183.228 154.872 183.228 154.396C183.228 154.023 183.125 153.719 182.92 153.486C182.714 153.253 182.458 153.075 182.15 152.954C181.842 152.833 181.426 152.702 180.904 152.562C180.26 152.394 179.742 152.226 179.35 152.058C178.967 151.89 178.636 151.629 178.356 151.274C178.085 150.91 177.95 150.425 177.95 149.818C177.95 149.286 178.085 148.815 178.356 148.404C178.626 147.993 179.004 147.676 179.49 147.452C179.984 147.228 180.549 147.116 181.184 147.116C182.098 147.116 182.845 147.345 183.424 147.802C184.012 148.259 184.343 148.866 184.418 149.622H183.018C182.971 149.249 182.775 148.922 182.43 148.642C182.084 148.353 181.627 148.208 181.058 148.208C180.526 148.208 180.092 148.348 179.756 148.628C179.42 148.899 179.252 149.281 179.252 149.776C179.252 150.131 179.35 150.42 179.546 150.644C179.751 150.868 179.998 151.041 180.288 151.162C180.586 151.274 181.002 151.405 181.534 151.554C182.178 151.731 182.696 151.909 183.088 152.086C183.48 152.254 183.816 152.52 184.096 152.884C184.376 153.239 184.516 153.724 184.516 154.34C184.516 154.816 184.39 155.264 184.138 155.684C183.886 156.104 183.512 156.445 183.018 156.706C182.523 156.967 181.94 157.098 181.268 157.098ZM193.195 149.328V157H191.921V155.866C191.678 156.258 191.337 156.566 190.899 156.79C190.469 157.005 189.993 157.112 189.471 157.112C188.873 157.112 188.337 156.991 187.861 156.748C187.385 156.496 187.007 156.123 186.727 155.628C186.456 155.133 186.321 154.531 186.321 153.822V149.328H187.581V153.654C187.581 154.41 187.772 154.993 188.155 155.404C188.537 155.805 189.06 156.006 189.723 156.006C190.404 156.006 190.941 155.796 191.333 155.376C191.725 154.956 191.921 154.345 191.921 153.542V149.328H193.195ZM196.62 150.742C196.872 150.303 197.245 149.939 197.74 149.65C198.244 149.351 198.827 149.202 199.49 149.202C200.171 149.202 200.787 149.365 201.338 149.692C201.898 150.019 202.336 150.481 202.654 151.078C202.971 151.666 203.13 152.352 203.13 153.136C203.13 153.911 202.971 154.601 202.654 155.208C202.336 155.815 201.898 156.286 201.338 156.622C200.787 156.958 200.171 157.126 199.49 157.126C198.836 157.126 198.258 156.981 197.754 156.692C197.259 156.393 196.881 156.025 196.62 155.586V160.64H195.346V149.328H196.62V150.742ZM201.828 153.136C201.828 152.557 201.711 152.053 201.478 151.624C201.244 151.195 200.927 150.868 200.526 150.644C200.134 150.42 199.7 150.308 199.224 150.308C198.757 150.308 198.323 150.425 197.922 150.658C197.53 150.882 197.212 151.213 196.97 151.652C196.736 152.081 196.62 152.581 196.62 153.15C196.62 153.729 196.736 154.237 196.97 154.676C197.212 155.105 197.53 155.437 197.922 155.67C198.323 155.894 198.757 156.006 199.224 156.006C199.7 156.006 200.134 155.894 200.526 155.67C200.927 155.437 201.244 155.105 201.478 154.676C201.711 154.237 201.828 153.724 201.828 153.136ZM206.081 150.742C206.333 150.303 206.706 149.939 207.201 149.65C207.705 149.351 208.288 149.202 208.951 149.202C209.632 149.202 210.248 149.365 210.799 149.692C211.359 150.019 211.797 150.481 212.115 151.078C212.432 151.666 212.591 152.352 212.591 153.136C212.591 153.911 212.432 154.601 212.115 155.208C211.797 155.815 211.359 156.286 210.799 156.622C210.248 156.958 209.632 157.126 208.951 157.126C208.297 157.126 207.719 156.981 207.215 156.692C206.72 156.393 206.342 156.025 206.081 155.586V160.64H204.807V149.328H206.081V150.742ZM211.289 153.136C211.289 152.557 211.172 152.053 210.939 151.624C210.705 151.195 210.388 150.868 209.987 150.644C209.595 150.42 209.161 150.308 208.685 150.308C208.218 150.308 207.784 150.425 207.383 150.658C206.991 150.882 206.673 151.213 206.431 151.652C206.197 152.081 206.081 152.581 206.081 153.15C206.081 153.729 206.197 154.237 206.431 154.676C206.673 155.105 206.991 155.437 207.383 155.67C207.784 155.894 208.218 156.006 208.685 156.006C209.161 156.006 209.595 155.894 209.987 155.67C210.388 155.437 210.705 155.105 210.939 154.676C211.172 154.237 211.289 153.724 211.289 153.136ZM217.613 157.126C216.895 157.126 216.241 156.963 215.653 156.636C215.075 156.309 214.617 155.847 214.281 155.25C213.955 154.643 213.791 153.943 213.791 153.15C213.791 152.366 213.959 151.675 214.295 151.078C214.641 150.471 215.107 150.009 215.695 149.692C216.283 149.365 216.941 149.202 217.669 149.202C218.397 149.202 219.055 149.365 219.643 149.692C220.231 150.009 220.693 150.467 221.029 151.064C221.375 151.661 221.547 152.357 221.547 153.15C221.547 153.943 221.37 154.643 221.015 155.25C220.67 155.847 220.199 156.309 219.601 156.636C219.004 156.963 218.341 157.126 217.613 157.126ZM217.613 156.006C218.071 156.006 218.5 155.899 218.901 155.684C219.303 155.469 219.625 155.147 219.867 154.718C220.119 154.289 220.245 153.766 220.245 153.15C220.245 152.534 220.124 152.011 219.881 151.582C219.639 151.153 219.321 150.835 218.929 150.63C218.537 150.415 218.113 150.308 217.655 150.308C217.189 150.308 216.759 150.415 216.367 150.63C215.985 150.835 215.677 151.153 215.443 151.582C215.21 152.011 215.093 152.534 215.093 153.15C215.093 153.775 215.205 154.303 215.429 154.732C215.663 155.161 215.971 155.483 216.353 155.698C216.736 155.903 217.156 156.006 217.613 156.006ZM224.497 150.574C224.721 150.135 225.038 149.795 225.449 149.552C225.869 149.309 226.377 149.188 226.975 149.188V150.504H226.639C225.211 150.504 224.497 151.279 224.497 152.828V157H223.223V149.328H224.497V150.574ZM229.999 150.378V154.9C229.999 155.273 230.079 155.539 230.237 155.698C230.396 155.847 230.671 155.922 231.063 155.922H232.001V157H230.853C230.144 157 229.612 156.837 229.257 156.51C228.903 156.183 228.725 155.647 228.725 154.9V150.378H227.731V149.328H228.725V147.396H229.999V149.328H232.001V150.378H229.999Z" fill="#8652DB"/>
<rect x="318.5" y="48.5" width="176" height="28" rx="14" fill="#ECEDFF"/>
<rect x="318.5" y="48.5" width="176" height="28" rx="14" stroke="#CED7F2"/>
<path d="M339.602 62.114C339.602 61.162 339.817 60.308 340.246 59.552C340.675 58.7867 341.259 58.1893 341.996 57.76C342.743 57.3307 343.569 57.116 344.474 57.116C345.538 57.116 346.467 57.3727 347.26 57.886C348.053 58.3993 348.632 59.1273 348.996 60.07H347.47C347.199 59.482 346.807 59.0293 346.294 58.712C345.79 58.3947 345.183 58.236 344.474 58.236C343.793 58.236 343.181 58.3947 342.64 58.712C342.099 59.0293 341.674 59.482 341.366 60.07C341.058 60.6487 340.904 61.33 340.904 62.114C340.904 62.8887 341.058 63.57 341.366 64.158C341.674 64.7367 342.099 65.1847 342.64 65.502C343.181 65.8193 343.793 65.978 344.474 65.978C345.183 65.978 345.79 65.824 346.294 65.516C346.807 65.1987 347.199 64.746 347.47 64.158H348.996C348.632 65.0913 348.053 65.8147 347.26 66.328C346.467 66.832 345.538 67.084 344.474 67.084C343.569 67.084 342.743 66.874 341.996 66.454C341.259 66.0247 340.675 65.432 340.246 64.676C339.817 63.92 339.602 63.066 339.602 62.114ZM354.238 67.126C353.52 67.126 352.866 66.9627 352.278 66.636C351.7 66.3093 351.242 65.8473 350.906 65.25C350.58 64.6433 350.416 63.9433 350.416 63.15C350.416 62.366 350.584 61.6753 350.92 61.078C351.266 60.4713 351.732 60.0093 352.32 59.692C352.908 59.3653 353.566 59.202 354.294 59.202C355.022 59.202 355.68 59.3653 356.268 59.692C356.856 60.0093 357.318 60.4667 357.654 61.064C358 61.6613 358.172 62.3567 358.172 63.15C358.172 63.9433 357.995 64.6433 357.64 65.25C357.295 65.8473 356.824 66.3093 356.226 66.636C355.629 66.9627 354.966 67.126 354.238 67.126ZM354.238 66.006C354.696 66.006 355.125 65.8987 355.526 65.684C355.928 65.4693 356.25 65.1473 356.492 64.718C356.744 64.2887 356.87 63.766 356.87 63.15C356.87 62.534 356.749 62.0113 356.506 61.582C356.264 61.1527 355.946 60.8353 355.554 60.63C355.162 60.4153 354.738 60.308 354.28 60.308C353.814 60.308 353.384 60.4153 352.992 60.63C352.61 60.8353 352.302 61.1527 352.068 61.582C351.835 62.0113 351.718 62.534 351.718 63.15C351.718 63.7753 351.83 64.3027 352.054 64.732C352.288 65.1613 352.596 65.4833 352.978 65.698C353.361 65.9033 353.781 66.006 354.238 66.006ZM366.652 59.328V67H365.378V65.866C365.135 66.258 364.794 66.566 364.356 66.79C363.926 67.0047 363.45 67.112 362.928 67.112C362.33 67.112 361.794 66.9907 361.318 66.748C360.842 66.496 360.464 66.1227 360.184 65.628C359.913 65.1333 359.778 64.5313 359.778 63.822V59.328H361.038V63.654C361.038 64.41 361.229 64.9933 361.612 65.404C361.994 65.8053 362.517 66.006 363.18 66.006C363.861 66.006 364.398 65.796 364.79 65.376C365.182 64.956 365.378 64.3447 365.378 63.542V59.328H366.652ZM372.541 59.188C373.474 59.188 374.23 59.4727 374.809 60.042C375.387 60.602 375.677 61.414 375.677 62.478V67H374.417V62.66C374.417 61.8947 374.225 61.3113 373.843 60.91C373.46 60.4993 372.937 60.294 372.275 60.294C371.603 60.294 371.066 60.504 370.665 60.924C370.273 61.344 370.077 61.9553 370.077 62.758V67H368.803V59.328H370.077V60.42C370.329 60.028 370.669 59.7247 371.099 59.51C371.537 59.2953 372.018 59.188 372.541 59.188ZM379.312 60.378V64.9C379.312 65.2733 379.391 65.5393 379.55 65.698C379.708 65.8473 379.984 65.922 380.376 65.922H381.314V67H380.166C379.456 67 378.924 66.8367 378.57 66.51C378.215 66.1833 378.038 65.6467 378.038 64.9V60.378H377.044V59.328H378.038V57.396H379.312V59.328H381.314V60.378H379.312ZM389.857 62.87C389.857 63.1127 389.843 63.3693 389.815 63.64H383.683C383.73 64.396 383.987 64.9887 384.453 65.418C384.929 65.838 385.503 66.048 386.175 66.048C386.726 66.048 387.183 65.922 387.547 65.67C387.921 65.4087 388.182 65.0633 388.331 64.634H389.703C389.498 65.3713 389.087 65.9733 388.471 66.44C387.855 66.8973 387.09 67.126 386.175 67.126C385.447 67.126 384.794 66.9627 384.215 66.636C383.646 66.3093 383.198 65.8473 382.871 65.25C382.545 64.6433 382.381 63.9433 382.381 63.15C382.381 62.3567 382.54 61.6613 382.857 61.064C383.175 60.4667 383.618 60.0093 384.187 59.692C384.766 59.3653 385.429 59.202 386.175 59.202C386.903 59.202 387.547 59.3607 388.107 59.678C388.667 59.9953 389.097 60.434 389.395 60.994C389.703 61.5447 389.857 62.17 389.857 62.87ZM388.541 62.604C388.541 62.1187 388.434 61.7033 388.219 61.358C388.005 61.0033 387.711 60.7373 387.337 60.56C386.973 60.3733 386.567 60.28 386.119 60.28C385.475 60.28 384.925 60.4853 384.467 60.896C384.019 61.3067 383.763 61.876 383.697 62.604H388.541ZM392.813 60.574C393.037 60.1353 393.354 59.7947 393.765 59.552C394.185 59.3093 394.694 59.188 395.291 59.188V60.504H394.955C393.527 60.504 392.813 61.2787 392.813 62.828V67H391.539V59.328H392.813V60.574ZM396.286 63.136C396.286 62.352 396.444 61.666 396.762 61.078C397.079 60.4807 397.513 60.0187 398.064 59.692C398.624 59.3653 399.244 59.202 399.926 59.202C400.598 59.202 401.181 59.3467 401.676 59.636C402.17 59.9253 402.539 60.2893 402.782 60.728V59.328H404.07V67H402.782V65.572C402.53 66.02 402.152 66.3933 401.648 66.692C401.153 66.9813 400.574 67.126 399.912 67.126C399.23 67.126 398.614 66.958 398.064 66.622C397.513 66.286 397.079 65.8147 396.762 65.208C396.444 64.6013 396.286 63.9107 396.286 63.136ZM402.782 63.15C402.782 62.5713 402.665 62.0673 402.432 61.638C402.198 61.2087 401.881 60.882 401.48 60.658C401.088 60.4247 400.654 60.308 400.178 60.308C399.702 60.308 399.268 60.42 398.876 60.644C398.484 60.868 398.171 61.1947 397.938 61.624C397.704 62.0533 397.588 62.5573 397.588 63.136C397.588 63.724 397.704 64.2373 397.938 64.676C398.171 65.1053 398.484 65.4367 398.876 65.67C399.268 65.894 399.702 66.006 400.178 66.006C400.654 66.006 401.088 65.894 401.48 65.67C401.881 65.4367 402.198 65.1053 402.432 64.676C402.665 64.2373 402.782 63.7287 402.782 63.15ZM407.497 60.574C407.721 60.1353 408.038 59.7947 408.449 59.552C408.869 59.3093 409.377 59.188 409.975 59.188V60.504H409.639C408.211 60.504 407.497 61.2787 407.497 62.828V67H406.223V59.328H407.497V60.574ZM414.609 59.202C415.272 59.202 415.851 59.3467 416.345 59.636C416.849 59.9253 417.223 60.2893 417.465 60.728V59.328H418.753V67.168C418.753 67.868 418.604 68.4887 418.305 69.03C418.007 69.5807 417.577 70.01 417.017 70.318C416.467 70.626 415.823 70.78 415.085 70.78C414.077 70.78 413.237 70.542 412.565 70.066C411.893 69.59 411.497 68.9413 411.375 68.12H412.635C412.775 68.5867 413.065 68.96 413.503 69.24C413.942 69.5293 414.469 69.674 415.085 69.674C415.785 69.674 416.355 69.4547 416.793 69.016C417.241 68.5773 417.465 67.9613 417.465 67.168V65.558C417.213 66.006 416.84 66.3793 416.345 66.678C415.851 66.9767 415.272 67.126 414.609 67.126C413.928 67.126 413.307 66.958 412.747 66.622C412.197 66.286 411.763 65.8147 411.445 65.208C411.128 64.6013 410.969 63.9107 410.969 63.136C410.969 62.352 411.128 61.666 411.445 61.078C411.763 60.4807 412.197 60.0187 412.747 59.692C413.307 59.3653 413.928 59.202 414.609 59.202ZM417.465 63.15C417.465 62.5713 417.349 62.0673 417.115 61.638C416.882 61.2087 416.565 60.882 416.163 60.658C415.771 60.4247 415.337 60.308 414.861 60.308C414.385 60.308 413.951 60.42 413.559 60.644C413.167 60.868 412.855 61.1947 412.621 61.624C412.388 62.0533 412.271 62.5573 412.271 63.136C412.271 63.724 412.388 64.2373 412.621 64.676C412.855 65.1053 413.167 65.4367 413.559 65.67C413.951 65.894 414.385 66.006 414.861 66.006C415.337 66.006 415.771 65.894 416.163 65.67C416.565 65.4367 416.882 65.1053 417.115 64.676C417.349 64.2373 417.465 63.7287 417.465 63.15ZM427.71 59.328V67H426.436V65.866C426.193 66.258 425.853 66.566 425.414 66.79C424.985 67.0047 424.509 67.112 423.986 67.112C423.389 67.112 422.852 66.9907 422.376 66.748C421.9 66.496 421.522 66.1227 421.242 65.628C420.971 65.1333 420.836 64.5313 420.836 63.822V59.328H422.096V63.654C422.096 64.41 422.287 64.9933 422.67 65.404C423.053 65.8053 423.575 66.006 424.238 66.006C424.919 66.006 425.456 65.796 425.848 65.376C426.24 64.956 426.436 64.3447 426.436 63.542V59.328H427.71ZM439.087 59.188C439.685 59.188 440.217 59.314 440.683 59.566C441.15 59.8087 441.519 60.1773 441.789 60.672C442.06 61.1667 442.195 61.7687 442.195 62.478V67H440.935V62.66C440.935 61.8947 440.744 61.3113 440.361 60.91C439.988 60.4993 439.479 60.294 438.835 60.294C438.173 60.294 437.645 60.5087 437.253 60.938C436.861 61.358 436.665 61.9693 436.665 62.772V67H435.405V62.66C435.405 61.8947 435.214 61.3113 434.831 60.91C434.458 60.4993 433.949 60.294 433.305 60.294C432.643 60.294 432.115 60.5087 431.723 60.938C431.331 61.358 431.135 61.9693 431.135 62.772V67H429.861V59.328H431.135V60.434C431.387 60.0327 431.723 59.7247 432.143 59.51C432.573 59.2953 433.044 59.188 433.557 59.188C434.201 59.188 434.771 59.3327 435.265 59.622C435.76 59.9113 436.129 60.336 436.371 60.896C436.586 60.3547 436.941 59.9347 437.435 59.636C437.93 59.3373 438.481 59.188 439.087 59.188ZM451.285 62.87C451.285 63.1127 451.271 63.3693 451.243 63.64H445.111C445.158 64.396 445.414 64.9887 445.881 65.418C446.357 65.838 446.931 66.048 447.603 66.048C448.154 66.048 448.611 65.922 448.975 65.67C449.348 65.4087 449.61 65.0633 449.759 64.634H451.131C450.926 65.3713 450.515 65.9733 449.899 66.44C449.283 66.8973 448.518 67.126 447.603 67.126C446.875 67.126 446.222 66.9627 445.643 66.636C445.074 66.3093 444.626 65.8473 444.299 65.25C443.972 64.6433 443.809 63.9433 443.809 63.15C443.809 62.3567 443.968 61.6613 444.285 61.064C444.602 60.4667 445.046 60.0093 445.615 59.692C446.194 59.3653 446.856 59.202 447.603 59.202C448.331 59.202 448.975 59.3607 449.535 59.678C450.095 59.9953 450.524 60.434 450.823 60.994C451.131 61.5447 451.285 62.17 451.285 62.87ZM449.969 62.604C449.969 62.1187 449.862 61.7033 449.647 61.358C449.432 61.0033 449.138 60.7373 448.765 60.56C448.401 60.3733 447.995 60.28 447.547 60.28C446.903 60.28 446.352 60.4853 445.895 60.896C445.447 61.3067 445.19 61.876 445.125 62.604H449.969ZM456.705 59.188C457.638 59.188 458.394 59.4727 458.973 60.042C459.551 60.602 459.841 61.414 459.841 62.478V67H458.581V62.66C458.581 61.8947 458.389 61.3113 458.007 60.91C457.624 60.4993 457.101 60.294 456.439 60.294C455.767 60.294 455.23 60.504 454.829 60.924C454.437 61.344 454.241 61.9553 454.241 62.758V67H452.967V59.328H454.241V60.42C454.493 60.028 454.833 59.7247 455.263 59.51C455.701 59.2953 456.182 59.188 456.705 59.188ZM463.476 60.378V64.9C463.476 65.2733 463.555 65.5393 463.714 65.698C463.872 65.8473 464.148 65.922 464.54 65.922H465.478V67H464.33C463.62 67 463.088 66.8367 462.734 66.51C462.379 66.1833 462.202 65.6467 462.202 64.9V60.378H461.208V59.328H462.202V57.396H463.476V59.328H465.478V60.378H463.476ZM469.737 67.126C469.149 67.126 468.622 67.028 468.155 66.832C467.689 66.6267 467.32 66.3467 467.049 65.992C466.779 65.628 466.629 65.2127 466.601 64.746H467.917C467.955 65.1287 468.132 65.4413 468.449 65.684C468.776 65.9267 469.201 66.048 469.723 66.048C470.209 66.048 470.591 65.9407 470.871 65.726C471.151 65.5113 471.291 65.2407 471.291 64.914C471.291 64.578 471.142 64.3307 470.843 64.172C470.545 64.004 470.083 63.8407 469.457 63.682C468.888 63.5327 468.421 63.3833 468.057 63.234C467.703 63.0753 467.395 62.8467 467.133 62.548C466.881 62.24 466.755 61.8387 466.755 61.344C466.755 60.952 466.872 60.5927 467.105 60.266C467.339 59.9393 467.67 59.6827 468.099 59.496C468.529 59.3 469.019 59.202 469.569 59.202C470.419 59.202 471.105 59.4167 471.627 59.846C472.15 60.2753 472.43 60.8633 472.467 61.61H471.193C471.165 61.2087 471.002 60.8867 470.703 60.644C470.414 60.4013 470.022 60.28 469.527 60.28C469.07 60.28 468.706 60.378 468.435 60.574C468.165 60.77 468.029 61.0267 468.029 61.344C468.029 61.596 468.109 61.806 468.267 61.974C468.435 62.1327 468.641 62.2633 468.883 62.366C469.135 62.4593 469.481 62.5667 469.919 62.688C470.47 62.8373 470.918 62.9867 471.263 63.136C471.609 63.276 471.903 63.4907 472.145 63.78C472.397 64.0693 472.528 64.4473 472.537 64.914C472.537 65.334 472.421 65.712 472.187 66.048C471.954 66.384 471.623 66.65 471.193 66.846C470.773 67.0327 470.288 67.126 469.737 67.126Z" fill="#8652DB"/>
<defs>
<clipPath id="clip0_1441_10201">
<rect x="47" y="242" width="506" height="430" rx="8" fill="white"/>
</clipPath>
</defs>
</svg>
