<svg width="24" height="24" viewBox="0 0 24 24" fill="none" xmlns="http://www.w3.org/2000/svg">
<g id="shield-check-fill">
<path id="Vector" d="M11.6228 2.03375C11.5688 2.05675 4.68379 4.94076 4.68579 4.93976C4.69479 4.93676 4.7008 4.95376 4.7478 4.93976C4.7868 4.92976 4.79081 4.92575 4.90381 4.90875C4.92181 4.90675 4.9528 4.90975 4.9668 4.90875C4.4768 4.92175 3.9978 5.25575 3.9978 5.90875C3.9978 10.4218 4.15179 12.2588 4.93579 14.5028C5.96579 17.4508 8.0128 19.8238 11.4978 21.8148C11.8048 21.9908 12.1908 21.9908 12.4978 21.8148C15.9808 19.8248 18.0298 17.4778 19.0598 14.5338C19.8438 12.2938 19.9978 10.4308 19.9978 5.93976C19.9978 5.54076 19.7708 5.19175 19.4038 5.03375L12.4358 2.03375C12.1838 1.92575 11.8748 1.92675 11.6228 2.03375ZM14.9978 8.93976C15.2538 8.93976 15.5208 9.02574 15.7168 9.22074C16.1068 9.61174 16.1068 10.2678 15.7168 10.6588L12.7168 13.6588C12.3258 14.0488 11.6698 14.0488 11.2788 13.6588L9.27881 11.6588C8.88881 11.2678 8.88881 10.6117 9.27881 10.2207C9.66981 9.83074 10.3258 9.83074 10.7168 10.2207L11.9978 11.5028L14.2788 9.22074C14.4748 9.02574 14.7418 8.93976 14.9978 8.93976Z" fill="#E46C6C"/>
</g>
</svg>
