<svg width="80" height="80" viewBox="0 0 80 80" fill="none" xmlns="http://www.w3.org/2000/svg">
<path d="M40.9359 6.64169C39.6236 6.26169 38.0812 6.69498 37.1859 8.10165C34.2692 12.685 16.7696 40.185 13.8526 44.7684C12.4406 46.985 14.0349 49.8717 16.6652 49.8717H36.6652V69.8717C36.6652 73.2051 41.0206 74.4551 42.8112 71.6418L66.1446 34.9751C67.5566 32.7584 65.9622 29.8717 63.3319 29.8717H43.3319V9.87167C43.3319 8.205 42.2486 7.02502 40.9359 6.64169ZM36.6652 21.3316V33.205C36.6652 35.045 38.1576 36.5384 39.9986 36.5384H57.2902L43.3319 58.4118V46.5384C43.3319 44.6984 41.8396 43.205 39.9986 43.205H22.7069C26.5322 37.195 31.5406 29.3817 36.6652 21.3316Z" fill="#8551F3"/>
</svg>
