<svg width="80" height="80" viewBox="0 0 80 80" fill="none" xmlns="http://www.w3.org/2000/svg">
<g filter="url(#filter0_d_3513_8201)">
<path d="M40.0039 13.3262C30.1406 13.3262 21.8306 18.1728 15.0039 26.1395C12.6672 28.8628 10.6239 31.7728 8.96054 34.6795C7.95721 36.4395 7.34387 37.7994 6.98387 38.6394C6.62387 39.4761 6.62387 40.5095 6.98387 41.3461C7.34387 42.1861 7.95721 43.5461 8.96054 45.3061C10.6239 48.2128 12.6672 51.1228 15.0039 53.8461C21.8306 61.8128 30.1406 66.6594 40.0039 66.6594C49.8672 66.6594 58.1772 61.8128 65.0039 53.8461C67.3372 51.1228 69.3839 48.2128 71.0439 45.3061C72.0506 43.5461 72.6639 42.1861 73.0239 41.3461C73.3839 40.5095 73.3839 39.4761 73.0239 38.6394C72.6639 37.7994 72.0506 36.4395 71.0439 34.6795C69.3839 31.7728 67.3372 28.8628 65.0039 26.1395C58.1772 18.1728 49.8672 13.3262 40.0039 13.3262ZM40.0039 19.9928C47.6406 19.9928 54.3306 23.8962 60.0039 30.5128C62.0439 32.8928 63.7473 35.4528 65.2106 38.0128C65.7273 38.9161 65.9506 39.3828 66.2539 39.9928C65.9506 40.6028 65.7273 41.0694 65.2106 41.9728C63.7473 44.5328 62.0439 47.0928 60.0039 49.4728C54.3306 56.0894 47.6406 59.9928 40.0039 59.9928C32.3672 59.9928 25.6772 56.0894 20.0039 49.4728C17.9639 47.0928 16.2605 44.5328 14.7939 41.9728C14.2805 41.0694 14.0572 40.6028 13.7539 39.9928C14.0572 39.3828 14.2805 38.9161 14.7939 38.0128C16.2605 35.4528 17.9639 32.8928 20.0039 30.5128C25.6772 23.8962 32.3672 19.9928 40.0039 19.9928ZM40.0039 26.6595C32.6406 26.6595 26.6706 32.6295 26.6706 39.9928C26.6706 47.3561 32.6406 53.3261 40.0039 53.3261C47.3672 53.3261 53.3372 47.3561 53.3372 39.9928C53.3372 38.1528 51.8439 36.6595 50.0039 36.6595C48.1639 36.6595 46.6706 38.1528 46.6706 39.9928C46.6706 43.6761 43.6839 46.6594 40.0039 46.6594C36.3206 46.6594 33.3372 43.6761 33.3372 39.9928C33.3372 36.3095 36.3206 33.3261 40.0039 33.3261C40.8206 33.3261 41.6572 33.4628 42.4005 33.7428C44.1205 34.3928 46.0206 33.4862 46.6706 31.7628C47.3206 30.0428 46.4139 28.1428 44.6906 27.4928C43.1972 26.9295 41.6272 26.6595 40.0039 26.6595Z" fill="#8551F3"/>
</g>
<defs>
<filter id="filter0_d_3513_8201" x="-4" y="0" width="88" height="88" filterUnits="userSpaceOnUse" color-interpolation-filters="sRGB">
<feFlood flood-opacity="0" result="BackgroundImageFix"/>
<feColorMatrix in="SourceAlpha" type="matrix" values="0 0 0 0 0 0 0 0 0 0 0 0 0 0 0 0 0 0 127 0" result="hardAlpha"/>
<feOffset dy="4"/>
<feGaussianBlur stdDeviation="2"/>
<feComposite in2="hardAlpha" operator="out"/>
<feColorMatrix type="matrix" values="0 0 0 0 0 0 0 0 0 0 0 0 0 0 0 0 0 0 0.25 0"/>
<feBlend mode="normal" in2="BackgroundImageFix" result="effect1_dropShadow_3513_8201"/>
<feBlend mode="normal" in="SourceGraphic" in2="effect1_dropShadow_3513_8201" result="shape"/>
</filter>
</defs>
</svg>
