<svg width="80" height="80" viewBox="0 0 80 80" fill="none" xmlns="http://www.w3.org/2000/svg">
<path d="M56.7091 6.5105C55.4697 6.5105 54.7417 7.14042 54.2521 7.63375L48.5097 13.3438L45.6631 10.8405C44.0937 9.27054 42.0247 8.48722 39.9677 8.48722C37.9107 8.48722 35.7421 9.39708 34.1724 10.9671L17.6468 27.4771C16.3468 28.7771 16.4024 30.9106 17.7028 32.2106C19.0028 33.5139 21.1751 33.4571 22.4754 32.1538L38.9514 15.6538C39.4897 15.1138 40.3294 14.8739 40.9831 15.5539L43.7534 18.0671L24.1844 37.6337C20.8778 40.9437 17.8371 45.4038 14.9248 50.6538C12.6958 54.6704 10.6334 58.9738 8.89042 63.2571C8.28109 64.7538 6.66309 69.0872 6.66309 69.8839C6.66309 70.6772 6.92475 71.4205 7.43409 72.0071C7.48442 72.0638 8.46709 73.1472 10.0011 73.1772L56.5411 73.1505C58.3797 73.1505 59.8704 71.6605 59.8704 69.8172C59.8704 67.9772 58.3797 66.4838 56.5411 66.4838L26.3861 66.4906C27.4097 65.9706 28.4497 65.4206 29.4431 64.8672C34.6851 61.9539 38.9684 58.9438 42.2701 55.6371L63.9281 34.0905L72.2514 25.6538C72.7241 25.1738 73.3241 24.6705 73.3257 23.1605C73.3337 16.5705 70.6444 12.5406 69.0041 10.8572C67.3637 9.17722 63.3681 6.51716 56.7091 6.5105ZM57.9307 13.3139C59.3264 13.2706 62.7641 14.0771 64.2544 15.4904C65.7447 16.9071 66.6024 20.5838 66.5547 21.9738L62.3777 26.1471L53.4271 17.8838L57.9307 13.3139ZM48.6731 22.6337L57.7041 30.8139L37.5017 50.9638C34.6981 53.7705 30.8457 56.4572 26.0998 59.0972C22.9031 60.8738 19.3104 62.5438 15.8724 64.0105C17.3354 60.5672 18.9757 57.0805 20.7511 53.8805C23.3877 49.1305 26.1951 45.1704 28.9967 42.3638L48.6731 22.6337Z" fill="#8551F3"/>
</svg>
