<svg width="26" height="26" viewBox="0 0 26 26" fill="none" xmlns="http://www.w3.org/2000/svg">
<path id="Vector" d="M1.44503 17.0946L1.45453 17.0532L1.4409 17.0129C1.00321 15.721 0.667578 14.365 0.667578 12.9985C0.667578 6.17763 6.19667 0.648535 13.0176 0.648535C19.8385 0.648535 25.3676 6.17763 25.3676 12.9985C25.3676 19.8195 19.8385 25.3485 13.0176 25.3485C11.6452 25.3485 10.2186 25.0406 8.88703 24.5757L8.84584 24.5613L8.80336 24.5713L6.96836 25.0012L6.96836 25.0012L6.96621 25.0018C4.89511 25.5194 3.15594 25.0268 2.06275 23.9133C0.969038 22.7993 0.497677 21.0391 1.01438 18.9724L1.01504 18.9696L1.44503 17.0946ZM9.41758 12.9985C9.41758 12.2257 8.79042 11.5985 8.01758 11.5985C7.24474 11.5985 6.61758 12.2257 6.61758 12.9985C6.61758 13.7714 7.24474 14.3985 8.01758 14.3985C8.79042 14.3985 9.41758 13.7714 9.41758 12.9985ZM14.4176 12.9985C14.4176 12.2257 13.7904 11.5985 13.0176 11.5985C12.2447 11.5985 11.6176 12.2257 11.6176 12.9985C11.6176 13.7714 12.2447 14.3985 13.0176 14.3985C13.7904 14.3985 14.4176 13.7714 14.4176 12.9985ZM19.4176 12.9985C19.4176 12.2257 18.7904 11.5985 18.0176 11.5985C17.2447 11.5985 16.6176 12.2257 16.6176 12.9985C16.6176 13.7714 17.2447 14.3985 18.0176 14.3985C18.7904 14.3985 19.4176 13.7714 19.4176 12.9985Z" fill="#57545E" stroke="#57545E" stroke-width="0.3"/>
</svg>
