<svg width="20" height="17" viewBox="0 0 20 17" fill="none" xmlns="http://www.w3.org/2000/svg">
<path id="Vector" d="M4.18703 0.40625C1.89203 0.40625 -0.000976562 2.18425 -0.000976562 4.40625V12.4062C-0.000976562 14.6283 1.89203 16.4062 4.18703 16.4062H15.811C18.106 16.4062 19.999 14.6283 19.999 12.4062V4.40625C19.999 2.18425 18.106 0.40625 15.811 0.40625H4.18703ZM4.18703 2.40625H15.811C17.026 2.40625 17.999 3.31525 17.999 4.40625V12.4062C17.999 13.4972 17.026 14.4062 15.811 14.4062H4.18703C2.97203 14.4062 1.99902 13.4972 1.99902 12.4062V4.40625C1.99902 3.31525 2.97203 2.40625 4.18703 2.40625ZM12.999 4.40625C12.447 4.40625 11.999 4.85425 11.999 5.40625V11.4062C11.999 11.9583 12.447 12.4062 12.999 12.4062H14.999C15.551 12.4062 15.999 11.9583 15.999 11.4062V5.40625C15.999 4.85425 15.551 4.40625 14.999 4.40625H12.999Z" fill="#57545E"/>
</svg>
