<svg width="16" height="16" viewBox="0 0 16 16" fill="none" xmlns="http://www.w3.org/2000/svg">
<g id="trash2-fill">
<path id="Vector" d="M7.99935 1.30225C7.26269 1.30225 6.66602 1.89891 6.66602 2.63558H3.33268C2.96468 2.63558 2.66602 2.93424 2.66602 3.30224C2.66602 3.67024 2.96468 3.9689 3.33268 3.9689H12.666C13.034 3.9689 13.3327 3.67024 13.3327 3.30224C13.3327 2.93424 13.034 2.63558 12.666 2.63558H9.33269C9.33269 1.89891 8.73602 1.30225 7.99935 1.30225ZM3.33268 5.30223V11.9689C3.33268 13.4289 4.53602 14.6149 5.99935 14.6149L10.02 14.6355C11.4834 14.6355 12.666 13.4322 12.666 11.9689V5.30223H3.33268ZM6.66602 7.30223C7.03402 7.30223 7.33269 7.60089 7.33269 7.96889V11.9689C7.33269 12.3369 7.03402 12.6355 6.66602 12.6355C6.29802 12.6355 5.99935 12.3369 5.99935 11.9689V7.96889C5.99935 7.60089 6.29802 7.30223 6.66602 7.30223ZM9.33269 7.30223C9.70069 7.30223 9.99936 7.60089 9.99936 7.96889V11.9689C9.99936 12.3369 9.70069 12.6355 9.33269 12.6355C8.96469 12.6355 8.66602 12.3369 8.66602 11.9689V7.96889C8.66602 7.60089 8.96469 7.30223 9.33269 7.30223Z" fill="#9F9DA3"/>
</g>
</svg>
