<svg width="24" height="24" viewBox="0 0 24 24" fill="none" xmlns="http://www.w3.org/2000/svg">
<path id="Vector" fill-rule="evenodd" clip-rule="evenodd" d="M11.9937 4.27696C12.9677 4.27696 13.7572 3.48742 13.7572 2.51348C13.7572 1.53954 12.9677 0.75 11.9937 0.75C11.0198 0.75 10.2303 1.53954 10.2303 2.51348C10.2303 3.48742 11.0198 4.27696 11.9937 4.27696ZM11.9937 19.723C11.0182 19.723 10.2303 20.511 10.2303 21.4865C10.2303 22.4621 11.0182 23.25 11.9937 23.25C12.9693 23.25 13.7572 22.4621 13.7572 21.4865C13.7572 20.511 12.9693 19.723 11.9937 19.723ZM19.723 12.0063C19.723 11.0307 20.511 10.2428 21.4865 10.2428C22.4621 10.2428 23.25 11.0307 23.25 12.0063C23.25 12.9818 22.4621 13.7697 21.4865 13.7697C20.511 13.7697 19.723 12.9818 19.723 12.0063ZM4.27696 12.0063C4.27696 11.0307 3.48902 10.2428 2.51348 10.2428C1.53794 10.2428 0.75 11.0307 0.75 12.0063C0.75 12.9818 1.53794 13.7697 2.51348 13.7697C3.48902 13.7697 4.27696 12.9818 4.27696 12.0063ZM19.9482 4.03933C20.636 4.72721 20.636 5.85283 19.9482 6.54072C19.2603 7.2286 18.1347 7.2286 17.4468 6.54072C16.7589 5.85283 16.7589 4.72721 17.4468 4.03933C18.1347 3.35144 19.2603 3.35144 19.9482 4.03933ZM4.03933 17.4718C3.35144 18.1597 3.35144 19.2853 4.03933 19.9732C4.72721 20.6611 5.85283 20.6611 6.54072 19.9732C7.2286 19.2853 7.2286 18.1597 6.54072 17.4718C5.85283 16.7839 4.72721 16.7839 4.03933 17.4718ZM17.4593 19.9732C16.7714 19.2853 16.7714 18.1597 17.4593 17.4718C18.1472 16.7839 19.2728 16.7839 19.9607 17.4718C20.6486 18.1597 20.6486 19.2853 19.9607 19.9732C19.2728 20.6611 18.1472 20.6611 17.4593 19.9732ZM6.52822 6.54072C7.2161 5.85283 7.2161 4.72721 6.52822 4.03933C5.84033 3.35144 4.71471 3.35144 4.02683 4.03933C3.33894 4.72721 3.33894 5.85283 4.02683 6.54072C4.71471 7.2286 5.84033 7.2286 6.52822 6.54072ZM13.0819 6.99097C13.9073 9.44233 14.5702 10.1052 17.009 10.9181C18.0721 11.2683 18.0721 12.7442 17.009 13.0944C14.5577 13.9073 13.8948 14.5827 13.0819 17.0215C12.7317 18.0846 11.2559 18.0846 10.9057 17.0215C10.0802 14.5702 9.41733 13.9073 6.97847 13.0944C6.45318 12.9193 6.17803 12.469 6.17803 12.0063C6.17803 11.5435 6.45318 11.0932 6.97847 10.9181C9.42984 10.1052 10.0927 9.44233 10.9057 6.99097C11.2559 5.92788 12.7317 5.92788 13.0819 6.99097Z" fill="#7270E8"/>
</svg>
