<svg width="25" height="24" viewBox="0 0 25 24" fill="none" xmlns="http://www.w3.org/2000/svg">
<g id="file-text-fill">
<path id="Vector" d="M8.5293 1.99902C6.3203 1.99902 4.5293 3.79002 4.5293 5.99902L4.5293 17.999C4.5293 20.208 6.3203 21.999 8.5293 21.999L16.5293 21.999C18.7383 21.999 20.5293 20.208 20.5293 17.999L20.5293 5.99902C20.5293 3.79002 18.7383 1.99902 16.5293 1.99902L8.5293 1.99902ZM9.5293 5.99902L15.5293 5.99902C16.0813 5.99902 16.5293 6.44702 16.5293 6.99902C16.5293 7.55102 16.0813 7.99902 15.5293 7.99902L9.5293 7.99902C8.9773 7.99902 8.5293 7.55102 8.5293 6.99902C8.5293 6.44702 8.9773 5.99902 9.5293 5.99902ZM9.5293 9.99902L15.5293 9.99902C16.0813 9.99902 16.5293 10.447 16.5293 10.999C16.5293 11.551 16.0813 11.999 15.5293 11.999L9.5293 11.999C8.9773 11.999 8.5293 11.551 8.5293 10.999C8.5293 10.447 8.9773 9.99902 9.5293 9.99902ZM9.5293 13.999L12.5293 13.999C13.0813 13.999 13.5293 14.447 13.5293 14.999C13.5293 15.551 13.0813 15.999 12.5293 15.999L9.5293 15.999C8.9773 15.999 8.5293 15.551 8.5293 14.999C8.5293 14.447 8.9773 13.999 9.5293 13.999Z" fill="#9A66FF"/>
</g>
</svg>
