<svg width="19" height="20" viewBox="0 0 19 20" fill="none" xmlns="http://www.w3.org/2000/svg">
<path id="Vector" opacity="0.986784" d="M13.998 0.953125C13.733 0.953125 13.4671 1.04713 13.2791 1.23413C11.7791 2.73413 11.7791 2.73413 11.2791 3.23413L4.27905 10.2341C4.09205 10.4221 3.99805 10.6881 3.99805 10.9531V14.9531C3.99805 15.5051 4.44605 15.9531 4.99805 15.9531C5.49805 15.9531 8.49805 15.9531 8.99805 15.9531C9.26305 15.9531 9.52904 15.8591 9.71704 15.6721L16.717 8.67212C17.217 8.17212 17.217 8.17212 18.717 6.67212C18.904 6.48412 18.998 6.21812 18.998 5.95312C18.998 4.31712 18.581 3.14814 17.717 2.26514C16.844 1.37514 15.679 0.953125 13.998 0.953125ZM3.99805 1.95312C1.78905 1.95312 -0.00195312 3.74412 -0.00195312 5.95312V15.9531C-0.00195312 18.1621 1.78905 19.9531 3.99805 19.9531H13.998C16.207 19.9531 17.998 18.1621 17.998 15.9531V11.9531C17.998 11.4011 17.55 10.9531 16.998 10.9531C16.446 10.9531 15.998 11.4011 15.998 11.9531V15.9531C15.998 17.0581 15.103 17.9531 13.998 17.9531H3.99805C2.89305 17.9531 1.99805 17.0581 1.99805 15.9531V5.95312C1.99805 4.84812 2.89305 3.95312 3.99805 3.95312H7.99805C8.55005 3.95312 8.99805 3.50513 8.99805 2.95312C8.99805 2.40112 8.55005 1.95312 7.99805 1.95312H3.99805ZM14.405 2.97211C15.307 3.02511 15.8781 3.23111 16.2791 3.64111C16.6891 4.05911 16.925 4.69013 16.98 5.57513C16.491 6.06413 16.188 6.35414 16.002 6.54114C15.209 5.74914 14.203 4.75211 13.411 3.95911C13.598 3.77211 13.916 3.46111 14.405 2.97211ZM12 5.37915L14.5851 7.95715L8.56004 13.9531C7.92804 13.9531 6.91905 13.9531 5.99805 13.9531V11.3911L12 5.37915Z" fill="white"/>
</svg>
