<svg width="16" height="16" viewBox="0 0 16 16" fill="none" xmlns="http://www.w3.org/2000/svg">
<g id="pencil-square-fill">
<path id="Vector" d="M12.0754 1.30865C11.8687 1.27932 11.6614 1.34799 11.5134 1.49599C11.3607 1.64865 5.51672 7.49264 5.51672 7.49264C5.39205 7.61731 5.32938 7.79465 5.32938 7.97132V9.96998C5.32938 10.338 5.62805 10.6366 5.99605 10.6366C6.24538 10.6366 7.74471 10.6366 7.99471 10.6366C8.17137 10.6366 8.34872 10.574 8.47338 10.4493C8.47338 10.4493 14.3187 4.60398 14.47 4.45265C14.6194 4.30332 14.688 4.07798 14.6574 3.86932C14.5547 3.17398 14.2607 2.64999 13.804 2.18332C13.3454 1.71466 12.7854 1.40865 12.0754 1.30865ZM4.66337 1.97467C3.19137 1.97467 1.99805 3.16799 1.99805 4.63999V11.3027C1.99805 12.7747 2.52471 13.968 3.99671 13.968H11.326C12.798 13.968 13.9914 12.7747 13.9914 11.3027V6.80531L9.4107 11.386C9.02937 11.7673 8.51871 11.9693 7.99471 11.9693C7.65137 11.9693 6.33938 11.9693 5.99605 11.9693C4.89205 11.9693 3.99671 11.074 3.99671 9.96998V7.97132C3.99671 7.44732 4.17805 6.93664 4.55939 6.55531L9.14005 1.97467H4.66337ZM12.198 2.69866C12.4527 2.77866 12.656 2.90534 12.846 3.09934C13.042 3.29934 13.178 3.50334 13.2594 3.75534C12.97 4.04201 12.65 4.35332 12.314 4.68666L11.258 3.62998C11.5967 3.29598 11.906 2.98666 12.198 2.69866Z" fill="#9F9DA3"/>
</g>
</svg>
