<svg xmlns="http://www.w3.org/2000/svg" width="24" height="24" viewBox="0 0 24 24" fill="none">
  <path d="M12 1.95312C13.381 1.95312 14.5 3.07212 14.5 4.45312C14.5 5.83413 13.381 6.95312 12 6.95312C10.294 6.95312 8.68299 7.88712 7.93799 9.04712C7.12399 8.05412 5.23799 6.90713 2.93799 7.73413C4.52599 4.31313 7.98 1.95312 12 1.95312ZM16.219 2.85913C19.64 4.44813 22 7.93313 22 11.9531C22 13.3341 20.881 14.4531 19.5 14.4531C18.119 14.4531 17 13.3341 17 11.9531C17 10.2471 16.213 8.84711 14.906 7.89111C16.401 6.69011 16.872 4.50213 16.219 2.85913ZM4.5 9.45312C5.881 9.45312 7 10.5721 7 11.9531C7 13.6591 7.86299 15.1151 9.09399 16.0151C7.86799 17.0211 7.05201 18.9191 7.78101 21.0151C4.36001 19.4271 2 15.9731 2 11.9531C2 10.5721 3.119 9.45312 4.5 9.45312ZM16.063 14.8911C17.156 16.1541 19.11 16.9071 21.094 16.1721C19.505 19.5931 16.02 21.9531 12 21.9531C10.619 21.9531 9.5 20.8341 9.5 19.4531C9.5 18.0721 10.619 16.9531 12 16.9531C13.706 16.9531 15.097 16.1601 16.063 14.8911Z" fill="white"/>
</svg>