<svg width="21" height="26" viewBox="0 0 21 26" fill="none" xmlns="http://www.w3.org/2000/svg">
<path id="Vector" d="M4.48767 0.498047C2.04892 0.498047 0.0351562 2.34804 0.0351562 4.67803V21.318C0.0351562 23.648 2.04892 25.498 4.48767 25.498H15.5826C18.0214 25.498 20.0351 23.648 20.0351 21.318C20.0351 20.5018 20.0351 11.4955 20.0351 9.20928C20.0351 4.75553 15.7364 0.498047 11.2851 0.498047C6.01765 0.498047 6.00516 0.498047 4.48767 0.498047ZM12.5351 3.31054C14.7339 3.89429 16.6326 5.76803 17.2226 7.95928C16.3939 7.97178 15.6614 8.00554 15.0351 7.99804C13.2001 7.97554 12.5176 7.61804 12.4964 5.49804C12.4939 5.27929 12.5239 4.28554 12.5351 3.31054ZM13.7851 11.748C14.1051 11.748 14.4389 11.8555 14.6839 12.0993C15.1714 12.588 15.1714 13.408 14.6839 13.8968L9.68389 18.8968C9.19514 19.3843 8.37515 19.3843 7.8864 18.8968L5.38641 16.3968C4.89891 15.908 4.89891 15.088 5.38641 14.5993C5.87516 14.1118 6.69514 14.1118 7.18389 14.5993L8.78515 16.2005L12.8864 12.0993C13.1314 11.8555 13.4651 11.748 13.7851 11.748Z" fill="#57545E"/>
</svg>
