<svg width="18" height="18" viewBox="0 0 18 18" fill="none" xmlns="http://www.w3.org/2000/svg">
<path id="Vector" d="M1.99805 -0.00927734C0.893447 -0.00927734 -0.00195312 0.885723 -0.00195312 1.99072V5.99072C-0.00195312 7.09572 0.893447 7.99072 1.99805 7.99072H5.99805C7.10305 7.99072 7.99805 7.09572 7.99805 5.99072V1.99072C7.99805 0.885723 7.10305 -0.00927734 5.99805 -0.00927734H1.99805ZM11.998 -0.00927734C10.893 -0.00927734 9.99805 0.885723 9.99805 1.99072V5.99072C9.99805 7.09572 10.893 7.99072 11.998 7.99072H15.998C17.103 7.99072 17.998 7.09572 17.998 5.99072V1.99072C17.998 0.885723 17.103 -0.00927734 15.998 -0.00927734H11.998ZM1.99805 1.99072H5.99805V5.99072H1.99805V1.99072ZM11.998 1.99072H15.998V5.99072H11.998V1.99072ZM1.99805 9.99072C0.893447 9.99072 -0.00195312 10.8857 -0.00195312 11.9907V15.9907C-0.00195312 17.0957 0.893447 17.9907 1.99805 17.9907H5.99805C7.10305 17.9907 7.99805 17.0957 7.99805 15.9907V11.9907C7.99805 10.8857 7.10305 9.99072 5.99805 9.99072H1.99805ZM11.998 9.99072C10.893 9.99072 9.99805 10.8857 9.99805 11.9907V15.9907C9.99805 17.0957 10.893 17.9907 11.998 17.9907H15.998C17.103 17.9907 17.998 17.0957 17.998 15.9907V11.9907C17.998 10.8857 17.103 9.99072 15.998 9.99072H11.998ZM1.99805 11.9907H5.99805V15.9907H1.99805V11.9907ZM11.998 11.9907H15.998V15.9907H11.998V11.9907Z" fill="#57545E"/>
</svg>
