<svg width="24" height="24" viewBox="0 0 24 24" fill="none" xmlns="http://www.w3.org/2000/svg">
<g id="clock-fill">
<path id="Vector" d="M11.9844 1.9989C17.5072 1.9989 21.9844 6.4759 21.9844 11.9989C21.9844 17.5219 17.5072 21.9989 11.9844 21.9989C6.46157 21.9989 1.98438 17.5219 1.98438 11.9989C1.98438 6.4759 6.46157 1.9989 11.9844 1.9989ZM11.9844 5.9989C11.4321 5.9989 10.9844 6.4469 10.9844 6.9989V11.5609L8.26557 14.2799C7.87507 14.6709 7.87507 15.3269 8.26557 15.7179C8.65617 16.1079 9.31258 16.1079 9.70318 15.7179L12.7032 12.7179C12.8907 12.5299 12.9844 12.2639 12.9844 11.9989V6.9989C12.9844 6.4469 12.5367 5.9989 11.9844 5.9989Z" fill="#57545E"/>
</g>
</svg>
