<svg xmlns="http://www.w3.org/2000/svg" width="24" height="24" viewBox="0 0 24 24" fill="none">
  <path d="M11.9844 1.99902C17.5072 1.99902 21.9844 6.47602 21.9844 11.999C21.9844 17.522 17.5072 21.999 11.9844 21.999C6.46157 21.999 1.98438 17.522 1.98438 11.999C1.98438 6.47602 6.46157 1.99902 11.9844 1.99902ZM11.9844 5.99902C11.4321 5.99902 10.9844 6.44702 10.9844 6.99902V11.561L8.26557 14.28C7.87507 14.671 7.87507 15.327 8.26557 15.718C8.65617 16.108 9.31258 16.108 9.70318 15.718L12.7032 12.718C12.8907 12.53 12.9844 12.264 12.9844 11.999V6.99902C12.9844 6.44702 12.5367 5.99902 11.9844 5.99902Z" fill="white"/>
</svg>