<svg xmlns="http://www.w3.org/2000/svg" width="24" height="24" viewBox="0 0 24 24" fill="none">
  <path d="M12.0604 2.19758C13.0774 2.18558 14.0734 2.52158 14.7794 3.22858L21.7174 10.3216C22.0154 10.6266 22.0954 11.0656 21.9044 11.4476L20.9984 13.2596L21.0294 18.9786C21.0294 20.1096 20.1234 21.0096 18.9984 21.0096H15.8104C14.8134 21.0096 13.9984 20.1946 13.9984 19.1976V15.8906C13.9984 14.8516 13.1564 14.0096 12.1174 14.0096H11.8794C10.8404 14.0096 9.9984 14.8516 9.9984 15.8906V19.1976C9.9984 20.1946 9.18341 21.0096 8.18641 21.0096H4.9984C3.8734 21.0096 2.9674 20.1036 2.9674 18.9786L2.9984 13.2596L2.0924 11.4476C1.8994 11.0626 1.97541 10.5956 2.27941 10.2906C2.53941 10.0306 8.65441 3.91559 9.27941 3.29059C10.0044 2.56559 11.0444 2.20858 12.0604 2.19758Z" fill="white"/>
</svg>