<svg width="21" height="20" viewBox="0 0 21 20" fill="none" xmlns="http://www.w3.org/2000/svg">
<path id="Vector" d="M10.0721 0.594182C11.0891 0.582182 12.0851 0.918188 12.7911 1.62519L19.7291 8.7182C20.0271 9.0232 20.1071 9.46218 19.9161 9.84418L19.0101 11.6562L19.0411 17.3752C19.0411 18.5062 18.1351 19.4062 17.0101 19.4062H13.8221C12.8251 19.4062 12.0101 18.5912 12.0101 17.5942V14.2872C12.0101 13.2482 11.1681 12.4062 10.1291 12.4062H9.89112C8.85212 12.4062 8.01012 13.2482 8.01012 14.2872V17.5942C8.01012 18.5912 7.19512 19.4062 6.19812 19.4062H3.01012C1.88512 19.4062 0.979116 18.5002 0.979116 17.3752L1.01012 11.6562L0.104116 9.84418C-0.0888844 9.45918 -0.0128727 8.9922 0.291128 8.6872C0.551128 8.4272 6.66613 2.3122 7.29113 1.6872C8.01613 0.9622 9.05612 0.605182 10.0721 0.594182Z" fill="#57545E"/>
</svg>
