<svg xmlns="http://www.w3.org/2000/svg" width="16" height="16" viewBox="0 0 16 16" fill="none">
  <path d="M8.00521 1.99414C6.63588 1.99414 5.32788 2.45348 4.27588 3.28614C3.98721 3.51414 3.94321 3.9348 4.17188 4.22347C4.40054 4.51213 4.82055 4.55614 5.10921 4.32747C5.92721 3.68014 6.93921 3.32747 8.00521 3.32747C10.5825 3.32747 12.6719 5.4168 12.6719 7.99413H11.3385L13.3385 10.6608L15.3385 7.99413H14.0052C14.0052 4.68014 11.3192 1.99414 8.00521 1.99414ZM2.67188 5.32747L0.671875 7.99413H2.00521C2.00521 11.3081 4.69121 13.9941 8.00521 13.9941C9.37521 13.9941 10.6825 13.5355 11.7345 12.7021C12.0232 12.4741 12.0672 12.0535 11.8385 11.7648C11.6099 11.4761 11.1899 11.4321 10.9012 11.6608C10.0825 12.3088 9.07188 12.6608 8.00521 12.6608C5.42788 12.6608 3.33854 10.5715 3.33854 7.99413H4.67188L2.67188 5.32747Z" fill="#7270E8"/>
</svg>