<svg xmlns="http://www.w3.org/2000/svg" width="16" height="16" viewBox="0 0 16 16" fill="none">
    <path d="M5.45923 1.34418C7.20636 1.44418 7.78535 2.75751 7.99662 3.35284C8.31375 4.24684 7.99276 6.0155 7.99276 6.0155L11.7434 6.01682C12.4096 6.01682 13.3194 6.61683 13.3318 7.48882C13.3417 8.18749 13.0068 8.63349 12.6828 8.99149C13.2391 9.48682 13.3318 10.0022 13.3318 10.5382C13.3318 11.0828 13.0387 11.6448 12.6413 12.0182C12.6614 13.2288 12.04 14.0235 10.9523 14.3862C10.2322 14.6268 9.57489 14.6781 7.99589 14.6781C4.96309 14.6781 2.71049 12.4168 2.66609 9.34482C2.64589 7.94415 3.02649 6.68549 3.78416 5.29616C4.80829 3.41883 4.66829 2.46018 4.67402 1.99884C4.67822 1.65684 4.99909 1.31818 5.45923 1.34418Z" fill="#7270E8"/>
</svg>