<svg xmlns="http://www.w3.org/2000/svg" width="14" height="14" viewBox="0 0 14 14" fill="none">
  <path d="M3.00846 0.301758C1.5358 0.301758 0.341797 1.49569 0.341797 2.96842V8.30175C0.341797 9.77442 1.5358 10.9684 3.00846 10.9684L3.01514 10.9718C3.1698 12.4578 4.44046 13.6351 5.96712 13.6351C6.18112 13.6351 7.88713 13.6351 8.3418 13.6351C10.7098 13.6351 13.6751 10.6698 13.6751 8.30175C13.6751 7.84709 13.6751 6.25709 13.6751 5.92709C13.6751 4.40023 12.4985 3.12462 11.0125 2.96989L11.0085 2.96842C11.0085 1.49569 9.81446 0.301758 8.3418 0.301758H3.00846ZM3.00846 1.63509H8.3418C9.07846 1.63509 9.67513 2.23202 9.67513 2.96842H5.96712C4.33646 2.96842 3.00846 4.29623 3.00846 5.92709V9.63509C2.2718 9.63509 1.67513 9.03842 1.67513 8.30175V2.96842C1.67513 2.23202 2.2718 1.63509 3.00846 1.63509ZM5.96712 4.30176H10.3418H10.7165C11.6111 4.30176 12.3418 5.03262 12.3418 5.92709C12.3418 6.16442 12.3418 6.98509 12.3418 7.63509C11.6971 7.63509 10.8471 7.63509 10.6338 7.63509C9.00312 7.63509 7.67513 8.96309 7.67513 10.5938V12.3018C6.99846 12.3018 6.12112 12.3018 5.96712 12.3018C5.07246 12.3018 4.3418 11.5711 4.3418 10.6764V10.3018V5.92709C4.3418 5.03256 5.07246 4.30176 5.96712 4.30176ZM10.6338 8.96842C10.8211 8.96842 11.5985 8.96709 12.2225 8.96709C11.8098 10.2851 10.3398 11.7338 9.01312 12.1884L9.00846 10.5938C9.00846 9.69909 9.73912 8.96842 10.6338 8.96842Z" fill="#7270E8"/>
</svg>