<svg xmlns="http://www.w3.org/2000/svg" width="12" height="14" viewBox="0 0 12 14" fill="none">
  <path d="M3.33203 0.342773C5.1383 0.342773 6.25623 0.820769 6.64457 2.15543C6.73203 2.4561 6.7707 2.79077 6.79037 3.15543C6.81123 3.54277 6.7941 3.9321 6.75617 4.33144L9.33203 4.34277C10.4366 4.34277 11.332 5.2381 11.332 6.34277C11.332 6.83077 11.1189 7.30209 10.7948 7.66076C11.1375 8.02009 11.332 8.4741 11.332 9.00943C11.332 9.55476 11.05 10.0848 10.6523 10.4581C10.6523 10.6214 10.6654 10.9054 10.6654 11.0094C10.6654 12.2354 10.0455 13.0214 8.95703 13.3841C8.23643 13.6248 7.5787 13.6761 5.9987 13.6761C2.96383 13.6761 0.665367 11.3774 0.665367 8.34276C0.665367 6.82743 0.935567 5.96877 1.7279 4.38411C2.43557 2.96878 2.66537 2.2721 2.66537 1.00944C2.66537 0.64144 2.96383 0.342773 3.33203 0.342773ZM3.97503 1.70343C3.88197 2.76809 3.57683 3.68676 2.93617 4.96809C2.2285 6.38342 1.9987 7.0801 1.9987 8.34276C1.9987 10.6414 3.70023 12.3428 5.9987 12.3428C8.63223 12.3428 9.33203 12.1094 9.33203 11.0094C9.22963 11.0094 8.74917 11.0094 8.66537 11.0094C8.29717 11.0094 7.9987 10.7108 7.9987 10.3428C7.9987 9.97476 8.29717 9.6761 8.66537 9.6761C8.74917 9.6761 9.22963 9.6761 9.33203 9.6761C9.6361 9.6761 9.9987 9.3161 9.9987 9.00943C9.9987 8.64143 9.70023 8.34276 9.33203 8.34276C9.23357 8.34276 8.74897 8.34276 8.66537 8.34276C8.29717 8.34276 7.9987 8.0441 7.9987 7.6761C7.9987 7.3081 8.29717 7.00943 8.66537 7.00943C8.74897 7.00943 9.23357 7.00943 9.33203 7.00943C9.64136 7.00943 9.9987 6.65677 9.9987 6.34277C9.9987 5.97477 9.70023 5.6761 9.33203 5.6761H5.9987C5.96823 5.6761 5.69797 5.6741 5.4779 5.40543C5.25777 5.1361 5.35003 4.89878 5.35283 4.88411C5.36717 4.81078 5.3919 4.67743 5.41537 4.48876C5.46817 4.0641 5.47823 3.6321 5.45703 3.23877C5.4425 2.96877 5.40903 2.72344 5.35283 2.53011C5.2121 2.04611 4.80277 1.7481 3.97503 1.70343Z" fill="#7270E8"/>
</svg>