<svg xmlns="http://www.w3.org/2000/svg" width="16" height="12" viewBox="0 0 16 12" fill="none">
  <path d="M8.00521 -0.00585938C6.63588 -0.00585938 5.32788 0.453476 4.27588 1.28614C3.98721 1.51414 3.94321 1.9348 4.17188 2.22347C4.40054 2.51213 4.82055 2.55614 5.10921 2.32747C5.92721 1.68014 6.93921 1.32747 8.00521 1.32747C10.5825 1.32747 12.6719 3.4168 12.6719 5.99413H11.3385L13.3385 8.6608L15.3385 5.99413H14.0052C14.0052 2.68014 11.3192 -0.00585938 8.00521 -0.00585938ZM2.67188 3.32747L0.671875 5.99413H2.00521C2.00521 9.30813 4.69121 11.9941 8.00521 11.9941C9.37521 11.9941 10.6825 11.5355 11.7345 10.7021C12.0232 10.4741 12.0672 10.0535 11.8385 9.7648C11.6099 9.47613 11.1899 9.43213 10.9012 9.66079C10.0825 10.3088 9.07188 10.6608 8.00521 10.6608C5.42788 10.6608 3.33854 8.57146 3.33854 5.99413H4.67188L2.67188 3.32747Z" fill="#9F9DA3"/>
</svg>