<svg xmlns="http://www.w3.org/2000/svg" width="16" height="16" viewBox="0 0 16 16" fill="none">
  <path d="M4.00846 1.30176C2.5358 1.30176 1.3418 2.49569 1.3418 3.96842V9.30175C1.3418 10.7744 2.5358 11.9684 4.00846 11.9684L4.01514 11.9718C4.1698 13.4578 5.44046 14.6351 6.96712 14.6351C7.18112 14.6351 8.88713 14.6351 9.3418 14.6351C11.7098 14.6351 14.6751 11.6698 14.6751 9.30175C14.6751 8.84709 14.6751 7.25709 14.6751 6.92709C14.6751 5.40023 13.4985 4.12462 12.0125 3.96989L12.0085 3.96842C12.0085 2.49569 10.8145 1.30176 9.3418 1.30176H4.00846ZM4.00846 2.63509H9.3418C10.0785 2.63509 10.6751 3.23202 10.6751 3.96842H6.96712C5.33646 3.96842 4.00846 5.29623 4.00846 6.92709V10.6351C3.2718 10.6351 2.67513 10.0384 2.67513 9.30175V3.96842C2.67513 3.23202 3.2718 2.63509 4.00846 2.63509ZM6.96712 5.30176H11.3418H11.7165C12.6111 5.30176 13.3418 6.03262 13.3418 6.92709C13.3418 7.16442 13.3418 7.98509 13.3418 8.63509C12.6971 8.63509 11.8471 8.63509 11.6338 8.63509C10.0031 8.63509 8.67513 9.96309 8.67513 11.5938V13.3018C7.99846 13.3018 7.12112 13.3018 6.96712 13.3018C6.07246 13.3018 5.3418 12.5711 5.3418 11.6764V11.3018V6.92709C5.3418 6.03256 6.07246 5.30176 6.96712 5.30176ZM11.6338 9.96842C11.8211 9.96842 12.5985 9.96709 13.2225 9.96709C12.8098 11.2851 11.3398 12.7338 10.0131 13.1884L10.0085 11.5938C10.0085 10.6991 10.7391 9.96842 11.6338 9.96842Z" fill="#9F9DA3"/>
</svg>