<svg xmlns="http://www.w3.org/2000/svg" width="12" height="14" viewBox="0 0 12 14" fill="none">
  <path d="M3.33268 13.6761C5.13868 13.6761 6.25668 13.1981 6.64535 11.8634C6.73268 11.5628 6.77135 11.2281 6.79135 10.8634C6.81202 10.4761 6.79468 10.0868 6.75668 9.68743L9.33268 9.6761C10.4373 9.6761 11.3327 8.78076 11.3327 7.6761C11.3327 7.1881 11.1193 6.71677 10.7953 6.35811C11.138 5.99877 11.3327 5.54477 11.3327 5.00943C11.3327 4.4641 11.0507 3.9341 10.6527 3.56077C10.6527 3.39743 10.666 3.11344 10.666 3.00944C10.666 1.78344 10.046 0.997432 8.95802 0.634765C8.23735 0.394099 7.57935 0.342773 5.99935 0.342773C2.96448 0.342773 0.666016 2.64144 0.666016 5.6761C0.666016 7.19143 0.936218 8.05009 1.72855 9.63475C2.43622 11.0501 2.66602 11.7468 2.66602 13.0094C2.66602 13.3774 2.96448 13.6761 3.33268 13.6761ZM3.97568 12.3154C3.88262 11.2508 3.57748 10.3321 2.93681 9.05077C2.22915 7.63544 1.99935 6.93877 1.99935 5.6761C1.99935 3.37744 3.70088 1.67611 5.99935 1.67611C8.63268 1.67611 9.33268 1.90944 9.33268 3.00944C9.23001 3.00944 8.75001 3.00944 8.66601 3.00944C8.29801 3.00944 7.99935 3.3081 7.99935 3.6761C7.99935 4.0441 8.29801 4.34277 8.66601 4.34277C8.75001 4.34277 9.23001 4.34277 9.33268 4.34277C9.63668 4.34277 9.99935 4.70277 9.99935 5.00943C9.99935 5.37743 9.70068 5.6761 9.33268 5.6761C9.23401 5.6761 8.74935 5.6761 8.66601 5.6761C8.29801 5.6761 7.99935 5.97477 7.99935 6.34277C7.99935 6.71077 8.29801 7.00943 8.66601 7.00943C8.74935 7.00943 9.23401 7.00943 9.33268 7.00943C9.64201 7.00943 9.99935 7.3621 9.99935 7.6761C9.99935 8.0441 9.70068 8.34276 9.33268 8.34276H5.99935C5.96868 8.34276 5.69868 8.34477 5.47868 8.61343C5.25868 8.88277 5.35068 9.12009 5.35335 9.13475C5.36801 9.20809 5.39268 9.34143 5.41601 9.5301C5.46868 9.95477 5.47868 10.3868 5.45802 10.7801C5.44335 11.0501 5.40935 11.2954 5.35335 11.4888C5.21268 11.9728 4.80335 12.2708 3.97568 12.3154Z" fill="#9F9DA3"/>
</svg>