<svg xmlns="http://www.w3.org/2000/svg" width="16" height="16" viewBox="0 0 16 16" fill="none">
  <path d="M5.46009 14.6562C7.20742 14.5562 7.78609 13.2429 7.99742 12.6476C8.31475 11.7536 7.99342 9.98492 7.99342 9.98492L11.7441 9.9836C12.4101 9.9836 13.3201 9.3836 13.3328 8.5116C13.3428 7.81293 13.0074 7.36693 12.6834 7.00893C13.2401 6.5136 13.3328 5.99826 13.3328 5.46226C13.3328 4.91759 13.0394 4.35559 12.6421 3.98226C12.6621 2.77159 12.0407 1.97692 10.9527 1.61426C10.2327 1.37359 9.57542 1.32227 7.99676 1.32227C4.96409 1.32227 2.71143 3.5836 2.66676 6.6556C2.64676 8.05627 3.02742 9.31493 3.78475 10.7043C4.80875 12.5816 4.66876 13.5403 4.67476 14.0016C4.67876 14.3436 5.00009 14.6822 5.46009 14.6562Z" fill="#7270E8"/>
</svg>