<svg width="18" height="19" viewBox="0 0 18 19" fill="none" xmlns="http://www.w3.org/2000/svg">
<path id="Vector" d="M2.99023 0.929688C1.33323 0.929688 -0.00976562 2.27269 -0.00976562 3.92969V5.92969C-0.00976562 7.58669 1.33323 8.92969 2.99023 8.92969H14.9902C16.6472 8.92969 17.9902 7.58669 17.9902 5.92969V3.92969C17.9902 2.27269 16.6472 0.929688 14.9902 0.929688H2.99023ZM2.99023 2.92969H14.9902C15.5422 2.92969 15.9902 3.37769 15.9902 3.92969V5.92969C15.9902 6.48169 15.5422 6.92969 14.9902 6.92969H2.99023C2.43823 6.92969 1.99023 6.48169 1.99023 5.92969V3.92969C1.99023 3.37769 2.43823 2.92969 2.99023 2.92969ZM2.99023 10.9297C1.33323 10.9297 -0.00976562 12.2727 -0.00976562 13.9297V15.9297C-0.00976562 17.5867 1.33323 18.9297 2.99023 18.9297H14.9902C16.6472 18.9297 17.9902 17.5867 17.9902 15.9297V13.9297C17.9902 12.2727 16.6472 10.9297 14.9902 10.9297H2.99023ZM2.99023 12.9297H14.9902C15.5422 12.9297 15.9902 13.3777 15.9902 13.9297V15.9297C15.9902 16.4817 15.5422 16.9297 14.9902 16.9297H2.99023C2.43823 16.9297 1.99023 16.4817 1.99023 15.9297V13.9297C1.99023 13.3777 2.43823 12.9297 2.99023 12.9297Z" fill="#57545E"/>
</svg>
