<svg xmlns="http://www.w3.org/2000/svg" width="24" height="24" viewBox="0 0 24 24" fill="none">
    <path d="M2.99219 6.99072C2.99219 4.78172 4.78309 2.99072 6.99219 2.99072H10.9922C13.2012 2.99072 14.9922 4.78172 14.9922 6.99072C14.9922 7.54272 14.5442 7.99072 13.9922 7.99072C13.4402 7.99072 12.9922 7.54272 12.9922 6.99072C12.9922 5.88572 12.0972 4.99072 10.9922 4.99072H6.99219C5.88759 4.99072 4.99219 5.88572 4.99219 6.99072V16.9907C4.99219 18.0957 5.88759 18.9907 6.99219 18.9907H10.9922C12.0972 18.9907 12.9922 18.0957 12.9922 16.9907C12.9922 16.4387 13.4402 15.9907 13.9922 15.9907C14.5442 15.9907 14.9922 16.4387 14.9922 16.9907C14.9922 19.1997 13.2012 20.9907 10.9922 20.9907H6.99219C4.78309 20.9907 2.99219 19.1997 2.99219 16.9907V6.99072ZM9.99219 11.9907C9.99219 11.4387 10.4402 10.9907 10.9922 10.9907H18.5552L16.5862 8.99072L17.9922 7.58471L21.7112 11.2717C22.1012 11.6627 22.1012 12.3187 21.7112 12.7097L17.9922 16.3967L16.5862 14.9907L18.5552 12.9907H10.9922C10.4402 12.9907 9.99219 12.5427 9.99219 11.9907Z" fill="#6F6C75"/>
</svg>