<svg width="25" height="24" viewBox="0 0 25 24" fill="none" xmlns="http://www.w3.org/2000/svg">
<g id="card-text-fill">
<path id="Vector" d="M6.76367 4.02832C4.55467 4.02832 2.76367 5.81932 2.76367 8.02832V16.0283C2.76367 18.2373 4.55467 20.0283 6.76367 20.0283H18.7637C20.9737 20.0283 22.7647 18.2373 22.7637 16.0283V8.02832C22.7637 5.81932 20.9737 4.02832 18.7637 4.02832H6.76367ZM7.76367 9.02832H17.7637C18.3167 9.02832 18.7637 9.47632 18.7637 10.0283C18.7637 10.5803 18.3167 11.0283 17.7637 11.0283H7.76367C7.21167 11.0283 6.76367 10.5803 6.76367 10.0283C6.76367 9.47632 7.21167 9.02832 7.76367 9.02832ZM7.76367 13.0283H13.7637C14.3167 13.0283 14.7637 13.4763 14.7637 14.0283C14.7637 14.5803 14.3167 15.0283 13.7637 15.0283H7.76367C7.21167 15.0283 6.76367 14.5803 6.76367 14.0283C6.76367 13.4763 7.21167 13.0283 7.76367 13.0283Z" fill="#6680FF"/>
</g>
</svg>
