<svg xmlns="http://www.w3.org/2000/svg" width="20" height="20" viewBox="0 0 20 20" fill="none">
  <path d="M5.67666 2.44141C3.90583 2.44141 2.5 3.94474 2.5 5.77474V14.1081C2.5 15.9381 3.90583 17.4414 5.67666 17.4414H14.3225C16.0942 17.4414 17.5 15.9381 17.5 14.1081V5.77474C17.5 3.94474 16.0942 2.44141 14.3225 2.44141H5.67666ZM5.67666 4.10807H5.83333V15.7747H5.67666C4.84916 15.7747 4.16667 15.0397 4.16667 14.1081V5.77474C4.16667 4.84307 4.84916 4.10807 5.67666 4.10807ZM7.5 4.10807H14.3225C15.1508 4.10807 15.8333 4.84307 15.8333 5.77474V14.1081C15.8333 15.0397 15.1508 15.7747 14.3225 15.7747H7.5V4.10807ZM10 5.77474C9.54 5.77474 9.16666 6.14807 9.16666 6.60807C9.16666 7.06807 9.54 7.4414 10 7.4414H13.3333C13.7933 7.4414 14.1667 7.06807 14.1667 6.60807C14.1667 6.14807 13.7933 5.77474 13.3333 5.77474H10ZM10 9.10807C9.54 9.10807 9.16666 9.4814 9.16666 9.9414C9.16666 10.4014 9.54 10.7747 10 10.7747H13.3333C13.7933 10.7747 14.1667 10.4014 14.1667 9.9414C14.1667 9.4814 13.7933 9.10807 13.3333 9.10807H10ZM10 12.4414C9.54 12.4414 9.16666 12.8147 9.16666 13.2747C9.16666 13.7347 9.54 14.1081 10 14.1081H13.3333C13.7933 14.1081 14.1667 13.7347 14.1667 13.2747C14.1667 12.8147 13.7933 12.4414 13.3333 12.4414H10Z" fill="#272330"/>
</svg>