<svg xmlns="http://www.w3.org/2000/svg" width="22" height="24" viewBox="0 0 22 24" fill="none">
  <g filter="url(#filter0_b_3602_3219)">
    <path d="M0.5 4.99988C0.5 2.23845 2.73858 -0.00012207 5.5 -0.00012207H12.5C15.2614 -0.00012207 17.5 2.23845 17.5 4.99988V11.9999C17.5 14.7613 15.2614 16.9999 12.5 16.9999H5.5C2.73858 16.9999 0.5 14.7613 0.5 11.9999V4.99988Z" fill="url(#paint0_linear_3602_3219)"/>
  </g>
  <g filter="url(#filter1_b_3602_3219)">
    <mask id="path-2-inside-1_3602_3219" fill="white">
      <path d="M4.23438 7.4159C4.23438 4.65447 6.47295 2.41589 9.23437 2.41589H16.5018C19.2632 2.41589 21.5018 4.65447 21.5018 7.41589V19.0001C21.5018 21.7616 19.2632 24.0001 16.5018 24.0001H9.23437C6.47295 24.0001 4.23438 21.7616 4.23438 19.0001V7.4159Z"/>
    </mask>
    <path d="M4.23438 7.4159C4.23438 4.65447 6.47295 2.41589 9.23437 2.41589H16.5018C19.2632 2.41589 21.5018 4.65447 21.5018 7.41589V19.0001C21.5018 21.7616 19.2632 24.0001 16.5018 24.0001H9.23437C6.47295 24.0001 4.23438 21.7616 4.23438 19.0001V7.4159Z" fill="#FFB7B5" fill-opacity="0.5"/>
    <path d="M9.23437 2.61589H16.5018V2.21589H9.23437V2.61589ZM21.3018 7.41589V19.0001H21.7018V7.41589H21.3018ZM16.5018 23.8001H9.23437V24.2001H16.5018V23.8001ZM4.43438 19.0001V7.4159H4.03437V19.0001H4.43438ZM9.23437 23.8001C6.58341 23.8001 4.43438 21.6511 4.43438 19.0001H4.03437C4.03437 21.872 6.36249 24.2001 9.23437 24.2001V23.8001ZM21.3018 19.0001C21.3018 21.6511 19.1527 23.8001 16.5018 23.8001V24.2001C19.3737 24.2001 21.7018 21.872 21.7018 19.0001H21.3018ZM16.5018 2.61589C19.1527 2.61589 21.3018 4.76493 21.3018 7.41589H21.7018C21.7018 4.54401 19.3737 2.21589 16.5018 2.21589V2.61589ZM9.23437 2.21589C6.36249 2.21589 4.03437 4.54402 4.03437 7.4159H4.43438C4.43438 4.76493 6.58341 2.61589 9.23437 2.61589V2.21589Z" fill="url(#paint1_linear_3602_3219)" mask="url(#path-2-inside-1_3602_3219)"/>
  </g>
  <rect width="8.69537" height="1.20769" rx="0.603845" transform="matrix(-1 0 0 1 17.2734 9.4198)" fill="url(#paint2_linear_3602_3219)"/>
  <rect width="8.69537" height="1.44923" rx="0.724614" transform="matrix(-1 0 0 1 17.2734 12.5604)" fill="url(#paint3_linear_3602_3219)"/>
  <rect width="8.69537" height="1.20769" rx="0.603845" transform="matrix(-1 0 0 1 17.2734 15.9403)" fill="url(#paint4_linear_3602_3219)"/>
  <defs>
    <filter id="filter0_b_3602_3219" x="-12.5511" y="-13.0513" width="43.1023" height="43.1023" filterUnits="userSpaceOnUse" color-interpolation-filters="sRGB">
      <feFlood flood-opacity="0" result="BackgroundImageFix"/>
      <feGaussianBlur in="BackgroundImageFix" stdDeviation="6.52557"/>
      <feComposite in2="SourceAlpha" operator="in" result="effect1_backgroundBlur_3602_3219"/>
      <feBlend mode="normal" in="SourceGraphic" in2="effect1_backgroundBlur_3602_3219" result="shape"/>
    </filter>
    <filter id="filter1_b_3602_3219" x="1.23438" y="-0.584106" width="23.2656" height="27.5842" filterUnits="userSpaceOnUse" color-interpolation-filters="sRGB">
      <feFlood flood-opacity="0" result="BackgroundImageFix"/>
      <feGaussianBlur in="BackgroundImageFix" stdDeviation="1.5"/>
      <feComposite in2="SourceAlpha" operator="in" result="effect1_backgroundBlur_3602_3219"/>
      <feBlend mode="normal" in="SourceGraphic" in2="effect1_backgroundBlur_3602_3219" result="shape"/>
    </filter>
    <linearGradient id="paint0_linear_3602_3219" x1="1.62484" y1="0.972386" x2="14.3216" y2="18.5639" gradientUnits="userSpaceOnUse">
      <stop stop-color="#FF6161"/>
      <stop offset="1" stop-color="#F52828"/>
    </linearGradient>
    <linearGradient id="paint1_linear_3602_3219" x1="25.852" y1="24.8789" x2="2.1813" y2="1.2082" gradientUnits="userSpaceOnUse">
      <stop stop-color="white"/>
      <stop offset="1" stop-color="white" stop-opacity="0.2"/>
    </linearGradient>
    <linearGradient id="paint2_linear_3602_3219" x1="8.47798" y1="1.59875e-06" x2="-2.71251" y2="0.764323" gradientUnits="userSpaceOnUse">
      <stop stop-color="white"/>
      <stop offset="1" stop-color="white" stop-opacity="0"/>
    </linearGradient>
    <linearGradient id="paint3_linear_3602_3219" x1="8.47798" y1="-4.21434e-07" x2="-1.75236" y2="1.20866" gradientUnits="userSpaceOnUse">
      <stop stop-color="white"/>
      <stop offset="1" stop-color="white" stop-opacity="0"/>
    </linearGradient>
    <linearGradient id="paint4_linear_3602_3219" x1="8.47798" y1="-8.22456e-08" x2="-1.20503" y2="1.21899" gradientUnits="userSpaceOnUse">
      <stop stop-color="white"/>
      <stop offset="1" stop-color="white" stop-opacity="0"/>
    </linearGradient>
  </defs>
</svg>