<svg xmlns="http://www.w3.org/2000/svg" width="22" height="24" viewBox="0 0 22 24" fill="none">
  <path d="M17.7952 5.77196C18.4977 5.33289 18.7113 4.40747 18.2722 3.70496C17.8332 3.00245 16.9077 2.78889 16.2052 3.22796L4.2313 10.7117C4.12619 10.7743 4.02794 10.8503 3.93933 10.9391C3.65394 11.2239 3.50037 11.6085 3.5 12C3.4998 12.2106 3.54394 12.4233 3.63576 12.6235C3.70891 12.784 3.81082 12.9327 3.93952 13.0611C4.02807 13.1498 4.12625 13.2257 4.23127 13.2883L16.2052 20.772C16.9077 21.2111 17.8332 20.9975 18.2722 20.295C18.7113 19.5925 18.4977 18.6671 17.7952 18.228L7.8304 12L17.7952 5.77196Z" fill="url(#paint0_linear_3602_3213)"/>
  <g filter="url(#filter0_b_3602_3213)">
    <ellipse cx="5.00001" cy="12" rx="4.50001" ry="4.50001" fill="#B9DDFF" fill-opacity="0.5"/>
    <path d="M9.40001 12C9.40001 14.4301 7.43006 16.4 5.00001 16.4C2.56995 16.4 0.6 14.4301 0.6 12C0.6 9.56994 2.56995 7.59998 5.00001 7.59998C7.43006 7.59998 9.40001 9.56994 9.40001 12Z" stroke="url(#paint1_linear_3602_3213)" stroke-width="0.2"/>
  </g>
  <g filter="url(#filter1_b_3602_3213)">
    <ellipse cx="17" cy="4.50001" rx="4.50001" ry="4.50001" fill="#B9DDFF" fill-opacity="0.5"/>
    <path d="M21.4 4.50001C21.4 6.93007 19.4301 8.90002 17 8.90002C14.57 8.90002 12.6 6.93007 12.6 4.50001C12.6 2.06995 14.57 0.1 17 0.1C19.4301 0.1 21.4 2.06995 21.4 4.50001Z" stroke="url(#paint2_linear_3602_3213)" stroke-width="0.2"/>
  </g>
  <g filter="url(#filter2_b_3602_3213)">
    <ellipse cx="17" cy="19.5" rx="4.50001" ry="4.50001" fill="#B9DDFF" fill-opacity="0.5"/>
    <path d="M21.4 19.5C21.4 21.9301 19.4301 23.9 17 23.9C14.57 23.9 12.6 21.9301 12.6 19.5C12.6 17.0699 14.57 15.1 17 15.1C19.4301 15.1 21.4 17.0699 21.4 19.5Z" stroke="url(#paint3_linear_3602_3213)" stroke-width="0.2"/>
  </g>
  <defs>
    <filter id="filter0_b_3602_3213" x="-2.5" y="4.49998" width="15" height="15" filterUnits="userSpaceOnUse" color-interpolation-filters="sRGB">
      <feFlood flood-opacity="0" result="BackgroundImageFix"/>
      <feGaussianBlur in="BackgroundImageFix" stdDeviation="1.5"/>
      <feComposite in2="SourceAlpha" operator="in" result="effect1_backgroundBlur_3602_3213"/>
      <feBlend mode="normal" in="SourceGraphic" in2="effect1_backgroundBlur_3602_3213" result="shape"/>
    </filter>
    <filter id="filter1_b_3602_3213" x="9.5" y="-3" width="15" height="15" filterUnits="userSpaceOnUse" color-interpolation-filters="sRGB">
      <feFlood flood-opacity="0" result="BackgroundImageFix"/>
      <feGaussianBlur in="BackgroundImageFix" stdDeviation="1.5"/>
      <feComposite in2="SourceAlpha" operator="in" result="effect1_backgroundBlur_3602_3213"/>
      <feBlend mode="normal" in="SourceGraphic" in2="effect1_backgroundBlur_3602_3213" result="shape"/>
    </filter>
    <filter id="filter2_b_3602_3213" x="9.5" y="12" width="15" height="15" filterUnits="userSpaceOnUse" color-interpolation-filters="sRGB">
      <feFlood flood-opacity="0" result="BackgroundImageFix"/>
      <feGaussianBlur in="BackgroundImageFix" stdDeviation="1.5"/>
      <feComposite in2="SourceAlpha" operator="in" result="effect1_backgroundBlur_3602_3213"/>
      <feBlend mode="normal" in="SourceGraphic" in2="effect1_backgroundBlur_3602_3213" result="shape"/>
    </filter>
    <linearGradient id="paint0_linear_3602_3213" x1="7.82705" y1="6.93735" x2="19.7211" y2="10.3459" gradientUnits="userSpaceOnUse">
      <stop stop-color="#7FC0FB"/>
      <stop offset="1" stop-color="#4088F4"/>
    </linearGradient>
    <linearGradient id="paint1_linear_3602_3213" x1="-0.231765" y1="8.00417" x2="8.00001" y2="18" gradientUnits="userSpaceOnUse">
      <stop stop-color="white"/>
      <stop offset="1" stop-color="white" stop-opacity="0"/>
    </linearGradient>
    <linearGradient id="paint2_linear_3602_3213" x1="11" y1="-1.8999e-07" x2="23.75" y2="12" gradientUnits="userSpaceOnUse">
      <stop stop-color="white"/>
      <stop offset="1" stop-color="white" stop-opacity="0"/>
    </linearGradient>
    <linearGradient id="paint3_linear_3602_3213" x1="11.75" y1="15" x2="22.25" y2="24.75" gradientUnits="userSpaceOnUse">
      <stop stop-color="white"/>
      <stop offset="1" stop-color="white" stop-opacity="0"/>
    </linearGradient>
  </defs>
</svg>