<svg width="21" height="17" viewBox="0 0 21 17" fill="none" xmlns="http://www.w3.org/2000/svg">
<path id="Vector" d="M4.01367 0.0283203C1.80467 0.0283203 0.0136719 1.81932 0.0136719 4.02832V12.0283C0.0136719 14.2373 1.80467 16.0283 4.01367 16.0283H16.0137C18.2237 16.0283 20.0137 14.2373 20.0137 12.0283V4.02832C20.0137 1.81932 18.2237 0.0283203 16.0137 0.0283203H4.01367ZM5.01367 5.02832C5.56667 5.02832 6.01367 5.47632 6.01367 6.02832C6.01367 6.58032 5.56667 7.02832 5.01367 7.02832C4.46167 7.02832 4.01367 6.58032 4.01367 6.02832C4.01367 5.47632 4.46167 5.02832 5.01367 5.02832ZM9.01367 5.02832H15.0137C15.5667 5.02832 16.0137 5.47632 16.0137 6.02832C16.0137 6.58032 15.5667 7.02832 15.0137 7.02832H9.01367C8.46167 7.02832 8.01367 6.58032 8.01367 6.02832C8.01367 5.47632 8.46167 5.02832 9.01367 5.02832ZM5.01367 9.02832C5.56667 9.02832 6.01367 9.47632 6.01367 10.0283C6.01367 10.5803 5.56667 11.0283 5.01367 11.0283C4.46167 11.0283 4.01367 10.5803 4.01367 10.0283C4.01367 9.47632 4.46167 9.02832 5.01367 9.02832ZM9.01367 9.02832H15.0137C15.5667 9.02832 16.0137 9.47632 16.0137 10.0283C16.0137 10.5803 15.5667 11.0283 15.0137 11.0283H9.01367C8.46167 11.0283 8.01367 10.5803 8.01367 10.0283C8.01367 9.47632 8.46167 9.02832 9.01367 9.02832Z" fill="#FF5B4D"/>
</svg>
