<svg width="20" height="26" viewBox="0 0 20 26" fill="none" xmlns="http://www.w3.org/2000/svg">
    <path id="Vector"
        d="M9.52832 0.542188C9.46082 0.570938 0.854556 4.17595 0.857056 4.1747C0.868306 4.17095 0.87582 4.1922 0.93457 4.1747C0.98332 4.1622 0.988328 4.15719 1.12958 4.13594C1.15208 4.13344 1.19081 4.13719 1.20831 4.13594C0.595813 4.15219 -0.00292969 4.56969 -0.00292969 5.38594C-0.00292969 11.0272 0.189556 13.3234 1.16956 16.1284C2.45706 19.8135 5.01582 22.7797 9.37207 25.2685C9.75582 25.4885 10.2383 25.4885 10.6221 25.2685C14.9758 22.781 17.5371 19.8472 18.8246 16.1672C19.8046 13.3672 19.9971 11.0385 19.9971 5.4247C19.9971 4.92595 19.7133 4.48969 19.2546 4.29219L10.5446 0.542188C10.2296 0.407188 9.84332 0.408438 9.52832 0.542188ZM13.7471 9.1747C14.0671 9.1747 14.4008 9.28217 14.6458 9.52592C15.1333 10.0147 15.1333 10.8347 14.6458 11.3234L10.8958 15.0735C10.4071 15.561 9.58708 15.561 9.09833 15.0735L6.59833 12.5735C6.11083 12.0847 6.11083 11.2647 6.59833 10.7759C7.08708 10.2884 7.90706 10.2884 8.39581 10.7759L9.99707 12.3784L12.8483 9.52592C13.0933 9.28217 13.4271 9.1747 13.7471 9.1747Z"
        fill="#57545E" />
</svg>