<svg xmlns="http://www.w3.org/2000/svg" width="24" height="24" viewBox="0 0 24 24" fill="none">
  <path d="M12.0001 1.95312C6.47716 1.95312 2.01876 6.43012 2.00006 11.9531C1.98136 17.4681 6.48176 21.9731 12.0001 21.9841C17.5184 21.9951 22.01 17.4291 22.0001 11.9531C21.9901 6.43012 17.5229 1.95312 12.0001 1.95312ZM12.0001 3.95312C16.4184 3.95312 20 7.53512 20.0001 11.9531C20.0001 14.2031 19.0629 16.2311 17.5679 17.6851C16.8315 16.0921 15.2496 14.9531 13.4376 14.9531C13.0782 14.9531 10.9218 14.9531 10.5626 14.9531C8.75166 14.9531 7.17436 16.0781 6.43756 17.6721C4.94256 16.2181 4.00006 14.2031 4.00006 11.9531C4.00006 7.53512 7.58176 3.95312 12.0001 3.95312ZM12.0001 5.95312C9.79086 5.95312 7.99996 7.74412 8.00006 9.95312C8.00006 12.1621 9.79086 13.9531 12.0001 13.9531C14.2092 13.9531 16.0002 12.1621 16.0001 9.95312C16.0001 7.74412 14.2092 5.95312 12.0001 5.95312Z" fill="#6F6C75"/>
</svg>