<svg width="21" height="18" viewBox="0 0 21 18" fill="none" xmlns="http://www.w3.org/2000/svg">
<path id="Vector" d="M9.00586 -0.00927734C4.03526 -0.00927734 0.00585938 4.02012 0.00585938 8.99072C0.00585938 13.9617 4.03526 17.9907 9.00586 17.9907C10.6136 17.9907 12.1762 17.5627 13.5371 16.7717C14.0146 16.4947 14.1584 15.8747 13.8809 15.3967C13.6034 14.9197 12.9834 14.7757 12.5059 15.0527C11.4482 15.6677 10.2582 15.9907 9.00586 15.9907C5.13986 15.9907 2.00586 12.8567 2.00586 8.99072C2.00586 5.12472 5.13986 1.99072 9.00586 1.99072C12.8719 1.99072 16.0059 5.12472 16.0059 8.99072H15.0059C14.115 8.99072 13.6572 10.0797 14.2871 10.7097C14.5372 10.9597 16.0371 12.4597 16.2871 12.7097C16.6777 13.0997 17.3341 13.0997 17.7247 12.7097L19.7247 10.7097C20.3546 10.0797 19.8968 8.99072 19.0059 8.99072H18.0059C18.0059 4.02012 13.9765 -0.00927734 9.00586 -0.00927734ZM7.00586 4.99072C6.45356 4.99072 6.00586 5.43842 6.00586 5.99072C6.00586 6.49072 6.00586 9.49072 6.00586 9.99072V11.9907C6.00586 12.5427 6.45356 12.9907 7.00586 12.9907C7.55816 12.9907 8.00586 12.5427 8.00586 11.9907V10.9907H8.59966L10.3497 12.7097C10.7402 13.0997 11.3341 13.0687 11.7247 12.6787C12.1152 12.2877 12.1152 11.6627 11.7247 11.2717L10.8184 10.3657C11.5519 9.81872 12.0059 8.97572 12.0059 7.99072C12.0059 6.33382 10.6628 4.99072 9.00586 4.99072H7.00586ZM8.00586 6.99072H9.00586C9.55816 6.99072 10.0059 7.43872 10.0059 7.99072C10.0059 8.54272 9.55816 8.99072 9.00586 8.99072H8.00586C8.00586 8.27172 8.00586 7.70972 8.00586 6.99072Z" fill="#7270E8"/>
</svg>
