<svg width="21" height="17" viewBox="0 0 21 17" fill="none" xmlns="http://www.w3.org/2000/svg">
<path id="Vector" d="M4.9939 0.90625C4.7319 0.90625 4.4709 0.99225 4.2749 1.18745L0.587891 4.90625L1.9939 6.31245L3.9939 4.34375V15.9063C3.9939 16.4586 4.4419 16.9063 4.9939 16.9063C5.5459 16.9063 5.9939 16.4586 5.9939 15.9063V4.34375L7.9939 6.31245L9.3999 4.90625L5.71289 1.18745C5.51689 0.99215 5.2559 0.90625 4.9939 0.90625ZM11.9939 1.90625C11.4419 1.90625 10.9939 2.35395 10.9939 2.90625C10.9939 3.45855 11.4419 3.90625 11.9939 3.90625H13.9939C14.5459 3.90625 14.9939 3.45855 14.9939 2.90625C14.9939 2.35395 14.5459 1.90625 13.9939 1.90625H11.9939ZM11.9939 5.90625C11.4419 5.90625 10.9939 6.35395 10.9939 6.90625C10.9939 7.45855 11.4419 7.90625 11.9939 7.90625H15.9939C16.5459 7.90625 16.9939 7.45855 16.9939 6.90625C16.9939 6.35395 16.5459 5.90625 15.9939 5.90625H11.9939ZM11.9939 9.90625C11.4419 9.90625 10.9939 10.354 10.9939 10.9063C10.9939 11.4586 11.4419 11.9063 11.9939 11.9063H17.9939C18.5459 11.9063 18.9939 11.4586 18.9939 10.9063C18.9939 10.354 18.5459 9.90625 17.9939 9.90625H11.9939ZM11.9939 13.9063C11.4419 13.9063 10.9939 14.354 10.9939 14.9063C10.9939 15.4586 11.4419 15.9063 11.9939 15.9063H19.9939C20.5459 15.9063 20.9939 15.4586 20.9939 14.9063C20.9939 14.354 20.5459 13.9063 19.9939 13.9063H11.9939Z" fill="#57545E"/>
</svg>
