<svg width="18" height="19" viewBox="0 0 18 19" fill="none" xmlns="http://www.w3.org/2000/svg">
<path id="Vector" d="M13.491 0.92981C13.136 0.92981 12.769 1.12381 12.585 1.49231C12.148 2.36501 12.014 2.65211 11.835 2.92981C11.544 3.37981 11.305 3.55921 10.679 3.80481C10.537 3.86031 10.37 3.92861 10.179 3.99231C9.33297 4.27401 9.25697 5.43761 10.054 5.83601C10.898 6.25811 11.13 6.39731 11.366 6.55481C11.59 6.70381 11.717 6.83131 11.866 7.05481C12.024 7.29101 12.163 7.52331 12.585 8.36781C12.953 9.10481 14.029 9.10481 14.397 8.36781C14.819 7.52331 14.959 7.29111 15.116 7.05481C15.265 6.83131 15.393 6.70381 15.616 6.55481C15.852 6.39731 16.085 6.25801 16.929 5.83601C17.666 5.46751 17.666 4.39211 16.929 4.02361C16.085 3.60151 15.852 3.46231 15.616 3.30481C15.393 3.15581 15.265 3.02831 15.116 2.80481C14.959 2.56861 14.819 2.33631 14.397 1.49231C14.213 1.12381 13.846 0.92981 13.491 0.92981ZM3.49097 2.92981C3.13597 2.92981 2.76898 3.12381 2.58498 3.49231C2.29998 4.06131 2.22597 4.22811 2.11597 4.39861C1.96097 4.63761 1.84597 4.72811 1.49097 4.86731C1.40197 4.90201 1.30097 4.95151 1.17897 4.99231C0.332974 5.27401 0.256974 6.43761 1.05397 6.83601C1.60097 7.10991 1.75598 7.17961 1.89698 7.27361C2.00998 7.34851 2.07198 7.41121 2.14698 7.52361C2.24098 7.66451 2.31098 7.81961 2.58498 8.36781C2.95298 9.10481 4.02898 9.10481 4.39698 8.36781C4.67098 7.81961 4.74098 7.66451 4.83498 7.52361C4.90998 7.41121 4.97198 7.34851 5.08498 7.27361C5.22598 7.17961 5.38097 7.10991 5.92897 6.83601C6.66597 6.46751 6.66597 5.39211 5.92897 5.02361C5.38097 4.74971 5.22598 4.68001 5.08498 4.58601C4.97198 4.51111 4.90998 4.44841 4.83498 4.33601C4.74098 4.19511 4.67098 4.04001 4.39698 3.49231C4.21298 3.12381 3.84597 2.92981 3.49097 2.92981ZM8.49097 8.92981C8.09297 8.92981 7.70597 9.16181 7.55397 9.61781C6.85297 11.7188 6.27997 12.2918 4.17897 12.9918C3.26697 13.2958 3.26697 14.5638 4.17897 14.8678C6.27997 15.5678 6.85297 16.1408 7.55397 18.2418C7.85697 19.1538 9.12497 19.1538 9.42897 18.2418C10.129 16.1408 10.702 15.5678 12.804 14.8678C13.715 14.5638 13.715 13.2958 12.804 12.9918C10.702 12.2918 10.129 11.7188 9.42897 9.61781C9.27697 9.16181 8.88897 8.92981 8.49097 8.92981Z" fill="white"/>
</svg>
