<svg width="20" height="20" viewBox="0 0 20 20" fill="none" xmlns="http://www.w3.org/2000/svg">
<g id="AI Icons">
<path id="Vector" fill-rule="evenodd" clip-rule="evenodd" d="M17.4249 6.56285C17.3248 5.66185 17.1246 4.93604 16.6741 4.31869C16.3988 3.94327 16.0734 3.60957 15.698 3.3426C15.0806 2.8921 14.3465 2.69188 13.4538 2.59177C12.5779 2.5 11.4683 2.5 10.0501 2.5H9.98331C8.56507 2.5 7.46385 2.5 6.57953 2.59177C5.67853 2.69188 4.95273 2.8921 4.33537 3.3426C3.95996 3.61791 3.62625 3.94327 3.35929 4.31869C2.8921 4.93604 2.69188 5.66185 2.59177 6.56285C2.5 7.43882 2.5 8.54839 2.5 9.96663V10.0334C2.5 11.4516 2.5 12.5612 2.59177 13.4372C2.69188 14.3382 2.8921 15.064 3.3426 15.6813C3.61791 16.0567 3.94327 16.3904 4.31869 16.6574C4.93604 17.1079 5.67019 17.3081 6.56285 17.4082C7.43882 17.5 8.54839 17.5 9.96663 17.5H10.0334C11.4516 17.5 12.5528 17.5 13.4372 17.4082C14.3382 17.3081 15.064 17.1079 15.6813 16.6574C16.0567 16.3821 16.3904 16.0567 16.6574 15.6813C17.1079 15.064 17.3081 14.3298 17.4082 13.4372C17.5 12.5612 17.5 11.4516 17.5 10.0334V9.96663C17.5 8.54839 17.5 7.44716 17.4082 6.56285H17.4249ZM12.5445 11.2848L11.6018 11.5517C10.8927 11.7519 10.342 12.3026 10.1418 13.0117L9.87486 13.9544C9.79978 14.2214 9.5495 14.4049 9.25751 14.4049C8.96552 14.4049 8.71524 14.2214 8.64016 13.9544L8.37319 13.0117C8.17297 12.3026 7.62236 11.7519 6.91324 11.5517L5.97052 11.2848C5.69522 11.2097 5.50334 10.9511 5.50334 10.6674C5.50334 10.3838 5.69522 10.1251 5.97052 10.0501L6.91324 9.78309C7.62236 9.58287 8.17297 9.03226 8.37319 8.32314L8.64016 7.38042C8.71524 7.10512 8.97386 6.91324 9.25751 6.91324C9.54116 6.91324 9.79144 7.10512 9.87486 7.38042L10.1418 8.32314C10.342 9.03226 10.8927 9.58287 11.6018 9.78309L12.5445 10.0501C12.8198 10.1335 13.0117 10.3838 13.0117 10.6674C13.0117 10.9511 12.8198 11.2097 12.5445 11.2848ZM14.3131 7.38042C13.6791 7.58899 13.5039 7.76418 13.2953 8.40656C13.2036 8.68187 12.8198 8.68187 12.728 8.40656C12.5195 7.77252 12.3443 7.59733 11.7102 7.38042C11.5684 7.33037 11.5017 7.21357 11.5017 7.09677C11.5017 6.97998 11.5684 6.85484 11.7102 6.81313C12.3443 6.60456 12.5195 6.42937 12.728 5.78699C12.8198 5.51168 13.2036 5.51168 13.2953 5.78699C13.5039 6.42102 13.6791 6.59622 14.3131 6.81313C14.5884 6.90489 14.5884 7.28865 14.3131 7.38042Z" fill="#7270E8"/>
</g>
</svg>
