<svg xmlns="http://www.w3.org/2000/svg" width="24" height="24" viewBox="0 0 24 24" fill="none">
<path d="M11.8678 2.92982C11.1109 2.93582 10.3377 3.13882 9.74285 3.55482L2.43035 8.61881C1.85345 9.01581 1.85445 9.84581 2.43035 10.2448L4.86785 11.9328L2.43035 13.6208C1.85465 14.0178 1.85545 14.8478 2.43035 15.2458L9.74285 20.3098C10.9397 21.1238 12.7866 21.1378 13.9929 20.3418L21.5554 15.2778C22.1477 14.8808 22.1484 14.0158 21.5554 13.6208L19.0554 11.9638L21.5554 10.2758C22.1459 9.87881 22.1469 8.98382 21.5554 8.58782L13.9615 3.52382C13.3646 3.11782 12.6248 2.92382 11.8678 2.92982ZM11.8678 4.93083C12.2295 4.92783 12.6109 5.00583 12.8679 5.18083L19.1804 9.43181L16.6804 11.1198L12.8679 13.6828C12.3391 14.0328 11.3809 14.0318 10.8678 13.6828C10.4154 13.3688 7.64125 11.4408 7.18035 11.1198L4.74285 9.43181L10.899 5.21182C11.1572 5.03082 11.5061 4.93383 11.8678 4.93083ZM6.58655 13.1208H6.61785C7.51005 13.7408 9.35125 15.0368 9.74285 15.3088C10.9411 16.1238 12.7868 16.1368 13.9929 15.3398L17.2429 13.1518L19.1804 14.4648L12.8679 18.6848C12.3376 19.0348 11.3811 19.0338 10.8678 18.6848L4.74285 14.4338L6.58655 13.1208Z" fill="#7270E8"/>
</svg>