<svg xmlns="http://www.w3.org/2000/svg" width="12" height="12" viewBox="0 0 12 12" fill="none">
    <path d="M2.66667 0C1.19393 0 0 1.194 0 2.66666V9.33332C0 10.806 1.19393 12 2.66667 12H9.33333C10.806 12 12 10.806 12 9.33332V2.66666C12 1.194 10.806 0 9.33333 0H2.66667ZM2.66667 1.33333H9.33333C10.07 1.33333 10.6667 1.93 10.6667 2.66666V9.33332C10.6667 10.07 10.07 10.6666 9.33333 10.6666H2.66667C1.93027 10.6666 1.33333 10.07 1.33333 9.33332V2.66666C1.33333 1.93 1.93027 1.33333 2.66667 1.33333Z" fill="#57545E" />
</svg>