<svg width="64" height="64" viewBox="0 0 64 64" fill="none" xmlns="http://www.w3.org/2000/svg">
<g id="&#230;&#151;&#182;&#233;&#151;&#180; (1) 1" clip-path="url(#clip0_5300_497)">
<ellipse id="Ellipse 35" cx="35.1852" cy="32.0581" rx="26.8209" ry="26.877" fill="white"/>
<path id="Vector" d="M49.2462 30.2096H55.3728V33.6484H49.2462V30.2096ZM32.088 46.573H35.5196V52.7124H32.088V46.573ZM49.6809 18.4487L45.3489 22.7898L42.9224 20.3583L47.2544 16.0171L49.6809 18.4487ZM47.2546 47.8416L42.9226 43.5005L45.3491 41.0689L49.6812 45.41L47.2546 47.8416ZM24.0162 41.2145L32.1534 33.057V16.5697H37.3568V35.1197C36.995 35.4822 27.6985 44.9031 27.6985 44.9031L24.0162 41.2145ZM35.2216 3.38568V8.33262C47.9792 8.33262 58.3595 18.7346 58.3595 31.5208C58.3595 44.3063 47.9792 54.7083 35.2216 54.7083C23.5143 54.7083 13.8153 45.9452 12.2975 34.622L15.8189 38.1027L19.3102 34.6042L9.66442 24.9383L-0.00634766 34.6048L3.48491 38.1034L7.28783 34.2925C8.68192 48.5087 20.6773 59.656 35.223 59.656C50.7023 59.656 63.2982 47.0346 63.2982 31.5215C63.2968 16.0078 50.7023 3.38568 35.2216 3.38568Z" fill="#9E99D4"/>
</g>
<defs>
<clipPath id="clip0_5300_497">
<rect width="63.3362" height="63.4685" fill="white" transform="translate(-0.0371094)"/>
</clipPath>
</defs>
</svg>
