<svg width="61" height="70" viewBox="0 0 61 70" fill="none" xmlns="http://www.w3.org/2000/svg">
<g id="&#232;&#174;&#186;&#230;&#150;&#135; 1">
<path id="Vector" d="M36.8719 20.3355H50.5449L34.5933 4.44812V17.6873C34.5933 19.317 35.6446 20.3355 36.8719 20.3355Z" fill="#BEBAEB"/>
<path id="Vector_2" d="M35.2945 22.5757C33.8919 22.5757 32.8406 21.3534 32.8406 19.7244V4.44812H12.1552C10.5772 4.44812 9.52588 5.8741 9.52588 7.5031V62.4962C9.52588 64.1259 10.7532 65.5511 12.1552 65.5511H48.0909C49.4935 65.5511 50.7202 64.1252 50.7202 62.4962V22.5757H35.2945ZM30.386 29.093H43.1824C44.059 29.093 44.7603 29.9079 44.7603 30.7227C44.7603 31.5376 44.059 32.3524 43.1824 32.3524H30.386C29.5094 32.3524 28.8081 31.7413 28.8081 30.7227C28.8081 29.7042 29.5094 29.093 30.386 29.093ZM13.9084 17.0761C13.9084 16.0576 14.6097 15.039 15.6617 15.039H25.6534C26.5301 15.039 27.4067 16.0576 27.4067 17.0761C27.4067 18.0947 26.7054 19.1133 25.6534 19.1133H22.4982V25.4269C22.4982 26.4455 21.7969 27.464 20.7449 27.464C19.693 27.464 18.9917 26.6492 18.9917 25.4269V19.1133H15.6611C14.6091 19.1133 13.9084 18.2984 13.9084 17.0761ZM35.4699 58.0152H16.1871C15.3104 58.0152 14.6091 57.4041 14.6091 56.3855C14.6091 55.367 15.3104 54.7558 16.1871 54.7558H35.4699C36.3465 54.7558 37.0478 55.367 37.0478 56.3855C37.0472 57.4048 36.3459 58.0152 35.4699 58.0152ZM43.1824 49.4614H16.3624C15.4858 49.4614 14.7845 48.8503 14.7845 47.8317C14.7845 47.0169 15.4858 46.202 16.3624 46.202H43.3577C44.2343 46.202 44.9356 46.8132 44.9356 47.8317C44.9356 48.8503 44.059 49.4614 43.1824 49.4614ZM43.1824 40.7032H16.3624C15.4858 40.7032 14.7845 40.0921 14.7845 39.0735C14.7845 38.055 15.4858 37.4438 16.3624 37.4438H43.3577C44.2343 37.4438 44.9356 38.055 44.9356 39.0735C44.9356 40.0921 44.059 40.7032 43.1824 40.7032Z" fill="#7270E8"/>
</g>
</svg>
