<svg width="66" height="66" viewBox="0 0 66 66" fill="none" xmlns="http://www.w3.org/2000/svg">
<path d="M60.1756 14.9531C62.4856 14.9531 62.6506 17.0899 62.6629 17.3951V57.0818C62.6629 59.3835 60.5179 59.5485 60.2127 59.5568H5.43269C5.43269 59.5568 2.94531 59.5568 2.94531 57.0818V17.4281C2.94531 17.4281 2.94531 14.9531 5.43681 14.9531H60.1756ZM60.1756 22.3864H5.43681V57.0818H60.1756V22.3864ZM50.1353 43.9478C53.2909 43.9478 55.8443 46.5053 55.8443 49.6568V51.5625H33.0001V49.6568C33.0001 46.5053 35.5576 43.9478 38.7132 43.9478H50.1353ZM44.4222 26.8125C46.4417 26.8125 48.3786 27.6148 49.8066 29.0428C51.2347 30.4709 52.0369 32.4077 52.0369 34.4273C52.0369 36.4468 51.2347 38.3837 49.8066 39.8117C48.3786 41.2398 46.4417 42.042 44.4222 42.042C42.4026 42.042 40.4658 41.2398 39.0378 39.8117C37.6097 38.3837 36.8074 36.4468 36.8074 34.4273C36.8074 32.4077 37.6097 30.4709 39.0378 29.0428C40.4658 27.6148 42.4026 26.8125 44.4222 26.8125ZM13.2578 32.2658H29.7578C30.0287 32.2658 30.2969 32.3191 30.5471 32.4228C30.7973 32.5264 31.0247 32.6783 31.2162 32.8699C31.4077 33.0614 31.5597 33.2888 31.6633 33.539C31.767 33.7892 31.8203 34.0574 31.8203 34.3283C31.8203 34.5991 31.767 34.8673 31.6633 35.1176C31.5597 35.3678 31.4077 35.5952 31.2162 35.7867C31.0247 35.9782 30.7973 36.1301 30.5471 36.2338C30.2969 36.3374 30.0287 36.3908 29.7578 36.3908H13.2578C12.7108 36.3908 12.1862 36.1735 11.7994 35.7867C11.4126 35.3999 11.1953 34.8753 11.1953 34.3283C11.1953 33.7813 11.4126 33.2567 11.7994 32.8699C12.1862 32.4831 12.7108 32.2658 13.2578 32.2658ZM13.2578 40.5158H25.6328C26.1798 40.5158 26.7044 40.7331 27.0912 41.1199C27.478 41.5067 27.6953 42.0313 27.6953 42.5783C27.6953 43.1253 27.478 43.6499 27.0912 44.0367C26.7044 44.4235 26.1798 44.6408 25.6328 44.6408H13.2578C12.7108 44.6408 12.1862 44.4235 11.7994 44.0367C11.4126 43.6499 11.1953 43.1253 11.1953 42.5783C11.1953 42.0313 11.4126 41.5067 11.7994 41.1199C12.1862 40.7331 12.7108 40.5158 13.2578 40.5158ZM27.8273 14.9531V9.9949C27.8273 9.9949 27.8273 7.5199 30.3188 7.5199H35.2936C37.7809 7.5199 37.7809 9.9949 37.7809 9.9949V14.9531H27.8273ZM30.7313 11.6449C30.7191 11.9243 30.7637 12.2034 30.8622 12.4651C30.9608 12.7269 31.1114 12.966 31.305 13.1679C31.4985 13.3699 31.7309 13.5305 31.9883 13.6402C32.2456 13.7498 32.5224 13.8062 32.8022 13.806C33.0819 13.8057 33.3586 13.7487 33.6157 13.6386C33.8728 13.5284 34.1049 13.3673 34.2981 13.1649C34.4912 12.9626 34.6413 12.7232 34.7394 12.4613C34.8375 12.1993 34.8814 11.9202 34.8687 11.6408C34.8444 11.1081 34.6155 10.6054 34.2298 10.2372C33.8441 9.8691 33.3312 9.66393 32.798 9.66446C32.2648 9.66499 31.7524 9.87118 31.3674 10.2401C30.9824 10.609 30.7546 11.1122 30.7313 11.6449Z" fill="#7270E8"/>
</svg>
