<svg width="70" height="70" viewBox="0 0 70 70" fill="none" xmlns="http://www.w3.org/2000/svg">
<path d="M54.9598 27.6907C54.9237 28.261 54.8602 28.8553 54.7728 29.4796C53.2874 39.7595 45.1425 47.2181 35.3956 47.2181H32.2258L31.6426 47.8174C33.8312 51.8859 37.8998 54.5145 42.471 54.5145H45.621L51.8655 61.0544C52.2685 61.4574 52.814 61.6779 53.3748 61.6779C53.6339 61.6779 53.8996 61.6487 54.1535 61.5406C54.94 61.2165 55.4597 60.4549 55.4597 59.5853V54.2692C61.2719 53.0796 65.5686 47.6005 65.5686 41.0073C65.5686 34.2804 60.9597 28.6933 54.9598 27.6907Z" fill="#7270E8"/>
<path d="M35.3959 8.32208H21.0469C11.8823 8.32208 4.43115 16.3799 4.43115 26.2809C4.43115 35.1501 10.2965 42.4713 18.1643 43.9362V51.5035C18.1643 52.4804 18.7672 53.3749 19.6866 53.7573C19.9767 53.865 20.2837 53.9202 20.5931 53.9203C21.2432 53.9203 21.883 53.675 22.3495 53.1878L30.9446 44.2097H35.3958C43.6324 44.2097 50.5303 37.8335 51.7987 29.0475C51.9445 28.0406 52.0114 27.1213 52.0114 26.2809C52.0115 16.3799 44.5604 8.32208 35.3959 8.32208ZM16.5435 28.2867C15.1987 28.2867 14.1087 27.1967 14.1087 25.8529C14.1087 24.5083 15.1987 23.4182 16.5435 23.4182C17.8882 23.4182 18.9775 24.5083 18.9775 25.8529C18.9775 27.1969 17.8882 28.2867 16.5435 28.2867ZM29.154 28.2867C27.8092 28.2867 26.7201 27.1967 26.7201 25.8529C26.7201 24.5083 27.8092 23.4182 29.154 23.4182C30.4988 23.4182 31.5879 24.5083 31.5879 25.8529C31.5879 27.1969 30.4988 28.2867 29.154 28.2867ZM41.7645 28.2867C40.4206 28.2867 39.3307 27.1967 39.3307 25.8529C39.3307 24.5083 40.4207 23.4182 41.7645 23.4182C43.1094 23.4182 44.1994 24.5083 44.1994 25.8529C44.1994 27.1969 43.1094 28.2867 41.7645 28.2867Z" fill="#7270E8"/>
</svg>
