<svg width="10" height="15" viewBox="0 0 10 15" fill="none" xmlns="http://www.w3.org/2000/svg">
<path id="Vector" d="M2.07422 0.754883C1.38389 0.754883 0.824219 1.28154 0.824219 1.93154C0.824219 2.51987 0.824219 6.04906 0.824219 6.63739V12.9115C0.824219 13.5615 1.38389 14.0882 2.07422 14.0882C2.26081 14.0882 4.07039 14.0882 5.40756 14.0882C7.9389 14.0882 9.99091 12.1565 9.99091 9.77485C9.99091 8.42985 9.33016 7.2382 8.34999 6.47987C8.87949 5.87071 9.15757 5.13237 9.15757 4.28403C9.15757 2.33487 7.47857 0.754883 5.40756 0.754883C4.77965 0.754883 2.51831 0.754883 2.07422 0.754883ZM3.32423 3.10819C4.15031 3.10819 5.01515 3.10819 5.40756 3.10819C6.0979 3.10819 6.65757 3.63487 6.65757 4.28403C6.65757 4.93403 6.0979 5.46069 5.40756 5.46069C5.02565 5.46069 4.15106 5.46069 3.32423 5.46069C3.32423 4.61486 3.32423 3.95319 3.32423 3.10819ZM3.32423 7.81405C4.15239 7.81405 5.02073 7.81405 5.40756 7.81405C6.55815 7.81405 7.4909 8.69152 7.4909 9.77485C7.4909 10.8573 6.55815 11.7349 5.40756 11.7349C4.57181 11.7349 4.01748 11.7349 3.32423 11.7349V7.81405Z" fill="#57545E"/>
</svg>
