<svg width="18" height="18" viewBox="0 0 18 18" fill="none" xmlns="http://www.w3.org/2000/svg">
<g id="book-half">
<path id="Vector" d="M4.51074 2.99829C2.85399 2.99829 1.51074 4.34154 1.51074 5.99829L1.51074 11.9983C1.51074 13.655 2.85399 14.9983 4.51074 14.9983L6.7675 15.0058C7.087 15.0058 7.42149 15.1528 7.80474 15.506C7.95399 15.644 8.13249 15.8166 8.25399 15.9778C8.38899 16.1578 8.56524 16.5005 9.01074 16.4983C9.45624 16.496 9.60099 16.193 9.76074 15.9823C9.88149 15.8338 10.0263 15.6921 10.1755 15.5541C10.5595 15.2008 10.9412 14.9983 11.2607 14.9983H13.5107C15.1675 14.9983 16.5107 13.655 16.5107 11.9983V5.99829C16.5107 4.34154 15.1675 2.99829 13.5107 2.99829H11.2607C10.3525 2.99829 9.56124 3.4153 9.01074 4.05279C8.46024 3.4153 7.66899 2.99829 6.76074 2.99829H4.51074ZM11.2607 4.49829L13.5107 4.49829C14.3395 4.49829 15.0107 5.16954 15.0107 5.99829L15.0107 11.9983C15.0107 12.827 14.3395 13.4983 13.5107 13.4983H11.2607C10.7267 13.4983 10.2257 13.691 9.75775 13.9948L9.76074 5.99829C9.76074 5.16954 10.432 4.49829 11.2607 4.49829Z" fill="#8A5CE5"/>
</g>
</svg>
