<svg width="24" height="24" viewBox="0 0 24 24" fill="none" xmlns="http://www.w3.org/2000/svg">
<g id="cloud-arrow-up">
<path id="Vector" d="M12.0142 3.99826C8.84816 4.02326 5.93117 6.17826 5.17017 9.56026C3.22917 10.3773 2.01416 12.1922 2.01416 14.3732C2.01416 17.3832 4.39017 19.9982 7.32617 19.9982H17.0142C19.7482 19.9982 22.0142 18.0152 22.0142 15.4982C22.0142 13.6832 20.7632 12.0862 19.0142 11.3732C19.0162 11.1942 19.0142 11.0242 19.0142 10.9982C19.0442 7.16225 15.8052 3.96826 12.0142 3.99826ZM12.0142 5.99825C14.6952 5.97725 17.0352 8.28525 17.0142 10.9982C17.0142 11.0582 17.0142 11.8612 17.0142 12.0922C17.0142 12.5572 17.3102 12.9563 17.7642 13.0603C19.0802 13.3653 20.0142 14.3972 20.0142 15.4982C20.0142 16.8472 18.6982 17.9982 17.0142 17.9982H7.32617C5.53917 17.9982 4.01416 16.3192 4.01416 14.3732C4.01416 12.8802 4.94815 11.6392 6.35815 11.2172C6.73115 11.1052 6.99017 10.7903 7.04517 10.4043C7.43117 7.69826 9.60616 6.01725 12.0142 5.99825ZM12.0142 7.99825L9.00317 11.0163L11.0142 10.9982V14.9982C11.0142 15.5502 11.4622 15.9982 12.0142 15.9982C12.5662 15.9982 13.0142 15.5502 13.0142 14.9982V10.9982L15.0251 11.0242L12.0142 7.99825Z" fill="black"/>
</g>
</svg>
