<svg width="15" height="16" viewBox="0 0 15 16" fill="none" xmlns="http://www.w3.org/2000/svg">
<path id="Vector" d="M11.1585 0.441406C10.8627 0.441406 10.5568 0.603073 10.4035 0.910156C10.0393 1.63741 9.92766 1.87666 9.7785 2.10807C9.536 2.48307 9.33683 2.63257 8.81516 2.83724C8.69683 2.88349 8.55766 2.94041 8.39849 2.99349C7.69349 3.22824 7.63016 4.1979 8.29433 4.5299C8.99766 4.88165 9.19099 4.99765 9.38766 5.1289C9.57432 5.25307 9.68016 5.35932 9.80432 5.54557C9.93599 5.7424 10.0518 5.93599 10.4035 6.63974C10.7102 7.25391 11.6068 7.25391 11.9135 6.63974C12.2652 5.93599 12.3818 5.74249 12.5127 5.54557C12.6368 5.35932 12.7435 5.25307 12.9293 5.1289C13.126 4.99765 13.3202 4.88157 14.0235 4.5299C14.6377 4.22282 14.6377 3.32666 14.0235 3.01957C13.3202 2.66782 13.126 2.55182 12.9293 2.42057C12.7435 2.29641 12.6368 2.19016 12.5127 2.00391C12.3818 1.80707 12.2652 1.61349 11.9135 0.910156C11.7602 0.603073 11.4543 0.441406 11.1585 0.441406ZM2.82516 2.10807C2.52932 2.10807 2.2235 2.26974 2.07017 2.57682C1.83267 3.05099 1.77099 3.18999 1.67932 3.33207C1.55016 3.53124 1.45432 3.60665 1.15849 3.72265C1.08432 3.75157 1.00016 3.79282 0.898494 3.82682C0.193494 4.06157 0.130161 5.03123 0.794327 5.36323C1.25016 5.59148 1.37933 5.64957 1.49683 5.72791C1.591 5.79032 1.64266 5.84257 1.70516 5.93624C1.7835 6.05366 1.84183 6.18291 2.07017 6.63974C2.37683 7.25391 3.2735 7.25391 3.58016 6.63974C3.8085 6.18291 3.86683 6.05366 3.94516 5.93624C4.00766 5.84257 4.05933 5.79032 4.1535 5.72791C4.271 5.64957 4.40016 5.59148 4.85683 5.36323C5.47099 5.05615 5.47099 4.15999 4.85683 3.85291C4.40016 3.62466 4.271 3.56657 4.1535 3.48824C4.05933 3.42582 4.00766 3.37357 3.94516 3.2799C3.86683 3.16249 3.8085 3.03324 3.58016 2.57682C3.42683 2.26974 3.12099 2.10807 2.82516 2.10807ZM6.99182 7.10807C6.66016 7.10807 6.33766 7.30141 6.21099 7.68141C5.62683 9.43224 5.14933 9.90973 3.39849 10.4931C2.63849 10.7464 2.63849 11.8031 3.39849 12.0564C5.14933 12.6397 5.62683 13.1172 6.21099 14.8681C6.46349 15.6281 7.52016 15.6281 7.77349 14.8681C8.35683 13.1172 8.83433 12.6397 10.586 12.0564C11.3452 11.8031 11.3452 10.7464 10.586 10.4931C8.83433 9.90973 8.35683 9.43224 7.77349 7.68141C7.64683 7.30141 7.32349 7.10807 6.99182 7.10807Z" fill="white"/>
</svg>
