<svg width="24" height="24" viewBox="0 0 24 24" fill="none" xmlns="http://www.w3.org/2000/svg">
<g id="file-earmark-font-fill">
<path id="Vector" d="M7.59033 1.9989C5.63933 1.9989 4.02832 3.4789 4.02832 5.3429V18.6549C4.02832 20.5189 5.63933 21.9989 7.59033 21.9989H16.4663C18.4173 21.9989 20.0283 20.5189 20.0283 18.6549C20.0283 18.0039 20.0283 10.8569 20.0283 8.9989C20.0283 8.9889 20.0283 8.9779 20.0283 8.9679C20.0283 5.4049 16.5893 1.9989 13.0283 1.9989C8.81432 1.9989 8.80433 1.9989 7.59033 1.9989ZM14.0283 4.2489C15.8003 4.7189 17.3503 6.2319 17.8093 7.9989H15.5903C14.7013 7.9989 14.0283 7.36891 14.0283 6.65491V4.2489ZM9.77832 11.9989H12.0283H14.2783C14.6923 11.9989 15.0283 12.3349 15.0283 12.7489C15.0283 13.1629 14.6923 13.4989 14.2783 13.4989H12.7783V17.2489C12.7783 17.6629 12.4423 17.9989 12.0283 17.9989C11.6143 17.9989 11.2783 17.6629 11.2783 17.2489V13.4989H9.77832C9.36432 13.4989 9.02832 13.1629 9.02832 12.7489C9.02832 12.3349 9.36432 11.9989 9.77832 11.9989Z" fill="#8652DB"/>
</g>
</svg>
