<svg width="16" height="16" viewBox="0 0 16 16" fill="none" xmlns="http://www.w3.org/2000/svg">
<g id="gem2">
<path id="Vector" d="M3.99927 1.99365C3.96661 1.99365 3.81861 2.01832 3.76994 2.03565C3.59661 2.09632 3.46594 2.21366 3.39527 2.36899L1.45594 6.25698C1.45594 6.25698 1.33728 6.41765 1.33261 6.66232C1.32794 6.90699 1.50794 7.10232 1.50794 7.10232L7.4786 14.4157C7.74526 14.7417 8.25327 14.7417 8.51994 14.4157C8.70594 14.1883 14.5139 7.06967 14.5139 7.06967C14.5139 7.06967 14.6619 6.88165 14.6659 6.66232C14.6706 6.44299 14.5539 6.28766 14.5539 6.28766L12.6033 2.36899C12.5326 2.21366 12.4019 2.09632 12.2286 2.03565C12.1799 2.01832 12.0326 1.99365 11.9993 1.99365H3.99927ZM4.93661 3.32766H11.0619L10.1246 5.99565H5.87459L4.93661 3.32766ZM3.89527 4.36965L4.4786 5.99565H3.08261L3.89527 4.36965ZM12.1033 4.36965L12.9159 5.99565H11.5199L12.1033 4.36965ZM3.41594 7.32899H4.93661L6.10327 10.6223L3.41594 7.32899ZM6.35327 7.32899H9.64526L7.99927 11.9983L6.35327 7.32899ZM11.0619 7.32899H12.5826C11.9439 8.10965 11.0173 9.25299 9.89526 10.6223L11.0619 7.32899Z" fill="white"/>
</g>
</svg>
