<svg width="10" height="15" viewBox="0 0 10 15" fill="none" xmlns="http://www.w3.org/2000/svg">
<path id="Vector" d="M4.17644 0.754883C3.71644 0.754883 3.34311 1.12822 3.34311 1.58822C3.34311 2.04821 3.71644 2.42155 4.17644 2.42155H5.55645L2.7181 12.4215H0.843101C0.3831 12.4215 0.00976562 12.7949 0.00976562 13.2549C0.00976562 13.7149 0.3831 14.0882 0.843101 14.0882H5.84311C6.30311 14.0882 6.67645 13.7149 6.67645 13.2549C6.67645 12.7949 6.30311 12.4215 5.84311 12.4215H4.4631L7.30145 2.42155H9.17645C9.63645 2.42155 10.0098 2.04821 10.0098 1.58822C10.0098 1.12822 9.63645 0.754883 9.17645 0.754883H4.17644Z" fill="#57545E"/>
</svg>
