<svg width="24" height="24" viewBox="0 0 24 24" fill="none" xmlns="http://www.w3.org/2000/svg">
<g id="view-stacked">
<path id="Vector" d="M5.99121 2.92981C4.33421 2.92981 2.99121 4.27281 2.99121 5.92981V7.92981C2.99121 9.58681 4.33421 10.9298 5.99121 10.9298H17.9912C19.6482 10.9298 20.9912 9.58681 20.9912 7.92981V5.92981C20.9912 4.27281 19.6482 2.92981 17.9912 2.92981H5.99121ZM5.99121 4.92981H17.9912C18.5432 4.92981 18.9912 5.37781 18.9912 5.92981V7.92981C18.9912 8.48181 18.5432 8.92981 17.9912 8.92981H5.99121C5.43921 8.92981 4.99121 8.48181 4.99121 7.92981V5.92981C4.99121 5.37781 5.43921 4.92981 5.99121 4.92981ZM5.99121 12.9298C4.33421 12.9298 2.99121 14.2728 2.99121 15.9298V17.9298C2.99121 19.5868 4.33421 20.9298 5.99121 20.9298H17.9912C19.6482 20.9298 20.9912 19.5868 20.9912 17.9298V15.9298C20.9912 14.2728 19.6482 12.9298 17.9912 12.9298H5.99121ZM5.99121 14.9298H17.9912C18.5432 14.9298 18.9912 15.3778 18.9912 15.9298V17.9298C18.9912 18.4818 18.5432 18.9298 17.9912 18.9298H5.99121C5.43921 18.9298 4.99121 18.4818 4.99121 17.9298V15.9298C4.99121 15.3778 5.43921 14.9298 5.99121 14.9298Z" fill="black"/>
</g>
</svg>
