<svg width="20" height="21" viewBox="0 0 20 21" fill="none" xmlns="http://www.w3.org/2000/svg">
<g id="Component 2">
<path id="Vector" d="M10.0118 2.99854C5.42991 2.99854 1.67849 6.3327 1.67849 10.4985C1.67849 11.851 2.08191 13.161 2.82432 14.3002C2.94299 14.4827 3.04582 14.8952 2.98057 15.2902C2.91307 15.6985 2.70007 16.0977 2.27749 16.3319C2.14591 16.4052 1.68232 16.6085 1.67849 17.1652C1.67457 17.7219 2.15399 17.996 2.51182 17.9985C3.35782 18.0052 8.55616 17.9985 10.0118 17.9985C14.5937 17.9985 18.3452 14.6644 18.3452 10.4985C18.3452 6.3327 14.5937 2.99854 10.0118 2.99854ZM6.67849 7.99854H13.3452C13.8054 7.99854 14.1785 8.37187 14.1785 8.83187C14.1785 9.29187 13.8054 9.6652 13.3452 9.6652H6.67849C6.21824 9.6652 5.84516 9.29187 5.84516 8.83187C5.84516 8.37187 6.21824 7.99854 6.67849 7.99854ZM6.67849 11.3319H10.8452C11.3054 11.3319 11.6785 11.7052 11.6785 12.1652C11.6785 12.6252 11.3054 12.9985 10.8452 12.9985H6.67849C6.21824 12.9985 5.84516 12.6252 5.84516 12.1652C5.84516 11.7052 6.21824 11.3319 6.67849 11.3319Z" fill="#8652DB"/>
</g>
</svg>
