<svg width="16" height="17" viewBox="0 0 16 17" fill="none" xmlns="http://www.w3.org/2000/svg">
<g id="&#232;&#191;&#148;&#229;&#155;&#158; (1) 1">
<path id="Vector" d="M11.1611 2.73386C11.0463 2.86792 10.9895 3.04207 11.0032 3.21801C11.0168 3.39395 11.0998 3.55726 11.2338 3.67204L12.2011 4.50113H6.33491C3.68327 4.50113 1.44109 6.65749 1.33854 9.3084C1.22873 12.1091 3.53345 14.4989 6.33491 14.4989H12.0004C12.1769 14.4989 12.3461 14.4288 12.4709 14.304C12.5957 14.1792 12.6658 14.01 12.6658 13.8335C12.6658 13.657 12.5957 13.4877 12.4709 13.3629C12.3461 13.2381 12.1769 13.168 12.0004 13.168H6.33491C4.28763 13.168 2.588 11.4044 2.668 9.36004C2.74363 7.42331 4.39818 5.83277 6.33491 5.83277H12.3931L11.196 7.02986C11.1339 7.09159 11.0846 7.16496 11.0509 7.24577C11.0173 7.32658 10.9999 7.41325 10.9997 7.5008C10.9996 7.58835 11.0168 7.67507 11.0502 7.75598C11.0836 7.83689 11.1327 7.9104 11.1946 7.97231C11.2565 8.03422 11.3301 8.0833 11.411 8.11675C11.4919 8.15019 11.5786 8.16734 11.6661 8.16722C11.7537 8.16709 11.8404 8.14969 11.9212 8.11601C12.002 8.08233 12.0754 8.03303 12.1371 7.97095L14.4702 5.63786C14.535 5.573 14.5858 5.49543 14.6192 5.41003C14.6527 5.32463 14.6681 5.23324 14.6645 5.14159C14.661 5.04995 14.6385 4.96002 14.5986 4.87747C14.5586 4.79491 14.502 4.7215 14.4324 4.66186L12.0993 2.66186C11.9652 2.54711 11.7911 2.49031 11.6151 2.50395C11.4392 2.51758 11.2759 2.60055 11.1611 2.73458V2.73386Z" fill="#57545E"/>
</g>
</svg>
