<svg width="18" height="18" viewBox="0 0 18 18" fill="none" xmlns="http://www.w3.org/2000/svg">
<g id="Group 427320189">
<path id="Vector (Stroke)" fill-rule="evenodd" clip-rule="evenodd" d="M12.0303 4.20541C11.7546 4.47928 11.7546 4.92332 12.0303 5.19719L12.59 5.75325L4.88235 5.75325C3.84276 5.75325 3 6.59053 3 7.62338L3 11.1299C3 12.1627 3.84276 13 4.88235 13L14.2941 13C14.684 13 15 12.686 15 12.2987C15 11.9114 14.684 11.5974 14.2941 11.5974L4.88235 11.5974C4.62246 11.5974 4.41177 11.3881 4.41177 11.1299L4.41177 7.62338C4.41177 7.36517 4.62245 7.15585 4.88235 7.15585L12.59 7.15584L12.0303 7.7119C11.7546 7.98577 11.7546 8.42981 12.0303 8.70369C12.3059 8.97756 12.7529 8.97756 13.0285 8.70369L14.7933 6.95044C15.0689 6.67656 15.0689 6.23253 14.7933 5.95865L13.0285 4.20541C12.7529 3.93153 12.3059 3.93153 12.0303 4.20541Z" fill="#1D1B1E"/>
</g>
</svg>
