<svg width="24" height="24" viewBox="0 0 24 24" fill="none" xmlns="http://www.w3.org/2000/svg">
<g id="cloud-check-fill">
<path id="Vector" d="M12.0142 3.9963C8.84816 4.0213 6.02416 6.17531 5.26416 9.55831C3.32316 10.3753 2.01416 12.1903 2.01416 14.3713C2.01416 17.3813 4.39017 19.9963 7.32617 19.9963H17.0142C19.7482 19.9963 22.0142 18.0133 22.0142 15.4963C22.0142 13.6813 20.7632 12.1473 19.0142 11.4343C19.0162 11.2553 19.0142 11.0223 19.0142 10.9963C19.0442 7.1603 15.8052 3.9663 12.0142 3.9963ZM14.0142 10.9963C14.2702 10.9963 14.5372 11.0823 14.7332 11.2773C15.1232 11.6683 15.1232 12.3243 14.7332 12.7153L11.7332 15.7153C11.3422 16.1053 10.6862 16.1053 10.2952 15.7153L8.29517 13.7153C7.90517 13.3243 7.90517 12.6683 8.29517 12.2773C8.68617 11.8873 9.34215 11.8873 9.73315 12.2773L11.0142 13.5583L13.2952 11.2773C13.4912 11.0823 13.7582 10.9963 14.0142 10.9963Z" fill="#D4D9E3"/>
</g>
</svg>
