<svg width="18" height="18" viewBox="0 0 18 18" fill="none" xmlns="http://www.w3.org/2000/svg">
<g id="stars">
<path id="Vector" d="M12.7432 2.19727C12.477 2.19727 12.2017 2.34277 12.0637 2.61914C11.736 3.27367 11.6355 3.48899 11.5012 3.69726C11.283 4.03476 11.1037 4.16931 10.6342 4.35351C10.5277 4.39514 10.4025 4.44636 10.2592 4.49414C9.62473 4.70541 9.56773 5.57811 10.1655 5.87691C10.7985 6.19349 10.9725 6.29789 11.1495 6.41601C11.3175 6.52776 11.4127 6.62339 11.5245 6.79101C11.643 6.96816 11.7472 7.14239 12.0637 7.77577C12.3397 8.32852 13.1467 8.32852 13.4227 7.77577C13.7392 7.14239 13.8442 6.96824 13.962 6.79101C14.0737 6.62339 14.1697 6.52776 14.337 6.41601C14.514 6.29789 14.6887 6.19341 15.3217 5.87691C15.8745 5.60054 15.8745 4.79399 15.3217 4.51762C14.6887 4.20104 14.514 4.09664 14.337 3.97851C14.1697 3.86676 14.0737 3.77114 13.962 3.60351C13.8442 3.42637 13.7392 3.25214 13.4227 2.61914C13.2847 2.34277 13.0095 2.19727 12.7432 2.19727ZM5.24323 3.69726C4.97698 3.69726 4.70174 3.84276 4.56374 4.11914C4.34999 4.54589 4.29448 4.67099 4.21198 4.79887C4.09573 4.97812 4.00948 5.04599 3.74323 5.15039C3.67648 5.17641 3.60073 5.21354 3.50923 5.24414C2.87473 5.45541 2.81773 6.32811 3.41548 6.62691C3.82573 6.83234 3.94198 6.88462 4.04773 6.95512C4.13248 7.01129 4.17898 7.05832 4.23523 7.14262C4.30573 7.24829 4.35824 7.36462 4.56374 7.77577C4.83974 8.32852 5.64673 8.32852 5.92273 7.77577C6.12823 7.36462 6.18074 7.24829 6.25124 7.14262C6.30749 7.05832 6.35399 7.01129 6.43874 6.95512C6.54449 6.88462 6.66073 6.83234 7.07173 6.62691C7.62448 6.35054 7.62448 5.54399 7.07173 5.26762C6.66073 5.06219 6.54449 5.00991 6.43874 4.93941C6.35399 4.88324 6.30749 4.83621 6.25124 4.75191C6.18074 4.64624 6.12823 4.52991 5.92273 4.11914C5.78473 3.84276 5.50948 3.69726 5.24323 3.69726ZM8.99323 8.19726C8.69473 8.19726 8.40448 8.37127 8.29048 8.71326C7.76473 10.289 7.33498 10.7188 5.75923 11.2438C5.07523 11.4718 5.07523 12.4228 5.75923 12.6508C7.33498 13.1758 7.76473 13.6055 8.29048 15.1813C8.51773 15.8653 9.46873 15.8653 9.69673 15.1813C10.2217 13.6055 10.6515 13.1758 12.228 12.6508C12.9112 12.4228 12.9112 11.4718 12.228 11.2438C10.6515 10.7188 10.2217 10.289 9.69673 8.71326C9.58273 8.37127 9.29173 8.19726 8.99323 8.19726Z" fill="#8A5CE5"/>
</g>
</svg>
