<svg width="12" height="15" viewBox="0 0 12 15" fill="none" xmlns="http://www.w3.org/2000/svg">
<path id="Vector" d="M6.00424 0.754883C4.16341 0.754883 2.6709 2.24738 2.6709 4.08821C2.6709 4.61488 2.80257 5.13655 3.03591 5.59822C3.19007 5.90489 3.44173 6.22738 3.7909 6.58821H1.00423C0.544233 6.58821 0.170898 6.96154 0.170898 7.42154C0.170898 7.88154 0.544233 8.25487 1.00423 8.25487H5.71758C5.76425 8.29571 5.78841 8.31071 5.84757 8.35904C6.11174 8.57487 6.38591 8.80905 6.62924 9.03572C6.80175 9.19738 6.93675 9.3332 7.07175 9.47903C7.31175 9.73737 7.48591 9.9782 7.54091 10.104C7.63091 10.3107 7.67091 10.5224 7.67091 10.7549C7.67091 11.6757 6.92508 12.4215 6.00424 12.4215C5.08341 12.4215 4.33757 11.6757 4.33757 10.7549C4.33757 10.2949 3.96424 9.92154 3.50424 9.92154C3.04424 9.92154 2.6709 10.2949 2.6709 10.7549C2.6709 12.5957 4.16341 14.0882 6.00424 14.0882C7.84508 14.0882 9.33758 12.5957 9.33758 10.7549C9.33758 10.2932 9.23176 9.84238 9.05092 9.42654C8.90509 9.08988 8.65342 8.74404 8.29591 8.35904C8.26508 8.32571 8.22425 8.28904 8.19175 8.25487H11.0043C11.4643 8.25487 11.8376 7.88154 11.8376 7.42154C11.8376 6.96154 11.4643 6.58821 11.0043 6.58821H6.29091C6.24341 6.54738 6.21925 6.53154 6.16091 6.48404C5.90091 6.27238 5.64508 6.0532 5.40508 5.8332C5.25925 5.6982 5.13424 5.56488 5.01424 5.44238C4.75924 5.17988 4.58424 4.97155 4.52007 4.84322C4.40424 4.61322 4.33757 4.35321 4.33757 4.08821C4.33757 3.16738 5.08341 2.42155 6.00424 2.42155C6.92508 2.42155 7.67091 3.16738 7.67091 4.08821C7.67091 4.54821 8.04425 4.92154 8.50425 4.92154C8.96425 4.92154 9.33758 4.54821 9.33758 4.08821C9.33758 2.24738 7.84508 0.754883 6.00424 0.754883Z" fill="#57545E"/>
</svg>
