<svg width="18" height="18" viewBox="0 0 18 18" fill="none" xmlns="http://www.w3.org/2000/svg">
<g id="diagram-2-fill">
<path id="Vector" d="M9.02124 1.49902C7.77849 1.49902 6.77124 2.50627 6.77124 3.74902C6.77124 4.70002 7.40049 5.55504 8.26974 5.86929L8.27124 8.24902H5.27124C4.85724 8.24902 4.52124 8.58502 4.52124 8.99902L4.52049 12.1303C3.65724 12.4273 3.02124 13.298 3.02124 14.249C3.02124 15.4918 4.02849 16.499 5.27124 16.499C6.51399 16.499 7.52124 15.4918 7.52124 14.249C7.52124 13.298 6.92499 12.4595 6.02949 12.1205L6.02124 9.74902H9.02124L12.0212 9.74902L12.0265 12.1318C11.1257 12.4445 10.5212 13.298 10.5212 14.249C10.5212 15.4918 11.5285 16.499 12.7712 16.499C14.014 16.499 15.0212 15.4918 15.0212 14.249C15.0212 13.298 14.407 12.461 13.5272 12.128L13.5212 8.99902C13.5212 8.58502 13.1852 8.24902 12.7712 8.24902H9.77124L9.76899 5.86627C10.642 5.55802 11.2712 4.70002 11.2712 3.74902C11.2712 2.50627 10.264 1.49902 9.02124 1.49902Z" fill="#8652DB"/>
</g>
</svg>
