<svg width="10" height="15" viewBox="0 0 10 15" fill="none" xmlns="http://www.w3.org/2000/svg">
<path id="Vector" d="M1.65755 0.754883C1.19755 0.754883 0.824219 1.12822 0.824219 1.58822V6.58821C0.824219 8.88904 2.69005 10.7549 4.99088 10.7549C7.29171 10.7549 9.15754 8.88904 9.15754 6.58821V1.58822C9.15754 1.12822 8.78421 0.754883 8.32421 0.754883C7.86421 0.754883 7.49088 1.12822 7.49088 1.58822V6.58821C7.49088 7.96904 6.37171 9.08821 4.99088 9.08821C3.61005 9.08821 2.49088 7.96904 2.49088 6.58821V1.58822C2.49088 1.12822 2.11755 0.754883 1.65755 0.754883ZM1.65755 12.4215C1.19755 12.4215 0.824219 12.7949 0.824219 13.2549C0.824219 13.7149 1.19755 14.0882 1.65755 14.0882H8.32421C8.78421 14.0882 9.15754 13.7149 9.15754 13.2549C9.15754 12.7949 8.78421 12.4215 8.32421 12.4215H1.65755Z" fill="#57545E"/>
</svg>
