<svg width="16" height="17" viewBox="0 0 16 17" fill="none" xmlns="http://www.w3.org/2000/svg">
<g id="&#232;&#191;&#148;&#229;&#155;&#158; (1) 1">
<path id="Vector" d="M4.83891 2.73386C4.95366 2.86792 5.01046 3.04207 4.99682 3.21801C4.98318 3.39395 4.90022 3.55726 4.76618 3.67204L3.79891 4.50113H9.66509C12.3167 4.50113 14.5589 6.65749 14.6615 9.3084C14.7713 12.1091 12.4665 14.4989 9.66509 14.4989H3.99964C3.82315 14.4989 3.65389 14.4288 3.52909 14.304C3.40429 14.1792 3.33418 14.01 3.33418 13.8335C3.33418 13.657 3.40429 13.4877 3.52909 13.3629C3.65389 13.2381 3.82315 13.168 3.99964 13.168H9.66509C11.7124 13.168 13.412 11.4044 13.332 9.36004C13.2564 7.42331 11.6018 5.83277 9.66509 5.83277H3.60691L4.804 7.02986C4.86609 7.09159 4.91538 7.16496 4.94906 7.24577C4.98274 7.32658 5.00014 7.41325 5.00027 7.5008C5.0004 7.58835 4.98325 7.67507 4.9498 7.75598C4.91635 7.83689 4.86727 7.9104 4.80536 7.97231C4.74346 8.03422 4.66994 8.0833 4.58903 8.11675C4.50812 8.15019 4.42141 8.16734 4.33385 8.16722C4.2463 8.16709 4.15964 8.14969 4.07882 8.11601C3.99801 8.08233 3.92464 8.03303 3.86291 7.97095L1.52982 5.63786C1.46497 5.573 1.41423 5.49543 1.38079 5.41003C1.34734 5.32463 1.33191 5.23324 1.33546 5.14159C1.33901 5.04995 1.36147 4.96002 1.40142 4.87747C1.44138 4.79491 1.49797 4.7215 1.56764 4.66186L3.90073 2.66186C4.03479 2.54711 4.20894 2.49031 4.38488 2.50395C4.56082 2.51758 4.72413 2.60055 4.83891 2.73458V2.73386Z" fill="#57545E"/>
</g>
</svg>
