<svg width="18" height="18" viewBox="0 0 18 18" fill="none" xmlns="http://www.w3.org/2000/svg">
<g id="Group 427320189">
<path id="Vector (Stroke)" fill-rule="evenodd" clip-rule="evenodd" d="M5.96972 4.20541C6.24539 4.47928 6.24539 4.92332 5.96972 5.19719L5.41003 5.75325H13.1176C14.1572 5.75325 15 6.59053 15 7.62338V11.1299C15 12.1627 14.1572 13 13.1176 13H3.70588C3.31603 13 3 12.686 3 12.2987C3 11.9114 3.31603 11.5974 3.70588 11.5974H13.1176C13.3775 11.5974 13.5882 11.3881 13.5882 11.1299V7.62338C13.5882 7.36517 13.3775 7.15584 13.1176 7.15584H5.41003L5.96972 7.7119C6.24539 7.98577 6.24539 8.42981 5.96972 8.70369C5.69406 8.97756 5.24712 8.97756 4.97145 8.70369L3.20675 6.95044C2.93108 6.67656 2.93108 6.23253 3.20675 5.95865L4.97145 4.20541C5.24712 3.93153 5.69406 3.93153 5.96972 4.20541Z" fill="#1D1B1E"/>
</g>
</svg>
