<svg width="24" height="24" viewBox="0 0 24 24" fill="none" xmlns="http://www.w3.org/2000/svg">
<g id="box-arrow-in-up">
<path id="Vector" d="M11.9912 21.9907C11.4392 21.9907 10.9912 21.5427 10.9912 20.9907V11.4287L8.99121 13.3967L7.58521 11.9907L11.2722 8.27173C11.6632 7.88173 12.3192 7.88173 12.7102 8.27173L16.3972 11.9907L14.9912 13.3967L12.9912 11.4287V20.9907C12.9912 21.5427 12.5432 21.9907 11.9912 21.9907ZM6.99121 18.9907C4.78221 18.9907 2.99121 17.1997 2.99121 14.9907V6.99072C2.99121 4.78172 4.78221 2.99072 6.99121 2.99072H16.9912C19.2002 2.99072 20.9912 4.78172 20.9912 6.99072V14.9907C20.9912 17.1997 19.2002 18.9907 16.9912 18.9907C16.4392 18.9907 15.9912 18.5427 15.9912 17.9907C15.9912 17.4387 16.4392 16.9907 16.9912 16.9907C18.0962 16.9907 18.9912 16.0957 18.9912 14.9907V6.99072C18.9912 5.88572 18.0962 4.99072 16.9912 4.99072H6.99121C5.88621 4.99072 4.99121 5.88572 4.99121 6.99072V14.9907C4.99121 16.0957 5.88621 16.9907 6.99121 16.9907C7.54321 16.9907 7.99121 17.4387 7.99121 17.9907C7.99121 18.5427 7.54321 18.9907 6.99121 18.9907Z" fill="url(#paint0_linear_10674_8989)"/>
</g>
<defs>
<linearGradient id="paint0_linear_10674_8989" x1="11.9912" y1="2.99072" x2="11.9912" y2="21.9907" gradientUnits="userSpaceOnUse">
<stop stop-color="#DC3DC1"/>
<stop offset="0.510417" stop-color="#9C2CF3"/>
<stop offset="1" stop-color="#7A4EF6"/>
</linearGradient>
</defs>
</svg>
