<svg width="20" height="20" viewBox="0 0 20 20" fill="none" xmlns="http://www.w3.org/2000/svg">
<g id="lightbulb-fill">
<path id="Vector" d="M9.9974 1.62769C6.77573 1.62769 4.16406 4.23935 4.16406 7.46102C4.16406 8.49269 4.44239 9.47518 4.94572 10.3518C4.95489 10.3685 6.52406 12.8344 6.66406 13.2944H13.3307C13.4682 12.8369 15.0324 10.3885 15.0232 10.4035C15.5424 9.51769 15.8307 8.50935 15.8307 7.46102C15.8307 4.23935 13.2191 1.62769 9.9974 1.62769ZM9.9974 4.96102C10.4574 4.96102 10.8307 5.33435 10.8307 5.79435C10.8307 6.25435 10.4574 6.62769 9.9974 6.62769C9.5374 6.62769 9.16406 7.00102 9.16406 7.46102C9.16406 7.92102 8.79073 8.29435 8.33073 8.29435C7.87073 8.29435 7.4974 7.92102 7.4974 7.46102C7.4974 6.08019 8.61656 4.96102 9.9974 4.96102ZM6.66406 14.961C6.66406 16.8019 8.15656 18.2944 9.9974 18.2944C11.8382 18.2944 13.3307 16.8019 13.3307 14.961H6.66406Z" fill="#FFD400"/>
</g>
</svg>
