<svg width="24" height="24" viewBox="0 0 24 24" fill="none" xmlns="http://www.w3.org/2000/svg">
<g id="chat2-text-fill">
<path id="Vector" d="M12.0142 3C6.51589 3 2.01419 7.001 2.01419 12C2.01419 13.623 2.49829 15.195 3.38919 16.562C3.53159 16.781 3.65499 17.276 3.57669 17.75C3.49569 18.24 3.24009 18.719 2.73299 19C2.57509 19.088 2.01879 19.332 2.01419 20C2.00949 20.668 2.58479 20.997 3.01419 21C4.02939 21.008 10.2674 21 12.0142 21C17.5125 21 22.0142 16.999 22.0142 12C22.0142 7.001 17.5125 3 12.0142 3ZM8.01419 9H16.0142C16.5665 9 17.0142 9.448 17.0142 10C17.0142 10.552 16.5665 11 16.0142 11H8.01419C7.46189 11 7.01419 10.552 7.01419 10C7.01419 9.448 7.46189 9 8.01419 9ZM8.01419 13H13.0142C13.5665 13 14.0142 13.448 14.0142 14C14.0142 14.552 13.5665 15 13.0142 15H8.01419C7.46189 15 7.01419 14.552 7.01419 14C7.01419 13.448 7.46189 13 8.01419 13Z" fill="#52CC5C"/>
</g>
</svg>
