<svg width="24" height="24" viewBox="0 0 24 24" fill="none" xmlns="http://www.w3.org/2000/svg">
<path d="M12.0142 1.9989C6.49136 1.9989 2.01416 6.4759 2.01416 11.9989C2.01416 17.5219 6.49136 21.9989 12.0142 21.9989C17.537 21.9989 22.0142 17.5219 22.0142 11.9989C22.0142 6.4759 17.537 1.9989 12.0142 1.9989ZM9.01416 8.9989C9.56646 8.9989 10.0142 9.4469 10.0142 9.9989V10.9989C10.0142 11.5509 9.56646 11.9989 9.01416 11.9989C8.46186 11.9989 8.01416 11.5509 8.01416 10.9989V9.9989C8.01416 9.4469 8.46186 8.9989 9.01416 8.9989ZM15.0142 8.9989C15.5665 8.9989 16.0142 9.4469 16.0142 9.9989V10.9989C16.0142 11.5509 15.5665 11.9989 15.0142 11.9989C14.4619 11.9989 14.0142 11.5509 14.0142 10.9989V9.9989C14.0142 9.4469 14.4619 8.9989 15.0142 8.9989ZM9.20166 13.8429C9.45756 13.8429 9.69376 13.9289 9.88916 14.1239C10.4488 14.6829 11.2073 14.9989 12.0142 14.9989C12.8183 14.9989 13.5801 14.6799 14.1392 14.1239C14.5309 13.7349 15.1561 13.7319 15.5454 14.1239C15.9347 14.5159 15.9372 15.1409 15.5454 15.5299C14.6154 16.4549 13.352 16.9989 12.0142 16.9989C10.6718 16.9989 9.41376 16.4599 8.48296 15.5299C8.09216 15.1399 8.09256 14.5149 8.48296 14.1239C8.67806 13.9289 8.94576 13.8429 9.20166 13.8429Z" fill="#52CC5C"/>
</svg>
