<svg width="40" height="40" viewBox="0 0 40 40" fill="none" xmlns="http://www.w3.org/2000/svg">
<g id="file-earmark-text">
<path id="Vector" d="M12.6505 3.33203C9.39886 3.33203 6.71387 5.7987 6.71387 8.90537V31.0921C6.71387 34.1988 9.39886 36.6655 12.6505 36.6655H27.4439C30.6955 36.6655 33.3805 34.1988 33.3805 31.0921C33.3805 30.0071 33.3805 18.0954 33.3805 14.9987C33.3805 14.9821 33.3805 14.9637 33.3805 14.9471C33.3805 9.00871 27.6489 3.33203 21.7139 3.33203C14.6905 3.33203 14.6739 3.33203 12.6505 3.33203ZM12.6505 6.66537C14.3022 6.66537 16.1705 6.66537 20.0472 6.66537V11.0921C20.0472 14.1987 22.7322 16.6654 25.9839 16.6654H30.0472C30.0472 20.8938 30.0472 30.1188 30.0472 31.0921C30.0472 32.2821 28.9239 33.3321 27.4439 33.3321H12.6505C11.1705 33.3321 10.0472 32.2821 10.0472 31.0921V8.90537C10.0472 7.71537 11.1705 6.66537 12.6505 6.66537ZM23.3805 6.87371C26.3339 7.65704 29.0739 10.3871 29.8389 13.3321H25.9839C24.5022 13.3321 23.3805 12.2821 23.3805 11.0921V6.87371ZM15.0472 13.3321C14.1272 13.3321 13.3805 14.0787 13.3805 14.9987C13.3805 15.9187 14.1272 16.6654 15.0472 16.6654H16.7139C17.6339 16.6654 18.3805 15.9187 18.3805 14.9987C18.3805 14.0787 17.6339 13.3321 16.7139 13.3321H15.0472ZM15.0472 19.9987C14.1272 19.9987 13.3805 20.7454 13.3805 21.6654C13.3805 22.5854 14.1272 23.3321 15.0472 23.3321H25.0472C25.9672 23.3321 26.7139 22.5854 26.7139 21.6654C26.7139 20.7454 25.9672 19.9987 25.0472 19.9987H15.0472ZM15.0472 26.6654C14.1272 26.6654 13.3805 27.4121 13.3805 28.3321C13.3805 29.2521 14.1272 29.9988 15.0472 29.9988H25.0472C25.9672 29.9988 26.7139 29.2521 26.7139 28.3321C26.7139 27.4121 25.9672 26.6654 25.0472 26.6654H15.0472Z" fill="#5C73E5"/>
</g>
</svg>
