<svg width="24" height="24" viewBox="0 0 24 24" fill="none" xmlns="http://www.w3.org/2000/svg">
<g id="globe-fill">
<path id="Vector" d="M11.9985 2.01562C10.7055 2.01562 9.24755 5.96562 9.06055 11.0156H14.9365C14.7495 5.96663 13.2915 2.01562 11.9985 2.01562ZM8.84253 2.51562C5.15553 3.74462 2.37954 7.11662 2.02954 11.0156H7.06055C7.17155 7.57662 7.79253 4.52662 8.84253 2.51562ZM15.1545 2.51562C16.2045 4.52662 16.8255 7.57662 16.9365 11.0156H21.9365C21.5745 7.07063 18.8775 3.76663 15.1545 2.51562ZM2.06055 13.0156C2.42055 17.0226 5.20254 20.3056 8.87354 21.5156C7.82454 19.5046 7.17155 16.4546 7.06055 13.0156H2.06055ZM9.06055 13.0156C9.24755 18.0646 10.7055 22.0156 11.9985 22.0156C13.2915 22.0156 14.7495 18.0656 14.9365 13.0156H9.06055ZM16.9365 13.0156C16.8255 16.4546 16.1725 19.5046 15.1235 21.5156C18.8945 20.2326 21.5685 16.8956 21.9365 13.0156H16.9365Z" fill="#5C73E5"/>
</g>
</svg>
