<svg width="40" height="40" viewBox="0 0 40 40" fill="none" xmlns="http://www.w3.org/2000/svg">
<g id="headset">
<path id="Vector" d="M19.9982 3.35547C14.3899 3.35547 9.48821 6.98547 7.60654 11.7471C5.21321 12.0355 3.33154 14.2138 3.33154 16.6888V23.3555C3.33154 26.1171 5.56987 28.3555 8.33154 28.3555C11.0932 28.3555 13.3315 26.1171 13.3315 23.3555V16.6888C13.3315 14.9205 12.3249 13.2921 10.9415 12.4038C12.4465 9.13711 15.9582 6.6888 19.9982 6.6888C24.0482 6.6888 27.4682 9.03547 29.0299 12.4155C27.6165 13.3171 26.6648 14.9455 26.6648 16.6888V23.3555C26.6648 24.4155 27.0765 25.5905 27.6949 26.4071C26.6499 27.6355 25.5498 28.4738 24.2632 29.0905C23.3265 27.5921 21.7415 26.6888 19.9982 26.6888C17.2365 26.6888 14.9982 28.9271 14.9982 31.6888C14.9982 34.4505 17.2365 36.6888 19.9982 36.6888C22.5149 36.6888 24.5832 34.8221 24.9332 32.4021C26.8848 31.6688 29.0165 30.2138 30.5132 28.2088C30.9115 28.3088 31.2365 28.3555 31.6648 28.3555C34.4265 28.3555 36.6648 26.1171 36.6648 23.3555V16.6888C36.6648 14.1888 34.7782 12.1038 32.3815 11.7338C30.4148 6.82548 25.5749 3.35547 19.9982 3.35547ZM8.33154 15.0221C9.25154 15.0221 9.9982 15.7688 9.9982 16.6888V23.3555C9.9982 24.2755 9.25154 25.0221 8.33154 25.0221C7.41154 25.0221 6.66487 24.2755 6.66487 23.3555V16.6888C6.66487 15.7688 7.41154 15.0221 8.33154 15.0221ZM31.6648 15.0221C32.5848 15.0221 33.3315 15.7688 33.3315 16.6888V23.3555C33.3315 24.2755 32.5848 25.0221 31.6648 25.0221C30.7448 25.0221 29.9982 24.2755 29.9982 23.3555V16.6888C29.9982 15.7688 30.7448 15.0221 31.6648 15.0221ZM19.9982 30.0221C20.9182 30.0221 21.6649 30.7688 21.6649 31.6888C21.6649 32.6088 20.9182 33.3555 19.9982 33.3555C19.0782 33.3555 18.3315 32.6088 18.3315 31.6888C18.3315 30.7688 19.0782 30.0221 19.9982 30.0221Z" fill="#5C73E5"/>
</g>
</svg>
