<svg width="40" height="40" viewBox="0 0 40 40" fill="none" xmlns="http://www.w3.org/2000/svg">
<g id="journal-bookmark">
<path id="Union" fill-rule="evenodd" clip-rule="evenodd" d="M21.6667 8.23087H13.3305C12.41 8.23087 11.6639 8.97839 11.6639 9.90056V16.5793V23.2581V29.9369C11.6637 30.859 12.41 31.6066 13.3305 31.6066H29.9972C30.9177 31.6066 31.6639 30.859 31.6639 29.9369C31.6639 29.9369 31.6542 28.0917 31.6667 26.6189C31.6684 26.0211 32.1017 24.9397 33.3304 24.9397C34.559 24.9397 35.0065 25.9785 35 26.5975C35.0065 27.622 34.9972 29.9369 34.9972 29.9369C34.997 32.7036 32.7585 34.946 29.9972 34.946H13.3305C11.2175 34.9463 9.21269 33.5137 8.64303 31.6587L6.66386 31.6066C5.74336 31.6066 4.99719 30.859 4.99719 29.9369C4.99703 29.0147 5.74336 28.2672 6.66386 28.2672H8.33053V24.9278H6.66386C5.74336 24.9278 4.99719 24.1803 4.99719 23.2581C4.99703 22.3359 5.74336 21.5884 6.66386 21.5884H8.33053V18.249H6.66386C5.74336 18.249 4.99719 17.5015 4.99719 16.5793C4.99703 15.6572 5.74336 14.9096 6.66386 14.9096H8.33053V11.5703H6.66386C5.74336 11.5703 4.99719 10.8227 4.99719 9.90056C4.99703 8.97839 5.74336 8.23087 6.66386 8.23087L8.59086 8.28296C9.33686 6.23174 11.2175 4.89148 13.3305 4.89148H22.9871C23.0988 4.86788 23.2147 4.85547 23.3334 4.85547H30C32.7644 4.85547 35 7.09956 35 9.86152V19.8797C35 20.4946 34.6615 21.0595 34.1192 21.3495C33.5769 21.6394 32.9191 21.6072 32.4077 21.2657L28.3334 18.5445L24.259 21.2657C23.7477 21.6072 23.0898 21.6394 22.5476 21.3495C22.0053 21.0595 21.6667 20.4946 21.6667 19.8797V8.23087ZM25 8.23087V16.7624L27.4077 15.1543C27.9681 14.7801 28.6987 14.7801 29.259 15.1543L31.6667 16.7624V13.1877H31.6639V9.90056C31.6639 8.97839 30.9177 8.23087 29.9972 8.23087H25Z" fill="#5C73E5"/>
</g>
</svg>
