<svg width="24" height="24" viewBox="0 0 24 24" fill="none" xmlns="http://www.w3.org/2000/svg">
<path d="M11.9978 1.95313C9.2368 1.95313 6.9978 4.19213 6.9978 6.95313V8.95313C5.3408 8.95313 3.9978 10.2961 3.9978 11.9531V18.9531C3.9978 20.6101 5.3408 21.9531 6.9978 21.9531H16.9978C18.6548 21.9531 19.9978 20.6101 19.9978 18.9531V11.9531C19.9978 10.2961 18.6548 8.95313 16.9978 8.95313V6.95313C16.9978 4.19213 14.7588 1.95313 11.9978 1.95313ZM11.9978 3.95313C13.6548 3.95313 14.9978 5.29613 14.9978 6.95313V8.95313H8.9978V6.95313C8.9978 5.29613 10.3408 3.95313 11.9978 3.95313ZM11.9978 11.9531C13.1028 11.9531 13.9978 12.8481 13.9978 13.9531C13.9978 14.6631 13.5548 15.1611 12.9978 15.5151V17.9531C12.9978 18.5051 12.5498 18.9531 11.9978 18.9531C11.4458 18.9531 10.9978 18.5051 10.9978 17.9531V15.5151C10.4408 15.1601 9.9978 14.6631 9.9978 13.9531C9.9978 12.8481 10.8928 11.9531 11.9978 11.9531Z" fill="#FF9500"/>
</svg>
