<svg width="24" height="24" viewBox="0 0 24 24" fill="none" xmlns="http://www.w3.org/2000/svg">
<path d="M11.6228 2.03416C10.7441 2.40916 5.4702 4.66017 4.5916 5.03517C4.2231 5.19217 3.9978 5.54018 3.9978 5.94118C3.9982 10.3212 4.1727 12.2812 4.9666 14.5382C6.0062 17.4932 8.0458 19.8482 11.4978 21.8212C11.8052 21.9972 12.1903 21.9972 12.4978 21.8212C15.9811 19.8302 18.0297 17.4832 19.0603 14.5382C19.8443 12.2972 19.9978 10.4332 19.9978 5.94118C19.9978 5.54218 19.771 5.19317 19.404 5.03517L12.4353 2.03416C12.1839 1.92616 11.8745 1.92616 11.6228 2.03416ZM11.9978 4.00316L17.9942 6.60619C18.0812 13.7812 16.6745 16.9262 12.0071 19.7872C11.9978 17.9532 11.9978 4.95316 11.9978 4.00316Z" fill="#5C73E5"/>
</svg>
