<svg width="24" height="24" viewBox="0 0 24 24" fill="none" xmlns="http://www.w3.org/2000/svg">
<g id="emoji-smile-fill">
<path id="Vector" d="M12.0142 2C6.49136 2 2.01416 6.477 2.01416 12C2.01416 17.523 6.49136 22 12.0142 22C17.537 22 22.0142 17.523 22.0142 12C22.0142 6.477 17.537 2 12.0142 2ZM9.01416 9C9.56646 9 10.0142 9.448 10.0142 10V11C10.0142 11.552 9.56646 12 9.01416 12C8.46186 12 8.01416 11.552 8.01416 11V10C8.01416 9.448 8.46186 9 9.01416 9ZM15.0142 9C15.5665 9 16.0142 9.448 16.0142 10V11C16.0142 11.552 15.5665 12 15.0142 12C14.4619 12 14.0142 11.552 14.0142 11V10C14.0142 9.448 14.4619 9 15.0142 9ZM9.20166 13.844C9.45756 13.844 9.69376 13.93 9.88916 14.125C10.4488 14.684 11.2073 15 12.0142 15C12.8183 15 13.5801 14.681 14.1392 14.125C14.5309 13.736 15.1561 13.733 15.5454 14.125C15.9347 14.517 15.9372 15.142 15.5454 15.531C14.6154 16.456 13.352 17 12.0142 17C10.6718 17 9.41376 16.461 8.48296 15.531C8.09216 15.141 8.09256 14.516 8.48296 14.125C8.67806 13.93 8.94576 13.844 9.20166 13.844Z" fill="#5DCF66"/>
</g>
</svg>
