<svg width="20" height="20" viewBox="0 0 20 20" fill="none" xmlns="http://www.w3.org/2000/svg">
<g id="chat2-text-fill">
<path id="Vector" d="M10.0118 2.49863C5.42991 2.49863 1.67849 5.83279 1.67849 9.99863C1.67849 11.3511 2.08191 12.6611 2.82432 13.8003C2.94299 13.9828 3.04582 14.3953 2.98057 14.7903C2.91307 15.1986 2.70007 15.5978 2.27749 15.832C2.14591 15.9053 1.68232 16.1086 1.67849 16.6653C1.67457 17.222 2.15399 17.4961 2.51182 17.4986C3.35782 17.5053 8.55616 17.4986 10.0118 17.4986C14.5937 17.4986 18.3452 14.1645 18.3452 9.99863C18.3452 5.83279 14.5937 2.49863 10.0118 2.49863ZM6.67849 7.49863H13.3452C13.8054 7.49863 14.1785 7.87196 14.1785 8.33196C14.1785 8.79196 13.8054 9.16529 13.3452 9.16529H6.67849C6.21824 9.16529 5.84516 8.79196 5.84516 8.33196C5.84516 7.87196 6.21824 7.49863 6.67849 7.49863ZM6.67849 10.832H10.8452C11.3054 10.832 11.6785 11.2053 11.6785 11.6653C11.6785 12.1253 11.3054 12.4986 10.8452 12.4986H6.67849C6.21824 12.4986 5.84516 12.1253 5.84516 11.6653C5.84516 11.2053 6.21824 10.832 6.67849 10.832Z" fill="#57545E"/>
</g>
</svg>
