<svg width="24" height="24" viewBox="0 0 14 18" fill="none" xmlns="http://www.w3.org/2000/svg">
<path id="Vector" d="M3.32526 0.665771C1.69943 0.665771 0.356934 1.8991 0.356934 3.45242V14.5457C0.356934 16.0991 1.69943 17.3324 3.32526 17.3324H10.7219C12.3478 17.3324 13.6903 16.0991 13.6903 14.5457C13.6903 14.0016 13.6903 7.99741 13.6903 6.47325C13.6903 3.50409 10.8244 0.665771 7.85693 0.665771C4.34527 0.665771 4.33693 0.665771 3.32526 0.665771ZM8.69027 2.54077C10.1561 2.92993 11.4219 4.17909 11.8153 5.63992C11.2628 5.64825 10.7744 5.67076 10.3569 5.66576C9.1336 5.65076 8.6786 5.41242 8.66443 3.99909C8.66276 3.85326 8.68277 3.19076 8.69027 2.54077ZM5.35693 7.33242C5.5861 7.33242 5.76277 7.43826 5.90361 7.59243C6.17611 7.45909 6.63693 7.33242 7.0236 7.33242C8.40443 7.33242 9.5236 8.45158 9.5236 9.83241C9.5236 11.2132 8.40443 12.3324 7.0236 12.3324C6.69943 12.3324 6.47443 12.2882 6.19027 12.1757V13.9991C6.19027 14.4591 5.81693 14.8324 5.35693 14.8324C4.89693 14.8324 4.5236 14.4591 4.5236 13.9991V9.83241V8.16575C4.5236 7.70575 4.89693 7.33242 5.35693 7.33242ZM7.0236 8.99908C6.5636 8.99908 6.19027 9.37241 6.19027 9.83241C6.19027 10.2924 6.5636 10.6657 7.0236 10.6657C7.4836 10.6657 7.85693 10.2924 7.85693 9.83241C7.85693 9.37241 7.4836 8.99908 7.0236 8.99908Z" fill="#57545E"/>
</svg>
