<svg width="24" height="24" viewBox="0 0 24 24" fill="none" xmlns="http://www.w3.org/2000/svg">
<g id="stars">
<path id="Vector" d="M16.991 3.50269C16.636 3.50269 16.269 3.69669 16.085 4.06519C15.648 4.93789 15.514 5.22499 15.335 5.50269C15.044 5.95269 14.805 6.13209 14.179 6.37769C14.037 6.43319 13.87 6.50149 13.679 6.56519C12.833 6.84689 12.757 8.01048 13.554 8.40888C14.398 8.83098 14.63 8.97018 14.866 9.12769C15.09 9.27668 15.217 9.40418 15.366 9.62768C15.524 9.86388 15.663 10.0962 16.085 10.9407C16.453 11.6777 17.529 11.6777 17.897 10.9407C18.319 10.0962 18.459 9.86398 18.616 9.62768C18.765 9.40418 18.893 9.27668 19.116 9.12769C19.352 8.97018 19.585 8.83088 20.429 8.40888C21.166 8.04038 21.166 6.96499 20.429 6.59649C19.585 6.17439 19.352 6.03519 19.116 5.87769C18.893 5.72869 18.765 5.60119 18.616 5.37769C18.459 5.14149 18.319 4.90919 17.897 4.06519C17.713 3.69669 17.346 3.50269 16.991 3.50269ZM6.99097 5.50269C6.63597 5.50269 6.26898 5.69669 6.08498 6.06519C5.79998 6.63419 5.72597 6.80099 5.61597 6.97149C5.46097 7.21049 5.34597 7.30099 4.99097 7.44019C4.90197 7.47488 4.80097 7.52438 4.67897 7.56519C3.83297 7.84689 3.75697 9.01048 4.55397 9.40888C5.10097 9.68278 5.25598 9.75249 5.39698 9.84649C5.50998 9.92139 5.57198 9.98409 5.64698 10.0965C5.74098 10.2374 5.81098 10.3925 6.08498 10.9407C6.45298 11.6777 7.52898 11.6777 7.89698 10.9407C8.17098 10.3925 8.24098 10.2374 8.33498 10.0965C8.40998 9.98409 8.47198 9.92139 8.58498 9.84649C8.72598 9.75249 8.88097 9.68278 9.42897 9.40888C10.166 9.04038 10.166 7.96499 9.42897 7.59649C8.88097 7.32259 8.72598 7.25288 8.58498 7.15888C8.47198 7.08398 8.40998 7.02128 8.33498 6.90888C8.24098 6.76798 8.17098 6.61289 7.89698 6.06519C7.71298 5.69669 7.34597 5.50269 6.99097 5.50269ZM11.991 11.5027C11.593 11.5027 11.206 11.7347 11.054 12.1907C10.353 14.2917 9.77997 14.8647 7.67897 15.5647C6.76697 15.8687 6.76697 17.1367 7.67897 17.4407C9.77997 18.1407 10.353 18.7137 11.054 20.8147C11.357 21.7267 12.625 21.7267 12.929 20.8147C13.629 18.7137 14.202 18.1407 16.304 17.4407C17.215 17.1367 17.215 15.8687 16.304 15.5647C14.202 14.8647 13.629 14.2917 12.929 12.1907C12.777 11.7347 12.389 11.5027 11.991 11.5027Z" fill="#8652DB"/>
</g>
</svg>
