<svg width="20" height="20" viewBox="0 0 20 20" fill="none" xmlns="http://www.w3.org/2000/svg">
<g id="person-lines-fill">
<path id="Vector" d="M7.09513 2.44141C5.0243 2.44141 3.34513 4.12032 3.34513 6.19141C3.34513 8.26249 5.0243 9.94141 7.09513 9.94141C9.16597 9.94141 10.8451 8.26249 10.8451 6.19141C10.8451 4.12032 9.16597 2.44141 7.09513 2.44141ZM13.3451 5.77474C12.8851 5.77474 12.5118 6.14782 12.5118 6.60807C12.5118 7.06832 12.8851 7.44141 13.3451 7.44141H17.5118C17.9718 7.44141 18.3451 7.06832 18.3451 6.60807C18.3451 6.14782 17.9718 5.77474 17.5118 5.77474H13.3451ZM12.5118 9.10807C12.0518 9.10807 11.6785 9.48116 11.6785 9.94141C11.6785 10.4017 12.0518 10.7747 12.5118 10.7747H17.5118C17.9718 10.7747 18.3451 10.4017 18.3451 9.94141C18.3451 9.48116 17.9718 9.10807 17.5118 9.10807H12.5118ZM4.23013 11.0612C2.7018 11.6919 1.67847 13.2382 1.67847 14.9414V16.6081C1.67847 17.0683 2.0518 17.4414 2.5118 17.4414H11.6785C12.1385 17.4414 12.5118 17.0683 12.5118 16.6081V14.9414C12.5118 13.2782 11.4826 11.7695 9.96014 11.1132C9.74514 11.0209 9.49597 11.0181 9.28263 11.1132C8.54513 11.4437 7.8268 11.6079 7.09513 11.6081C6.36597 11.6081 5.64513 11.4347 4.8818 11.0872C4.6718 10.9917 4.44346 10.9735 4.23013 11.0612ZM15.0118 12.4414C14.5518 12.4414 14.1785 12.8145 14.1785 13.2747C14.1785 13.735 14.5518 14.1081 15.0118 14.1081H17.5118C17.9718 14.1081 18.3451 13.735 18.3451 13.2747C18.3451 12.8145 17.9718 12.4414 17.5118 12.4414H15.0118Z" fill="#8652DB"/>
</g>
</svg>
