<svg xmlns="http://www.w3.org/2000/svg" width="14" height="14" viewBox="0 0 14 14" fill="none">
  <path d="M7.00826 1.16602C3.78663 1.16602 1.17493 3.7776 1.17493 6.99934C1.17493 10.2211 3.78663 12.8327 7.00826 12.8327C10.2299 12.8327 12.8416 10.2211 12.8416 6.99934C12.8416 3.7776 10.2299 1.16602 7.00826 1.16602ZM7.00826 2.33268C9.5856 2.33268 11.6749 4.42218 11.6749 6.99934C11.6749 9.5765 9.5856 11.666 7.00826 11.666C4.43092 11.666 2.34159 9.5765 2.34159 6.99934C2.34159 4.42218 4.43092 2.33268 7.00826 2.33268ZM9.34159 5.24934C9.19232 5.24934 9.03622 5.29951 8.92229 5.41326L6.75305 7.60076C6.60267 7.75126 6.45176 7.72325 6.33381 7.5465L5.75048 6.6715C5.57174 6.40317 5.19824 6.32851 4.93014 6.50701C4.66209 6.68609 4.58737 7.05943 4.76604 7.32718L5.34938 8.20218C5.87578 8.99201 6.90239 9.09233 7.57339 8.4215L9.76089 6.25209C9.98869 6.024 9.98869 5.64135 9.76089 5.41326C9.64697 5.29951 9.49087 5.24934 9.34159 5.24934Z" fill="#52CC5C"/>
</svg>