<svg xmlns="http://www.w3.org/2000/svg" width="104" height="61" viewBox="0 0 104 61" fill="none">
  <path d="M89.76 53.6513L91.77 54.2313C93.62 54.7613 95.04 56.1813 95.57 58.0313L96.14 60.0413C96.23 60.3613 96.76 60.3613 96.85 60.0413L97.42 58.0313C97.95 56.1813 99.37 54.7613 101.22 54.2313L103.23 53.6513C103.39 53.6113 103.5 53.4613 103.5 53.2913C103.5 53.1213 103.39 52.9813 103.23 52.9313L101.22 52.3513C99.37 51.8213 97.95 50.4013 97.42 48.5513L96.85 46.5413C96.8 46.3813 96.66 46.2713 96.5 46.2713C96.34 46.2713 96.19 46.3813 96.15 46.5413L95.58 48.5513C95.05 50.4013 93.63 51.8213 91.78 52.3513L89.77 52.9313C89.61 52.9713 89.5 53.1213 89.5 53.2913C89.5 53.4613 89.61 53.6013 89.77 53.6513L89.76 53.6513Z" fill="white"/>
  <path d="M56.7599 7.38085L58.7699 7.96085C60.6199 8.49084 62.0399 9.91085 62.5699 11.7608L63.1399 13.7708C63.2299 14.0908 63.7599 14.0908 63.8499 13.7708L64.4199 11.7608C64.9499 9.91085 66.3699 8.49084 68.2199 7.96085L70.2299 7.38085C70.3899 7.34085 70.4999 7.19085 70.4999 7.02085C70.4999 6.85085 70.3899 6.71085 70.2299 6.66085L68.2199 6.08085C66.3699 5.55085 64.9499 4.13086 64.4199 2.28086L63.8499 0.270855C63.7999 0.110855 63.6599 0.000850346 63.4999 0.00085036C63.3399 0.000850374 63.1899 0.110855 63.1499 0.270855L62.5799 2.28086C62.0499 4.13086 60.6299 5.55085 58.7799 6.08085L56.7699 6.66085C56.61 6.70085 56.4999 6.85085 56.4999 7.02085C56.4999 7.19085 56.61 7.33085 56.77 7.38085L56.7599 7.38085Z" fill="white"/>
  <path d="M0.759998 7.88085L2.77001 8.46085C4.62001 8.99085 6.04001 10.4108 6.57001 12.2608L7.14 14.2708C7.23 14.5908 7.76001 14.5908 7.85001 14.2708L8.42 12.2608C8.95 10.4108 10.37 8.99085 12.22 8.46085L14.23 7.88085C14.39 7.84085 14.5 7.69085 14.5 7.52085C14.5 7.35085 14.39 7.21085 14.23 7.16085L12.22 6.58085C10.37 6.05085 8.95 4.63086 8.42 2.78086L7.85001 0.770856C7.80001 0.610856 7.66001 0.500851 7.5 0.500851C7.34 0.500851 7.19 0.610856 7.15 0.770856L6.58 2.78086C6.05001 4.63086 4.63 6.05085 2.78 6.58085L0.770007 7.16085C0.610004 7.20085 0.500003 7.35085 0.500003 7.52085C0.500003 7.69085 0.610004 7.83085 0.770007 7.88085L0.759998 7.88085Z" fill="white"/>
  <path fill-rule="evenodd" clip-rule="evenodd" d="M96.85 53.2915L96.0374 53.8743L62.7728 7.32185L7.15 8.05486L6.99665 7.06668L63.2271 6.23939L96.85 53.2915Z" fill="white"/>
</svg>