<svg xmlns="http://www.w3.org/2000/svg" width="121" height="86" viewBox="0 0 121 86" fill="none">
  <path d="M13.74 6.63L11.73 6.05C9.88 5.52 8.46 4.1 7.93 2.25L7.36 0.24C7.27 -0.08 6.74 -0.08 6.65 0.24L6.08 2.25C5.55 4.1 4.13 5.52 2.28 6.05L0.27 6.63C0.11 6.67 0 6.82 0 6.99C0 7.16 0.11 7.3 0.27 7.35L2.28 7.93C4.13 8.46 5.55 9.88 6.08 11.73L6.65 13.74C6.7 13.9 6.84 14.01 7 14.01C7.16 14.01 7.31 13.9 7.35 13.74L7.92 11.73C8.45 9.88 9.87 8.46 11.72 7.93L13.73 7.35C13.89 7.31 14 7.16 14 6.99C14 6.82 13.89 6.68 13.73 6.63H13.74Z" fill="white"/>
  <path d="M65.74 78.63L63.73 78.05C61.88 77.52 60.46 76.1 59.93 74.25L59.36 72.24C59.27 71.92 58.74 71.92 58.65 72.24L58.08 74.25C57.55 76.1 56.13 77.52 54.28 78.05L52.27 78.63C52.11 78.67 52 78.82 52 78.99C52 79.16 52.11 79.3 52.27 79.35L54.28 79.93C56.13 80.46 57.55 81.88 58.08 83.73L58.65 85.74C58.7 85.9 58.84 86.01 59 86.01C59.16 86.01 59.31 85.9 59.35 85.74L59.92 83.73C60.45 81.88 61.87 80.46 63.72 79.93L65.73 79.35C65.89 79.31 66 79.16 66 78.99C66 78.82 65.89 78.68 65.73 78.63H65.74Z" fill="white"/>
  <path d="M120.74 71.01L118.73 70.43C116.88 69.9 115.46 68.48 114.93 66.63L114.36 64.62C114.27 64.3 113.74 64.3 113.65 64.62L113.08 66.63C112.55 68.48 111.13 69.9 109.28 70.43L107.27 71.01C107.11 71.05 107 71.2 107 71.37C107 71.54 107.11 71.68 107.27 71.73L109.28 72.31C111.13 72.84 112.55 74.26 113.08 76.11L113.65 78.12C113.7 78.28 113.84 78.39 114 78.39C114.16 78.39 114.31 78.28 114.35 78.12L114.92 76.11C115.45 74.26 116.87 72.84 118.72 72.31L120.73 71.73C120.89 71.69 121 71.54 121 71.37C121 71.2 120.89 71.06 120.73 71.01H120.74Z" fill="white"/>
  <path fill-rule="evenodd" clip-rule="evenodd" d="M6.59369 7.29142L7.40628 6.70859L59.2271 78.9588L113.65 71.01L113.803 71.9982L58.7729 80.0412L6.59369 7.29142Z" fill="white"/>
</svg>