<svg xmlns="http://www.w3.org/2000/svg" width="182" height="86" viewBox="0 0 182 86" fill="none">
  <path d="M13.74 6.63L11.73 6.05C9.88 5.52 8.46 4.1 7.93 2.25L7.36 0.24C7.27 -0.08 6.74 -0.08 6.65 0.24L6.08 2.25C5.55 4.1 4.13 5.52 2.28 6.05L0.27 6.63C0.11 6.67 0 6.82 0 6.99C0 7.16 0.11 7.3 0.27 7.35L2.28 7.93C4.13 8.46 5.55 9.88 6.08 11.73L6.65 13.74C6.7 13.9 6.84 14.01 7 14.01C7.16 14.01 7.31 13.9 7.35 13.74L7.92 11.73C8.45 9.88 9.87 8.46 11.72 7.93L13.73 7.35C13.89 7.31 14 7.16 14 6.99C14 6.82 13.89 6.68 13.73 6.63H13.74Z" fill="white"/>
  <path d="M65.74 78.63L63.73 78.05C61.88 77.52 60.46 76.1 59.93 74.25L59.36 72.24C59.27 71.92 58.74 71.92 58.65 72.24L58.08 74.25C57.55 76.1 56.13 77.52 54.28 78.05L52.27 78.63C52.11 78.67 52 78.82 52 78.99C52 79.16 52.11 79.3 52.27 79.35L54.28 79.93C56.13 80.46 57.55 81.88 58.08 83.73L58.65 85.74C58.7 85.9 58.84 86.01 59 86.01C59.16 86.01 59.31 85.9 59.35 85.74L59.92 83.73C60.45 81.88 61.87 80.46 63.72 79.93L65.73 79.35C65.89 79.31 66 79.16 66 78.99C66 78.82 65.89 78.68 65.73 78.63H65.74Z" fill="white"/>
  <path d="M181.74 60.63L179.73 60.05C177.88 59.52 176.46 58.1 175.93 56.25L175.36 54.24C175.27 53.92 174.74 53.92 174.65 54.24L174.08 56.25C173.55 58.1 172.13 59.52 170.28 60.05L168.27 60.63C168.11 60.67 168 60.82 168 60.99C168 61.16 168.11 61.3 168.27 61.35L170.28 61.93C172.13 62.46 173.55 63.88 174.08 65.73L174.65 67.74C174.7 67.9 174.84 68.01 175 68.01C175.16 68.01 175.31 67.9 175.35 67.74L175.92 65.73C176.45 63.88 177.87 62.46 179.72 61.93L181.73 61.35C181.89 61.31 182 61.16 182 60.99C182 60.82 181.89 60.68 181.73 60.63H181.74Z" fill="white"/>
  <path fill-rule="evenodd" clip-rule="evenodd" d="M6.59369 7.29142L7.40628 6.70859L59.2271 78.9588L174.923 61.0059L175.077 61.9941L58.7729 80.0412L6.59369 7.29142Z" fill="white"/>
</svg>