<svg xmlns="http://www.w3.org/2000/svg" width="25" height="24" viewBox="0 0 25 24" fill="none">
  <path d="M17.491 2.92969C17.136 2.92969 16.769 3.12369 16.585 3.49219C16.148 4.36489 16.014 4.65199 15.835 4.92969C15.544 5.37969 15.305 5.55909 14.679 5.80469C14.537 5.86019 14.37 5.92849 14.179 5.99219C13.333 6.27389 13.257 7.43748 14.054 7.83588C14.898 8.25798 15.13 8.39719 15.366 8.55469C15.59 8.70369 15.717 8.83119 15.866 9.05469C16.024 9.29089 16.163 9.52319 16.585 10.3677C16.953 11.1047 18.029 11.1047 18.397 10.3677C18.819 9.52319 18.959 9.29099 19.116 9.05469C19.265 8.83119 19.393 8.70369 19.616 8.55469C19.852 8.39719 20.085 8.25788 20.929 7.83588C21.666 7.46738 21.666 6.39199 20.929 6.02349C20.085 5.60139 19.852 5.46219 19.616 5.30469C19.393 5.15569 19.265 5.02819 19.116 4.80469C18.959 4.56849 18.819 4.33619 18.397 3.49219C18.213 3.12369 17.846 2.92969 17.491 2.92969ZM7.49097 4.92969C7.13597 4.92969 6.76898 5.12369 6.58498 5.49219C6.29998 6.06119 6.22597 6.22799 6.11597 6.39849C5.96097 6.63749 5.84597 6.72799 5.49097 6.86719C5.40197 6.90189 5.30097 6.95139 5.17897 6.99219C4.33297 7.27389 4.25697 8.43748 5.05397 8.83588C5.60097 9.10978 5.75598 9.17949 5.89698 9.27349C6.00998 9.34839 6.07198 9.41109 6.14698 9.52349C6.24098 9.66439 6.31098 9.81949 6.58498 10.3677C6.95298 11.1047 8.02898 11.1047 8.39698 10.3677C8.67098 9.81949 8.74098 9.66439 8.83498 9.52349C8.90998 9.41109 8.97198 9.34839 9.08498 9.27349C9.22598 9.17949 9.38097 9.10978 9.92897 8.83588C10.666 8.46738 10.666 7.39199 9.92897 7.02349C9.38097 6.74959 9.22598 6.67988 9.08498 6.58588C8.97198 6.51098 8.90998 6.44828 8.83498 6.33588C8.74098 6.19498 8.67098 6.03989 8.39698 5.49219C8.21298 5.12369 7.84597 4.92969 7.49097 4.92969ZM12.491 10.9297C12.093 10.9297 11.706 11.1617 11.554 11.6177C10.853 13.7187 10.28 14.2917 8.17897 14.9917C7.26697 15.2957 7.26697 16.5637 8.17897 16.8677C10.28 17.5677 10.853 18.1407 11.554 20.2417C11.857 21.1537 13.125 21.1537 13.429 20.2417C14.129 18.1407 14.702 17.5677 16.804 16.8677C17.715 16.5637 17.715 15.2957 16.804 14.9917C14.702 14.2917 14.129 13.7187 13.429 11.6177C13.277 11.1617 12.889 10.9297 12.491 10.9297Z" fill="white"/>
</svg>