<svg width="21" height="21" viewBox="0 0 21 21" fill="none" xmlns="http://www.w3.org/2000/svg">
<path id="Vector" d="M17.0887 0.953125C16.3361 0.953125 15.5693 1.25413 14.995 1.82813L10.9013 5.92213C10.0147 6.80813 9.75485 8.13414 10.2917 9.25914L5.58875 13.9531H4.02625C3.71155 13.9531 3.40265 14.1072 3.21375 14.3592L0.213753 18.3592C-0.0847474 18.7572 -0.0443479 19.3202 0.307552 19.6721C0.432552 19.7971 1.18255 20.5472 1.30755 20.6722C1.65945 21.0242 2.22195 21.0642 2.62005 20.7652L6.62005 17.7652C6.87185 17.5772 7.02625 17.2682 7.02625 16.9532L7.00905 15.3672L11.7194 10.6651C12.6961 11.1931 14.1089 11.0101 15.0575 10.0781L19.1512 5.98414C20.2998 4.83614 20.2998 2.97713 19.1512 1.82813C18.577 1.25413 17.8414 0.953125 17.0887 0.953125ZM17.0887 2.95313C17.3296 2.95313 17.5612 3.05013 17.745 3.23413C18.1125 3.60214 18.1125 4.17912 17.745 4.54713L13.62 8.67213C13.2526 9.03913 12.6548 9.04114 12.2873 8.67314C11.9197 8.30614 11.9197 7.72813 12.2873 7.36112L16.4123 3.23612C16.596 3.05212 16.8479 2.95313 17.0887 2.95313Z" fill="#F4691A"/>
</svg>
