<svg width="20" height="14" viewBox="0 0 20 14" fill="none" xmlns="http://www.w3.org/2000/svg">
<path id="Vector" d="M0.910914 0.895096C0.658914 0.940296 0.432923 1.028 0.254923 1.2388C-0.101077 1.6605 -0.109077 2.229 0.379923 2.7076C1.38092 3.6877 2.46391 3.8951 3.28591 3.8951C3.97691 3.8951 4.82492 3.7081 5.50492 3.2388C5.71292 3.0951 6.08492 2.8992 6.50492 2.8951C6.93992 2.8908 7.43191 2.9625 7.72391 3.1763C8.34291 3.6303 9.17791 3.8927 9.97391 3.8951C10.8339 3.8976 11.6949 3.6477 12.2239 3.2388C12.5819 2.9618 13.0389 2.8951 13.4739 2.8951C13.9079 2.8951 14.1259 2.9759 14.6609 3.3013C15.3109 3.6965 16.0009 3.8993 16.7549 3.8951C18.0379 3.8878 18.8729 3.4458 19.7239 2.5826C20.1109 2.1895 20.0929 1.5867 19.6919 1.2076C19.2909 0.828496 18.6969 0.775997 18.3169 1.1763C18.2649 1.2318 18.0219 1.4409 18.0049 1.4576C17.7089 1.7468 17.2079 1.9022 16.7549 1.8951C16.3399 1.8885 15.9759 1.7707 15.6919 1.5826C14.8529 1.0253 14.1469 0.894996 13.2859 0.895096C12.7069 0.895096 11.8369 1.0826 11.2549 1.4888C10.5189 2.0025 9.54291 1.9893 8.91091 1.5513C8.20091 1.0593 7.34292 0.865596 6.50492 0.895096C5.63692 0.925596 4.96192 1.185 4.34892 1.6138C3.82192 1.9818 2.76992 1.9889 2.19192 1.5826L1.62992 1.1451C1.34392 0.945096 1.18191 0.846396 0.910914 0.895096ZM0.910914 5.89509C0.658914 5.94029 0.432923 6.02789 0.254923 6.2388C-0.101077 6.66049 -0.0780859 7.22899 0.410914 7.70759C1.41291 8.68769 2.46391 8.89509 3.28591 8.89509C3.97691 8.89509 4.82492 8.70809 5.50492 8.23879C5.71292 8.09509 6.08492 7.89909 6.50492 7.89509C6.93992 7.89079 7.43191 7.96249 7.72391 8.17629C8.34291 8.63029 9.17791 8.89269 9.97391 8.89509C10.8339 8.89759 11.6949 8.64769 12.2239 8.23879C12.5819 7.96179 13.0389 7.89509 13.4739 7.89509C13.9079 7.89509 14.1259 7.97589 14.6609 8.30129C15.3109 8.69649 16.0009 8.89929 16.7549 8.89509C18.0379 8.88779 18.8729 8.44579 19.7239 7.58259C20.1109 7.18949 20.0929 6.5554 19.6919 6.1763C19.2909 5.7972 18.6969 5.776 18.3169 6.1763C18.2649 6.2318 18.0219 6.44089 18.0049 6.45759C17.7089 6.74679 17.2079 6.90219 16.7549 6.89509C16.3399 6.88849 15.9759 6.77069 15.6919 6.58259C14.8529 6.02529 14.1469 5.89509 13.2859 5.89509C12.7069 5.89509 11.8369 6.0826 11.2549 6.48879C10.5189 7.00249 9.54291 6.9893 8.91091 6.55129C8.20091 6.0593 7.34292 5.86559 6.50492 5.89509C5.63692 5.92559 4.96192 6.185 4.34892 6.61379C3.82192 6.98179 2.76992 6.98889 2.19192 6.58259L1.62992 6.1138C1.34392 5.9139 1.18191 5.8464 0.910914 5.89509ZM0.910914 10.8951C0.658914 10.9403 0.432923 11.0279 0.254923 11.2388C-0.101077 11.6605 -0.0780859 12.229 0.410914 12.7076C1.41291 13.6877 2.46391 13.8951 3.28591 13.8951C3.97691 13.8951 4.82492 13.7081 5.50492 13.2388C5.71292 13.0951 6.08492 12.8992 6.50492 12.8951C6.93992 12.8908 7.43191 12.9625 7.72391 13.1763C8.34291 13.6303 9.17791 13.8927 9.97391 13.8951C10.8339 13.8976 11.6949 13.6477 12.2239 13.2388C12.5819 12.9618 13.0389 12.8951 13.4739 12.8951C13.9079 12.8951 14.1259 12.9759 14.6609 13.3013C15.3109 13.6965 16.0009 13.8993 16.7549 13.8951C18.0379 13.8878 18.8729 13.4458 19.7239 12.5826C20.1109 12.1895 20.0929 11.5866 19.6919 11.2076C19.2909 10.8285 18.6969 10.776 18.3169 11.1763C18.2649 11.2318 18.0219 11.4409 18.0049 11.4576C17.7089 11.7468 17.2079 11.9022 16.7549 11.8951C16.3399 11.8885 15.9759 11.7707 15.6919 11.5826C14.8529 11.0253 14.1469 10.8951 13.2859 10.8951C12.7069 10.8951 11.8369 11.0826 11.2549 11.4888C10.5189 12.0025 9.54291 11.9893 8.91091 11.5513C8.20091 11.0593 7.34292 10.8656 6.50492 10.8951C5.63692 10.9256 4.96192 11.185 4.34892 11.6138C3.82192 11.9818 2.76992 11.9889 2.19192 11.5826L1.62992 11.1451C1.34392 10.9451 1.18191 10.8464 0.910914 10.8951Z" fill="#14D5C9"/>
</svg>
