<svg width="19" height="20" viewBox="0 0 19 20" fill="none" xmlns="http://www.w3.org/2000/svg">
<path id="Vector" d="M13.5527 0.442831C12.7467 0.417831 11.8757 0.721804 11.2327 1.3658L10.1147 2.49984C7.96872 2.37784 6.16072 2.93583 4.74072 3.94283C3.95372 4.50183 3.42473 5.05781 3.14673 5.47481C3.08373 5.56981 3.04973 5.67582 3.02173 5.78682L-0.00927734 18.0368L6.99073 11.0368C6.99073 10.0368 6.99073 10.1938 6.99073 10.0368C6.99073 8.93181 7.88573 8.03682 8.99073 8.03682C10.0957 8.03682 10.9907 8.93181 10.9907 10.0368C10.9907 11.1418 10.0957 12.0368 8.99073 12.0368C8.83373 12.0368 7.99073 12.0368 7.99073 12.0368L0.990723 19.0368L13.2407 16.0058C13.3517 15.9778 13.4577 15.9448 13.5527 15.8808C13.9677 15.6038 14.5267 15.0728 15.0847 14.2868C16.0937 12.8648 16.6727 11.0878 16.5197 8.91883L17.6827 7.76979C18.9707 6.48179 18.7787 4.41081 17.6977 3.32881L15.7097 1.33382C15.1697 0.792821 14.3597 0.467831 13.5527 0.442831ZM13.5217 2.44283C13.8187 2.45283 14.1157 2.58184 14.2937 2.75984L16.2507 4.7068C16.6067 5.0628 16.7527 5.8498 16.3147 6.28779L15.4907 7.13081C14.4007 6.03981 12.8837 4.52485 11.8987 3.54085L12.7207 2.72383C12.9387 2.50583 13.2257 2.43383 13.5217 2.44283Z" fill="#52BA69"/>
</svg>
