<svg width="20" height="18" viewBox="0 0 20 18" fill="none" xmlns="http://www.w3.org/2000/svg">
<path id="Vector" d="M5.49903 -0.00195312C2.46142 -0.00195312 -0.000976562 2.46105 -0.000976562 5.49806C-0.000976562 8.68207 1.81252 11.6871 4.81153 14.4361C5.83513 15.3741 6.93722 16.1971 8.03002 16.9361C8.41302 17.1951 8.77203 17.4281 9.09303 17.6231C9.28903 17.7421 9.41803 17.8281 9.49903 17.8731C9.80103 18.0411 10.197 18.0411 10.499 17.8731C10.58 17.8281 10.709 17.7421 10.905 17.6231C11.226 17.4281 11.585 17.1951 11.968 16.9361C13.061 16.1971 14.163 15.3741 15.187 14.4361C18.185 11.6871 19.999 8.68207 19.999 5.49806C19.999 2.46105 17.537 -0.00195312 14.499 -0.00195312C12.774 -0.00195312 11.058 0.627025 9.99903 1.99903C8.96603 0.602025 7.31893 -0.00195312 5.49903 -0.00195312ZM11.298 3.48005C12.026 2.56405 13.372 1.99805 14.499 1.99805C16.432 1.99805 17.999 3.56505 17.999 5.49806C17.999 8.00206 16.438 10.5281 13.811 12.9361C12.866 13.8021 11.859 14.5921 10.843 15.2791C10.536 15.4871 10.261 15.6491 9.99903 15.8111C9.99903 15.1011 9.99903 9.42707 9.99903 6.99806C9.99903 4.99806 10.909 3.96905 11.298 3.48005Z" fill="#DA77B2"/>
</svg>
