<svg width="21" height="18" viewBox="0 0 21 18" fill="none" xmlns="http://www.w3.org/2000/svg">
<path id="Vector" d="M5.00418 -0.00927734C3.24978 -0.00827734 2.01378 1.21772 2.00418 2.99072V3.99072C1.73518 3.99072 1.13168 3.99072 1.00418 3.99072C0.411985 3.99072 -0.0556153 4.49572 0.00418471 5.08472C0.118485 6.21172 0.796085 12.9887 0.910385 14.1157C0.996585 14.8797 1.20498 15.4117 1.56668 16.0217C2.28158 17.2287 3.57498 17.9907 5.00418 17.9907H15.0042C16.0627 17.9907 17.0435 17.5907 17.7854 16.8657C18.5116 16.1557 18.8007 15.5467 19.0667 14.1787L20.0042 8.14673C20.097 7.54173 19.6168 6.99072 19.0042 6.99072C18.7542 6.99072 18.1986 6.99072 18.0042 6.99072C18.0042 6.53272 18.0039 6.08373 18.0042 6.02173C18.0115 4.27973 16.7261 2.99672 15.0042 2.99072C14.1568 2.98772 13.9304 2.80273 13.3479 1.92873C12.4323 0.553726 11.6585 -0.00927734 10.0042 -0.00927734H5.00418ZM5.00418 1.99072H10.0042C10.8492 1.99072 11.0776 2.17872 11.6604 3.05272C12.5745 4.42472 13.3513 4.98472 15.0042 4.99072C15.6272 4.99272 16.0068 5.39173 16.0042 6.02173C16.0039 6.08573 16.003 6.52672 16.0042 6.99072C15.2542 6.99072 15.2542 6.99072 13.0042 6.99072C12.1589 6.99072 11.9315 6.80373 11.3479 5.92873C10.4315 4.55373 9.65888 3.99072 8.00418 3.99072C7.31938 3.99072 5.67038 3.99072 4.00418 3.99072V2.99072C4.00778 2.32672 4.34658 1.99072 5.00418 1.99072Z" fill="#3E90F0"/>
</svg>
